<?xml version="1.0" encoding="utf-8"?>
<!-- Generator: Adobe Illustrator 25.2.0, SVG Export Plug-In . SVG Version: 6.00 Build 0)  -->
<svg version="1.1" id="Layer_1" xmlns="http://www.w3.org/2000/svg" xmlns:xlink="http://www.w3.org/1999/xlink" x="0px" y="0px"
	 viewBox="0 0 551.4 372.9" style="enable-background:new 0 0 551.4 372.9;" xml:space="preserve">
<g id="Base_Behind">
	<g id="baseBehind">
		<g>
			<g>
				<path style="fill:#BDB8BC;" d="M321,261c0,15.9,0,29,0,34.4h2.5C322.1,291.4,321,261,321,261z"/>
				<path style="fill:#6B5651;" d="M343.7,289.2c-2.2-8.3-2-28.2-2-28.2H321c0,0,1.1,30.4,2.5,34.4c0.2,0.5,0.4,0.6,0.6,0
					c0.3-0.8,0.6-2.6,0.8-5.9h18.7l0.3-0.3H343.7z"/>
			</g>
			<g>
				<path style="fill:#433E3B;" d="M102.4,295.4h5.5c3.7-10.3,4.4-34.4,4.4-34.4H92.5c0,16.9-7.4,28.3-7.4,28.3h14.8
					C100.7,291.4,101.5,293.6,102.4,295.4z"/>
				<path style="fill:#ABA09E;" d="M111,295.4c1.5-10.4,1.3-34.4,1.3-34.4s-0.6,24.1-4.4,34.4H111z"/>
			</g>
		</g>
	</g>
</g>
<g id="Cork">
	<g id="cork">
		<g>
			<path style="fill:#BA9761;" d="M548,119.4l-8.7-1.5l0,0H501c0,0-3.9,1.4-3.9,29.3c0,28,2.6,29.3,3.9,29.3h38.3l8.7-0.9
				C549.6,158.3,548.4,128,548,119.4z"/>
			<path style="fill:#C34246;" d="M548,119.4c0.4,8.6,1.6,39.3,0,56.6c3.5-8.3,3.4-28.4,3.4-28.4S551.5,127.8,548,119.4z"/>
		</g>
	</g>
</g>
<g id="Bottl">
	<g id="bottle">
		<g>
			<g>
				<path style="opacity:0.5;fill:#DCDCDC;enable-background:new    ;" d="M548,119.4c-0.2-0.5-0.5-1-0.7-1.5c0,0,0,0,0-0.1
					c0,0-1.8-9.1-7.3-9.1c-1.3,0-2,1.3-2.3,2.4l0,0c-0.2,0.7-0.3,1.3-0.3,1.3h-57c0,0-3.5,0.1-6.6-9s-25.4-80.2-48.6-95
					C411.7-0.2,393.6,0,388,0S31.7,0,31.7,0s-8.5-0.7-14.5,5.4l0,0c-1.9,1.9-3.5,4.5-4.5,8C8.4,28.1,0,54.8,0,147.7
					c0,89.1,7.8,117.4,12.1,132.4l0,0c0.2,0.6,0.4,1.2,0.5,1.8c4.2,14.6,19,13.4,19,13.4s249.3,0,330.9,0l0,0c15.2,0,24.5,0,25.4,0
					c2.2,0,6.3,0,11.3-0.5c7.8-0.7,17.7-2.7,26-8c19-12.1,37.4-61.9,45.1-84.6l0,0l0,0c1.7-5,2.9-8.7,3.5-10.4c3-9.1,6.6-9,6.6-9h57
					c0,0,0,0.4,0.2,1c0.1-0.4,0.2-0.7,0.3-1.1c-0.1,0.4-0.2,0.7-0.3,1.1c0.3,1.1,0.9,2.8,2.4,2.8c5.5,0,7.3-9.1,7.3-9.1
					c0.2-0.3,0.3-0.6,0.5-0.9c0.1-0.2,0.2-0.4,0.3-0.6C549.6,158.8,548.4,128,548,119.4z"/>
				<path style="opacity:0.9;fill:#B1B8B0;enable-background:new    ;" d="M538.1,182.1c-0.2,0.6-0.3,1.2-0.5,1.8
					c0.3,1.1,0.9,2.8,2.4,2.8c5.5,0,7.3-9.1,7.3-9.1c0.2-0.3,0.3-0.6,0.5-0.9c0.1-0.2,0.2-0.4,0.3-0.6c0-0.1,0-0.3,0-0.4l-8.7,0.9
					C539,178.4,538.6,180.3,538.1,182.1z"/>
				<path style="opacity:0.9;fill:#B1B8B0;enable-background:new    ;" d="M548,119.4c-0.2-0.5-0.5-1-0.7-1.5c0,0,0,0,0-0.1
					c0,0-1.8-9.1-7.3-9.1c-1.3,0-2,1.3-2.3,2.4l0.4,0.6c0,0,0.6,2.3,1.3,6.2l0,0l0,0L548,119.4z"/>
			</g>
			<g style="opacity:0.75;">
				<path style="fill:#4F5C4B;" d="M37.2,289.6c0,0-23.2-4.9-23.2-146.1S36.4,0.4,36.4,0.4s-8.6-2.2-19.2,3.8
					c-1.9,1.9-3.5,4.5-4.5,8C8.4,26.8,0,53.6,0,146.5c0,89.1,7.8,117.4,12.1,132.4c0.7,1,1.3,2.1,1.9,3.1
					C20.6,293.6,37.2,289.6,37.2,289.6z"/>
				<path style="opacity:0.9;fill:#B1B8B0;enable-background:new    ;" d="M467.1,148c-0.5,3.3-3-1.9-6.4-0.7
					c-3.3,1.2-5.9,21.1-7.1,45.2c-1.2,24.2-9.4,55.6-12.9,65S424,277.9,417.9,281c0,0-3,0.9-8.4,3.9c-3.1,1.7-7.2,5.7-10.2,8.8
					c7.8-0.7,17.7-2.7,26-8c19-12.1,37.4-61.9,45.1-84.6c0-18.8,0-49.8,0-55.4C470.4,137.6,467.6,144.7,467.1,148z"/>
				<path style="opacity:0.9;fill:#F8F8F6;enable-background:new    ;" d="M437.3,26.4C426,13.7,416.5,3.5,395.1,3.9
					s-40.1-2.8-56.3,0c-16.2,2.8-29.6-1-46.4-1.2c-16.9-0.2-35.9,1.2-48.9,3.7S226.6,7.1,208,5.7S158.4,4.6,132.7,5S95,4.6,78.9,4.3
					C62.7,3.9,46.9,3.9,42,3.9c-3.2,0,10.2,12.7,16.5,12.3s94.7-3.9,115.1-2.5s12,2.5,39.1,2.5s28.9-2.8,60.2-2.5
					c31.3,0.4,35.2,4.9,61.9,2.5c26.7-2.5,74.6-4.6,84.5,7s3.2,20.1,11.3,25.3c8.1,5.3,16.5,1.4,19.4,11.3
					c2.8,9.9,5.3,59.1,5.6,64.4c0.4,5.3,3.2-24.9,6-18.1s3.5,32.1,4.9,28.3s1.1-40.7,0-50.3S448.6,39.1,437.3,26.4z"/>
				<path style="opacity:0.9;fill:#878785;enable-background:new    ;" d="M34.2,6.2c6.8,15.5,5.4,47.2,5.4,47.2L45,68.8
					c0,0-2.1-9.7-3.7-34.6S34.2,6.2,34.2,6.2z"/>
				<path style="fill:#707066;" d="M29.3,182.7c0-2.8,6.5,6.3,6.5,6.3s-6.3-63.7-6.6-83.3c-0.7,17.1-2.8,72.6,1.1,96.9
					c0.5,3,1.1,5.5,1.8,7.5c0,0,2.1-2.1,3.1-5.8c0.2-0.7,0.4-1.6,0.4-2.4c0.5-5.2,0-7.3,0-7.3S29.3,185.5,29.3,182.7z"/>
				<path style="opacity:0.9;fill:#A0A09E;enable-background:new    ;" d="M48.8,207.2c-3.4,35-12.2,44.6-14.3,46.5
					c13.6-10.4,2.8,23.4,2.8,23.4c4.1-10.2,6.8-21.7,8.6-32.4l0,0c0.1-5.6-1.2-3-1.2-3s1.3-2.7,1.2,3l0,0
					c2.7-16.6,3.2-31.4,3.2-37.5C48.9,207.2,48.8,207.2,48.8,207.2z"/>
				<path style="fill:#3B2925;" d="M366.2,286.3c-10.2,0.4-7.9,0-21.8,1.1s-22.5-1.3-32.5-1.3s-13.4,1.2-36.2,1.3
					c-22.9,0.1-10.7-1.5-20.6-2.4s-14.4,2.1-27.3,2.4c-12.8,0.2-23.9-1.3-37.8-2.2c-13.9-0.9-31.3,2.1-37.5,1.1s-20.1,2.8-34.7,0.1
					c-14.6-2.7-32.2-0.1-34.1,0s-20.6,0.2-26,0c-5.5-0.2-3.7,0.5-8.6,0.9s-11.8-0.9-11.8-0.9s4.8,3.2,14.6,3.8
					c9.9,0.6,39.1,0.6,61.4,0s16.2,0.1,31.3-0.6c15.1-0.6,39.4,0.8,65.8,0s33.8,0.3,47.2,0c13.4-0.4,52.6,0.2,59.6,0s31.1,0,36.6,0
					c4.5,0,9.4-1.1,18.5-1.1c3.2-0.9,7.2-1.8,12.3-2.4C379.2,286.1,373.8,286,366.2,286.3z"/>
			</g>
		</g>
		<path style="opacity:0.9;fill:#B1B8B0;enable-background:new    ;" d="M548,119.4l-8.7-1.5l0,0c1.9,10.9,4.9,34.5,0,58.6l8.7-0.9
			C549.6,158.3,548.4,128,548,119.4z"/>
	</g>
</g>
<g id="Ship">
	<g id="ship">
		<g>
			<path style="fill:#938B78;" d="M193.2,111.9c-6-3.6-67.1-49.4-67.1-49.4l-7.6-6.9c0,0,19.5,33.9,23.9,47.7
				C142.5,103.3,181.8,107.3,193.2,111.9z"/>
			<path style="fill:#D0C3B0;" d="M271.1,196.1c-1.2,0-2.1,0-2.7,0c-0.3,0-0.5,0-0.6,0c-1.8,0.1-0.7,0.1-4.4,1.3
				c-3.7,1.2-24.2-0.4-25.3-0.8c-0.3,0-2.2,0.2-3.2,0.2c1,2.5,2.6,5.7,4.2,5.9c2.7,0.4,14.9,0,14.9,0v1.4c0,0,8.7,0.2,12.4-3
				s2.6-3.7,3.5-3.8c0.1,0,1.5-0.1,3.7-0.1V196C272.6,196.1,271.8,196.1,271.1,196.1z"/>
			<path style="fill:#8A6644;" d="M298.6,196l-0.1-4.8l-0.3-6.9c-1.6-7.3-3-23-3-23s1.3-2.6,1.1-0.8c-0.2,1.8,2.7,8.4,3.4,8
				c0.7-0.5-1.3-11.5-1.6-13.3s-3.2,2.7-3.2,2.7s-0.3-6.5-0.3-7.3s1.5-1.9,1.5-1.9s-1.4-0.4-1.8-1.2s-2.4-40.1-2.4-40.1
				s1.1-1.2,1.1-0.1s0.8,4.7,1.8,5.4c1,0.7,0.3-3.1,0.4-5.5c0.2-2.4-0.7-4-1.5-4.5s-2.5,0-2.5,0l0.1-4.7c1.6-0.1,2.9-2.8,3.1-3.3
				c0.2-0.4-4.1-0.9-4.1-0.9s0-3.3,0.1-4.6c0.1-1.3,1.1-1.8,1.1-2.1s-1.4-0.7-1.4-0.7s0.2-0.9,0.3-2.6c0.1-1.8,0.5-5.5,0.5-5.5
				s-1.1,2-1.7,2.5s-1.3-21.8-1.6-23.5c-0.3-1.7,0.3-2.4,1.7-2.4s0.4-2.5,0.2-3.4c-0.2-1-2.1,0.8-2.5,0.4
				c-0.4-0.4-1.6-18.5-1.8-18.9c-0.2-0.4-1-1-1.2-0.4c-0.3,0.6,3,54.4,3,54.4l-0.9-0.1l-0.6,1.6l1.5,0.2l-0.1,5.9h-11.2
				c0,0-1.5,0.6-2.2,0.9c-0.7,0.4,0.3,2.1,0.4,2.1s1.4-1,1.4-1l8.6,0.1v1.8l2.1,0.1v-2h1.5c0.1,0.9,3.2,50.9,3.2,50.9l-2.2,0.3
				l-0.1-1l0.5,0.1v-2.2l-1.8,0.6l0.4,5.2h3.3c0.8,5.3,2,41.1,2,41.1v4.6C294.8,196.1,296.8,196,298.6,196z"/>
			<path style="fill:#CEC9AB;" d="M302.7,195.8c0.3,0,0.7,0,1-0.1h0.1c0,0,0,0,0.1,0c11.7-0.9,23.7-2.2,31.2-4.1c0,0,0-2.3,0-2.9
				c0-0.6-8.3,0-8.3,0v-4.1c0,0-1.1,0.1-1.5,0.6c-0.5,0.5-1.3,4.6-1.3,4.6c-1.4,0.1-25.4,1.5-25.4,1.5l0.1,4.8
				C300.1,195.9,301.5,195.8,302.7,195.8z"/>
			<path style="fill:#71523E;" d="M263.3,197.4c3.7-1.2,2.6-1.2,4.4-1.3c0.1,0,0.3,0,0.6,0v-3.4h2.7v3.4c0.7,0,1.5,0,2.4,0v-3.5h3.3
				v3.5c0.7,0,1.4,0,2.2,0v-3.5h4.2v3.5c0.7,0,1.4,0,2.2,0v-3.5h3.5v3.5c1.3,0,2.6,0,3.8,0v-4.6H269c0,0,0.4-1.5,0-2.1
				s-1.9,1.7-4.2,2.7c-2.3,1.1-23.3-0.5-23.3-0.5v-6.7h-1.6v6.4c0,0-3.4-0.2-4-0.3s2.4,5.5,2.1,5.5
				C239.1,196.9,259.6,198.6,263.3,197.4z"/>
			<path style="fill:#B8B2A4;" d="M121.9,164.8c-0.1-1.6-0.2-3-0.2-4.1c0-6.3-3.4-15.8-3.7-20.9c-0.7-0.1-1.4-0.2-1.6-0.5
				c-6.6-7.3-28.7-21-28.7-21l-0.6,1.5c-1.5,2.8-4.1,9.6-4.1,9.6c-0.9,2.2-4.1,9.9-5.3,13.4c-1.1,3.4-5,9.2-5,9.2s7.6,1.5,14.6,3.6
				C93.2,157.4,115.5,163.2,121.9,164.8z"/>
			<path style="fill:#B8B2A4;" d="M115.4,49.3c0,0-9,19.5-10.6,23.4c-1.6,3.9-6.7,17.8-9,25s-7,18.9-7,18.9
				c6.5,2.1,28.3,19.5,29.2,19.9C117.8,123,115.3,54.8,115.4,49.3z"/>
			<path style="fill:#C5C6C0;" d="M186,228.8c16,0,84-0.1,88.3-0.4c4.3-0.2,28.6-2.2,35.1-2.7s38.2-8.8,45.2-9.9
				c6.9-1.1,8.8-10.2,8.8-10.2c-8.1,5-24.6,7.6-24.6,7.6v2.8c-2.3,1.1-4.2,1.1-4.2,1.1V214c-7.5,1.8-22.1,4.1-22.1,4.1v4.8h-4.2
				v-4.2c-2.1,0.5-23.2,2.2-23.2,2.2v4.3l-4-0.1v-4.3c-10.4,0.6-23.5,0.8-23.5,0.8v5h-4.8v-3.7h-23v4.3h-4.5v-4.3h-24.6v3.3H196
				v-4.1h-23.4v4.1h-4.3v-4.6l-22.5-0.9v4.7h-4.5c0,0,0.2-4.2-0.9-4.8c-1.6-0.8-21.6-0.6-21.6-0.6v4c-1.8-0.1-4.9-0.6-4.9-0.6
				s0.4-4.5-0.6-4.7c-0.9-0.2-8.6-1.1-15.6-0.9c-7,0.1-22.9-1.7-22.9-1.7c0.4,0.2,0.8,0.3,1.2,0.5c2.5,1.1,7.4,3.8,10.1,5.3
				c7.1,1.3,18.4,2.9,25.5,4.2C121.5,227.7,170,228.8,186,228.8z"/>
			<path style="fill:#87452F;" d="M121.9,164.8c-6.3-1.6-28.6-7.4-34.7-9.2c-7-2.1-14.6-3.6-14.6-3.6l-2.6-1l-1,1.8l3,1.5
				c0,0,41.2,10.5,50.2,13.7C122,166.8,121.9,165.8,121.9,164.8z"/>
			<path style="fill:#8A6644;" d="M292.7,196.1v0.3c1.9-0.1,3.9-0.2,5.9-0.4v-0.1C296.8,196,294.8,196.1,292.7,196.1z"/>
			<path style="fill:#93877B;" d="M288.9,196.1c-1.2,0-2.3,0-3.5,0c-0.7,0-1.5,0-2.2,0c-1.5,0-2.9,0-4.2,0c-0.7,0-1.5,0-2.2,0
				c-1.2,0-2.3,0-3.3,0v1.2c1.5,0,3.3-0.1,5.5-0.2c1.9-0.1,4.1-0.2,6.4-0.3c1.1-0.1,2.3-0.1,3.5-0.2c1.2-0.1,2.5-0.1,3.8-0.2v-0.3
				C291.5,196.1,290.2,196.1,288.9,196.1z"/>
			<path style="fill:#A15E33;" d="M116.3,139.2c0.3,0.3,0.9,0.4,1.6,0.5c0-0.4,0-0.8,0-1.1s0-1.1,0-2.1
				c-0.8-0.5-22.6-17.8-29.2-19.9l-2.2-1.5l-0.9,1.4l2,1.7C87.6,118.2,109.7,131.9,116.3,139.2z"/>
			<path style="fill:#B8B2A4;" d="M122.1,167.9c-8.9-3.2-50.2-13.7-50.2-13.7c-7.6,7.3-15.8,32.9-15.8,32.9l68-2
				C124.2,185.1,122.8,175.6,122.1,167.9z"/>
			<polygon style="fill:#563A2E;" points="234.1,212 234.1,205.7 233.3,205.7 233.3,202.3 205.6,202.4 205.7,212 			"/>
			<polygon style="fill:#854E30;" points="168.7,210.8 184.6,210.8 184.6,209.2 184.6,204.9 186.4,202.2 168.7,202.2 			"/>
			<path style="fill:#938B78;" d="M188.4,144.6c0,0-10.2-9.4-24.6-21.1c-15.8-12.9-36-28.3-39.4-30.7c0,0,19.5,38,23.2,48
				C147.6,140.7,181.2,142.6,188.4,144.6z"/>
			<path style="fill:#938B78;" d="M128.7,136.1c1.2,2.6,8.7,26.3,10.3,35.2c1.6,9,1.8,9.5,3.7,9.9c8.3,1.5,45.8,12.3,45.8,12.3
				C182.7,187.2,128.7,136.1,128.7,136.1z"/>
			<path style="fill:#B5A888;" d="M232.1,106.1c1.8,1.5,3.7,3,5.7,4.6c12.5,0.7,40.6,5.3,40.6,5.3c-7.7-6.3-66.6-57.5-66.6-57.5
				L232.1,106.1z"/>
			<path style="fill:#B5A888;" d="M237.8,110.7c-1.9-1.6-3.8-3.1-5.7-4.6C219.2,95.7,209,87.3,209,87.3c0.9,3.2,11.8,28.3,17.6,41.8
				c2.9,2.8,6,5.8,9.1,8.8c13,1.5,43.7,6.7,43.7,6.7C272.5,139,254.1,124,237.8,110.7z"/>
			<path style="fill:#A89D81;" d="M255.2,156.2c-1.4-0.9-10.2-9.3-19.5-18.3c-3.1-2.9-6.2-5.9-9.1-8.8c-8.1-7.9-14.8-14.4-14.8-14.4
				c-2-2,22.1,55.1,23,57.2s10.8,1.4,17.6,5.2c6.8,3.8,32.4,7.7,32.4,7.7C280.3,181.5,258.2,158.3,255.2,156.2z"/>
			<path style="fill:#BAAF99;" d="M388.2,171.1c12,2.9,22.5,5.5,22.5,5.5s-16.2-12.7-19.7-14.8s-24.6-22.8-33.5-29.1
				c-4.6-3.3-43.2-36.8-43.2-36.8c-1-0.8,12.6,22.6,24.2,41.9c8.3,5.9,15.9,10.9,19,11.9C362.5,151.4,377.1,162.5,388.2,171.1z"/>
			<path style="fill:#C2B799;" d="M388.2,171.1c-11.1-8.6-25.7-19.7-30.8-21.4c-3.1-1-10.7-6-19-11.9c-13.7-9.7-29.3-21.7-29.3-21.7
				s16.6,13.2,31.3,25.1c10.6,8.6,20.3,16.4,22,18.1c1.3,1.3,4.8,4.3,8.9,7.7c4.8,4.1,10.5,8.9,14.5,12.2c8.8,1.2,15.9,2.1,15.9,2.1
				C400.5,180.7,395,176.4,388.2,171.1z"/>
			<path style="fill:#B0A288;" d="M385.9,179.2c-4-3.3-9.7-8.1-14.5-12.2c-4.1-3.5-7.5-6.5-8.9-7.7c-1.7-1.7-11.4-9.5-22-18.1
				c-14.7-11.9-31.3-25.1-31.3-25.1s20.4,23,32.6,33.7c2.5,2.2,5.7,5.2,9.1,8.5c1.6,1.6,3.3,3.3,5,5c4.6,4.6,9.4,9.5,13.5,13.7
				c1.5,1.5,2.8,2.9,4.1,4.2c9,1.2,17.5,2.3,17.5,2.3S388.9,181.7,385.9,179.2z"/>
			<path style="fill:#C2B799;" d="M373.5,181.1c-1.3-1.3-2.6-2.7-4.1-4.2c-4.1-4.2-8.9-9.1-13.5-13.7c-1.7-1.7-3.4-3.4-5-5
				c-3.4-3.3-6.6-6.3-9.1-8.5C329.6,139,309.2,116,309.2,116s0.1,0.2,0.2,0.6c1.5,4.6,11.8,35.9,14.6,43.7c3,8.4,5.6,19,7,19.2
				s27.9,2.8,49.6,8.8C380.6,188.4,377.7,185.5,373.5,181.1z"/>
			<rect x="269.3" y="199.6" style="fill:#8C8278;" width="3" height="2.6"/>
			<rect x="273.7" y="199.6" style="fill:#8C8278;" width="4.4" height="2.6"/>
			<polygon style="fill:#8C8278;" points="284.3,199.4 279.9,199.6 279.9,202.2 284.3,201.9 			"/>
			<rect x="285.8" y="199.4" style="fill:#8C8278;" width="3.1" height="2.8"/>
			<polygon style="fill:#B9A082;" points="305.4,198.5 299.5,198.3 299.5,201.2 305.4,201.2 			"/>
			<path style="fill:#B9A082;" d="M311.3,197.6c-1.3,0-4.4,0.7-4.4,0.7v2.7h4.4V197.6z"/>
			<rect x="312.7" y="197.6" style="fill:#B9A082;" width="3.3" height="2.7"/>
			<polygon style="fill:#B9A082;" points="322,195.5 318.2,196.7 318.2,199.3 322,199.3 			"/>
			<path style="fill:#B9A082;" d="M327.9,194.7c0,0-3.8,0.7-4.6,0.8v2.8c0,0,2.7-0.2,4.6-0.9V194.7z"/>
			<path style="fill:#B9A082;" d="M329.9,194.4v2.8h2.2C332.1,197.2,332.5,194.5,329.9,194.4z"/>
			<polygon style="fill:#B9A082;" points="338.6,193.5 334.5,194.1 334.5,196.7 338.6,196.5 			"/>
			<path style="fill:#B9A082;" d="M341.5,195.8c1.2-0.1,2.5-1.7,2.5-1.7v-1.3h-3.3C340.7,192.8,340.3,195.9,341.5,195.8z"/>
			<path style="fill:#B9A082;" d="M349.3,191.8c-0.1-0.2-3.5,0.7-3.5,0.7v1.1h3.3C349.1,193.5,349.4,192,349.3,191.8z"/>
			<rect x="241.9" y="208.3" style="fill:#2E2B36;" width="4.9" height="3.7"/>
			<rect x="256.4" y="208.3" style="fill:#2E2B36;" width="4.2" height="2.9"/>
			<polygon style="fill:#2E2B36;" points="271.3,211.2 277.2,211.2 277.2,207.1 271.3,207.5 			"/>
			<path style="fill:#81746E;" d="M74.8,206.6c0.2,0.4,3.9,0.5,3.9,0.5v-2.9l-4.1-0.6C74.5,203.6,74.6,206.2,74.8,206.6z"/>
			<polygon style="fill:#81746E;" points="80.7,207 84.5,207.3 84.5,204.5 80.7,204.5 			"/>
			<path style="fill:#81746E;" d="M85.7,207.3c2,0.7,4,0.8,4,0.8v-3.5h-4V207.3z"/>
			<polygon style="fill:#81746E;" points="102.1,208.4 102.1,205.3 97.3,205 97.6,208 			"/>
			<rect x="103.9" y="205.9" style="fill:#81746E;" width="4" height="2.9"/>
			<polygon style="fill:#81746E;" points="109.9,209 113.8,208.8 113.8,206.3 109.9,206.3 			"/>
			<polygon style="fill:#81746E;" points="96.2,204.2 92.6,204.2 91.3,205.3 91.3,207.7 96.2,207.7 			"/>
			<path style="fill:#9D8E87;" d="M266.3,250.5c-2.8,1.9-17.9,8.8-46.1,8.8c-20.1,0-34.4-4.5-40.9-7.1c-2.6-1-4-1.7-4-1.7h-2.8
				c0,0,0.4,0.6,1.5,1.6c3.8,3.4,15.7,11,46.8,11c40,0,48.1-12.7,48.1-12.7h-2.6V250.5z"/>
			<path style="fill:#C2B69E;" d="M416.8,183.5c-1.4,0.5-36.2,4.9-36.2,4.9s-17.2,0.4-20.4,0.8c-3.2,0.5-25.1,2.3-25.1,2.3
				c-7.5,1.9-19.5,3.2-31.2,4.1h-0.1c-0.3,0-0.7,0-1,0.1l0,0c-1.2,0.1-2.6,0.1-4.2,0.2v0.1c-2,0.1-4,0.2-5.9,0.4
				c-1.3,0.1-2.6,0.1-3.8,0.2c-1.2,0.1-2.4,0.1-3.5,0.2c-2.3,0.1-4.5,0.2-6.4,0.3c-2.1,0.1-4,0.1-5.5,0.2c-2.2,0.1-3.5,0.1-3.7,0.1
				c-0.9,0.1,0.2,0.6-3.5,3.8s-12.4,3-12.4,3v-1.4c0,0-12.1,0.4-14.9,0c-1.6-0.3-3.2-3.4-4.2-5.9c-0.1,0-0.1,0-0.2,0
				c-1,0.1-1.3,5.5-1.3,5.5v3.4h0.8v6.3h-27.2c0.1,1.1,0.3,2.1,0.4,2.8c8.7,0,16.9,0,24.6,0c33.1,0,56.3-0.2,83.7-4.9
				c46.7-8,50.8-11.9,51.1-12.5l-2.5,5.6c6.3-2.7,11.1-3.4,14.5-3.3c1-0.6,2-1.2,3.1-1.7c1.3-0.7,3-1.6,5.2-2.1
				c2.1-0.5,3.2,2.6,3.2,2.6l-0.4-6.2c0,0,3.5-0.1,7.9-1.8c4.3-1.6,20.2-6.1,20.2-6.1l0.9-1.4C418.8,182.9,418.2,183.1,416.8,183.5z
				 M246.8,212h-4.9v-3.7h4.9V212z M260.6,211.2h-4.2v-2.9h4.2V211.2z M269.3,199.6h3v2.6h-3V199.6z M277.2,211.2h-5.9v-3.7l5.9-0.4
				V211.2z M278,202.2h-4.4v-2.6h4.4V202.2z M284.3,201.9l-4.4,0.2v-2.6l4.4-0.2V201.9z M288.9,202.2h-3.1v-2.8h3.1V202.2z
				 M305.4,201.2h-5.9v-2.9l5.9,0.2V201.2z M311.3,201h-4.4v-2.7c0,0,3.1-0.7,4.4-0.7V201z M316,200.3h-3.3v-2.7h3.3V200.3z
				 M322,199.3h-3.8v-2.6l3.8-1.2V199.3z M327.9,197.4c-1.9,0.7-4.6,0.9-4.6,0.9v-2.8c0.8-0.2,4.6-0.8,4.6-0.8V197.4z M332.1,197.2
				h-2.2v-2.8C332.5,194.5,332.1,197.2,332.1,197.2z M338.6,196.5l-4.1,0.2v-2.6l4.1-0.6V196.5z M344,194.1c0,0-1.3,1.6-2.5,1.7
				c-1.2,0.1-0.8-3-0.8-3h3.3V194.1z M349.1,193.5h-3.3v-1.1c0,0,3.5-0.9,3.5-0.7C349.4,192,349.1,193.5,349.1,193.5z"/>
			<path style="fill:#70523A;" d="M205.7,212l-0.1-9.6c0,0-2.5-15-2.8-18.7s-0.4-18.8-0.2-20.8c0.1-1.9,2.8-10.3,2-10.4
				c-0.8-0.1-3.3,7.7-3.7,7.7s-0.9-9.4-0.8-10.1c0.1-0.7,1.4-1.3,1.4-1.8s-1.2-0.4-1.6-0.8c-0.4-0.4-0.7-3-1.1-6s1.8-8.3,1.8-8.4
				c0-0.2,1.6-3.9,2.1-5.8c0.5-1.9-1.4-0.9-1.8-0.8c-0.4,0.2-2.6,5.5-2.9,5.7c-0.3,0.2-0.8-20.1-0.8-23.1s2.3-6.3,2.5-7.4
				c0.1-1.1-0.2-3.3-0.5-1.6c-0.3,1.6-3.1,5-3.1,5s-0.1-4.9,0.4-6.7c0.5-1.8,2.3-3,2.2-3.3s-3,0-3.2-0.4c-0.1-0.4-0.9-5.3-0.4-5.6
				c0.5-0.3,0.8-1,0.5-1.6c-0.2-0.6-1.1-0.1-1.1-0.6c-0.1-0.6-0.4-3.9,0.4-5.7c0.7-1.8,1.9-5.1,1.9-5.4s-0.2-1.9-0.2-1.9l-2.5,3.9
				c0,0-2.3-21.9-2.2-22.6c0.1-0.8,0-1.3,0.9-1.7s0.4-1.4,0-2.1c-0.4-0.7-2.1-1.4-2.1-1.7c-0.1-0.3-1.1-19.1-1.4-19.4
				c-0.3-0.4-1.4-0.5-1.7,0s1.1,20.6,1.1,20.6s0,0-0.1,0.9s1.2,2,1.2,2l2.5,41c0,0-11.6,0.4-11.8,0.5s-3.1,2.1-3.1,2.1l1.9,0.2
				c1.8-0.6,9.1-0.9,9.1-0.9l0.1,1.9h2.8l0.1-1.9l1.8,0.4l0.4,14.8l2.5,35.5l-1.8-0.1l-0.4-3.9l-2.6,2.4c0,0,1.4,1.7,1.4,2.7
				c0,1.1-0.9,2.6-0.9,2.6s4.8,0.2,4.9,0.6c0.2,0.4,0.6,7.4,0.6,7.4c0.4,16.6,2.2,36.9,2.2,36.9l-1.3,0.5l0.3,1.7l1.7-0.5v2.7
				c0,0,0.7,9.9,0.9,14.3c2.2,0,4.4,0,6.5,0c-0.1-0.7-0.2-1.7-0.4-2.8h-1.5L205.7,212L205.7,212z"/>
			<path style="fill:#B6B096;" d="M199.9,200.5h-13.5v1.6l-1.8,2.7v4.3v1.6h-15.9V202h-2l-0.1-2.8h1.3v-2c0,0-0.7-0.2-0.7-1.6
				s0.6-2.3,0.7-3.3c0.1-0.9-10-1.1-10-1.1c0-2.2-3.6-2.8-3.6-2.8v2H142l-1.8,1.9h-9.4l0.4,3.9h-4.4l-0.3-3.9l-26.8,1
				c0,0-1.4-0.1-1.4,0.5s1.3,0.4,1.3,0.4s0.2,2-0.1,2c-1.4-0.1-24.7-1.3-24.7-1.3h-1.2l0,0c0.1,0.3,0,0.5-0.4,0.5
				c-2.2,0.1-5.7-2.8-7.8-3.4c-2.1-0.6-5-0.2-5-0.2v1.2h2.9v1.2h-0.6c-1.4,0.1-3,3.3-3.8,5c-0.8,1.8,1.8,2.8,3.5,3.2
				c1.8,0.4,1.1-0.9,2.8-1.1c1.7-0.3,1.8,0.1,1.8,1.6c-0.1,1.4-1.5,1.9-1,5.4c8,0.9,17.7,1.7,29.4,2.5c45.2,3,78.4,3.8,105.6,3.9
				C200.5,210.5,199.9,200.5,199.9,200.5z M73.7,200.2h-2.2c0,0,0-0.8,0-2s2.2-1.3,2.2-1.3V200.2z M78.6,207c0,0-3.6-0.1-3.9-0.5
				c-0.2-0.4-0.2-3-0.2-3l4.1,0.6V207z M79.6,200.2h-3.9v-3.3h3.9V200.2z M84.5,207.3l-3.8-0.2v-2.5h3.8V207.3z M84.5,200.2h-3.8
				v-2.8h3.8V200.2z M89.7,208c0,0-2-0.1-4-0.8v-2.8h4V208z M90.4,201.3h-3.8v-3.9h3.8V201.3z M96.2,207.7h-4.9v-2.3l1.3-1.1h3.6
				V207.7z M96.4,201.1c-0.9,0.4-2.3,0.2-4,0.2v-3.9c0,0,4.1,1,4.8,2C97.5,199.8,97.2,200.7,96.4,201.1z M102.1,208.4l-4.5-0.4
				l-0.3-3l4.8,0.3V208.4z M107.9,208.8h-4v-2.9h4V208.8z M107.9,195.5l-3.6-0.9h3.6V195.5z M113.8,208.8l-3.9,0.2v-2.8h3.9V208.8z
				 M113.8,196.3H109v-1.8h4.9L113.8,196.3L113.8,196.3z M118.5,196.3h-2.7v-1.8h3.9C119.7,195.4,118.5,196.3,118.5,196.3z
				 M138.1,195.7h-4.8v-2.3c0,0,1.1,0,3,0.8S138.1,195.7,138.1,195.7z M160.8,197.2c0,0-1.5,0.3-2.9,0.2v-4h2.9V197.2z M163.9,196.3
				c-0.6,1.1-0.6,1.1-0.6,1.1h-1.5v-4h3C164.7,193.4,164.4,195.2,163.9,196.3z"/>
			<path style="fill:#CFC5BB;" d="M73.5,195h1.2c-1.1-3.6-6.7-6.5-6.7-6.5l-14.2-0.1c0,0,8.5,0.3,11.7,0.4c0.2,0,0.4,0,0.6,0.1
				c0.1,0,0.1,0,0.2,0.1c0.1,0,0.3,0.1,0.4,0.1s0.2,0.1,0.2,0.1c0.1,0.1,0.3,0.1,0.5,0.2c0.1,0,0.2,0.1,0.3,0.1
				c0.2,0.1,0.3,0.2,0.5,0.3c0.1,0,0.2,0.1,0.2,0.1c0.2,0.1,0.4,0.2,0.6,0.4l0.1,0.1c0.2,0.2,0.5,0.3,0.7,0.5
				c0.1,0.1,0.2,0.2,0.3,0.3c0.1,0.1,0.2,0.2,0.3,0.3c0.1,0.1,0.3,0.2,0.4,0.3s0.2,0.1,0.2,0.2c0.1,0.1,0.3,0.2,0.4,0.4l0.1,0.1
				C72.6,193.5,73.3,194.4,73.5,195C73.4,195,73.4,195,73.5,195L73.5,195z"/>
			<path style="fill:#B57748;" d="M68,188.6c0,0,57.4,0.4,57.9,0.9s0.5,3,0.5,3l0.3,3.9h4.4l-0.4-3.9l-5.3-54.9l3.5-0.4l-0.4-1.8
				l-3.1-0.3l-6.9-79.4l0,0l-3-18.4l-0.2,12.1c0,0,6,85,5.7,85.9c-0.2,0.9-2.3,1.8-3.2,1.3c0,1,0,1.8,0,2.1s0,0.7,0,1.1
				c1.5,0.1,3.6-0.1,3.6-0.1s2.6,14.5,2.1,25.6c0,0-0.6-0.2-1.7-0.4c0.1,1,0.2,2,0.3,3.1c0.7,0.3,1.3,0.5,1.5,0.6
				c0,0,1.3,3.7,0.5,16.6l-68,2l0,0h-2.5v1.3L68,188.6z"/>
			<path style="fill:#AAACA1;" d="M82.6,123.4c1.7-3.8-3.1-8-3.1-8l0,0l-4.8,9l0,0l0,0C74.6,124.3,80.9,127.2,82.6,123.4z"/>
			<path style="fill:#8C1B17;" d="M87,119.7l-7.6-4.4c0,0,4.9,4.2,3.1,8c-1.7,3.8-8,1-8,1l0,0l8.3,5C82.9,129.4,85.5,122.5,87,119.7
				z"/>
			<path style="fill:#99562B;" d="M310.5,278.5c-2.8-1.8-5.1-4-7-6.5c-3.5-4.6-5.7-9.9-7-14.3c-10.7-1.3-21.8-2.1-33-2.7
				c-6.2,3.7-18.7,8.2-42.7,8.2c-23.6,0-36.2-4.4-42.5-8c-13.9,0.6-25.8,1.5-34.4,2.1c-1.2,3.3-3,6.6-5,9.6
				c-4.5,6.9-9.7,12.2-9.7,12.2v5.7c4,0.3,34.9-1.5,34.9-1.5s-0.5-5.5,0-6.6s40.9-1.2,64.2-1.3c23.2-0.1,46.2,1.6,47.9,2.6
				c1.6,0.9,0.6,6.8,0.6,6.8c4,0.8,34.1-1.5,34.1-1.5S311.5,279.1,310.5,278.5z"/>
			<path style="fill:#825536;" d="M144,257.3c8.6-0.7,20.4-1.5,34.4-2.1c-2-1.1-3.4-2.2-4.3-3l0,0c-13.3,0.1-23.2,0.3-28.8,0.4
				C145,254.1,144.5,255.7,144,257.3z"/>
			<path style="fill:#63402C;" d="M172.5,250.5l-27.1-0.5c0,0.5,0,1-0.1,1.5c0,0.3-0.1,0.7-0.1,1c5.6-0.1,15.6-0.3,28.8-0.4
				C173,251.1,172.5,250.5,172.5,250.5z"/>
			<path style="fill:#63402C;" d="M294.7,249c0,0-11.5,0.7-25.7,1.5c0,0-0.5,0.8-1.9,1.9c9.2,0.2,18.7,0.4,28.3,0.6
				C294.9,250.6,294.7,249,294.7,249z"/>
			<path style="fill:#825536;" d="M267.1,252.4c-0.8,0.7-2,1.6-3.5,2.5c11.2,0.6,22.3,1.5,33,2.7c-0.5-1.7-0.9-3.3-1.2-4.6
				C285.7,252.8,276.3,252.6,267.1,252.4z"/>
			<path style="fill:#CFA267;" d="M336.8,228.2c-12,1.9-42.7,2.3-81.6,3c-8.1,0.1-18.4,0.2-29.7,0.2c20.1,3.4,41.9,6.7,55.6,7.9
				c17.6,1.6,31.6,6.9,40.4,11.3c2.8,0.2,5.6,0.4,8.2,0.5c4.7,0.3,8-0.4,10.3-1.6c4-6.6,8.5-16.6,11.1-22.6
				C347,227.1,341.9,227.4,336.8,228.2z"/>
			<path style="fill:#BA6D39;" d="M339.9,249.6c4.5-2.2,5.1-5.8,5.1-5.8c2.7-6.4,5.5-12,8.3-16.8c-0.7,0-1.4,0-2.2,0
				C348.4,233.1,343.9,243,339.9,249.6z"/>
			<path style="fill:#252527;" d="M309.4,225.7c-6.5,0.5-30.7,2.5-35.1,2.7c-4.3,0.2-72.4,0.4-88.3,0.4c-16,0-64.5-1.1-74.5-2.8
				c-7-1.2-18.4-2.9-25.5-4.2c1.1,0.6,1.9,1.1,1.9,1.1s6.1,5.8,22.8,6.7s105.6,2.3,144.5,1.6c27.4-0.5,50.7-0.9,66.3-1.7
				c1.3-2.2,2.5-4.6,3.8-7C318.1,224.2,311.8,225.6,309.4,225.7z"/>
			<path style="fill:#252527;" d="M315.7,209.9c-27.4,4.7-50.7,4.9-83.7,4.9s-72.9,0.3-136.8-4c-11.7-0.8-21.4-1.6-29.4-2.5
				c0,0.3,0.1,0.6,0.2,1c0.8,3.9,5.4,5.3,8.9,6.7c0,0,15.8,1.8,22.9,1.7c7-0.1,14.7,0.7,15.6,0.9s0.6,4.7,0.6,4.7s3.2,0.5,4.9,0.6
				v-4c0,0,20-0.2,21.6,0.6c1.2,0.6,0.9,4.8,0.9,4.8h4.5v-4.7l22.5,0.9v4.6h4.3V222h23.4v4.1h4.7v-3.3h24.6v4.3h4.5v-4.3h23v3.7h4.8
				v-5c0,0,13-0.2,23.5-0.8v4.3l4,0.1v-4.3c0,0,21.1-1.8,23.2-2.2v4.2h4.2V218c0,0,8.9-1.4,16.4-2.9c1.4-3.1,2.7-6,3.7-8.3
				C327.6,207.8,322.1,208.8,315.7,209.9z"/>
			<path style="fill:#404042;" d="M374.4,200c-2.8,0.4-6.2,1.3-10.1,3l2.5-5.6c-0.3,0.5-3.4,3.5-34.3,9.4c-1,2.4-2.3,5.3-3.7,8.3
				c2.1-0.4,4-0.8,5.7-1.2v3.2c0,0,1.9-0.1,4.2-1.1v-2.8c0,0,16.5-2.6,24.6-7.6c0,0-1.9,9.1-8.8,10.2c-4.3,0.6-17.9,4-29.3,6.7
				c-1.2,2.4-2.5,4.8-3.8,7c6.6-0.4,11.8-0.8,15.3-1.3c5.1-0.8,10.2-1.1,14.2-1.2l0,0C351.1,227,361.7,208.6,374.4,200z"/>
			<path style="fill:#2B2E27;" d="M351.1,227L351.1,227c0.8,0,1.5,0,2.2,0c8.2-14.2,16.6-22.1,25.5-27.3c-1.3,0-2.7,0.1-4.4,0.3
				C361.7,208.6,351.1,227,351.1,227z"/>
			<path style="fill:#603F30;" d="M87.9,222.9c-5.8,4.4-6.9,15-6.2,20.4c0.8,5.5,4.8,7,8.1,6.7c2.4-0.3,32.5-0.1,47.4,0
				C107.7,243.5,87.9,222.9,87.9,222.9z"/>
			<path style="fill:#764E35;" d="M110.7,229.6c-16.7-0.9-22.8-6.7-22.8-6.7s19.8,20.6,49.3,27c5,0,8.2,0,8.2,0l27.1,0.5h2.8h70.8
				l-51.4-19.2C158.3,230.9,120.9,230.2,110.7,229.6z"/>
			<path style="fill:#8B6040;" d="M281.1,239.4c-13.7-1.2-35.5-4.6-55.6-7.9c-9.7,0-20.2-0.1-30.7-0.2l51.4,19.2h20.2h2.6
				c14.3-0.9,25.7-1.5,25.7-1.5s14,0.9,26.8,1.7C312.7,246.3,298.7,241,281.1,239.4z"/>
		</g>
	</g>
</g>
<g id="Base">
	<g id="base">
		<g>
			<path style="fill:none;" d="M38.4,346.7c-0.1,0-0.1,0-0.2,0C38.3,346.7,38.4,346.7,38.4,346.7z"/>
			<path style="fill:none;" d="M77.6,349.4L77.6,349.4L77.6,349.4z"/>
			<path style="fill:none;" d="M52.4,348.3C52.3,348.3,52.3,348.3,52.4,348.3C52.3,348.3,52.4,348.3,52.4,348.3z"/>
			<path style="fill:none;" d="M54.2,348.4L54.2,348.4C54.1,348.4,54.2,348.4,54.2,348.4z"/>
			<path style="fill:none;" d="M41.6,347.1c-0.1,0-0.2,0-0.2,0C41.5,347.1,41.5,347.1,41.6,347.1z"/>
			<path style="fill:none;" d="M39.7,346.9L39.7,346.9L39.7,346.9L39.7,346.9z"/>
			<path style="fill:none;" d="M50.6,348.1C50.5,348.1,50.5,348.1,50.6,348.1C50.5,348.1,50.5,348.1,50.6,348.1z"/>
			<path style="fill:none;" d="M75.5,349.4L75.5,349.4L75.5,349.4z"/>
			<path style="fill:none;" d="M61.2,348.9L61.2,348.9L61.2,348.9z"/>
			<path style="fill:none;" d="M76.6,349.4L76.6,349.4L76.6,349.4z"/>
			<path style="fill:none;" d="M71.9,349.3L71.9,349.3L71.9,349.3z"/>
			<path style="fill:none;" d="M62.9,349C62.8,349,62.8,349,62.9,349C62.8,349,62.8,349,62.9,349z"/>
			<path style="fill:none;" d="M70.6,349.3L70.6,349.3L70.6,349.3z"/>
			<path style="fill:none;" d="M45.1,347.6L45.1,347.6L45.1,347.6z"/>
			<path style="fill:none;" d="M25.7,343.9c-0.1,0-0.2-0.1-0.3-0.1C25.5,343.8,25.6,343.9,25.7,343.9z"/>
			<path style="fill:none;" d="M24.6,343.5c-0.1,0-0.2-0.1-0.2-0.1C24.4,343.5,24.5,343.5,24.6,343.5z"/>
			<path style="fill:none;" d="M26.8,344.2c-0.1,0-0.2-0.1-0.3-0.1C26.6,344.2,26.7,344.2,26.8,344.2z"/>
			<path style="fill:none;" d="M37.1,346.5c-0.1,0-0.2,0-0.3,0C36.9,346.4,37,346.5,37.1,346.5z"/>
			<path style="fill:none;" d="M23.5,343.2c-0.1,0-0.1-0.1-0.2-0.1C23.4,343.1,23.5,343.1,23.5,343.2z"/>
			<path style="fill:none;" d="M28,344.6c-0.1,0-0.2-0.1-0.3-0.1C27.8,344.5,27.9,344.5,28,344.6z"/>
			<path style="fill:none;" d="M22.6,342.8c-0.1,0-0.1,0-0.2-0.1C22.4,342.7,22.5,342.8,22.6,342.8z"/>
			<path style="fill:none;" d="M29.2,344.9c-0.1,0-0.2-0.1-0.3-0.1C29,344.8,29.1,344.9,29.2,344.9z"/>
			<path style="fill:none;" d="M34.4,346c-0.1,0-0.2,0-0.3-0.1C34.2,346,34.3,346,34.4,346z"/>
			<path style="fill:none;" d="M35.7,346.2c-0.1,0-0.2,0-0.3-0.1C35.5,346.2,35.6,346.2,35.7,346.2z"/>
			<path style="fill:none;" d="M33,345.7c-0.1,0-0.2,0-0.3-0.1C32.8,345.7,32.9,345.7,33,345.7z"/>
			<path style="fill:none;" d="M30.4,345.2c-0.1,0-0.2-0.1-0.3-0.1C30.2,345.1,30.3,345.2,30.4,345.2z"/>
			<path style="fill:none;" d="M31.7,345.5c-0.1,0-0.2,0-0.3-0.1C31.5,345.4,31.6,345.4,31.7,345.5z"/>
			<path style="fill:none;" d="M346.8,349.5L346.8,349.5L346.8,349.5z"/>
			<path style="fill:none;" d="M381.7,347.5C381.7,347.5,381.6,347.5,381.7,347.5C381.6,347.5,381.7,347.5,381.7,347.5z"/>
			<path style="fill:none;" d="M376.8,348c-0.1,0-0.1,0-0.2,0C376.6,348,376.7,348,376.8,348z"/>
			<path style="fill:none;" d="M411.8,340.2c-0.1,0-0.2,0.1-0.2,0.1C411.7,340.3,411.8,340.3,411.8,340.2z"/>
			<path style="fill:none;" d="M411.1,340.7c0,0-0.1,0-0.1,0.1C411,340.7,411,340.7,411.1,340.7z"/>
			<path style="fill:none;" d="M371.9,348.4c-0.1,0-0.2,0-0.2,0C371.7,348.4,371.8,348.4,371.9,348.4z"/>
			<path style="fill:none;" d="M369.4,348.6c-0.1,0-0.1,0-0.2,0C369.3,348.6,369.3,348.6,369.4,348.6z"/>
			<path style="fill:none;" d="M415.1,337c-0.1,0.1-0.1,0.3-0.2,0.4C415,337.3,415,337.2,415.1,337z"/>
			<path style="fill:none;" d="M414.7,337.6c-0.1,0.1-0.1,0.2-0.2,0.3C414.6,337.9,414.6,337.7,414.7,337.6z"/>
			<path style="fill:none;" d="M412.5,339.7c-0.1,0.1-0.2,0.1-0.3,0.2C412.4,339.9,412.5,339.8,412.5,339.7z"/>
			<path style="fill:none;" d="M414.3,338.2c-0.1,0.1-0.2,0.2-0.3,0.3C414.1,338.4,414.2,338.3,414.3,338.2z"/>
			<path style="fill:none;" d="M367,348.7L367,348.7L367,348.7L367,348.7z"/>
			<path style="fill:none;" d="M413.8,338.7c-0.1,0.1-0.2,0.2-0.3,0.2C413.6,338.9,413.7,338.8,413.8,338.7z"/>
			<path style="fill:none;" d="M413.2,339.3c-0.1,0.1-0.2,0.1-0.3,0.2C413,339.4,413.1,339.3,413.2,339.3z"/>
			<path style="fill:none;" d="M360.7,349.1h-0.1H360.7z"/>
			<path style="fill:none;" d="M81.2,349.5L81.2,349.5L81.2,349.5z"/>
			<path style="fill:none;" d="M81.4,349.5L81.4,349.5L81.4,349.5z"/>
			<path style="fill:none;" d="M345.9,349.5L345.9,349.5L345.9,349.5z"/>
			<path style="fill:none;" d="M80.5,349.5c-0.1,0-0.1,0-0.2,0C80.4,349.5,80.5,349.5,80.5,349.5z"/>
			<path style="fill:none;" d="M346,349.5L346,349.5L346,349.5z"/>
			<path style="fill:none;" d="M80.9,349.5L80.9,349.5L80.9,349.5z"/>
			<path style="fill:none;" d="M348.4,349.4L348.4,349.4L348.4,349.4z"/>
			<path style="fill:none;" d="M356.9,349.2h-0.1H356.9z"/>
			<path style="fill:none;" d="M353.5,349.3L353.5,349.3L353.5,349.3z"/>
			<path style="fill:none;" d="M21.6,342.4c0,0-0.1,0-0.1-0.1L21.6,342.4z"/>
			<path style="fill:none;" d="M78.4,349.5L78.4,349.5L78.4,349.5z"/>
			<path style="fill:none;" d="M350.7,349.4C350.7,349.4,350.6,349.4,350.7,349.4C350.6,349.4,350.7,349.4,350.7,349.4z"/>
			<path style="fill:none;" d="M364.9,348.9c-0.1,0-0.1,0-0.2,0C364.8,348.9,364.8,348.9,364.9,348.9z"/>
			<path style="fill:none;" d="M43.4,347.4c-0.1,0-0.2,0-0.2,0C43.2,347.3,43.3,347.4,43.4,347.4z"/>
			<path style="fill:none;" d="M15.8,337.1c0-0.1,0-0.1-0.1-0.2C15.8,336.9,15.8,337,15.8,337.1z"/>
			<path style="fill:none;" d="M17.8,340l-0.1-0.1C17.7,340,17.8,340,17.8,340z"/>
			<path style="fill:none;" d="M81.4,349.5L81.4,349.5L81.4,349.5z"/>
			<path style="fill:none;" d="M17.1,339.4c0-0.1-0.1-0.1-0.1-0.2C17,339.3,17.1,339.3,17.1,339.4z"/>
			<path style="fill:none;" d="M16.1,337.8c0-0.1,0-0.1-0.1-0.2C16,337.7,16.1,337.8,16.1,337.8z"/>
			<path style="fill:none;" d="M18.7,340.7C18.7,340.7,18.6,340.7,18.7,340.7C18.6,340.7,18.7,340.7,18.7,340.7z"/>
			<path style="fill:none;" d="M16.5,338.6L16.5,338.6L16.5,338.6z"/>
			<path style="fill:none;" d="M20.7,342L20.7,342L20.7,342C20.7,341.9,20.7,342,20.7,342z"/>
			<path style="fill:none;" d="M19.7,341.4c-0.1,0-0.1-0.1-0.2-0.1C19.6,341.3,19.7,341.4,19.7,341.4z"/>
			<path style="fill:#BDB8BC;" d="M324.2,295.4c-0.2,0.6-0.4,0.5-0.6,0H321c0,1.7,0,2.7,0,2.7v21.3h3.3v-7.7v-1.4
				c0,0,0.6-6.3,0.7-8.3c0-0.2,0-0.4,0-0.5c0-0.5,0-3.3,0-6.1H324.2z"/>
			<path style="fill:#887A79;" d="M110.6,319.6v6.1v23.8l0,0h10h203.7l-3.3-30.1L110.6,319.6z M227.2,335.9h14.1l15.2,6.2
				L227.2,335.9L213.7,347l1.2-13.9l-8.4,2.7l-4.3-0.2l2.2,3.3l-31.8,3.8l29.6-7.1l-41.5-1.6l54.3-1l-24.3-0.9l-16.1-7.2l29.2,5.3
				l12.4-8.8L215,333l9.3-1l3.4-3.1l26-3.1l-22.2,5.4l41.4,2.8l-58-1L227.2,335.9z"/>
			<polygon style="fill:#554A48;" points="321,319.4 324.3,349.5 324.3,319.4 			"/>
			<path style="fill:#9C8782;" d="M345.2,349.5h0.6l0,0c0,0,0,0,0.1,0c0,0,0,0,0.1,0s0.4,0,0.8,0h0.1c0.4,0,0.9,0,1.5,0
				c0,0,0,0,0.1,0c0.6,0,1.4,0,2.2,0h0.1c0.8,0,1.8,0,2.8-0.1l0,0c1,0,2.1-0.1,3.3-0.1h0.1c1.2,0,2.4-0.1,3.7-0.1h0.1
				c1.3-0.1,2.6-0.1,4-0.2c0.1,0,0.1,0,0.2,0c0.7,0,1.4-0.1,2.1-0.1c0,0,0,0,0.1,0c0.7,0,1.4-0.1,2.2-0.1c0.1,0,0.1,0,0.2,0
				c0.7-0.1,1.5-0.1,2.3-0.2c0.1,0,0.2,0,0.2,0c1.5-0.1,3.1-0.2,4.7-0.4c0.1,0,0.1,0,0.2,0c1.6-0.1,3.2-0.3,4.8-0.5h0.1
				c8.3-0.9,16.6-2.2,22.8-4.2c2.5-0.8,4.7-1.6,6.4-2.6c0,0,0.1,0,0.1-0.1c0.2-0.1,0.4-0.2,0.5-0.3c0.1,0,0.2-0.1,0.2-0.1
				c0.2-0.1,0.3-0.2,0.4-0.3c0.1-0.1,0.2-0.1,0.3-0.2c0.1-0.1,0.2-0.2,0.4-0.3c0.1-0.1,0.2-0.1,0.3-0.2c0.1-0.1,0.2-0.2,0.3-0.3
				c0.1-0.1,0.2-0.2,0.3-0.2c0.1-0.1,0.2-0.2,0.3-0.3c0.1-0.1,0.2-0.2,0.3-0.3c0.1-0.1,0.1-0.2,0.2-0.2c0.1-0.1,0.2-0.2,0.2-0.3
				c0.1-0.1,0.1-0.2,0.2-0.2c0.1-0.1,0.1-0.2,0.2-0.4c0-0.1,0.1-0.1,0.1-0.2c0.1-0.2,0.2-0.4,0.2-0.6c0-14.3-70.2-16.7-70.2-16.7
				v29.8L345.2,349.5L345.2,349.5z"/>
			<path style="fill:#36150C;" d="M324.3,310.2v1.4h20.9c0-0.4,0-0.6,0-0.7c0-0.6,1.5-9,1.5-9H325
				C324.9,304,324.3,310.2,324.3,310.2z"/>
			<path style="fill:#4B1B0F;" d="M324.3,311.6v7.7v30.1h20.9v-29.9c0,0,0-5.9,0-8L324.3,311.6L324.3,311.6z"/>
			<path style="fill:#6F6564;" d="M31.5,326.2c-9.8,2.4-14,6.8-15.8,9.9l0,0c0,0.3,0,0.5,0.1,0.8c0,0.1,0,0.1,0.1,0.2
				c0,0.2,0.1,0.4,0.2,0.6c0,0.1,0,0.1,0.1,0.2c0.1,0.2,0.2,0.5,0.4,0.7c0,0,0,0,0,0.1c0.1,0.2,0.3,0.4,0.5,0.6
				c0,0.1,0.1,0.1,0.1,0.2c0.2,0.2,0.4,0.4,0.6,0.6l0.1,0.1c0.3,0.2,0.5,0.4,0.8,0.6c0,0,0,0,0.1,0c0.3,0.2,0.6,0.4,0.9,0.6
				c0.1,0,0.1,0.1,0.2,0.1c0.3,0.2,0.7,0.4,1,0.6l0,0c0.2,0.1,0.5,0.2,0.8,0.4c0,0,0.1,0,0.1,0.1c0.2,0.1,0.5,0.2,0.8,0.3
				c0.1,0,0.1,0,0.2,0.1c0.3,0.1,0.5,0.2,0.8,0.3c0.1,0,0.1,0.1,0.2,0.1c0.3,0.1,0.5,0.2,0.8,0.3c0.1,0,0.2,0.1,0.2,0.1
				c0.3,0.1,0.5,0.2,0.8,0.3c0.1,0,0.2,0.1,0.3,0.1c0.3,0.1,0.6,0.2,0.8,0.3c0.1,0,0.2,0.1,0.3,0.1c0.3,0.1,0.6,0.2,0.9,0.2
				c0.1,0,0.2,0.1,0.3,0.1c0.3,0.1,0.6,0.2,0.9,0.2c0.1,0,0.2,0.1,0.3,0.1c0.3,0.1,0.6,0.1,0.9,0.2c0.1,0,0.2,0.1,0.3,0.1
				c0.3,0.1,0.6,0.1,0.9,0.2c0.1,0,0.2,0,0.3,0.1c0.3,0.1,0.6,0.1,1,0.2c0.1,0,0.2,0,0.3,0.1c0.3,0.1,0.7,0.1,1,0.2
				c0.1,0,0.2,0,0.3,0.1c0.3,0.1,0.7,0.1,1,0.2c0.1,0,0.2,0,0.3,0.1c0.4,0.1,0.7,0.1,1.1,0.2c0.1,0,0.2,0,0.3,0
				c0.4,0.1,0.8,0.1,1.2,0.2c0.1,0,0.1,0,0.2,0c0.4,0.1,0.8,0.1,1.3,0.2l0,0c0.5,0.1,1.1,0.2,1.7,0.2c0.1,0,0.2,0,0.2,0
				c0.5,0.1,1,0.1,1.5,0.2c0.1,0,0.2,0,0.2,0c0.5,0.1,1.1,0.1,1.6,0.2h0.1c1.8,0.2,3.6,0.4,5.4,0.6c0,0,0,0,0.1,0
				c0.6,0.1,1.1,0.1,1.7,0.1c0.1,0,0.1,0,0.1,0c0.6,0,1.1,0.1,1.7,0.1h0.1c2.4,0.2,4.7,0.3,6.9,0.5c0,0,0,0,0.1,0
				c0.5,0,1.1,0.1,1.6,0.1h0.1c2.7,0.1,5.3,0.2,7.6,0.3h0.1c0.4,0,0.8,0,1.3,0H72c1.3,0,2.5,0.1,3.6,0.1l0,0c0.4,0,0.7,0,1,0
				c0,0,0,0,0.1,0c0.3,0,0.6,0,0.9,0h0.1c0.3,0,0.5,0,0.8,0l0,0c0.8,0,1.4,0,1.9,0c0.1,0,0.1,0,0.2,0s0.2,0,0.3,0H81
				c0.1,0,0.2,0,0.2,0s0,0,0.1,0s0.1,0,0.2,0l0,0h0.1l0,0v-29.4C71.9,320.1,47.7,322.3,31.5,326.2z"/>
			<path style="fill:#433E3B;" d="M106.2,298.7c0.6-0.8,1.2-2,1.7-3.4h-5.5C103.7,298.3,105.1,300.1,106.2,298.7z"/>
			<path style="fill:#341409;" d="M102.5,348.9c0,0,0-18.2,0-29.3c0-4.8,0-8.3,0-8.5H81.4v9v29.4h29.1v-23.8L102.5,348.9z"/>
			<path style="fill:#593C36;" d="M102.5,319.6c0,11.2,0,29.3,0,29.3l8-23.2v-6.1L102.5,319.6L102.5,319.6z"/>
			<path style="fill:#2E130A;" d="M100.2,303.4H78.6c0,1.1,2.8,7.7,2.8,7.7h21.1C102.5,310.6,100.9,305.4,100.2,303.4z"/>
			<polygon style="fill:#B19C87;" points="203.7,330.4 214.9,333.2 216.1,321.6 			"/>
			<polygon style="fill:#B19C87;" points="227.2,335.9 214.9,333.2 213.7,347.1 			"/>
			<polygon style="fill:#B19C87;" points="174.5,325.1 190.6,332.3 214.9,333.2 203.7,330.4 			"/>
			<polygon style="fill:#B19C87;" points="231.5,331.3 224.3,332.2 214.9,333.2 272.9,334.2 			"/>
			<polygon style="fill:#B19C87;" points="253.7,326 227.6,329.1 224.3,332.2 231.5,331.3 			"/>
			<polygon style="fill:#B19C87;" points="241.2,335.9 227.2,335.9 256.5,342.1 			"/>
			<polygon style="fill:#B19C87;" points="202.2,335.8 206.5,335.9 214.9,333.2 160.7,334.2 			"/>
			<polygon style="fill:#B19C87;" points="204.4,339 202.2,335.8 172.6,342.8 			"/>
			<path style="fill:#854539;" d="M381.7,347.5C381.7,347.5,381.6,347.5,381.7,347.5c-1.7,0.2-3.3,0.3-4.9,0.5c-0.1,0-0.1,0-0.2,0
				c-1.6,0.1-3.1,0.3-4.7,0.4c-0.1,0-0.2,0-0.2,0c-0.8,0.1-1.5,0.1-2.3,0.2c-0.1,0-0.1,0-0.2,0c-0.7,0-1.5,0.1-2.2,0.1l0,0v23
				c20.3-1.6,31.3-4.6,37.5-7.1v-21.4C398.2,345.3,390,346.6,381.7,347.5z"/>
			<path style="fill:#854539;" d="M371.6,348.4c-0.8,0.1-1.5,0.1-2.3,0.2C370.1,348.5,370.9,348.5,371.6,348.4z"/>
			<path style="fill:#854539;" d="M376.6,348c-1.6,0.1-3.1,0.3-4.7,0.4C373.4,348.3,375,348.2,376.6,348z"/>
			<path style="fill:#854539;" d="M381.7,347.5c8.3-0.9,16.6-2.2,22.8-4.2l0,0C398.2,345.3,390,346.6,381.7,347.5z"/>
			<path style="fill:#854539;" d="M381.6,347.5c-1.6,0.2-3.2,0.3-4.8,0.5C378.4,347.9,380,347.7,381.6,347.5z"/>
			<path style="fill:#854539;" d="M369.2,348.6c-0.7,0-1.5,0.1-2.2,0.1C367.8,348.7,368.5,348.6,369.2,348.6z"/>
			<path style="fill:#71331C;" d="M415.4,336.3c-0.1,0.2-0.1,0.4-0.2,0.6c0,0.1-0.1,0.1-0.1,0.2c-0.1,0.1-0.1,0.3-0.2,0.4
				c0,0.1-0.1,0.2-0.2,0.2c-0.1,0.1-0.1,0.2-0.2,0.3c-0.1,0.1-0.1,0.2-0.2,0.2c-0.1,0.1-0.2,0.2-0.3,0.3c-0.1,0.1-0.2,0.2-0.3,0.3
				c-0.1,0.1-0.2,0.2-0.3,0.2c-0.1,0.1-0.2,0.2-0.3,0.3c-0.1,0.1-0.2,0.1-0.3,0.2c-0.1,0.1-0.2,0.2-0.4,0.3
				c-0.1,0.1-0.2,0.1-0.3,0.2c-0.1,0.1-0.3,0.2-0.4,0.3c-0.1,0-0.2,0.1-0.2,0.1c-0.2,0.1-0.4,0.2-0.5,0.3c0,0-0.1,0-0.1,0.1
				c-1.8,1-3.9,1.8-6.4,2.6v21.4c3.7-1.5,5.7-2.8,7-3.5C415.9,358.8,415.4,350.6,415.4,336.3z"/>
			<path style="fill:#71331C;" d="M404.5,343.3c2.5-0.8,4.7-1.6,6.4-2.6C409.2,341.7,407,342.6,404.5,343.3L404.5,343.3z"/>
			<path style="fill:#71331C;" d="M414.5,338c-0.1,0.1-0.1,0.2-0.2,0.2C414.4,338.1,414.4,338,414.5,338z"/>
			<path style="fill:#71331C;" d="M411.6,340.4c-0.2,0.1-0.4,0.2-0.5,0.3C411.2,340.6,411.4,340.5,411.6,340.4z"/>
			<path style="fill:#71331C;" d="M414.9,337.4c0,0.1-0.1,0.2-0.2,0.2C414.8,337.6,414.8,337.5,414.9,337.4z"/>
			<path style="fill:#71331C;" d="M415.2,336.9c0,0.1-0.1,0.1-0.1,0.2C415.1,337,415.2,336.9,415.2,336.9z"/>
			<path style="fill:#71331C;" d="M413.5,339c-0.1,0.1-0.2,0.2-0.3,0.3C413.3,339.2,413.4,339.1,413.5,339z"/>
			<path style="fill:#71331C;" d="M414,338.5c-0.1,0.1-0.2,0.2-0.3,0.3C413.9,338.7,413.9,338.6,414,338.5z"/>
			<path style="fill:#71331C;" d="M412.9,339.5c-0.1,0.1-0.2,0.2-0.4,0.3C412.7,339.7,412.8,339.6,412.9,339.5z"/>
			<path style="fill:#71331C;" d="M412.3,339.9c-0.1,0.1-0.3,0.2-0.4,0.3C412,340.1,412.1,340,412.3,339.9z"/>
			<path style="fill:#503733;" d="M20.7,341.9c-0.4-0.2-0.7-0.4-1-0.6c-0.1,0-0.1-0.1-0.2-0.1c-0.3-0.2-0.6-0.4-0.9-0.6
				c0,0,0,0-0.1,0c-0.3-0.2-0.6-0.4-0.8-0.6l-0.1-0.1c-0.2-0.2-0.4-0.4-0.6-0.6c0-0.1-0.1-0.1-0.1-0.2c-0.2-0.2-0.3-0.4-0.5-0.6
				c0,0,0,0,0-0.1c-0.1-0.2-0.3-0.5-0.4-0.7c0-0.1,0-0.1-0.1-0.2c-0.1-0.2-0.1-0.4-0.2-0.6c0-0.1,0-0.1-0.1-0.2
				c0-0.2-0.1-0.5-0.1-0.8l0,0c-1.2,2-1.3,3.4-1.3,3.4s0,4,0,17.6c0,2.8,2.5,5.2,6.3,7.1L20.7,341.9C20.7,342,20.7,341.9,20.7,341.9
				z"/>
			<path style="fill:#503733;" d="M19.5,341.3c-0.3-0.2-0.6-0.4-0.9-0.6C18.9,340.9,19.2,341.1,19.5,341.3z"/>
			<path style="fill:#503733;" d="M15.7,336.1c0,0.3,0,0.5,0.1,0.8C15.7,336.6,15.7,336.4,15.7,336.1z"/>
			<path style="fill:#503733;" d="M20.7,341.9c-0.4-0.2-0.7-0.4-1-0.6C20,341.6,20.4,341.8,20.7,341.9z"/>
			<path style="fill:#503733;" d="M17.7,340c-0.2-0.2-0.4-0.4-0.6-0.6C17.3,339.6,17.5,339.8,17.7,340z"/>
			<path style="fill:#503733;" d="M18.6,340.7c-0.3-0.2-0.6-0.4-0.8-0.6C18.1,340.3,18.3,340.5,18.6,340.7z"/>
			<path style="fill:#503733;" d="M16,337.7c-0.1-0.2-0.1-0.4-0.2-0.6C15.9,337.3,15.9,337.5,16,337.7z"/>
			<path style="fill:#503733;" d="M17,339.2c-0.2-0.2-0.3-0.4-0.5-0.6C16.6,338.8,16.8,339,17,339.2z"/>
			<path style="fill:#503733;" d="M16.5,338.6c-0.1-0.2-0.3-0.5-0.4-0.7C16.2,338.1,16.3,338.3,16.5,338.6z"/>
			<path style="fill:#493630;" d="M39.7,346.9c-0.4-0.1-0.8-0.1-1.3-0.2c-0.1,0-0.1,0-0.2,0c-0.4-0.1-0.8-0.1-1.2-0.2
				c-0.1,0-0.2,0-0.3,0c-0.4-0.1-0.7-0.1-1.1-0.2c-0.1,0-0.2,0-0.3-0.1c-0.3-0.1-0.7-0.1-1-0.2c-0.1,0-0.2,0-0.3-0.1
				c-0.3-0.1-0.7-0.1-1-0.2c-0.1,0-0.2,0-0.3-0.1c-0.3-0.1-0.6-0.1-1-0.2c-0.1,0-0.2,0-0.3-0.1c-0.3-0.1-0.6-0.1-0.9-0.2
				c-0.1,0-0.2-0.1-0.3-0.1c-0.3-0.1-0.6-0.1-0.9-0.2c-0.1,0-0.2-0.1-0.3-0.1c-0.3-0.1-0.6-0.2-0.9-0.2c-0.1,0-0.2-0.1-0.3-0.1
				c-0.3-0.1-0.6-0.2-0.9-0.2c-0.1,0-0.2-0.1-0.3-0.1c-0.3-0.1-0.6-0.2-0.8-0.3c-0.1,0-0.2-0.1-0.3-0.1c-0.3-0.1-0.5-0.2-0.8-0.3
				c-0.1,0-0.2-0.1-0.2-0.1c-0.3-0.1-0.5-0.2-0.8-0.3c-0.1,0-0.1-0.1-0.2-0.1c-0.3-0.1-0.5-0.2-0.8-0.3c-0.1,0-0.1,0-0.2-0.1
				c-0.3-0.1-0.5-0.2-0.8-0.3c0,0-0.1,0-0.1-0.1c-0.3-0.1-0.5-0.2-0.8-0.4l0,0V364c4.8,2.4,11.7,4.1,19,5.4L39.7,346.9L39.7,346.9z"
				/>
			<path style="fill:#493630;" d="M35.4,346.2c-0.3-0.1-0.7-0.1-1-0.2C34.7,346.1,35.1,346.1,35.4,346.2z"/>
			<path style="fill:#493630;" d="M23.3,343.1c-0.3-0.1-0.5-0.2-0.8-0.3C22.8,342.9,23.1,343,23.3,343.1z"/>
			<path style="fill:#493630;" d="M31.4,345.4c-0.3-0.1-0.6-0.1-0.9-0.2C30.8,345.2,31.1,345.3,31.4,345.4z"/>
			<path style="fill:#493630;" d="M36.8,346.4c-0.4-0.1-0.7-0.1-1.1-0.2C36.1,346.3,36.5,346.4,36.8,346.4z"/>
			<path style="fill:#493630;" d="M24.3,343.5c-0.3-0.1-0.5-0.2-0.8-0.3C23.8,343.3,24.1,343.4,24.3,343.5z"/>
			<path style="fill:#493630;" d="M38.2,346.7c-0.4-0.1-0.8-0.1-1.2-0.2C37.5,346.5,37.9,346.6,38.2,346.7z"/>
			<path style="fill:#493630;" d="M32.7,345.7c-0.3-0.1-0.6-0.1-1-0.2C32,345.5,32.4,345.6,32.7,345.7z"/>
			<path style="fill:#493630;" d="M30.1,345.1c-0.3-0.1-0.6-0.1-0.9-0.2C29.5,345,29.8,345,30.1,345.1z"/>
			<path style="fill:#493630;" d="M39.7,346.9c-0.4-0.1-0.8-0.1-1.3-0.2C38.8,346.7,39.3,346.8,39.7,346.9z"/>
			<path style="fill:#493630;" d="M28.9,344.8c-0.3-0.1-0.6-0.2-0.9-0.2C28.3,344.6,28.6,344.7,28.9,344.8z"/>
			<path style="fill:#493630;" d="M34,345.9c-0.3-0.1-0.7-0.1-1-0.2C33.4,345.8,33.7,345.9,34,345.9z"/>
			<path style="fill:#493630;" d="M26.5,344.1c-0.3-0.1-0.6-0.2-0.8-0.3C25.9,344,26.2,344.1,26.5,344.1z"/>
			<path style="fill:#493630;" d="M27.7,344.5c-0.3-0.1-0.6-0.2-0.9-0.2C27.1,344.3,27.4,344.4,27.7,344.5z"/>
			<path style="fill:#493630;" d="M21.5,342.3c-0.3-0.1-0.5-0.2-0.8-0.4C21,342.1,21.2,342.2,21.5,342.3z"/>
			<path style="fill:#493630;" d="M22.4,342.7c-0.3-0.1-0.5-0.2-0.8-0.3C21.9,342.5,22.1,342.6,22.4,342.7z"/>
			<path style="fill:#493630;" d="M25.4,343.8c-0.3-0.1-0.5-0.2-0.8-0.3C24.9,343.6,25.1,343.7,25.4,343.8z"/>
			<path style="fill:#321F1B;" d="M110.6,349.5L110.6,349.5H81.4l0,0c0,0,0,0-0.1,0l0,0c0,0-0.1,0-0.2,0c0,0,0,0-0.1,0s-0.1,0-0.2,0
				h-0.1c-0.1,0-0.2,0-0.3,0c-0.1,0-0.1,0-0.2,0c-0.5,0-1.1,0-1.9,0l0,0c-0.2,0-0.5,0-0.8,0h-0.1c-0.3,0-0.6,0-0.9,0c0,0,0,0-0.1,0
				c-0.3,0-0.7,0-1,0l0,0c-1.1,0-2.3,0-3.6-0.1h-0.1c-0.4,0-0.8,0-1.3,0h-0.1c-2.3-0.1-4.9-0.2-7.6-0.3h-0.1c-0.5,0-1.1-0.1-1.6-0.1
				c0,0,0,0-0.1,0c-2.2-0.1-4.6-0.3-6.9-0.5h-0.1c-0.6,0-1.1-0.1-1.7-0.1c-0.1,0-0.1,0-0.1,0c-0.6,0-1.1-0.1-1.7-0.1c0,0,0,0-0.1,0
				c-1.8-0.2-3.6-0.3-5.4-0.6h-0.1c-0.5-0.1-1.1-0.1-1.6-0.2c-0.1,0-0.2,0-0.2,0c-0.5-0.1-1-0.1-1.5-0.2c-0.1,0-0.2,0-0.2,0
				c-0.6-0.1-1.1-0.2-1.7-0.2l0,0v22.7c15.1,2.7,31.4,3.3,31.4,3.3s20.1,0,49.5,0v-23.4h-9.9L110.6,349.5L110.6,349.5z"/>
			<path style="fill:#321F1B;" d="M50.5,348.1c-1.8-0.2-3.6-0.3-5.4-0.6C46.9,347.8,48.7,348,50.5,348.1z"/>
			<path style="fill:#321F1B;" d="M54.1,348.4c-0.5,0-1.1-0.1-1.7-0.1C53,348.3,53.5,348.4,54.1,348.4z"/>
			<path style="fill:#321F1B;" d="M52.3,348.3c-0.6,0-1.1-0.1-1.7-0.1C51.1,348.2,51.7,348.2,52.3,348.3z"/>
			<path style="fill:#321F1B;" d="M61.1,348.9c-2.2-0.1-4.6-0.3-6.9-0.5C56.6,348.6,58.9,348.8,61.1,348.9z"/>
			<path style="fill:#321F1B;" d="M43.1,347.3c-0.5-0.1-1-0.1-1.5-0.2C42.1,347.2,42.6,347.3,43.1,347.3z"/>
			<path style="fill:#321F1B;" d="M45,347.6c-0.5-0.1-1.1-0.1-1.6-0.2C43.9,347.4,44.4,347.5,45,347.6z"/>
			<path style="fill:#321F1B;" d="M41.4,347.1c-0.6-0.1-1.1-0.2-1.7-0.2C40.3,347,40.8,347,41.4,347.1z"/>
			<path style="fill:#321F1B;" d="M81.4,349.5c0,0-0.1,0-0.2,0C81.3,349.5,81.3,349.5,81.4,349.5z"/>
			<path style="fill:#321F1B;" d="M62.8,349c-0.5,0-1.1-0.1-1.6-0.1C61.7,348.9,62.3,349,62.8,349z"/>
			<path style="fill:#321F1B;" d="M78.4,349.5c-0.2,0-0.5,0-0.8,0C77.9,349.5,78.2,349.5,78.4,349.5z"/>
			<path style="fill:#321F1B;" d="M80.8,349.5c-0.1,0-0.2,0-0.3,0C80.6,349.5,80.7,349.5,80.8,349.5z"/>
			<path style="fill:#321F1B;" d="M70.5,349.3c-2.3-0.1-4.9-0.2-7.6-0.3C65.6,349.1,68.2,349.2,70.5,349.3z"/>
			<path style="fill:#321F1B;" d="M81.4,349.5L81.4,349.5L81.4,349.5z"/>
			<path style="fill:#321F1B;" d="M81.1,349.5c-0.1,0-0.1,0-0.2,0C81,349.5,81.1,349.5,81.1,349.5z"/>
			<path style="fill:#321F1B;" d="M80.4,349.5c-0.5,0-1.1,0-1.9,0C79.2,349.5,79.9,349.5,80.4,349.5z"/>
			<path style="fill:#321F1B;" d="M71.8,349.3c-0.4,0-0.8,0-1.3,0C71,349.3,71.4,349.3,71.8,349.3z"/>
			<path style="fill:#321F1B;" d="M75.5,349.4c-1.1,0-2.3,0-3.6-0.1C73.2,349.4,74.5,349.4,75.5,349.4z"/>
			<path style="fill:#321F1B;" d="M77.5,349.4c-0.3,0-0.6,0-0.9,0C76.9,349.4,77.2,349.4,77.5,349.4z"/>
			<path style="fill:#321F1B;" d="M76.6,349.4c-0.3,0-0.7,0-1,0C75.9,349.4,76.2,349.4,76.6,349.4z"/>
			<path style="fill:#49241C;" d="M367,348.7c-0.7,0-1.4,0.1-2.1,0.1c-0.1,0-0.1,0-0.2,0c-1.4,0.1-2.7,0.1-4,0.2h-0.1
				c-1.3,0.1-2.5,0.1-3.7,0.1h-0.1c-1.2,0-2.3,0.1-3.3,0.1l0,0c-1,0-2,0.1-2.8,0.1h-0.1c-0.8,0-1.6,0-2.2,0c0,0,0,0-0.1,0
				c-0.6,0-1.1,0-1.5,0h-0.1c-0.4,0-0.6,0-0.8,0c0,0,0,0-0.1,0h-0.1l0,0l0,0h-0.6l0,0h-20.9l0,0H120.6v23.4c64.8,0,174.9,0,215.1,0
				c12.4,0,22.7-0.4,31.3-1.1V348.7L367,348.7z"/>
			<path style="fill:#49241C;" d="M346.8,349.5c-0.4,0-0.6,0-0.8,0C346.1,349.5,346.4,349.5,346.8,349.5z"/>
			<path style="fill:#49241C;" d="M367,348.7c-0.7,0-1.4,0.1-2.1,0.1C365.6,348.8,366.3,348.8,367,348.7z"/>
			<path style="fill:#49241C;" d="M350.6,349.4c-0.8,0-1.6,0-2.2,0C349,349.4,349.8,349.4,350.6,349.4z"/>
			<path style="fill:#49241C;" d="M348.4,349.4c-0.6,0-1.1,0-1.5,0C347.2,349.5,347.7,349.5,348.4,349.4z"/>
			<path style="fill:#49241C;" d="M345.9,349.5L345.9,349.5L345.9,349.5z"/>
			<path style="fill:#49241C;" d="M353.5,349.3c-1,0-2,0.1-2.8,0.1C351.5,349.4,352.5,349.4,353.5,349.3z"/>
			<path style="fill:#49241C;" d="M364.7,348.9c-1.4,0.1-2.7,0.1-4,0.2C362,349,363.3,348.9,364.7,348.9z"/>
			<path style="fill:#49241C;" d="M356.8,349.2c-1.2,0-2.3,0.1-3.3,0.1C354.5,349.3,355.6,349.3,356.8,349.2z"/>
			<path style="fill:#49241C;" d="M360.6,349.1c-1.3,0.1-2.5,0.1-3.7,0.1C358.1,349.2,359.3,349.1,360.6,349.1z"/>
			<path style="fill:#36140A;" d="M99.9,302.5v-7.1v-6.1H85.1h-6.5c0,0,0,2.9,0,6.1c0,3.5,0,7.4,0,8h21.6
				C100,302.8,99.9,302.5,99.9,302.5z"/>
			<path style="fill:#ABA09E;" d="M111,295.4h-3.1h-3.5c-1.8,0-3.4-3.5-4.1-5.2c-0.1-0.3-0.2-0.6-0.3-0.9v13.2c0,0,0.1,0.3,0.3,0.9
				c0.7,2.1,2.3,7.2,2.3,7.7c0,0.2,0,3.7,0,8.5h8l-0.2-21.1C110.6,297.7,110.8,296.6,111,295.4z"/>
			<path style="fill:#481A0D;" d="M325,289.5c0,0,0,2.9,0,5.9c0,2.8,0,5.6,0,6.1c0,0.1,0,0.3,0,0.5h21.8v-6.6v-5.9H325z"/>
		</g>
	</g>
</g>
<g id="Animate">
	<g>
		<g>
			<defs>
				<path id="shine_mask" d="M548.5,133.3c-0.2-6.1-0.4-11.2-0.5-13.9c-0.2-0.5-0.5-1-0.7-1.5c0,0,0,0,0-0.1c0,0-1.8-9.1-7.3-9.1
					c-1.3,0-2,1.3-2.3,2.4c-0.2,0.7-0.3,1.3-0.3,1.3h-57c0,0-3.5,0.1-6.6-9c-1.1-3.1-4.3-13.3-9.1-26.1c-0.7-2.2-1.7-4.7-2.8-7.3
					c-9.3-23.8-22.8-52.7-36.7-61.6C411.7-0.2,393.6,0,388,0S31.7,0,31.7,0s-4.6-0.4-9.4,1.9c-1.6,0.6-3.3,1.3-5.1,2.3
					c-1.9,1.9-3.5,4.5-4.5,8C8.4,26.8,0,53.6,0,146.5c0,0.2,0,0.4,0,0.6c0,0.2,0,0.4,0,0.6c0,89.1,7.8,117.4,12.1,132.4
					c0.2,0.6,0.4,1.2,0.5,1.8c4.2,14.6,19,13.4,19,13.4s249.3,0,330.9,0c15.2,0,24.5,0,25.4,0c2.2,0,6.3,0,11.3-0.5
					c7.8-0.7,17.7-2.7,26-8c19-12.1,37.4-61.9,45.1-84.6c1.7-5,2.9-8.7,3.5-10.4c3-9.1,6.6-9,6.6-9h57c0,0,0,0.4,0.2,1l0,0
					c0,0,0,0,0,0.1c0.3,1.1,0.9,2.8,2.4,2.8c5.5,0,7.3-9.1,7.3-9.1c0.2-0.3,0.3-0.6,0.5-0.9c0.1-0.2,0.2-0.4,0.3-0.6V176l0,0
					C549.1,164.3,548.9,146.3,548.5,133.3z"/>
			</defs>
			<clipPath id="shine_mask_1_">
				<use xlink:href="#shine_mask"  style="overflow:visible;"/>
			</clipPath>
			<g id="shine_mask_group" style="clip-path:url(#shine_mask_1_);">
				<g id="shine2" style="opacity:0.5;">
					<g>
						<polygon id="backPaleLight" style="fill:#FFFFFF;" points="114,294.9 230.9,0.3 455.4,0.3 338.4,294.9 						"/>
					</g>
				</g>
				<g id="shine1">
					<g>
						<polygon id="mainWhiteLight" style="fill:#FFFFFF;" points="0,294.9 117,0.3 341.4,0.3 224.5,294.9 						"/>
					</g>
				</g>
			</g>
		</g>
	</g>
</g>
</svg>
