<?xml version="1.0" encoding="utf-8"?>
<!-- Generator: Adobe Illustrator 25.2.0, SVG Export Plug-In . SVG Version: 6.00 Build 0)  -->
<svg version="1.1" id="Layer_1" xmlns="http://www.w3.org/2000/svg" xmlns:xlink="http://www.w3.org/1999/xlink" x="0px" y="0px"
	 viewBox="0 0 556.8 435" style="enable-background:new 0 0 556.8 435;" xml:space="preserve">
<g id="Deck">
	<g>
		<path style="fill:#808080;" d="M30.1,116.1c-7.7-10.2,23-8.2,20.2-13.7c-2.7-5.5-26.2,1.6-35.5-3.3C8.7,96,4.3,82.2,2,73
			c-0.7,1.8-1.1,2.9-1.1,2.9s-3.3,6.9,2.6,16.4s8.5,9.5,8.5,9.5s9.7,20.4,20.7,22.6c1.2,0.2,5.9,0.6,13.2,1
			C39.5,123.3,33.2,120.3,30.1,116.1z"/>
		<path style="fill:#B3B3B3;" d="M316.1,93.9c-3.6-3.2-19.2-63.9-24.5-84.7L67.3,2.3H44.1c0,0-8.1-1.2-14.3,5.7c0,0-2.9-0.7-10.6,19
			C12.9,43,4.8,65.1,2,73c2.4,9.3,6.8,23,12.8,26.2c9.3,4.9,32.8-2.2,35.5,3.3s-27.9,3.5-20.2,13.7c3.2,4.2,9.5,7.2,15.8,9.2
			c57.9,3.2,282.1,10.7,282.1,10.7s7.7,1.7,14.8-1.7c-5.6-6.4-14.6-17.2-15.7-22.4C325.4,104.3,320.4,97.7,316.1,93.9z"/>
		<path style="fill:#E6E6E6;" d="M379.7,58c-5.1-7.7-36.5-40.5-42.3-47.4l-45.8-1.4c5.3,20.8,20.9,81.5,24.5,84.7
			c4.4,3.8,9.3,10.4,10.9,18c1.1,5.2,10.1,16,15.7,22.4c3.6-1.7,7-4.7,9.2-10C358.5,108.7,384.8,65.7,379.7,58z"/>
		<path style="fill:#999999;" d="M31.6,23.1C31.6,23.1,36,6,46.4,6c17.8,0,260,0.2,284,0c17.3-0.1,10.6,10,6.7,27.5
			s-10.6,41-10.6,41s1.7,8.7-34.6,8.7s-271.6,0-271.6,0S8,82.7,13.1,69.5S31.6,23.1,31.6,23.1z"/>
		<path style="fill:#E6E6E6;" d="M37,17.1C37,17.1,41.5,0,51.9,0c17.8,0,260,0.2,284,0c17.3-0.1,10.6,10,6.7,27.5s-10.6,41-10.6,41
			s1.7,8.7-34.6,8.7s-271.6,0-271.6,0s-12.3-0.5-7.2-13.7S37,17.1,37,17.1z"/>
		<g>
			<path style="fill:#E6E6E6;" d="M19.7,69.3L41.2,8.7c1.6-4.4,11.8-8,22.9-8h265.7c11.1,0,18.8,3.6,17.2,8l-21.5,60.6
				c-1.6,4.4-11.8,8-22.9,8H36.9C25.9,77.3,18.1,73.7,19.7,69.3z"/>
			<polygon style="fill:#FFFFFF;" points="177.3,4.6 60,73.4 70.8,73.4 188.1,4.6 			"/>
			<polygon style="fill:#D12725;" points="166.6,4.6 49.3,73.4 60,73.4 177.3,4.6 			"/>
			<path style="fill:#FFFFFF;" d="M155.8,4.6L39.1,73.1c1.5,0.2,3.2,0.4,5,0.4h5.2L166.6,4.6H155.8z"/>
			<polygon style="fill:#D12725;" points="188.1,4.6 70.8,73.4 81.5,73.4 198.8,4.6 			"/>
			<polygon style="fill:#FFFFFF;" points="220.3,4.6 103,73.4 113.8,73.4 231.1,4.6 			"/>
			<path style="fill:#D12725;" d="M145,4.6L32,70.9c1.6,1,4,1.8,7,2.2L155.8,4.6H145z"/>
			<polygon style="fill:#D12725;" points="209.6,4.6 92.3,73.4 103,73.4 220.3,4.6 			"/>
			<polygon style="fill:#FFFFFF;" points="198.8,4.6 81.5,73.4 92.3,73.4 209.6,4.6 			"/>
			<polygon style="fill:#D12725;" points="102,4.6 39.1,41.5 36.2,49.5 112.8,4.6 			"/>
			<path style="fill:#D12725;" d="M68.5,4.6c-5.4,0-10.5,1-14,2.6l-2.8,1.7c-0.9,0.7-1.5,1.4-1.8,2.2l-2.3,6.5l22.2-13
				C69.8,4.6,68.5,4.6,68.5,4.6z"/>
			<polygon style="fill:#FFFFFF;" points="69.8,4.6 47.6,17.6 44.7,25.6 80.5,4.6 			"/>
			<polygon style="fill:#D12725;" points="80.5,4.6 44.7,25.6 41.9,33.6 91.3,4.6 			"/>
			<path style="fill:#1F1F1F;" d="M51.7,8.9l2.8-1.7C53.4,7.7,52.5,8.3,51.7,8.9z"/>
			<path style="fill:#FFFFFF;" d="M134.3,4.6L30.6,65.5L30,67c-0.5,1.5,0.3,2.8,2,3.9L145,4.6H134.3z"/>
			<polygon style="fill:#D12725;" points="123.5,4.6 33.4,57.5 30.6,65.5 134.3,4.6 			"/>
			<polygon style="fill:#FFFFFF;" points="112.8,4.6 36.2,49.5 33.4,57.5 123.5,4.6 			"/>
			<polygon style="fill:#D12725;" points="231.1,4.6 113.8,73.4 124.5,73.4 241.8,4.6 			"/>
			<polygon style="fill:#FFFFFF;" points="91.3,4.6 41.9,33.6 39.1,41.5 102,4.6 			"/>
			<polygon style="fill:#D12725;" points="252.6,4.6 135.3,73.4 146.1,73.4 263.4,4.6 			"/>
			<polygon style="fill:#FFFFFF;" points="324.5,44.5 275.1,73.4 285.9,73.4 321.7,52.4 			"/>
			<polygon style="fill:#FFFFFF;" points="330.1,28.5 253.6,73.4 264.4,73.4 327.3,36.5 			"/>
			<polygon style="fill:#D12725;" points="327.3,36.5 264.4,73.4 275.1,73.4 324.5,44.5 			"/>
			<polygon style="fill:#D12725;" points="333,20.5 242.9,73.4 253.6,73.4 330.1,28.5 			"/>
			<polygon style="fill:#D12725;" points="321.7,52.4 285.9,73.4 296.6,73.4 318.8,60.4 			"/>
			<polygon style="fill:#FFFFFF;" points="335.8,12.6 232.1,73.4 242.9,73.4 333,20.5 			"/>
			<path style="fill:#1F1F1F;" d="M311.9,70.8c1.1-0.5,2.1-1.1,2.8-1.7L311.9,70.8z"/>
			<path style="fill:#FFFFFF;" d="M316.5,67l2.3-6.5l-22.2,13h1.2c5.4,0,10.5-1,14-2.6l2.8-1.7C315.6,68.5,316.2,67.7,316.5,67z"/>
			<polygon style="fill:#FFFFFF;" points="241.8,4.6 124.5,73.4 135.3,73.4 252.6,4.6 			"/>
			<polygon style="fill:#FFFFFF;" points="284.9,4.6 167.6,73.4 178.3,73.4 295.6,4.6 			"/>
			<polygon style="fill:#D12725;" points="295.6,4.6 178.3,73.4 189.1,73.4 306.4,4.6 			"/>
			<polygon style="fill:#D12725;" points="274.1,4.6 156.8,73.4 167.6,73.4 284.9,4.6 			"/>
			<path style="fill:#D12725;" d="M336.3,11.1c0.5-1.5-0.3-2.8-2-3.9l-113,66.3h10.8l103.7-60.9L336.3,11.1z"/>
			<polygon style="fill:#FFFFFF;" points="263.4,4.6 146.1,73.4 156.8,73.4 274.1,4.6 			"/>
			<path style="fill:#FFFFFF;" d="M327.3,4.9L210.6,73.4h10.8l113-66.3C332.7,6.1,330.3,5.4,327.3,4.9z"/>
			<polygon style="fill:#FFFFFF;" points="306.4,4.6 189.1,73.4 199.8,73.4 317.1,4.6 			"/>
			<path style="fill:#D12725;" d="M322.3,4.6h-5.2L199.8,73.4h10.8L327.3,4.9C325.7,4.7,324.1,4.6,322.3,4.6z"/>
		</g>
	</g>
	<g>
		<path style="fill:#E6E6E6;" d="M93.8,407l68.9-87c5-6.3,19.3-10.9,31.8-10.3l301.6,15.4c12.6,0.6,18.7,6.3,13.7,12.6l-68.9,87
			c-5,6.3-19.3,10.9-31.8,10.3l-301.6-15.4C95,418.9,88.8,413.3,93.8,407z"/>
		<polygon style="fill:#FFFFFF;" points="320.2,321.8 136.5,415.3 148.7,415.9 332.4,322.5 		"/>
		<polygon style="fill:#D12725;" points="308,321.2 124.3,414.7 136.5,415.3 320.2,321.8 		"/>
		<path style="fill:#FFFFFF;" d="M295.8,320.6l-182.7,93c1.6,0.4,3.3,0.7,5.4,0.8l5.9,0.3L308,321.2L295.8,320.6z"/>
		<polygon style="fill:#D12725;" points="332.4,322.5 148.7,415.9 160.9,416.6 344.6,323.1 		"/>
		<polygon style="fill:#FFFFFF;" points="369,324.3 185.4,417.8 197.6,418.4 381.2,325 		"/>
		<path style="fill:#D12725;" d="M283.6,320l-176.9,90c1.1,1.6,3.3,2.8,6.4,3.6l182.7-93L283.6,320z"/>
		<polygon style="fill:#D12725;" points="356.8,323.7 173.2,417.2 185.4,417.8 369,324.3 		"/>
		<polygon style="fill:#FFFFFF;" points="344.6,323.1 160.9,416.6 173.2,417.2 356.8,323.7 		"/>
		<polygon style="fill:#D12725;" points="234.7,317.5 136.2,367.7 127.1,379.1 246.9,318.1 		"/>
		<path style="fill:#D12725;" d="M196.7,315.6c-6.1-0.3-12.6,0.9-17.8,3l-4.4,2.3c-1.5,1-2.8,2-3.7,3.1l-7.4,9.4l34.7-17.7
			L196.7,315.6z"/>
		<polygon style="fill:#FFFFFF;" points="198.1,315.6 163.4,333.3 154.3,344.8 210.3,316.2 		"/>
		<polygon style="fill:#D12725;" points="210.3,316.2 154.3,344.8 145.2,356.2 222.5,316.9 		"/>
		<path style="fill:#FFFFFF;" d="M271.4,319.4L109,402l-1.7,2.1c-1.7,2.1-1.7,4.2-0.6,5.9l176.9-90L271.4,319.4z"/>
		<polygon style="fill:#D12725;" points="259.1,318.7 118,390.6 109,402 271.4,319.4 		"/>
		<polygon style="fill:#FFFFFF;" points="246.9,318.1 127.1,379.1 118,390.6 259.1,318.7 		"/>
		<polygon style="fill:#D12725;" points="381.2,325 197.6,418.4 209.8,419.1 393.4,325.6 		"/>
		<polygon style="fill:#FFFFFF;" points="222.5,316.9 145.2,356.2 136.2,367.7 234.7,317.5 		"/>
		<polygon style="fill:#D12725;" points="405.6,326.2 222,419.7 234.2,420.3 417.9,326.8 		"/>
		<polygon style="fill:#FFFFFF;" points="458,388.4 380.7,427.8 392.9,428.4 448.9,399.9 		"/>
		<polygon style="fill:#FFFFFF;" points="476.1,365.5 356.3,426.5 368.5,427.2 467.1,377 		"/>
		<polygon style="fill:#D12725;" points="467.1,377 368.5,427.2 380.7,427.8 458,388.4 		"/>
		<polygon style="fill:#D12725;" points="485.2,354.1 344.1,425.9 356.3,426.5 476.1,365.5 		"/>
		<polygon style="fill:#D12725;" points="448.9,399.9 392.9,428.4 405.1,429 439.9,411.3 		"/>
		<polygon style="fill:#FFFFFF;" points="494.2,342.6 331.9,425.3 344.1,425.9 485.2,354.1 		"/>
		<path style="fill:#1F1F1F;" d="M424.3,426.1c1.6-0.7,3.1-1.4,4.4-2.3L424.3,426.1z"/>
		<path style="fill:#FFFFFF;" d="M432.4,420.7l7.4-9.4L405.1,429l1.4,0.1c6.1,0.3,12.6-0.9,17.8-3l4.4-2.3
			C430.3,422.9,431.5,421.8,432.4,420.7z"/>
		<polygon style="fill:#FFFFFF;" points="393.4,325.6 209.8,419.1 222,419.7 405.6,326.2 		"/>
		<polygon style="fill:#FFFFFF;" points="442.3,328.1 258.6,421.5 270.8,422.2 454.5,328.7 		"/>
		<polygon style="fill:#D12725;" points="454.5,328.7 270.8,422.2 283,422.8 466.7,329.3 		"/>
		<polygon style="fill:#D12725;" points="430.1,327.5 246.4,420.9 258.6,421.5 442.3,328.1 		"/>
		<path style="fill:#D12725;" d="M495.9,340.5c1.7-2.1,1.7-4.2,0.6-5.9l-176.9,90l12.2,0.6l162.4-82.6L495.9,340.5z"/>
		<polygon style="fill:#FFFFFF;" points="417.9,326.8 234.2,420.3 246.4,420.9 430.1,327.5 		"/>
		<path style="fill:#FFFFFF;" d="M490.2,331l-182.7,93l12.2,0.6l176.9-90C495.4,333.1,493.2,331.8,490.2,331z"/>
		<polygon style="fill:#FFFFFF;" points="466.7,329.3 283,422.8 295.2,423.4 478.9,329.9 		"/>
		<path style="fill:#D12725;" d="M484.8,330.2l-5.9-0.3l-183.7,93.5l12.2,0.6l182.7-93C488.6,330.7,486.8,330.3,484.8,330.2z"/>
	</g>
</g>
<g id="Card">
	<g>
		<path style="fill:#E6E6E6;" d="M290.1,222.2c0,0,144.5-14.2,184.5-20c0,0,21.9-5.1,25.5,0s54.7,113,54.7,113s7.9,10.2-6.8,13.5
			s-158.3,28.1-207.2,28.1c-30.6,0-28.8,0-32.8-10.6s-41.6-111.9-41.6-114.8C266.4,228.4,261.5,225,290.1,222.2z"/>
		<path style="fill:#DE6968;" d="M280.3,230.6c0.7-0.1,1.2-0.7,2,2.1s0.7,3.3-0.3,3.6s-1.8-1.3-2.1-2.9
			C279.6,231.7,279.5,230.7,280.3,230.6z"/>
		<path style="fill:#DE6968;" d="M302.9,231.7c-1-3.7-9.8-2.9-9.8-2.9c-2.8,0.1-8.3,2.1-7,5.2c1.3,3.1,8,2.9,9.8,2.6
			C297.8,236.4,303.9,235.4,302.9,231.7z M295.6,235.7c-1.4,0.2-6.6,0.4-7.6-2s3.3-4,5.4-4c0,0,6.7-0.6,7.5,2.2
			S297,235.5,295.6,235.7z"/>
		<path style="fill:#DE6968;" d="M292.7,243.2c0,0-3,1.7-3.8,0.6c-0.8-1.1,1-2.7,3-2.1c0,0-0.2-2.6,1.6-2.6s2.4,2.1,2.4,2.1
			s4.6-1.3,4.6,0.5c0.1,1.7-2.6,1.7-4.1,1.4c0,0-0.8,0.9,0.3,1.5l-2.6,0.5C294.1,245,294.9,243.4,292.7,243.2z"/>
		<path style="fill:#BF4745;" d="M345.9,239.1c0.1,0-1.7-1.9-1.9-2c-0.8-0.6-1.8-1-2.8-1.3c-0.9-0.3-2.4-0.4-2.7-1.6
			c-0.8-2.6,4.4-2.5,5.8-2.5c9,0,7.8,1.9,5.9,4.2s-0.7,3.2-0.7,3.2s7.4,0.9,11.1-1.3s9.4-1.1,8.6,1.5s-10.4,2.7-16.8,1.2
			c-0.9-0.2-2.6-0.6-2.8,0.7c-0.1,0.6,0.2,1.3,0.6,1.8c1,1.5,2.2,2.8,3.7,3.9c-2.4,0.2-4.9,0.4-7.3,0.7c0.7-1.4,1.2-3,1.2-4.6
			c0-0.5,0-1-0.2-1.4c-0.6-1-2-1-3.1-0.7c-3.2,0.8-6.1,2.6-9.3,3.5c-1.8,0.5-3.8,0.7-5.6,0.2c-1.2-0.3-4-1.4-3.8-3
			c0.1-0.5,0.4-0.9,0.9-1.1C332.3,237.8,339.7,241,345.9,239.1z"/>
		<path style="fill:#BF4745;" d="M428.6,229.9c0.1,0-1.7-1.9-1.9-2c-0.8-0.6-1.8-1-2.8-1.3c-0.9-0.3-2.4-0.4-2.7-1.6
			c-0.8-2.6,4.4-2.5,5.8-2.5c9,0,7.8,1.9,5.9,4.2s-0.7,3.2-0.7,3.2s7.4,0.9,11.1-1.3s9.4-1.1,8.6,1.5s-10.4,2.7-16.8,1.2
			c-0.9-0.2-2.6-0.6-2.8,0.7c-0.1,0.6,0.2,1.3,0.6,1.8c1,1.5,2.2,2.8,3.7,3.9c-2.4,0.2-4.9,0.4-7.3,0.7c0.7-1.4,1.2-3,1.2-4.6
			c0-0.5,0-1-0.2-1.4c-0.6-1-2-1-3.1-0.7c-3.2,0.8-6.1,2.6-9.3,3.5c-1.8,0.5-3.8,0.7-5.6,0.2c-1.2-0.3-4-1.4-3.8-3
			c0.1-0.5,0.4-0.9,0.9-1.1C415.1,228.7,422.5,231.8,428.6,229.9z"/>
		<path style="fill:#BF4745;" d="M317.7,271.3c0.1,0-2.2-2.2-2.5-2.4c-2.2-1.5-5.2-1.4-5.5-2.6c-0.8-2.6,4.9-3.1,6.3-3.1
			c9,0,8.7,1.8,5.9,4.9c-2.1,2.2-0.7,3.2-0.7,3.2s7.4,0.2,11.1-1.3c4-1.6,10.2-0.8,9.4,1.8c-1.1,3.3-11.6,2.2-18,0.8
			c-0.9-0.2-2.2,0.1-2.4,0.8c-0.1,0.6,0.2,1.3,0.6,1.8c1,1.5,2.7,3.1,4.2,4.2c-2.4,0.2-5.3,0.2-7.8,0.4c0.7-1.4,1.2-3,1.2-4.6
			c0-0.5,0-1-0.2-1.4c-0.6-1-2-1-3.1-0.7c-3.2,0.8-4.1,1.9-7.3,2.8c-1.8,0.5-6.5,0.7-8.4,0.3c-1.2-0.3-3.2-0.7-3-2.3
			c0.1-0.5,0.4-0.9,0.9-1.1C304.2,270.1,311.6,273.3,317.7,271.3z"/>
		<path style="fill:#BF4745;" d="M399,264.1c0.1,0-2.3-2.2-2.5-2.3c-2.3-1.5-5.2-1.4-5.5-2.6c-0.8-2.6,4.9-3.1,6.3-3.1
			c9,0,8.8,1.8,5.9,4.8c-2,2.2-0.7,3.3-0.7,3.3s7.4,0.1,11.1-1.4c4-1.7,10.2-0.8,9.4,1.8c-1.1,3.3-11.6,2.3-18,0.9
			c-0.9-0.2-2.2,0.1-2.3,0.8c-0.1,0.6,0.2,1.3,0.6,1.8c1,1.5,2.7,3.1,4.2,4.1c-2.4,0.2-5.3,0.2-7.8,0.4c0.7-1.4,1.2-3,1.2-4.6
			c0-0.5,0-1-0.3-1.4c-0.6-1-2-1-3.1-0.7c-3.2,0.8-4.1,1.9-7.3,2.8c-1.8,0.5-6.5,0.8-8.4,0.3c-1.2-0.3-3.2-0.7-3-2.3
			c0.1-0.5,0.4-0.9,0.9-1.1C385.5,262.9,392.9,266,399,264.1z"/>
		<path style="fill:#BF4745;" d="M480.2,253.3c0.1,0-2.4-2-2.6-2.1c-2.4-1.3-5.3-1-5.7-2.1c-1-2.5,4.7-3.5,6-3.6
			c9-0.8,8.9,1.1,6.3,4.4c-1.9,2.4-0.4,3.3-0.4,3.3s7.4-0.4,10.9-2.2c3.8-2,10.1-1.6,9.5,1.1c-0.8,3.4-11.4,3.2-17.9,2.3
			c-0.9-0.1-2.2,0.3-2.3,1c-0.1,0.6,0.3,1.3,0.7,1.8c1.1,1.4,2.9,2.9,4.5,3.8c-2.4,0.4-5.3,0.6-7.7,1.1c0.6-1.5,0.9-3.1,0.8-4.7
			c0-0.5-0.1-1-0.4-1.4c-0.7-1-2.1-0.8-3.2-0.5c-3.2,1-3.9,2.2-7,3.4c-1.7,0.7-6.5,1.3-8.3,1c-1.2-0.2-3.3-0.5-3.2-2
			c0-0.5,0.4-0.9,0.8-1.2C466.6,253.2,474.2,255.7,480.2,253.3z"/>
		<path style="fill:#D12725;" d="M322.5,294.7c0,0,5.6,2.2,6.2,6.1c0,0-4,0.3-7.5-0.7c-3.4-1-14.1-1.5-14.1,2.3s10.9,2.9,13.3,2.1
			c2.5-0.9,4.2-2.2,8.6-2.2c0,0,0.7,2.1-2.6,4.4s-1.8,5.3,6.4,5.3c8.2,0,11.8-2.7,5.6-5.8s-5.7-2.6-5.7-4.5c0,0,5.8,0,7.8,0.9
			s13.3,1.4,13.3-2.1c0-3.4-7.6-3.4-10-2.9s-8.1,3.1-12,3c0,0-2.3-2.8,1-6.4L322.5,294.7z"/>
		<path style="fill:#D12725;" d="M404.5,288.2c0,0,5.7,1.8,6.6,5.6c0,0-4,0.6-7.5-0.2c-3.5-0.8-14.2-0.5-13.9,3.2
			c0.3,3.8,11,2.2,13.4,1.1s4.1-2.5,8.4-2.8c0,0,0.8,2.1-2.3,4.6s-1.4,5.4,6.8,4.8c8.2-0.6,11.5-3.5,5.2-6.2c-6.4-2.6-5.8-2.2-6-4.1
			c0,0,5.8-0.4,7.8,0.3c2,0.7,13.4,0.4,13.2-3c-0.2-3.4-7.8-2.9-10.2-2.2c-2.3,0.7-7.8,3.6-11.7,3.8c0,0-2.5-2.6,0.6-6.5
			L404.5,288.2z"/>
		<path style="fill:#D12725;" d="M374.9,322c0,0,5.7,2,6.3,5.9c0,0-4,0.5-7.5-0.4c-3.4-0.9-14.1-1-14,2.7c0.1,3.8,11,2.6,13.4,1.6
			s4.2-2.3,8.5-2.5c0,0,0.8,2.1-2.4,4.5c-3.2,2.4-1.6,5.3,6.6,5s11.7-3.1,5.4-6c-6.2-2.9-5.8-2.4-5.8-4.3c0,0,5.8-0.2,7.8,0.6
			c2,0.8,13.4,0.9,13.3-2.5s-7.7-3.2-10.1-2.5c-2.4,0.6-8,3.3-11.9,3.4c0,0-2.4-2.7,0.8-6.5L374.9,322z"/>
		<path style="fill:#D12725;" d="M461,312.1c0,0,5.7,1.8,6.6,5.6c0,0-4,0.6-7.5-0.1c-3.5-0.8-14.2-0.5-13.9,3.3s11.1,2.2,13.4,1.1
			c2.4-1.1,4.1-2.5,8.4-2.8c0,0,0.8,2.1-2.3,4.6s-1.4,5.4,6.8,4.8c8.2-0.6,11.5-3.6,5.2-6.2c-6.4-2.6-5.8-2.2-6-4.1
			c0,0,5.8-0.4,7.8,0.3c2,0.7,13.4,0.4,13.1-3c-0.2-3.4-7.8-2.9-10.2-2.2c-2.3,0.7-7.8,3.6-11.7,3.9c0,0-2.5-2.6,0.6-6.5L461,312.1z
			"/>
		<path style="fill:#D12725;" d="M486.6,276.3c0,0,5.8,1.6,6.7,5.4c0,0-4,0.8-7.5,0.1c-3.5-0.7-14.2,0-13.8,3.7
			c0.4,3.7,11.1,1.8,13.5,0.7c2.4-1.1,4-2.6,8.3-3.1c0,0,0.9,2-2.1,4.7s-1.2,5.4,6.9,4.6c8.2-0.9,11.4-3.9,5-6.4
			c-6.4-2.4-5.9-2-6.1-3.9c0,0,5.8-0.6,7.8,0.1s13.4,0,13-3.4s-7.9-2.6-10.2-1.8c-2.3,0.8-7.7,3.9-11.6,4.2c0,0-2.6-2.5,0.4-6.5
			L486.6,276.3z"/>
		<path style="fill:#D12725;" d="M536.5,316.7c1.6-0.5,4.6-1.1,4.7-0.8c0.1,0.3-1,1-1.4,1.1l1.4,4c0,0,2.5-0.7,2.5,0
			c0.1,0.7-4.4,1.6-4.4,1.6s-0.7,0.1-0.8-0.3c-0.1-0.3,1.2-0.9,1.2-0.9l-1.4-4.1c0,0-2.1,0.3-2.3-0.1
			C535.9,316.9,536.5,316.7,536.5,316.7z"/>
		<path style="fill:#D12725;" d="M535.4,320.4c-0.4-1.1-2.3-2.9-9.8-2c-9.4,1.1-8.4,4.6-8.4,4.6c0.1,1.4,3.9,3.1,10.7,2.2
			C534.6,324.4,535.7,321.4,535.4,320.4z M527.6,324.7c-5.7,0.7-9-0.7-9-1.9c0,0-0.9-2.9,7.1-3.9c6.3-0.8,7.9,0.8,8.3,1.7
			C534.3,321.5,533.3,324,527.6,324.7z"/>
		<path style="fill:#BF4745;" d="M522.7,309.7c0,0,2.8-0.9,3-0.6s-0.3,1.1-0.2,1.4s2.8-0.3,3.6-0.7c0.8-0.5,2.1-0.1,2.4,0.5
			s-1.8,1.2-3.3,1.2s-2.1,0.3-1.8,0.7c0.3,0.3,1.9,0.2,1.9,1s-1.2,1.4-2.1,1.3c-0.9-0.1-3-0.4-2.3-1.2c0.7-0.9-0.1-1.2-0.8-0.9
			c-0.8,0.4-1.6,1.2-3.1,0.9s-1.6-1.6-0.5-1.8c1-0.2,3.3,0,4.3-0.4C524.7,310.7,522.7,309.7,522.7,309.7z"/>
	</g>
</g>
<g>
	<g>
		<defs>
			<path id="SVGID_1_" d="M554.8,315.2c0,0-51.1-107.9-54.7-113s-25.5,0-25.5,0c-40,5.8-184.5,20-184.5,20
				c-28.6,2.8-23.7,6.2-23.7,9.2c0,2.9,37.6,104.2,41.6,114.8s2.2,10.6,32.8,10.6c48.9,0,192.5-24.8,207.2-28.1
				S554.8,315.2,554.8,315.2z"/>
		</defs>
		<clipPath id="SVGID_2_">
			<use xlink:href="#SVGID_1_"  style="overflow:visible;"/>
		</clipPath>
		<g id="Move_this_x5F_shine" style="clip-path:url(#SVGID_2_);">
			<g id="shine3" style="opacity:0.5;">
				<g>
					<polygon style="fill:#FFFFFF;" points="348.5,359.3 414.9,192 542.4,192 476,359.3 					"/>
				</g>
			</g>
			<g id="shine2">
				<g>
					<polygon style="fill:#FFFFFF;" points="283.8,359.3 350.2,192 477.6,192 411.2,359.3 					"/>
				</g>
			</g>
		</g>
	</g>
</g>
</svg>
