<?xml version="1.0" encoding="utf-8"?>
<!-- Generator: Adobe Illustrator 25.1.0, SVG Export Plug-In . SVG Version: 6.00 Build 0)  -->
<svg version="1.1" xmlns="http://www.w3.org/2000/svg" xmlns:xlink="http://www.w3.org/1999/xlink" x="0px" y="0px"
	 viewBox="0 0 209 126.3" style="enable-background:new 0 0 209 126.3;" xml:space="preserve">
<g id="money0">
	<g>
		<path style="fill:none;" d="M97.1,61.2c0.5-0.1,0.9-0.1,1.3-0.2L97.1,61.2L97.1,61.2z"/>
		<path style="fill:#54B948;" d="M17.2,94.7c0,0-12.9-13.6-14.5-16.3l-0.8-0.1l0.6,1.9l11,15.1C13.5,95.2,14.9,95.1,17.2,94.7z"/>
		<path style="fill:#1F6622;" d="M20.2,87.9c1.7-0.5,9.9-2.7,14.6-3.9c-3,0.5-5.1,0.8-5.1,0.8c-4.8,1.1-9.1,2-10.9,2.3
			c-3.5,0.7-4,0.4-4,0.1c0-0.1,0-0.1,0-0.1L1.7,73l1,3.1v2.3c1.6,2.7,14.5,16.3,14.5,16.3h0L17,91.6l-0.5-0.2V89
			C16.6,89,17.7,88.7,20.2,87.9z"/>
		<polygon style="fill:#FFFF00;" points="17.2,94.7 17.2,94.7 17.2,94.7 		"/>
		<path style="fill:#3D9038;" d="M15,100c-0.1-1.2-0.5-1.3-0.5-2.4s-1.1-2.3-1.1-2.3l-11-15.1L2,80.9l0.7,1l-0.1,2.9l12.2,17.4
			C14.8,102.1,15.1,101.2,15,100z"/>
		<path style="fill:#3D9038;" d="M15,79.9L1,64.8l-0.7,0.4l0.4,5.3L0,71.2L1.7,73l13,14.1C15,85.9,15,82,15,79.9z"/>
		<path style="fill:#FFFF00;" d="M14.7,87.2c0,0,0-0.1,0-0.1C14.7,87.1,14.7,87.2,14.7,87.2z"/>
		<path style="fill:#54B948;" d="M98,54.7l-1.9-0.9c0,0-4.6,0.8-11.1,3.2C85.1,57,93.1,55.1,98,54.7z"/>
		<path style="fill:#54B948;" d="M48.7,66.4C48.7,66.4,48.7,66.4,48.7,66.4c-5.1,1.3-9.7,2.4-13.1,3.2c-14.3,3.2-19.7,6.3-19.7,6.3
			C12.9,73,0,61.3,0,61.3L0.3,64L1,64.8l14,15.2l1.7,1.8c0,0,11.8-3.3,21.2-5.9c4.9-1.4,9.1-2.5,10.7-3C49,69.8,48.7,66.4,48.7,66.4
			z"/>
		<path style="fill:#8FB73F;" d="M35.5,69.6c3.4-0.8,8.1-1.9,13.1-3.2C43,60,34.5,55.1,30,52.8c-11.2,2.7-22.1,5.4-24,5.9
			c-3.8,1.1-6,2.6-6,2.6S12.9,73,15.8,75.8C15.8,75.8,21.2,72.8,35.5,69.6z"/>
		<path style="fill:#CFB16E;" d="M68.9,61.3L68.9,61.3c-6.3,1.6-13.6,3.5-20.2,5.1c0,0,0,0,0,0s0.4,3.4-0.2,6.5
			c4-1.1,13.4-3.7,20.3-5.4c0,0,0,0,0,0C69,65.5,68.9,61.3,68.9,61.3z"/>
		<path style="fill:#54B948;" d="M98.4,57.7l-7.7,1.2l7.1-1.7l0.3-2.5C93.1,55.1,85.1,57,85.1,57s-7.1,1.9-16.2,4.2l0,0
			c0,0,0.1,4.2-0.1,6.2c0,0,0,0,0,0c0.7-0.2,1.4-0.3,2.1-0.5c1.6-0.4,3.7-0.8,6-1.4c6.8-1.6,15.3-3.7,20.2-4.4l0,0l1.4-0.2V57.7z"/>
		<path style="fill:#8FB73F;" d="M68.9,61.3C78,58.9,85.1,57,85.1,57c6.4-2.4,11.1-3.2,11.1-3.2l2.3-0.8c0,0-18.5-11.3-20.3-11.5
			c-1.8-0.2-15.8,3-21.8,4.7c-1.1,0.3-3.3,0.9-6.3,1.6c1.8,1,5.3,2.8,8.1,4.9C62.1,55.8,68.9,61.3,68.9,61.3z"/>
		<path style="fill:#DAD179;" d="M58.1,52.8c-2.8-2.1-6.3-4-8.1-4.9c-5.2,1.3-12.7,3.1-20,4.9C34.5,55.1,43,60,48.7,66.4
			c6.6-1.6,13.9-3.5,20.2-5.1C68.9,61.3,62.1,55.8,58.1,52.8z"/>
		<path style="fill:#1A400A;" d="M68.6,76c2.9-0.7,5.5-1.3,7.6-1.7c5.6-1.2,17.9-3.6,21.2-4.8h-3.5c-8.9,2.3-17.5,3.5-24.6,5.1
			c-0.6,0.1-1.3,0.3-2,0.5L68.6,76L68.6,76z"/>
		<path style="fill:#C18765;" d="M52.8,80.2c4.9-1.5,10.8-3,15.8-4.1v0l-1.4-0.9c-7,1.6-16.1,3.9-19.4,5.2l1.1,0.9
			C50.4,80.9,51.7,80.5,52.8,80.2z"/>
		<path style="fill:#1A400A;" d="M47.9,80.3c-2.2,0.9-10.8,2.9-18.2,4.5c0,0,2.1-0.3,5.1-0.8c2-0.5,3.4-0.9,3.4-0.9
			s-1.4,0.4-3.4,0.9c4-0.7,9.6-1.7,14.2-2.8L47.9,80.3z"/>
		<path style="fill:#54B948;" d="M97.5,72.9l-0.1-3.3c-3.3,1.1-15.5,3.5-21.2,4.8c-2.1,0.4-4.7,1-7.6,1.7l0.6,6l0,0
			c1.2-0.2,2-0.4,2.3-0.3c1.8,0.1,19.7-3.4,25.1-5.5h0.9v-2.5l-2.1-0.3L97.5,72.9z"/>
		<path style="fill:#CFB16E;" d="M68.6,76c-5,1.2-10.8,2.6-15.8,4.1c-1.1,0.4-2.4,0.7-3.8,1l0,0l0.2,5.7l0,0
			c5.1-1.3,15.4-3.9,20.1-4.8l0,0L68.6,76z"/>
		<path style="fill:#54B948;" d="M49,81.2L49,81.2c-4.6,1.1-10.2,2.1-14.2,2.8c-4.7,1.2-12.9,3.4-14.6,3.9c-2.5,0.8-3.6,1.1-3.6,1.1
			v2.3l0.5,0.2l0.2,3.1c2.7-0.4,6.7-1.2,11.5-2.3c5.2-1.2,11.3-2.7,17.5-4.7c0.4-0.1,1.4-0.4,2.8-0.8L49,81.2z"/>
		<path style="fill:#54B948;" d="M28.8,92.4L28.8,92.4c-4.8,1.1-8.8,1.8-11.6,2.3v0l0,0c-2.4,0.4-3.7,0.6-3.7,0.6s1.1,1.2,1.1,2.3
			s0.4,1.2,0.5,2.4c0.1,1.2-0.2,2.2-0.2,2.2c4.8-0.1,32.3-6,32.3-6l-0.4-7.4C36.4,90.8,28.8,92.4,28.8,92.4z"/>
		<path style="fill:#CFB16E;" d="M46.6,88.7l0.4,7.4l20.2-4.4c0-4.8-0.5-7.2-0.5-7.2C59.8,86,52.8,87.4,46.6,88.7z"/>
		<path style="fill:#54B948;" d="M98.1,78.7l-1.5-0.5c-3.9,0.9-16.6,3.5-29.9,6.3c0,0,0.5,2.4,0.5,7.2C81.5,89.4,97.4,84,97.4,84
			L97,79.5L98.1,78.7z"/>
		<path style="fill:#1A400A;" d="M66.7,84.5c13.3-2.8,25.9-5.4,29.9-6.3v-1.9c-5.3,2.1-23.3,5.6-25.1,5.5c-0.6,0-3.3,0.5-6.8,1.3
			L66.7,84.5L66.7,84.5z"/>
		<path style="fill:#1A400A;" d="M66.7,84.5l-2-1.5c-7,1.6-17.1,4.2-18.4,4.6c-6.3,2-12.3,3.6-17.5,4.7l0,0c0,0,7.6-1.6,17.8-3.7
			l-0.8-0.9l0.8,0.9C52.8,87.4,59.8,86,66.7,84.5L66.7,84.5z"/>
		<polygon style="fill:#FFFF00;" points="76.9,65.6 76.9,65.6 76.9,65.6 		"/>
		<polygon style="fill:#FFFF00;" points="76.9,65.6 76.9,65.6 76.9,65.6 		"/>
		<path style="fill:#1A400A;" d="M42,74.8c0.1,0,0.1,0,0.2,0c0.8-0.2,1.8-0.4,2.8-0.7c0.1,0,0.2-0.1,0.3-0.1
			c1.5-0.4,3.1-0.8,4.7-1.2l-0.4-0.3l0.4,0.3c2.3-0.6,4.7-1.2,6.7-1.7c1.8-0.4,3.3-0.8,4.4-1.1c0.3-0.1,0.6-0.1,0.8-0.2c0,0,0,0,0,0
			c0,0,0,0,0,0c0.5-0.1,1.1-0.3,1.6-0.4c0,0,0.1,0,0.1,0c1.5-0.3,3-0.7,4.6-1.1c0.1,0,0.2,0,0.3-0.1c0.4-0.1,0.7-0.2,1.1-0.3
			c0.2-0.1,0.4-0.1,0.7-0.2l-0.7-0.6l0.7,0.6c0.2,0,0.4-0.1,0.5-0.1c0.4-0.1,0.7-0.2,1.1-0.3c0.3-0.1,0.5-0.2,0.8-0.2
			c0.3-0.1,0.6-0.2,0.9-0.3c0.3-0.1,0.7-0.2,1-0.4c0.2-0.1,0.4-0.2,0.6-0.2c0.6-0.2,1.1-0.4,1.6-0.7c0,0,0,0,0,0
			c-2.3,0.5-4.3,1-6,1.4c-7.1,1.6-18,4.7-22.4,5.9c-1.5,0.4-5.8,1.6-10.7,3c0,0,0.1,0,0.1,0C38.4,75.7,39.9,75.3,42,74.8z"/>
		<path style="fill:#54B948;" d="M97,64.4l-1.1-0.4l1.2-0.4l-0.1-2.4c-4.8,0.7-13.4,2.8-20.2,4.4c0,0,0,0,0,0
			c-0.5,0.2-1.1,0.5-1.6,0.7c-0.2,0.1-0.4,0.2-0.6,0.2c-0.3,0.1-0.7,0.2-1,0.4C73.3,67,73,67,72.7,67.1c-0.3,0.1-0.5,0.2-0.8,0.2
			c-0.4,0.1-0.7,0.2-1.1,0.3c0,0,0,0,0,0c-0.2,0.1-0.4,0.1-0.5,0.1l0,0c0,0,0.3,1.8,0,6.6l0,0c0.2,0,0.4-0.1,0.6-0.1
			c6.7-1.4,14.6-2.6,22.9-4.7l3.5-1L97,64.4z"/>
		<path style="fill:#54B948;" d="M50,72.8c-1.6,0.4-3.2,0.8-4.7,1.2c-0.1,0-0.2,0.1-0.3,0.1c-1,0.2-1.9,0.5-2.8,0.7
			c-0.1,0-0.1,0-0.2,0c-2.1,0.5-3.6,0.9-4,1c-0.1,0-0.1,0-0.1,0c-9.4,2.6-21.2,5.9-21.2,5.9L15,79.9c0,2.1,0,6-0.3,7.2
			c0,0.1,0,0.1,0,0.1c0,0.2,0.5,0.5,4-0.1c1.8-0.4,6.1-1.3,10.9-2.3c7.4-1.6,16-3.6,18.2-4.5c0.5-0.2,1.3-0.5,2.1-0.7
			C50,78.1,50,73.1,50,72.8z"/>
		<path style="fill:#CFB16E;" d="M70.4,67.8L70.4,67.8c-0.2,0-0.5,0.1-0.7,0.2c-0.4,0.1-0.7,0.2-1.1,0.3c-0.1,0-0.2,0-0.3,0.1
			c-1.6,0.4-3.2,0.7-4.6,1.1c0,0-0.1,0-0.1,0c-0.6,0.1-1.1,0.3-1.6,0.4c0,0,0,0,0,0c0,0,0,0,0,0c-0.2,0.1-0.5,0.1-0.8,0.2
			c-1.1,0.3-2.6,0.7-4.4,1.1C55,71.6,53,72.1,51,72.5c-0.4,0.1-0.7,0.2-1.1,0.3c0,0.3,0,5.3,0,6.7c0.3-0.1,0.7-0.2,1.1-0.3
			c4.8-1.4,12.6-3.3,18.2-4.6c0.4-0.1,0.7-0.2,1.1-0.2l0,0C70.7,69.7,70.4,67.8,70.4,67.8z"/>
	</g>
</g>
<g id="money1">
	<g>
		<path style="fill:none;" d="M158.4,73.8c0.5-0.1,0.9-0.1,1.3-0.2L158.4,73.8L158.4,73.8z"/>
		<path style="fill:#54B948;" d="M78.6,107.4c0,0-12.9-13.6-14.5-16.3L63.3,91l0.6,1.9l11,15.1C74.9,107.9,76.2,107.8,78.6,107.4z"
			/>
		<path style="fill:#1F6622;" d="M81.5,100.6c1.7-0.5,9.9-2.7,14.6-3.9c-3,0.5-5.1,0.8-5.1,0.8c-4.8,1.1-9.1,2-10.9,2.3
			c-3.5,0.7-4,0.4-4,0.1c0-0.1,0-0.1,0-0.1l-13-14.1l1,3.1v2.3c1.6,2.7,14.5,16.3,14.5,16.3h0l-0.2-3.1l-0.5-0.2v-2.3
			C77.9,101.7,79.1,101.4,81.5,100.6z"/>
		<polygon style="fill:#FFFF00;" points="78.6,107.4 78.6,107.4 78.6,107.4 		"/>
		<path style="fill:#3D9038;" d="M76.4,112.7c-0.1-1.2-0.5-1.3-0.5-2.4s-1.1-2.3-1.1-2.3l-11-15.1l-0.5,0.8l0.7,1l-0.1,2.9
			l12.2,17.4C76.1,114.8,76.5,113.9,76.4,112.7z"/>
		<path style="fill:#3D9038;" d="M76.4,92.6l-14-15.2l-0.7,0.4l0.4,5.3l-0.7,0.8l1.7,1.8l13,14.1C76.3,98.6,76.4,94.7,76.4,92.6z"/>
		<path style="fill:#FFFF00;" d="M76.1,99.9c0,0,0-0.1,0-0.1C76.1,99.8,76.1,99.8,76.1,99.9z"/>
		<path style="fill:#54B948;" d="M159.4,67.4l-1.9-0.9c0,0-4.6,0.8-11.1,3.2C146.4,69.7,154.5,67.8,159.4,67.4z"/>
		<path style="fill:#54B948;" d="M110,79.1C110,79.1,110,79.1,110,79.1c-5.1,1.3-9.7,2.4-13.1,3.2c-14.3,3.2-19.7,6.3-19.7,6.3
			C74.3,85.6,61.4,74,61.4,74l0.3,2.6l0.7,0.8l14,15.2l1.7,1.8c0,0,11.8-3.3,21.2-5.9c4.9-1.4,9.1-2.5,10.7-3
			C110.4,82.5,110,79.1,110,79.1z"/>
		<path style="fill:#8FB73F;" d="M96.9,82.3c3.4-0.8,8.1-1.9,13.1-3.2c-5.6-6.4-14.2-11.3-18.7-13.6c-11.2,2.7-22.1,5.4-24,5.9
			c-3.8,1.1-6,2.6-6,2.6s12.9,11.6,15.8,14.5C77.2,88.5,82.6,85.5,96.9,82.3z"/>
		<path style="fill:#CFB16E;" d="M130.3,74L130.3,74c-6.3,1.6-13.6,3.5-20.2,5.1c0,0,0,0,0,0s0.4,3.4-0.2,6.5
			c4-1.1,13.4-3.7,20.3-5.4c0,0,0,0,0,0C130.3,78.1,130.3,74,130.3,74z"/>
		<path style="fill:#54B948;" d="M159.8,70.3l-7.7,1.2l7.1-1.7l0.3-2.5c-4.9,0.4-12.9,2.3-12.9,2.3s-7.1,1.9-16.2,4.2l0,0
			c0,0,0.1,4.2-0.1,6.2c0,0,0,0,0,0c0.7-0.2,1.4-0.3,2.1-0.5c1.6-0.4,3.7-0.8,6-1.4c6.8-1.6,15.3-3.7,20.2-4.4l0,0l1.4-0.2V70.3z"/>
		<path style="fill:#8FB73F;" d="M130.3,74c9.1-2.4,16.2-4.2,16.2-4.2c6.4-2.4,11.1-3.2,11.1-3.2l2.3-0.8c0,0-18.5-11.3-20.3-11.5
			c-1.8-0.2-15.8,3-21.8,4.7c-1.1,0.3-3.3,0.9-6.3,1.6c1.8,1,5.3,2.8,8.1,4.9C123.5,68.5,130.3,74,130.3,74z"/>
		<path style="fill:#DAD179;" d="M119.4,65.5c-2.8-2.1-6.3-4-8.1-4.9c-5.2,1.3-12.7,3.1-20,4.9c4.5,2.3,13.1,7.2,18.7,13.6
			c6.6-1.6,13.9-3.5,20.2-5.1C130.3,74,123.5,68.5,119.4,65.5z"/>
		<path style="fill:#1A400A;" d="M130,88.7c2.9-0.7,5.5-1.3,7.6-1.7c5.6-1.2,17.9-3.6,21.2-4.8h-3.5c-8.9,2.3-17.5,3.5-24.6,5.1
			c-0.6,0.1-1.3,0.3-2,0.5L130,88.7L130,88.7z"/>
		<path style="fill:#C18765;" d="M114.2,92.9c4.9-1.5,10.8-3,15.8-4.1v0l-1.4-0.9c-7,1.6-16.1,3.9-19.4,5.2l1.1,0.9
			C111.7,93.6,113,93.2,114.2,92.9z"/>
		<path style="fill:#1A400A;" d="M109.2,93c-2.2,0.9-10.8,2.9-18.2,4.5c0,0,2.1-0.3,5.1-0.8c2-0.5,3.4-0.9,3.4-0.9s-1.4,0.4-3.4,0.9
			c4-0.7,9.6-1.7,14.2-2.8L109.2,93z"/>
		<path style="fill:#54B948;" d="M158.9,85.6l-0.1-3.3c-3.3,1.1-15.5,3.5-21.2,4.8c-2.1,0.4-4.7,1-7.6,1.7l0.6,6l0,0
			c1.2-0.2,2-0.4,2.3-0.3c1.8,0.1,19.7-3.4,25.1-5.5h0.9v-2.5l-2.1-0.3L158.9,85.6z"/>
		<path style="fill:#CFB16E;" d="M130,88.7c-5,1.2-10.8,2.6-15.8,4.1c-1.1,0.4-2.4,0.7-3.8,1l0,0l0.2,5.7l0,0
			c5.1-1.3,15.4-3.9,20.1-4.8l0,0L130,88.7z"/>
		<path style="fill:#54B948;" d="M110.3,93.9L110.3,93.9c-4.6,1.1-10.2,2.1-14.2,2.8c-4.7,1.2-12.9,3.4-14.6,3.9
			c-2.5,0.8-3.6,1.1-3.6,1.1v2.3l0.5,0.2l0.2,3.1c2.7-0.4,6.7-1.2,11.5-2.3c5.2-1.2,11.3-2.7,17.5-4.7c0.4-0.1,1.4-0.4,2.8-0.8
			L110.3,93.9z"/>
		<path style="fill:#54B948;" d="M90.2,105.1L90.2,105.1c-4.8,1.1-8.8,1.8-11.6,2.3v0l0,0c-2.4,0.4-3.7,0.6-3.7,0.6s1.1,1.2,1.1,2.3
			s0.4,1.2,0.5,2.4c0.1,1.2-0.2,2.2-0.2,2.2c4.8-0.1,32.3-6,32.3-6l-0.4-7.4C97.8,103.5,90.2,105.1,90.2,105.1z"/>
		<path style="fill:#CFB16E;" d="M108,101.4l0.4,7.4l20.2-4.4c0-4.8-0.5-7.2-0.5-7.2C121.2,98.7,114.1,100.1,108,101.4z"/>
		<path style="fill:#54B948;" d="M159.5,91.4l-1.5-0.5c-3.9,0.9-16.6,3.5-29.9,6.3c0,0,0.5,2.4,0.5,7.2c14.3-2.3,30.2-7.7,30.2-7.7
			l-0.4-4.6L159.5,91.4z"/>
		<path style="fill:#1A400A;" d="M128.1,97.2c13.3-2.8,25.9-5.4,29.9-6.3V89c-5.3,2.1-23.3,5.6-25.1,5.5c-0.6,0-3.3,0.5-6.8,1.3
			L128.1,97.2L128.1,97.2z"/>
		<path style="fill:#1A400A;" d="M128.1,97.2l-2-1.5c-7,1.6-17.1,4.2-18.4,4.6c-6.3,2-12.3,3.6-17.5,4.7l0,0c0,0,7.6-1.6,17.8-3.7
			l-0.8-0.9l0.8,0.9C114.1,100.1,121.2,98.7,128.1,97.2L128.1,97.2z"/>
		<polygon style="fill:#FFFF00;" points="138.2,78.3 138.2,78.3 138.2,78.3 		"/>
		<polygon style="fill:#FFFF00;" points="138.2,78.3 138.2,78.3 138.2,78.3 		"/>
		<path style="fill:#1A400A;" d="M103.3,87.5c0.1,0,0.1,0,0.2,0c0.8-0.2,1.8-0.4,2.8-0.7c0.1,0,0.2-0.1,0.3-0.1
			c1.5-0.4,3.1-0.8,4.7-1.2l-0.4-0.3l0.4,0.3c2.3-0.6,4.7-1.2,6.7-1.7c1.8-0.4,3.3-0.8,4.4-1.1c0.3-0.1,0.6-0.1,0.8-0.2c0,0,0,0,0,0
			c0,0,0,0,0,0c0.5-0.1,1.1-0.3,1.6-0.4c0,0,0.1,0,0.1,0c1.5-0.3,3-0.7,4.6-1.1c0.1,0,0.2,0,0.3-0.1c0.4-0.1,0.7-0.2,1.1-0.3
			c0.2-0.1,0.4-0.1,0.7-0.2l-0.7-0.6l0.7,0.6c0.2,0,0.4-0.1,0.5-0.1c0.4-0.1,0.7-0.2,1.1-0.3c0.3-0.1,0.5-0.2,0.8-0.2
			c0.3-0.1,0.6-0.2,0.9-0.3c0.3-0.1,0.7-0.2,1-0.4c0.2-0.1,0.4-0.2,0.6-0.2c0.6-0.2,1.1-0.4,1.6-0.7c0,0,0,0,0,0
			c-2.3,0.5-4.3,1-6,1.4c-7.1,1.6-18,4.7-22.4,5.9c-1.5,0.4-5.8,1.6-10.7,3c0,0,0.1,0,0.1,0C99.7,88.4,101.2,88,103.3,87.5z"/>
		<path style="fill:#54B948;" d="M158.4,77.1l-1.1-0.4l1.2-0.4l-0.1-2.4c-4.8,0.7-13.4,2.8-20.2,4.4c0,0,0,0,0,0
			c-0.5,0.2-1.1,0.5-1.6,0.7c-0.2,0.1-0.4,0.2-0.6,0.2c-0.3,0.1-0.7,0.2-1,0.4c-0.3,0.1-0.6,0.2-0.9,0.3c-0.3,0.1-0.5,0.2-0.8,0.2
			c-0.4,0.1-0.7,0.2-1.1,0.3c0,0,0,0,0,0c-0.2,0.1-0.4,0.1-0.5,0.1l0,0c0,0,0.3,1.8,0,6.6l0,0c0.2,0,0.4-0.1,0.6-0.1
			c6.7-1.4,14.6-2.6,22.9-4.7l3.5-1L158.4,77.1z"/>
		<path style="fill:#54B948;" d="M111.3,85.5c-1.6,0.4-3.2,0.8-4.7,1.2c-0.1,0-0.2,0.1-0.3,0.1c-1,0.2-1.9,0.5-2.8,0.7
			c-0.1,0-0.1,0-0.2,0c-2.1,0.5-3.6,0.9-4,1c-0.1,0-0.1,0-0.1,0C89.8,91.1,78,94.4,78,94.4l-1.7-1.8c0,2.1,0,6-0.3,7.2
			c0,0.1,0,0.1,0,0.1c0,0.2,0.5,0.5,4-0.1c1.8-0.4,6.1-1.3,10.9-2.3c7.4-1.6,16-3.6,18.2-4.5c0.5-0.2,1.3-0.5,2.1-0.7
			C111.4,90.8,111.4,85.8,111.3,85.5z"/>
		<path style="fill:#CFB16E;" d="M131.7,80.5L131.7,80.5c-0.2,0-0.5,0.1-0.7,0.2c-0.4,0.1-0.7,0.2-1.1,0.3c-0.1,0-0.2,0-0.3,0.1
			c-1.6,0.4-3.2,0.7-4.6,1.1c0,0-0.1,0-0.1,0c-0.6,0.1-1.1,0.3-1.6,0.4c0,0,0,0,0,0c0,0,0,0,0,0c-0.2,0.1-0.5,0.1-0.8,0.2
			c-1.1,0.3-2.6,0.7-4.4,1.1c-1.7,0.4-3.7,0.9-5.6,1.4c-0.4,0.1-0.7,0.2-1.1,0.3c0,0.3,0,5.3,0,6.7c0.3-0.1,0.7-0.2,1.1-0.3
			c4.8-1.4,12.6-3.3,18.2-4.6c0.4-0.1,0.7-0.2,1.1-0.2l0,0C132,82.4,131.7,80.5,131.7,80.5z"/>
	</g>
</g>
<g id="money2">
	<g>
		<path style="fill:none;" d="M207.6,85.3c0.5-0.1,0.9-0.1,1.3-0.2L207.6,85.3L207.6,85.3z"/>
		<path style="fill:#54B948;" d="M127.8,118.8c0,0-12.9-13.6-14.5-16.3l-0.8-0.1l0.6,1.9l11,15.1
			C124.1,119.4,125.4,119.2,127.8,118.8z"/>
		<path style="fill:#1F6622;" d="M130.7,112.1c1.7-0.5,9.9-2.7,14.6-3.9c-3,0.5-5.1,0.8-5.1,0.8c-4.8,1.1-9.1,2-10.9,2.3
			c-3.5,0.7-4,0.4-4,0.1c0-0.1,0-0.1,0-0.1l-13-14.1l1,3.1v2.3c1.6,2.7,14.5,16.3,14.5,16.3h0l-0.2-3.1l-0.5-0.2v-2.3
			C127.1,113.1,128.3,112.8,130.7,112.1z"/>
		<polygon style="fill:#FFFF00;" points="127.8,118.8 127.8,118.8 127.8,118.8 		"/>
		<path style="fill:#3D9038;" d="M125.6,124.1c-0.1-1.2-0.5-1.3-0.5-2.4s-1.1-2.3-1.1-2.3l-11-15.1l-0.5,0.8l0.7,1l-0.1,2.9
			l12.2,17.4C125.3,126.3,125.7,125.3,125.6,124.1z"/>
		<path style="fill:#3D9038;" d="M125.6,104.1l-14-15.2l-0.7,0.4l0.4,5.3l-0.7,0.8l1.7,1.8l13,14.1
			C125.5,110.1,125.6,106.2,125.6,104.1z"/>
		<path style="fill:#FFFF00;" d="M125.3,111.4c0,0,0-0.1,0-0.1C125.3,111.2,125.3,111.3,125.3,111.4z"/>
		<path style="fill:#54B948;" d="M208.6,78.9l-1.9-0.9c0,0-4.6,0.8-11.1,3.2C195.6,81.2,203.7,79.3,208.6,78.9z"/>
		<path style="fill:#54B948;" d="M159.2,90.5C159.2,90.5,159.2,90.5,159.2,90.5c-5.1,1.3-9.7,2.4-13.1,3.2
			c-14.3,3.2-19.7,6.3-19.7,6.3c-2.9-2.9-15.8-14.5-15.8-14.5l0.3,2.6l0.7,0.8l14,15.2l1.7,1.8c0,0,11.8-3.3,21.2-5.9
			c4.9-1.4,9.1-2.5,10.7-3C159.6,94,159.2,90.5,159.2,90.5z"/>
		<path style="fill:#8FB73F;" d="M146.1,93.7c3.4-0.8,8.1-1.9,13.1-3.2c-5.6-6.4-14.2-11.3-18.7-13.6c-11.2,2.7-22.1,5.4-24,5.9
			c-3.8,1.1-6,2.6-6,2.6s12.9,11.6,15.8,14.5C126.4,100,131.8,96.9,146.1,93.7z"/>
		<path style="fill:#CFB16E;" d="M179.5,85.4L179.5,85.4c-6.3,1.6-13.6,3.5-20.2,5.1c0,0,0,0,0,0s0.4,3.4-0.2,6.5
			c4-1.1,13.4-3.7,20.3-5.4c0,0,0,0,0,0C179.5,89.6,179.5,85.4,179.5,85.4z"/>
		<path style="fill:#54B948;" d="M209,81.8l-7.7,1.2l7.1-1.7l0.3-2.5c-4.9,0.4-12.9,2.3-12.9,2.3s-7.1,1.9-16.2,4.2l0,0
			c0,0,0.1,4.2-0.1,6.2c0,0,0,0,0,0c0.7-0.2,1.4-0.3,2.1-0.5c1.6-0.4,3.7-0.8,6-1.4c6.8-1.6,15.3-3.7,20.2-4.4l0,0l1.4-0.2V81.8z"/>
		<path style="fill:#8FB73F;" d="M179.5,85.4c9.1-2.4,16.2-4.2,16.2-4.2c6.4-2.4,11.1-3.2,11.1-3.2l2.3-0.8c0,0-18.5-11.3-20.3-11.5
			c-1.8-0.2-15.8,3-21.8,4.7c-1.1,0.3-3.3,0.9-6.3,1.6c1.8,1,5.3,2.8,8.1,4.9C172.7,79.9,179.5,85.4,179.5,85.4z"/>
		<path style="fill:#DAD179;" d="M168.6,76.9c-2.8-2.1-6.3-4-8.1-4.9c-5.2,1.3-12.7,3.1-20,4.9c4.5,2.3,13.1,7.2,18.7,13.6
			c6.6-1.6,13.9-3.5,20.2-5.1C179.5,85.4,172.7,79.9,168.6,76.9z"/>
		<path style="fill:#1A400A;" d="M179.2,100.2c2.9-0.7,5.5-1.3,7.6-1.7c5.6-1.2,17.9-3.6,21.2-4.8h-3.5c-8.9,2.3-17.5,3.5-24.6,5.1
			c-0.6,0.1-1.3,0.3-2,0.5L179.2,100.2L179.2,100.2z"/>
		<path style="fill:#C18765;" d="M163.4,104.3c4.9-1.5,10.8-3,15.8-4.1v0l-1.4-0.9c-7,1.6-16.1,3.9-19.4,5.2l1.1,0.9
			C160.9,105,162.2,104.7,163.4,104.3z"/>
		<path style="fill:#1A400A;" d="M158.4,104.4c-2.2,0.9-10.8,2.9-18.2,4.5c0,0,2.1-0.3,5.1-0.8c2-0.5,3.4-0.9,3.4-0.9
			s-1.4,0.4-3.4,0.9c4-0.7,9.6-1.7,14.2-2.8L158.4,104.4z"/>
		<path style="fill:#54B948;" d="M208.1,97l-0.1-3.3c-3.3,1.1-15.5,3.5-21.2,4.8c-2.1,0.4-4.7,1-7.6,1.7l0.6,6l0,0
			c1.2-0.2,2-0.4,2.3-0.3c1.8,0.1,19.7-3.4,25.1-5.5h0.9V98l-2.1-0.3L208.1,97z"/>
		<path style="fill:#CFB16E;" d="M179.2,100.2c-5,1.2-10.8,2.6-15.8,4.1c-1.1,0.4-2.4,0.7-3.8,1l0,0l0.2,5.7l0,0
			c5.1-1.3,15.4-3.9,20.1-4.8l0,0L179.2,100.2z"/>
		<path style="fill:#54B948;" d="M159.5,105.4L159.5,105.4c-4.6,1.1-10.2,2.1-14.2,2.8c-4.7,1.2-12.9,3.4-14.6,3.9
			c-2.5,0.8-3.6,1.1-3.6,1.1v2.3l0.5,0.2l0.2,3.1c2.7-0.4,6.7-1.2,11.5-2.3c5.2-1.2,11.3-2.7,17.5-4.7c0.4-0.1,1.4-0.4,2.8-0.8
			L159.5,105.4z"/>
		<path style="fill:#54B948;" d="M139.4,116.6L139.4,116.6c-4.8,1.1-8.8,1.8-11.6,2.3v0l0,0c-2.4,0.4-3.7,0.6-3.7,0.6
			s1.1,1.2,1.1,2.3s0.4,1.2,0.5,2.4c0.1,1.2-0.2,2.2-0.2,2.2c4.8-0.1,32.3-6,32.3-6l-0.4-7.4C147,115,139.4,116.6,139.4,116.6z"/>
		<path style="fill:#CFB16E;" d="M157.2,112.9l0.4,7.4l20.2-4.4c0-4.8-0.5-7.2-0.5-7.2C170.4,110.1,163.3,111.6,157.2,112.9z"/>
		<path style="fill:#54B948;" d="M208.7,102.8l-1.5-0.5c-3.9,0.9-16.6,3.5-29.9,6.3c0,0,0.5,2.4,0.5,7.2c14.3-2.3,30.2-7.7,30.2-7.7
			l-0.4-4.6L208.7,102.8z"/>
		<path style="fill:#1A400A;" d="M177.3,108.7c13.3-2.8,25.9-5.4,29.9-6.3v-1.9c-5.3,2.1-23.3,5.6-25.1,5.5c-0.6,0-3.3,0.5-6.8,1.3
			L177.3,108.7L177.3,108.7z"/>
		<path style="fill:#1A400A;" d="M177.3,108.7l-2-1.5c-7,1.6-17.1,4.2-18.4,4.6c-6.3,2-12.3,3.6-17.5,4.7l0,0c0,0,7.6-1.6,17.8-3.7
			l-0.8-0.9l0.8,0.9C163.3,111.6,170.4,110.1,177.3,108.7L177.3,108.7z"/>
		<polygon style="fill:#FFFF00;" points="187.4,89.7 187.4,89.7 187.4,89.7 		"/>
		<polygon style="fill:#FFFF00;" points="187.4,89.7 187.4,89.7 187.4,89.7 		"/>
		<path style="fill:#1A400A;" d="M152.5,98.9c0.1,0,0.1,0,0.2,0c0.8-0.2,1.8-0.4,2.8-0.7c0.1,0,0.2-0.1,0.3-0.1
			c1.5-0.4,3.1-0.8,4.7-1.2l-0.4-0.3l0.4,0.3c2.3-0.6,4.7-1.2,6.7-1.7c1.8-0.4,3.3-0.8,4.4-1.1c0.3-0.1,0.6-0.1,0.8-0.2c0,0,0,0,0,0
			c0,0,0,0,0,0c0.5-0.1,1.1-0.3,1.6-0.4c0,0,0.1,0,0.1,0c1.5-0.3,3-0.7,4.6-1.1c0.1,0,0.2,0,0.3-0.1c0.4-0.1,0.7-0.2,1.1-0.3
			c0.2-0.1,0.4-0.1,0.7-0.2l-0.7-0.6l0.7,0.6c0.2,0,0.4-0.1,0.5-0.1c0.4-0.1,0.7-0.2,1.1-0.3c0.3-0.1,0.5-0.2,0.8-0.2
			c0.3-0.1,0.6-0.2,0.9-0.3c0.3-0.1,0.7-0.2,1-0.4c0.2-0.1,0.4-0.2,0.6-0.2c0.6-0.2,1.1-0.4,1.6-0.7c0,0,0,0,0,0
			c-2.3,0.5-4.3,1-6,1.4c-7.1,1.6-18,4.7-22.4,5.9c-1.5,0.4-5.8,1.6-10.7,3c0,0,0.1,0,0.1,0C148.9,99.8,150.4,99.5,152.5,98.9z"/>
		<path style="fill:#54B948;" d="M207.6,88.5l-1.1-0.4l1.2-0.4l-0.1-2.4c-4.8,0.7-13.4,2.8-20.2,4.4c0,0,0,0,0,0
			c-0.5,0.2-1.1,0.5-1.6,0.7c-0.2,0.1-0.4,0.2-0.6,0.2c-0.3,0.1-0.7,0.2-1,0.4c-0.3,0.1-0.6,0.2-0.9,0.3c-0.3,0.1-0.5,0.2-0.8,0.2
			c-0.4,0.1-0.7,0.2-1.1,0.3c0,0,0,0,0,0c-0.2,0.1-0.4,0.1-0.5,0.1l0,0c0,0,0.3,1.8,0,6.6l0,0c0.2,0,0.4-0.1,0.6-0.1
			c6.7-1.4,14.6-2.6,22.9-4.7l3.5-1L207.6,88.5z"/>
		<path style="fill:#54B948;" d="M160.5,97c-1.6,0.4-3.2,0.8-4.7,1.2c-0.1,0-0.2,0.1-0.3,0.1c-1,0.2-1.9,0.5-2.8,0.7
			c-0.1,0-0.1,0-0.2,0c-2.1,0.5-3.6,0.9-4,1c-0.1,0-0.1,0-0.1,0c-9.4,2.6-21.2,5.9-21.2,5.9l-1.7-1.8c0,2.1,0,6-0.3,7.2
			c0,0.1,0,0.1,0,0.1c0,0.2,0.5,0.5,4-0.1c1.8-0.4,6.1-1.3,10.9-2.3c7.4-1.6,16-3.6,18.2-4.5c0.5-0.2,1.3-0.5,2.1-0.7
			C160.6,102.2,160.6,97.2,160.5,97z"/>
		<path style="fill:#CFB16E;" d="M180.9,92L180.9,92c-0.2,0-0.5,0.1-0.7,0.2c-0.4,0.1-0.7,0.2-1.1,0.3c-0.1,0-0.2,0-0.3,0.1
			c-1.6,0.4-3.2,0.7-4.6,1.1c0,0-0.1,0-0.1,0c-0.6,0.1-1.1,0.3-1.6,0.4c0,0,0,0,0,0c0,0,0,0,0,0c-0.2,0.1-0.5,0.1-0.8,0.2
			c-1.1,0.3-2.6,0.7-4.4,1.1c-1.7,0.4-3.7,0.9-5.6,1.4c-0.4,0.1-0.7,0.2-1.1,0.3c0,0.3,0,5.3,0,6.7c0.3-0.1,0.7-0.2,1.1-0.3
			c4.8-1.4,12.6-3.3,18.2-4.6c0.4-0.1,0.7-0.2,1.1-0.2l0,0C181.2,93.8,180.9,92,180.9,92z"/>
	</g>
</g>
<g id="money3">
	<g>
		<path style="fill:none;" d="M194.4,50.4c0.5-0.1,0.9-0.1,1.3-0.2L194.4,50.4L194.4,50.4z"/>
		<path style="fill:#54B948;" d="M114.6,83.9c0,0-12.9-13.6-14.5-16.3l-0.8-0.1l0.6,1.9l11,15.1C110.8,84.5,112.2,84.3,114.6,83.9z"
			/>
		<path style="fill:#1F6622;" d="M117.5,77.2c1.7-0.5,9.9-2.7,14.6-3.9c-3,0.5-5.1,0.8-5.1,0.8c-4.8,1.1-9.1,2-10.9,2.3
			c-3.5,0.7-4,0.4-4,0.1c0-0.1,0-0.1,0-0.1l-13-14.1l1,3.1v2.3c1.6,2.7,14.5,16.3,14.5,16.3h0l-0.2-3.1l-0.5-0.2v-2.3
			C113.9,78.2,115,77.9,117.5,77.2z"/>
		<polygon style="fill:#FFFF00;" points="114.6,83.9 114.6,83.9 114.6,83.9 		"/>
		<path style="fill:#3D9038;" d="M112.3,89.2c-0.1-1.2-0.5-1.3-0.5-2.4s-1.1-2.3-1.1-2.3l-11-15.1l-0.5,0.8l0.7,1L99.9,74l12.2,17.4
			C112.1,91.4,112.4,90.4,112.3,89.2z"/>
		<path style="fill:#3D9038;" d="M112.3,69.2L98.4,54l-0.7,0.4l0.4,5.3l-0.7,0.8l1.7,1.8l13,14.1C112.3,75.2,112.3,71.3,112.3,69.2z
			"/>
		<path style="fill:#FFFF00;" d="M112,76.5c0,0,0-0.1,0-0.1C112.1,76.3,112,76.4,112,76.5z"/>
		<path style="fill:#54B948;" d="M195.4,43.9l-1.9-0.9c0,0-4.6,0.8-11.1,3.2C182.4,46.3,190.5,44.4,195.4,43.9z"/>
		<path style="fill:#54B948;" d="M146,55.6C146,55.6,146,55.6,146,55.6c-5.1,1.3-9.7,2.4-13.1,3.2c-14.3,3.2-19.7,6.3-19.7,6.3
			c-2.9-2.9-15.8-14.5-15.8-14.5l0.3,2.6l0.7,0.8l14,15.2L114,71c0,0,11.8-3.3,21.2-5.9c4.9-1.4,9.1-2.5,10.7-3
			C146.4,59.1,146,55.6,146,55.6z"/>
		<path style="fill:#8FB73F;" d="M132.9,58.8c3.4-0.8,8.1-1.9,13.1-3.2c-5.6-6.4-14.2-11.3-18.7-13.6c-11.2,2.7-22.1,5.4-24,5.9
			c-3.8,1.1-6,2.6-6,2.6s12.9,11.6,15.8,14.5C113.2,65.1,118.6,62,132.9,58.8z"/>
		<path style="fill:#CFB16E;" d="M166.2,50.5L166.2,50.5c-6.3,1.6-13.6,3.5-20.2,5.1c0,0,0,0,0,0s0.4,3.4-0.2,6.5
			c4-1.1,13.4-3.7,20.3-5.4c0,0,0,0,0,0C166.3,54.7,166.2,50.5,166.2,50.5z"/>
		<path style="fill:#54B948;" d="M195.7,46.9l-7.7,1.2l7.1-1.7l0.3-2.5c-4.9,0.4-12.9,2.3-12.9,2.3s-7.1,1.9-16.2,4.2l0,0
			c0,0,0.1,4.2-0.1,6.2c0,0,0,0,0,0c0.7-0.2,1.4-0.3,2.1-0.5c1.6-0.4,3.7-0.8,6-1.4c6.8-1.6,15.3-3.7,20.2-4.4l0,0l1.4-0.2V46.9z"/>
		<path style="fill:#8FB73F;" d="M166.2,50.5c9.1-2.4,16.2-4.2,16.2-4.2c6.4-2.4,11.1-3.2,11.1-3.2l2.3-0.8c0,0-18.5-11.3-20.3-11.5
			c-1.8-0.2-15.8,3-21.8,4.7c-1.1,0.3-3.3,0.9-6.3,1.6c1.8,1,5.3,2.8,8.1,4.9C159.5,45,166.2,50.5,166.2,50.5z"/>
		<path style="fill:#DAD179;" d="M155.4,42c-2.8-2.1-6.3-4-8.1-4.9c-5.2,1.3-12.7,3.1-20,4.9c4.5,2.3,13.1,7.2,18.7,13.6
			c6.6-1.6,13.9-3.5,20.2-5.1C166.2,50.5,159.5,45,155.4,42z"/>
		<path style="fill:#1A400A;" d="M165.9,65.3c2.9-0.7,5.5-1.3,7.6-1.7c5.6-1.2,17.9-3.6,21.2-4.8h-3.5c-8.9,2.3-17.5,3.5-24.6,5.1
			c-0.6,0.1-1.3,0.3-2,0.5L165.9,65.3L165.9,65.3z"/>
		<path style="fill:#C18765;" d="M150.1,69.4c4.9-1.5,10.8-3,15.8-4.1v0l-1.4-0.9c-7,1.6-16.1,3.9-19.4,5.2l1.1,0.9
			C147.7,70.1,149,69.8,150.1,69.4z"/>
		<path style="fill:#1A400A;" d="M145.2,69.5c-2.2,0.9-10.8,2.9-18.2,4.5c0,0,2.1-0.3,5.1-0.8c2-0.5,3.4-0.9,3.4-0.9
			s-1.4,0.4-3.4,0.9c4-0.7,9.6-1.7,14.2-2.8L145.2,69.5z"/>
		<path style="fill:#54B948;" d="M194.8,62.1l-0.1-3.3c-3.3,1.1-15.5,3.5-21.2,4.8c-2.1,0.4-4.7,1-7.6,1.7l0.6,6l0,0
			c1.2-0.2,2-0.4,2.3-0.3c1.8,0.1,19.7-3.4,25.1-5.5h0.9v-2.5l-2.1-0.3L194.8,62.1z"/>
		<path style="fill:#CFB16E;" d="M165.9,65.3c-5,1.2-10.8,2.6-15.8,4.1c-1.1,0.4-2.4,0.7-3.8,1l0,0l0.2,5.7l0,0
			c5.1-1.3,15.4-3.9,20.1-4.8l0,0L165.9,65.3z"/>
		<path style="fill:#54B948;" d="M146.3,70.5L146.3,70.5c-4.6,1.1-10.2,2.1-14.2,2.8c-4.7,1.2-12.9,3.4-14.6,3.9
			c-2.5,0.8-3.6,1.1-3.6,1.1v2.3l0.5,0.2l0.2,3.1c2.7-0.4,6.7-1.2,11.5-2.3c5.2-1.2,11.3-2.7,17.5-4.7c0.4-0.1,1.4-0.4,2.8-0.8
			L146.3,70.5z"/>
		<path style="fill:#54B948;" d="M126.1,81.7L126.1,81.7c-4.8,1.1-8.8,1.8-11.6,2.3v0l0,0c-2.4,0.4-3.7,0.6-3.7,0.6s1.1,1.2,1.1,2.3
			s0.4,1.2,0.5,2.4c0.1,1.2-0.2,2.2-0.2,2.2c4.8-0.1,32.3-6,32.3-6L144,78C133.8,80.1,126.1,81.7,126.1,81.7z"/>
		<path style="fill:#CFB16E;" d="M144,78l0.4,7.4l20.2-4.4c0-4.8-0.5-7.2-0.5-7.2C157.2,75.2,150.1,76.7,144,78z"/>
		<path style="fill:#54B948;" d="M195.4,67.9l-1.5-0.5c-3.9,0.9-16.6,3.5-29.9,6.3c0,0,0.5,2.4,0.5,7.2c14.3-2.3,30.2-7.7,30.2-7.7
			l-0.4-4.6L195.4,67.9z"/>
		<path style="fill:#1A400A;" d="M164.1,73.8c13.3-2.8,25.9-5.4,29.9-6.3v-1.9c-5.3,2.1-23.3,5.6-25.1,5.5c-0.6,0-3.3,0.5-6.8,1.3
			L164.1,73.8L164.1,73.8z"/>
		<path style="fill:#1A400A;" d="M164.1,73.8l-2-1.5c-7,1.6-17.1,4.2-18.4,4.6c-6.3,2-12.3,3.6-17.5,4.7l0,0c0,0,7.6-1.6,17.8-3.7
			l-0.8-0.9L144,78C150.1,76.7,157.2,75.2,164.1,73.8L164.1,73.8z"/>
		<polygon style="fill:#FFFF00;" points="174.2,54.8 174.2,54.8 174.2,54.8 		"/>
		<polygon style="fill:#FFFF00;" points="174.2,54.8 174.2,54.8 174.2,54.8 		"/>
		<path style="fill:#1A400A;" d="M139.3,64c0.1,0,0.1,0,0.2,0c0.8-0.2,1.8-0.4,2.8-0.7c0.1,0,0.2-0.1,0.3-0.1
			c1.5-0.4,3.1-0.8,4.7-1.2l-0.4-0.3l0.4,0.3c2.3-0.6,4.7-1.2,6.7-1.7c1.8-0.4,3.3-0.8,4.4-1.1c0.3-0.1,0.6-0.1,0.8-0.2c0,0,0,0,0,0
			c0,0,0,0,0,0c0.5-0.1,1.1-0.3,1.6-0.4c0,0,0.1,0,0.1,0c1.5-0.3,3-0.7,4.6-1.1c0.1,0,0.2,0,0.3-0.1c0.4-0.1,0.7-0.2,1.1-0.3
			c0.2-0.1,0.4-0.1,0.7-0.2l-0.7-0.6l0.7,0.6c0.2,0,0.4-0.1,0.5-0.1c0.4-0.1,0.7-0.2,1.1-0.3c0.3-0.1,0.5-0.2,0.8-0.2
			c0.3-0.1,0.6-0.2,0.9-0.3c0.3-0.1,0.7-0.2,1-0.4c0.2-0.1,0.4-0.2,0.6-0.2c0.6-0.2,1.1-0.4,1.6-0.7c0,0,0,0,0,0
			c-2.3,0.5-4.3,1-6,1.4c-7.1,1.6-18,4.7-22.4,5.9c-1.5,0.4-5.8,1.6-10.7,3c0,0,0.1,0,0.1,0C135.7,64.9,137.2,64.5,139.3,64z"/>
		<path style="fill:#54B948;" d="M194.4,53.6l-1.1-0.4l1.2-0.4l-0.1-2.4c-4.8,0.7-13.4,2.8-20.2,4.4c0,0,0,0,0,0
			c-0.5,0.2-1.1,0.5-1.6,0.7c-0.2,0.1-0.4,0.2-0.6,0.2c-0.3,0.1-0.7,0.2-1,0.4c-0.3,0.1-0.6,0.2-0.9,0.3c-0.3,0.1-0.5,0.2-0.8,0.2
			c-0.4,0.1-0.7,0.2-1.1,0.3c0,0,0,0,0,0c-0.2,0.1-0.4,0.1-0.5,0.1l0,0c0,0,0.3,1.8,0,6.6l0,0c0.2,0,0.4-0.1,0.6-0.1
			c6.7-1.4,14.6-2.6,22.9-4.7l3.5-1L194.4,53.6z"/>
		<path style="fill:#54B948;" d="M147.3,62c-1.6,0.4-3.2,0.8-4.7,1.2c-0.1,0-0.2,0.1-0.3,0.1c-1,0.2-1.9,0.5-2.8,0.7
			c-0.1,0-0.1,0-0.2,0c-2.1,0.5-3.6,0.9-4,1c-0.1,0-0.1,0-0.1,0C125.8,67.7,114,71,114,71l-1.7-1.8c0,2.1,0,6-0.3,7.2
			c0,0.1,0,0.1,0,0.1c0,0.2,0.5,0.5,4-0.1c1.8-0.4,6.1-1.3,10.9-2.3c7.4-1.6,16-3.6,18.2-4.5c0.5-0.2,1.3-0.5,2.1-0.7
			C147.3,67.3,147.3,62.3,147.3,62z"/>
		<path style="fill:#CFB16E;" d="M167.7,57.1L167.7,57.1c-0.2,0-0.5,0.1-0.7,0.2c-0.4,0.1-0.7,0.2-1.1,0.3c-0.1,0-0.2,0-0.3,0.1
			c-1.6,0.4-3.2,0.7-4.6,1.1c0,0-0.1,0-0.1,0c-0.6,0.1-1.1,0.3-1.6,0.4c0,0,0,0,0,0c0,0,0,0,0,0c-0.2,0.1-0.5,0.1-0.8,0.2
			c-1.1,0.3-2.6,0.7-4.4,1.1c-1.7,0.4-3.7,0.9-5.6,1.4c-0.4,0.1-0.7,0.2-1.1,0.3c0,0.3,0,5.3,0,6.7c0.3-0.1,0.7-0.2,1.1-0.3
			c4.8-1.4,12.6-3.3,18.2-4.6c0.4-0.1,0.7-0.2,1.1-0.2l0,0C168,58.9,167.7,57.1,167.7,57.1z"/>
	</g>
</g>
<g id="money4">
	<g>
		<path style="fill:none;" d="M189.9,19.6c0.5-0.1,0.9-0.1,1.3-0.2L189.9,19.6L189.9,19.6z"/>
		<path style="fill:#54B948;" d="M110.1,53.1c0,0-12.9-13.6-14.5-16.3l-0.8-0.1l0.6,1.9l11,15.1C106.3,53.7,107.7,53.5,110.1,53.1z"
			/>
		<path style="fill:#1F6622;" d="M113,46.4c1.7-0.5,9.9-2.7,14.6-3.9c-3,0.5-5.1,0.8-5.1,0.8c-4.8,1.1-9.1,2-10.9,2.3
			c-3.5,0.7-4,0.4-4,0.1c0-0.1,0-0.1,0-0.1l-13-14.1l1,3.1v2.3c1.6,2.7,14.5,16.3,14.5,16.3h0l-0.2-3.1l-0.5-0.2v-2.3
			C109.4,47.5,110.5,47.2,113,46.4z"/>
		<polygon style="fill:#FFFF00;" points="110.1,53.1 110.1,53.1 110.1,53.1 		"/>
		<path style="fill:#3D9038;" d="M107.8,58.4c-0.1-1.2-0.5-1.3-0.5-2.4s-1.1-2.3-1.1-2.3l-11-15.1l-0.5,0.8l0.7,1l-0.1,2.9
			l12.2,17.4C107.6,60.6,107.9,59.7,107.8,58.4z"/>
		<path style="fill:#3D9038;" d="M107.8,38.4l-14-15.2l-0.7,0.4l0.4,5.3l-0.7,0.8l1.7,1.8l13,14.1C107.8,44.4,107.8,40.5,107.8,38.4
			z"/>
		<path style="fill:#FFFF00;" d="M107.5,45.7c0,0,0-0.1,0-0.1C107.6,45.6,107.5,45.6,107.5,45.7z"/>
		<path style="fill:#54B948;" d="M190.9,13.2l-1.9-0.9c0,0-4.6,0.8-11.1,3.2C177.9,15.5,186,13.6,190.9,13.2z"/>
		<path style="fill:#54B948;" d="M141.5,24.9C141.5,24.9,141.5,24.9,141.5,24.9c-5.1,1.3-9.7,2.4-13.1,3.2
			c-14.3,3.2-19.7,6.3-19.7,6.3c-2.9-2.9-15.8-14.5-15.8-14.5l0.3,2.6l0.7,0.8l14,15.2l1.7,1.8c0,0,11.8-3.3,21.2-5.9
			c4.9-1.4,9.1-2.5,10.7-3C141.9,28.3,141.5,24.9,141.5,24.9z"/>
		<path style="fill:#8FB73F;" d="M128.4,28c3.4-0.8,8.1-1.9,13.1-3.2c-5.6-6.4-14.2-11.3-18.7-13.6c-11.2,2.7-22.1,5.4-24,5.9
			c-3.8,1.1-6,2.6-6,2.6s12.9,11.6,15.8,14.5C108.7,34.3,114.1,31.2,128.4,28z"/>
		<path style="fill:#CFB16E;" d="M161.7,19.7L161.7,19.7c-6.3,1.6-13.6,3.5-20.2,5.1c0,0,0,0,0,0s0.4,3.4-0.2,6.5
			c4-1.1,13.4-3.7,20.3-5.4c0,0,0,0,0,0C161.8,23.9,161.7,19.7,161.7,19.7z"/>
		<path style="fill:#54B948;" d="M191.2,16.1l-7.7,1.2l7.1-1.7l0.3-2.5c-4.9,0.4-12.9,2.3-12.9,2.3s-7.1,1.9-16.2,4.2l0,0
			c0,0,0.1,4.2-0.1,6.2c0,0,0,0,0,0c0.7-0.2,1.4-0.3,2.1-0.5c1.6-0.4,3.7-0.8,6-1.4c6.8-1.6,15.3-3.7,20.2-4.4l0,0l1.4-0.2V16.1z"/>
		<path style="fill:#8FB73F;" d="M161.7,19.7c9.1-2.4,16.2-4.2,16.2-4.2c6.4-2.4,11.1-3.2,11.1-3.2l2.3-0.8c0,0-18.5-11.3-20.3-11.5
			c-1.8-0.2-15.8,3-21.8,4.7c-1.1,0.3-3.3,0.9-6.3,1.6c1.8,1,5.3,2.8,8.1,4.9C155,14.2,161.7,19.7,161.7,19.7z"/>
		<path style="fill:#DAD179;" d="M150.9,11.2c-2.8-2.1-6.3-4-8.1-4.9c-5.2,1.3-12.7,3.1-20,4.9c4.5,2.3,13.1,7.2,18.7,13.6
			c6.6-1.6,13.9-3.5,20.2-5.1C161.7,19.7,155,14.2,150.9,11.2z"/>
		<path style="fill:#1A400A;" d="M161.4,34.5c2.9-0.7,5.5-1.3,7.6-1.7c5.6-1.2,17.9-3.6,21.2-4.8h-3.5c-8.9,2.3-17.5,3.5-24.6,5.1
			c-0.6,0.1-1.3,0.3-2,0.5L161.4,34.5L161.4,34.5z"/>
		<path style="fill:#C18765;" d="M145.6,38.7c4.9-1.5,10.8-3,15.8-4.1v0l-1.4-0.9c-7,1.6-16.1,3.9-19.4,5.2l1.1,0.9
			C143.2,39.4,144.5,39,145.6,38.7z"/>
		<path style="fill:#1A400A;" d="M140.7,38.7c-2.2,0.9-10.8,2.9-18.2,4.5c0,0,2.1-0.3,5.1-0.8c2-0.5,3.4-0.9,3.4-0.9
			s-1.4,0.4-3.4,0.9c4-0.7,9.6-1.7,14.2-2.8L140.7,38.7z"/>
		<path style="fill:#54B948;" d="M190.3,31.3l-0.1-3.3c-3.3,1.1-15.5,3.5-21.2,4.8c-2.1,0.4-4.7,1-7.6,1.7l0.6,6l0,0
			c1.2-0.2,2-0.4,2.3-0.3c1.8,0.1,19.7-3.4,25.1-5.5h0.9v-2.5l-2.1-0.3L190.3,31.3z"/>
		<path style="fill:#CFB16E;" d="M161.4,34.5c-5,1.2-10.8,2.6-15.8,4.1c-1.1,0.4-2.4,0.7-3.8,1l0,0l0.2,5.7l0,0
			c5.1-1.3,15.4-3.9,20.1-4.8l0,0L161.4,34.5z"/>
		<path style="fill:#54B948;" d="M141.8,39.7L141.8,39.7c-4.6,1.1-10.2,2.1-14.2,2.8c-4.7,1.2-12.9,3.4-14.6,3.9
			c-2.5,0.8-3.6,1.1-3.6,1.1v2.3l0.5,0.2l0.2,3.1c2.7-0.4,6.7-1.2,11.5-2.3c5.2-1.2,11.3-2.7,17.5-4.7c0.4-0.1,1.4-0.4,2.8-0.8
			L141.8,39.7z"/>
		<path style="fill:#54B948;" d="M121.6,50.9L121.6,50.9c-4.8,1.1-8.8,1.8-11.6,2.3v0l0,0c-2.4,0.4-3.7,0.6-3.7,0.6s1.1,1.2,1.1,2.3
			s0.4,1.2,0.5,2.4c0.1,1.2-0.2,2.2-0.2,2.2c4.8-0.1,32.3-6,32.3-6l-0.4-7.4C129.3,49.3,121.6,50.9,121.6,50.9z"/>
		<path style="fill:#CFB16E;" d="M139.5,47.2l0.4,7.4l20.2-4.4c0-4.8-0.5-7.2-0.5-7.2C152.7,44.4,145.6,45.9,139.5,47.2z"/>
		<path style="fill:#54B948;" d="M190.9,37.2l-1.5-0.5c-3.9,0.9-16.6,3.5-29.9,6.3c0,0,0.5,2.4,0.5,7.2c14.3-2.3,30.2-7.7,30.2-7.7
			l-0.4-4.6L190.9,37.2z"/>
		<path style="fill:#1A400A;" d="M159.6,43c13.3-2.8,25.9-5.4,29.9-6.3v-1.9c-5.3,2.1-23.3,5.6-25.1,5.5c-0.6,0-3.3,0.5-6.8,1.3
			L159.6,43L159.6,43z"/>
		<path style="fill:#1A400A;" d="M159.6,43l-2-1.5c-7,1.6-17.1,4.2-18.4,4.6c-6.3,2-12.3,3.6-17.5,4.7l0,0c0,0,7.6-1.6,17.8-3.7
			l-0.8-0.9l0.8,0.9C145.6,45.9,152.7,44.4,159.6,43L159.6,43z"/>
		<polygon style="fill:#FFFF00;" points="169.7,24.1 169.7,24.1 169.7,24.1 		"/>
		<polygon style="fill:#FFFF00;" points="169.7,24.1 169.7,24.1 169.7,24.1 		"/>
		<path style="fill:#1A400A;" d="M134.8,33.3c0.1,0,0.1,0,0.2,0c0.8-0.2,1.8-0.4,2.8-0.7c0.1,0,0.2-0.1,0.3-0.1
			c1.5-0.4,3.1-0.8,4.7-1.2l-0.4-0.3l0.4,0.3c2.3-0.6,4.7-1.2,6.7-1.7c1.8-0.4,3.3-0.8,4.4-1.1c0.3-0.1,0.6-0.1,0.8-0.2c0,0,0,0,0,0
			c0,0,0,0,0,0c0.5-0.1,1.1-0.3,1.6-0.4c0,0,0.1,0,0.1,0c1.5-0.3,3-0.7,4.6-1.1c0.1,0,0.2,0,0.3-0.1c0.4-0.1,0.7-0.2,1.1-0.3
			c0.2-0.1,0.4-0.1,0.7-0.2l-0.7-0.6l0.7,0.6c0.2,0,0.4-0.1,0.5-0.1c0.4-0.1,0.7-0.2,1.1-0.3c0.3-0.1,0.5-0.2,0.8-0.2
			c0.3-0.1,0.6-0.2,0.9-0.3c0.3-0.1,0.7-0.2,1-0.4c0.2-0.1,0.4-0.2,0.6-0.2c0.6-0.2,1.1-0.4,1.6-0.7c0,0,0,0,0,0
			c-2.3,0.5-4.3,1-6,1.4c-7.1,1.6-18,4.7-22.4,5.9c-1.5,0.4-5.8,1.6-10.7,3c0,0,0.1,0,0.1,0C131.2,34.2,132.7,33.8,134.8,33.3z"/>
		<path style="fill:#54B948;" d="M189.9,22.8l-1.1-0.4L190,22l-0.1-2.4c-4.8,0.7-13.4,2.8-20.2,4.4c0,0,0,0,0,0
			c-0.5,0.2-1.1,0.5-1.6,0.7c-0.2,0.1-0.4,0.2-0.6,0.2c-0.3,0.1-0.7,0.2-1,0.4c-0.3,0.1-0.6,0.2-0.9,0.3c-0.3,0.1-0.5,0.2-0.8,0.2
			c-0.4,0.1-0.7,0.2-1.1,0.3c0,0,0,0,0,0c-0.2,0.1-0.4,0.1-0.5,0.1l0,0c0,0,0.3,1.8,0,6.6l0,0c0.2,0,0.4-0.1,0.6-0.1
			c6.7-1.4,14.6-2.6,22.9-4.7l3.5-1L189.9,22.8z"/>
		<path style="fill:#54B948;" d="M142.8,31.3c-1.6,0.4-3.2,0.8-4.7,1.2c-0.1,0-0.2,0.1-0.3,0.1c-1,0.2-1.9,0.5-2.8,0.7
			c-0.1,0-0.1,0-0.2,0c-2.1,0.5-3.6,0.9-4,1c-0.1,0-0.1,0-0.1,0c-9.4,2.6-21.2,5.9-21.2,5.9l-1.7-1.8c0,2.1,0,6-0.3,7.2
			c0,0.1,0,0.1,0,0.1c0,0.2,0.5,0.5,4-0.1c1.8-0.4,6.1-1.3,10.9-2.3c7.4-1.6,16-3.6,18.2-4.5c0.5-0.2,1.3-0.5,2.1-0.7
			C142.8,36.6,142.8,31.6,142.8,31.3z"/>
		<path style="fill:#CFB16E;" d="M163.2,26.3L163.2,26.3c-0.2,0-0.5,0.1-0.7,0.2c-0.4,0.1-0.7,0.2-1.1,0.3c-0.1,0-0.2,0-0.3,0.1
			c-1.6,0.4-3.2,0.7-4.6,1.1c0,0-0.1,0-0.1,0c-0.6,0.1-1.1,0.3-1.6,0.4c0,0,0,0,0,0c0,0,0,0,0,0c-0.2,0.1-0.5,0.1-0.8,0.2
			c-1.1,0.3-2.6,0.7-4.4,1.1c-1.7,0.4-3.7,0.9-5.6,1.4c-0.4,0.1-0.7,0.2-1.1,0.3c0,0.3,0,5.3,0,6.7c0.3-0.1,0.7-0.2,1.1-0.3
			c4.8-1.4,12.6-3.3,18.2-4.6c0.4-0.1,0.7-0.2,1.1-0.2l0,0C163.5,28.2,163.2,26.3,163.2,26.3z"/>
	</g>
</g>
</svg>
