<?xml version="1.0" encoding="utf-8"?>
<!-- Generator: Adobe Illustrator 25.1.0, SVG Export Plug-In . SVG Version: 6.00 Build 0)  -->
<svg version="1.1" xmlns="http://www.w3.org/2000/svg" xmlns:xlink="http://www.w3.org/1999/xlink" x="0px" y="0px"
	 viewBox="0 0 115.4 206.4" style="enable-background:new 0 0 115.4 206.4;" xml:space="preserve">
<g id="Stacks">
	<g>
		<path style="fill:#808080;" d="M67.8,106.2c-9.3,0-16.8-3-16.8-6.7v88.1c0,3.7,7.5,6.7,16.8,6.7s16.8-3,16.8-6.7V99.5
			C84.7,103.2,77.1,106.2,67.8,106.2z"/>
		<path style="fill:#E6E6E6;" d="M67.8,90.4c-9.3,0-16.8,3-16.8,6.7c0,0.4,0.1,0.8,0.3,1.1c1.4,3.2,8.2,5.6,16.5,5.6
			s15.2-2.4,16.5-5.6c0.2-0.4,0.3-0.8,0.3-1.1C84.7,93.5,77.1,90.4,67.8,90.4z"/>
		<path style="fill:#4D4D4D;" d="M84.4,98.3c-1.4,3.2-8.2,5.6-16.5,5.6s-15.2-2.4-16.5-5.6C51.1,98,51,97.6,51,97.2v2.3
			c0,3.7,7.5,6.7,16.8,6.7s16.8-3,16.8-6.7v-2.3C84.7,97.6,84.6,98,84.4,98.3z"/>
		<path style="fill:#333333;" d="M84.4,100.6c-1.4,3.2-8.2,5.6-16.5,5.6s-15.2-2.4-16.5-5.6c-0.2-0.4-0.3-0.8-0.3-1.1v2.3
			c0,3.7,7.5,6.7,16.8,6.7s16.8-3,16.8-6.7v-2.3C84.7,99.8,84.6,100.2,84.4,100.6z"/>
		<path style="fill:#4D4D4D;" d="M84.4,102.9c-1.4,3.2-8.2,5.6-16.5,5.6s-15.2-2.4-16.5-5.6c-0.2-0.4-0.3-0.8-0.3-1.1v2.3
			c0,3.7,7.5,6.7,16.8,6.7s16.8-3,16.8-6.7v-2.3C84.7,102.1,84.6,102.5,84.4,102.9z"/>
		<path style="fill:#333333;" d="M84.4,105.1c-1.4,3.2-8.2,5.6-16.5,5.6s-15.2-2.4-16.5-5.6c-0.2-0.4-0.3-0.8-0.3-1.1v2.3
			c0,3.7,7.5,6.7,16.8,6.7s16.8-3,16.8-6.7v-2.3C84.7,104.3,84.6,104.7,84.4,105.1z"/>
		<path style="fill:#4D4D4D;" d="M84.4,107.4c-1.4,3.2-8.2,5.6-16.5,5.6s-15.2-2.4-16.5-5.6c-0.2-0.4-0.3-0.8-0.3-1.1v2.3
			c0,3.7,7.5,6.7,16.8,6.7s16.8-3,16.8-6.7v-2.3C84.7,106.6,84.6,107,84.4,107.4z"/>
		<path style="fill:#333333;" d="M84.4,109.6c-1.4,3.2-8.2,5.6-16.5,5.6s-15.2-2.4-16.5-5.6c-0.2-0.4-0.3-0.8-0.3-1.1v2.3
			c0,3.7,7.5,6.7,16.8,6.7s16.8-3,16.8-6.7v-2.3C84.7,108.8,84.6,109.2,84.4,109.6z"/>
		<path style="fill:#4D4D4D;" d="M84.4,111.9c-1.4,3.2-8.2,5.6-16.5,5.6s-15.2-2.4-16.5-5.6c-0.2-0.4-0.3-0.8-0.3-1.1v2.3
			c0,3.7,7.5,6.7,16.8,6.7s16.8-3,16.8-6.7v-2.3C84.7,111.1,84.6,111.5,84.4,111.9z"/>
		<path style="fill:#333333;" d="M84.4,114.1c-1.4,3.2-8.2,5.6-16.5,5.6s-15.2-2.4-16.5-5.6c-0.2-0.4-0.3-0.8-0.3-1.1v2.3
			c0,3.7,7.5,6.7,16.8,6.7s16.8-3,16.8-6.7V113C84.7,113.4,84.6,113.8,84.4,114.1z"/>
		<path style="fill:#4D4D4D;" d="M84.4,116.4c-1.4,3.2-8.2,5.6-16.5,5.6s-15.2-2.4-16.5-5.6c-0.2-0.4-0.3-0.8-0.3-1.1v2.3
			c0,3.7,7.5,6.7,16.8,6.7s16.8-3,16.8-6.7v-2.3C84.7,115.7,84.6,116.1,84.4,116.4z"/>
		<path style="fill:#333333;" d="M84.4,118.6c-1.4,3.2-8.2,5.6-16.5,5.6s-15.2-2.4-16.5-5.6c-0.2-0.4-0.3-0.8-0.3-1.1v2.3
			c0,3.7,7.5,6.7,16.8,6.7s16.8-3,16.8-6.7v-2.3C84.7,117.9,84.6,118.3,84.4,118.6z"/>
		<path style="fill:#4D4D4D;" d="M84.4,120.9c-1.4,3.2-8.2,5.6-16.5,5.6s-15.2-2.4-16.5-5.6c-0.2-0.4-0.3-0.8-0.3-1.1v2.3
			c0,3.7,7.5,6.7,16.8,6.7s16.8-3,16.8-6.7v-2.3C84.7,120.2,84.6,120.6,84.4,120.9z"/>
		<path style="fill:#333333;" d="M84.4,123.2c-1.4,3.2-8.2,5.6-16.5,5.6s-15.2-2.4-16.5-5.6c-0.2-0.4-0.3-0.8-0.3-1.1v2.3
			c0,3.7,7.5,6.7,16.8,6.7s16.8-3,16.8-6.7V122C84.7,122.4,84.6,122.8,84.4,123.2z"/>
		<path style="fill:#4D4D4D;" d="M84.4,125.5c-1.4,3.2-8.2,5.6-16.5,5.6s-15.2-2.4-16.5-5.6c-0.2-0.4-0.3-0.8-0.3-1.1v2.3
			c0,3.7,7.5,6.7,16.8,6.7s16.8-3,16.8-6.7v-2.3C84.7,124.7,84.6,125.1,84.4,125.5z"/>
		<path style="fill:#333333;" d="M84.4,127.7c-1.4,3.2-8.2,5.6-16.5,5.6s-15.2-2.4-16.5-5.6c-0.2-0.4-0.3-0.8-0.3-1.1v2.3
			c0,3.7,7.5,6.7,16.8,6.7s16.8-3,16.8-6.7v-2.3C84.7,126.9,84.6,127.3,84.4,127.7z"/>
		<path style="fill:#4D4D4D;" d="M84.4,130c-1.4,3.2-8.2,5.6-16.5,5.6s-15.2-2.4-16.5-5.6c-0.2-0.4-0.3-0.8-0.3-1.1v2.3
			c0,3.7,7.5,6.7,16.8,6.7s16.8-3,16.8-6.7v-2.3C84.7,129.2,84.6,129.6,84.4,130z"/>
		<path style="fill:#333333;" d="M84.4,132.2c-1.4,3.2-8.2,5.6-16.5,5.6s-15.2-2.4-16.5-5.6c-0.2-0.4-0.3-0.8-0.3-1.1v2.3
			c0,3.7,7.5,6.7,16.8,6.7s16.8-3,16.8-6.7v-2.3C84.7,131.5,84.6,131.8,84.4,132.2z"/>
		<path style="fill:#4D4D4D;" d="M84.4,134.5c-1.4,3.2-8.2,5.6-16.5,5.6s-15.2-2.4-16.5-5.6c-0.2-0.4-0.3-0.8-0.3-1.1v2.3
			c0,3.7,7.5,6.7,16.8,6.7s16.8-3,16.8-6.7v-2.3C84.7,133.8,84.6,134.1,84.4,134.5z"/>
		<path style="fill:#333333;" d="M84.4,136.7c-1.4,3.2-8.2,5.6-16.5,5.6s-15.2-2.4-16.5-5.6c-0.2-0.4-0.3-0.8-0.3-1.1v2.3
			c0,3.7,7.5,6.7,16.8,6.7s16.8-3,16.8-6.7v-2.3C84.7,136,84.6,136.4,84.4,136.7z"/>
		<path style="fill:#4D4D4D;" d="M84.4,139c-1.4,3.2-8.2,5.6-16.5,5.6s-15.2-2.4-16.5-5.6c-0.2-0.4-0.3-0.8-0.3-1.1v2.3
			c0,3.7,7.5,6.7,16.8,6.7s16.8-3,16.8-6.7v-2.3C84.7,138.3,84.6,138.7,84.4,139z"/>
		<path style="fill:#333333;" d="M84.4,141.3c-1.4,3.2-8.2,5.6-16.5,5.6s-15.2-2.4-16.5-5.6c-0.2-0.4-0.3-0.8-0.3-1.1v2.3
			c0,3.7,7.5,6.7,16.8,6.7s16.8-3,16.8-6.7v-2.3C84.7,140.5,84.6,140.9,84.4,141.3z"/>
		<path style="fill:#4D4D4D;" d="M84.4,143.6c-1.4,3.2-8.2,5.6-16.5,5.6s-15.2-2.4-16.5-5.6c-0.2-0.4-0.3-0.8-0.3-1.1v2.3
			c0,3.7,7.5,6.7,16.8,6.7s16.8-3,16.8-6.7v-2.3C84.7,142.8,84.6,143.2,84.4,143.6z"/>
		<path style="fill:#333333;" d="M84.4,145.8c-1.4,3.2-8.2,5.6-16.5,5.6s-15.2-2.4-16.5-5.6c-0.2-0.4-0.3-0.8-0.3-1.1v2.3
			c0,3.7,7.5,6.7,16.8,6.7s16.8-3,16.8-6.7v-2.3C84.7,145,84.6,145.4,84.4,145.8z"/>
		<path style="fill:#4D4D4D;" d="M84.4,148.1c-1.4,3.2-8.2,5.6-16.5,5.6s-15.2-2.4-16.5-5.6c-0.2-0.4-0.3-0.8-0.3-1.1v2.3
			c0,3.7,7.5,6.7,16.8,6.7s16.8-3,16.8-6.7v-2.3C84.7,147.3,84.6,147.7,84.4,148.1z"/>
		<path style="fill:#333333;" d="M84.4,150.3c-1.4,3.2-8.2,5.6-16.5,5.6s-15.2-2.4-16.5-5.6c-0.2-0.4-0.3-0.8-0.3-1.1v2.3
			c0,3.7,7.5,6.7,16.8,6.7s16.8-3,16.8-6.7v-2.3C84.7,149.5,84.6,149.9,84.4,150.3z"/>
		<path style="fill:#4D4D4D;" d="M84.4,152.6c-1.4,3.2-8.2,5.6-16.5,5.6s-15.2-2.4-16.5-5.6c-0.2-0.4-0.3-0.8-0.3-1.1v2.3
			c0,3.7,7.5,6.7,16.8,6.7s16.8-3,16.8-6.7v-2.3C84.7,151.8,84.6,152.2,84.4,152.6z"/>
		<path style="fill:#333333;" d="M84.4,154.8c-1.4,3.2-8.2,5.6-16.5,5.6s-15.2-2.4-16.5-5.6c-0.2-0.4-0.3-0.8-0.3-1.1v2.3
			c0,3.7,7.5,6.7,16.8,6.7s16.8-3,16.8-6.7v-2.3C84.7,154.1,84.6,154.5,84.4,154.8z"/>
		<path style="fill:#4D4D4D;" d="M84.4,157.1c-1.4,3.2-8.2,5.6-16.5,5.6s-15.2-2.4-16.5-5.6c-0.2-0.4-0.3-0.8-0.3-1.1v2.3
			c0,3.7,7.5,6.7,16.8,6.7s16.8-3,16.8-6.7V156C84.7,156.4,84.6,156.8,84.4,157.1z"/>
		<path style="fill:#333333;" d="M84.4,159.3c-1.4,3.2-8.2,5.6-16.5,5.6s-15.2-2.4-16.5-5.6c-0.2-0.4-0.3-0.8-0.3-1.1v2.3
			c0,3.7,7.5,6.7,16.8,6.7s16.8-3,16.8-6.7v-2.3C84.7,158.6,84.6,159,84.4,159.3z"/>
		<path style="fill:#4D4D4D;" d="M84.4,161.6c-1.4,3.2-8.2,5.6-16.5,5.6s-15.2-2.4-16.5-5.6c-0.2-0.4-0.3-0.8-0.3-1.1v2.3
			c0,3.7,7.5,6.7,16.8,6.7s16.8-3,16.8-6.7v-2.3C84.7,160.9,84.6,161.3,84.4,161.6z"/>
		<path style="fill:#333333;" d="M84.4,163.9c-1.4,3.2-8.2,5.6-16.5,5.6s-15.2-2.4-16.5-5.6c-0.2-0.4-0.3-0.8-0.3-1.1v2.3
			c0,3.7,7.5,6.7,16.8,6.7s16.8-3,16.8-6.7v-2.3C84.7,163.1,84.6,163.5,84.4,163.9z"/>
		<path style="fill:#4D4D4D;" d="M84.4,166.2c-1.4,3.2-8.2,5.6-16.5,5.6s-15.2-2.4-16.5-5.6c-0.2-0.4-0.3-0.8-0.3-1.1v2.3
			c0,3.7,7.5,6.7,16.8,6.7s16.8-3,16.8-6.7V165C84.7,165.4,84.6,165.8,84.4,166.2z"/>
		<path style="fill:#333333;" d="M84.4,168.4c-1.4,3.2-8.2,5.6-16.5,5.6s-15.2-2.4-16.5-5.6c-0.2-0.4-0.3-0.8-0.3-1.1v2.3
			c0,3.7,7.5,6.7,16.8,6.7s16.8-3,16.8-6.7v-2.3C84.7,167.6,84.6,168,84.4,168.4z"/>
		<path style="fill:#4D4D4D;" d="M84.4,170.7c-1.4,3.2-8.2,5.6-16.5,5.6s-15.2-2.4-16.5-5.6c-0.2-0.4-0.3-0.8-0.3-1.1v2.3
			c0,3.7,7.5,6.7,16.8,6.7s16.8-3,16.8-6.7v-2.3C84.7,169.9,84.6,170.3,84.4,170.7z"/>
		<path style="fill:#333333;" d="M84.4,172.9c-1.4,3.2-8.2,5.6-16.5,5.6s-15.2-2.4-16.5-5.6c-0.2-0.4-0.3-0.8-0.3-1.1v2.3
			c0,3.7,7.5,6.7,16.8,6.7s16.8-3,16.8-6.7v-2.3C84.7,172.2,84.6,172.5,84.4,172.9z"/>
		<path style="fill:#4D4D4D;" d="M84.4,175.2c-1.4,3.2-8.2,5.6-16.5,5.6s-15.2-2.4-16.5-5.6c-0.2-0.4-0.3-0.8-0.3-1.1v2.3
			c0,3.7,7.5,6.7,16.8,6.7s16.8-3,16.8-6.7v-2.3C84.7,174.5,84.6,174.8,84.4,175.2z"/>
		<path style="fill:#333333;" d="M84.4,177.4c-1.4,3.2-8.2,5.6-16.5,5.6s-15.2-2.4-16.5-5.6c-0.2-0.4-0.3-0.8-0.3-1.1v2.3
			c0,3.7,7.5,6.7,16.8,6.7s16.8-3,16.8-6.7v-2.3C84.7,176.7,84.6,177.1,84.4,177.4z"/>
		<path style="fill:#4D4D4D;" d="M84.4,179.7c-1.4,3.2-8.2,5.6-16.5,5.6s-15.2-2.4-16.5-5.6c-0.2-0.4-0.3-0.8-0.3-1.1v2.3
			c0,3.7,7.5,6.7,16.8,6.7s16.8-3,16.8-6.7v-2.3C84.7,179,84.6,179.4,84.4,179.7z"/>
		<path style="fill:#333333;" d="M84.4,182c-1.4,3.2-8.2,5.6-16.5,5.6s-15.2-2.4-16.5-5.6c-0.2-0.4-0.3-0.8-0.3-1.1v2.3
			c0,3.7,7.5,6.7,16.8,6.7s16.8-3,16.8-6.7v-2.3C84.7,181.2,84.6,181.6,84.4,182z"/>
		<path style="fill:#4D4D4D;" d="M84.4,184.3c-1.4,3.2-8.2,5.6-16.5,5.6s-15.2-2.4-16.5-5.6c-0.2-0.4-0.3-0.8-0.3-1.1v2.3
			c0,3.7,7.5,6.7,16.8,6.7s16.8-3,16.8-6.7v-2.3C84.7,183.5,84.6,183.9,84.4,184.3z"/>
		<path style="fill:#333333;" d="M84.4,186.5c-1.4,3.2-8.2,5.6-16.5,5.6s-15.2-2.4-16.5-5.6c-0.2-0.4-0.3-0.8-0.3-1.1v2.3
			c0,3.7,7.5,6.7,16.8,6.7s16.8-3,16.8-6.7v-2.3C84.7,185.7,84.6,186.1,84.4,186.5z"/>
	</g>
	<g>
		<path style="fill:#808080;" d="M98.6,118.3c-9.3,0-16.8-3-16.8-6.7v88.1c0,3.7,7.5,6.7,16.8,6.7s16.8-3,16.8-6.7v-88.1
			C115.4,115.3,107.9,118.3,98.6,118.3z"/>
		<path style="fill:#E6E6E6;" d="M98.6,102.5c-9.3,0-16.8,3-16.8,6.7c0,0.4,0.1,0.8,0.3,1.1c1.4,3.2,8.2,5.6,16.5,5.6
			s15.2-2.4,16.5-5.6c0.2-0.4,0.3-0.8,0.3-1.1C115.4,105.5,107.9,102.5,98.6,102.5z"/>
		<path style="fill:#4D4D4D;" d="M115.2,110.4c-1.4,3.2-8.2,5.6-16.5,5.6s-15.2-2.4-16.5-5.6c-0.2-0.4-0.3-0.8-0.3-1.1v2.3
			c0,3.7,7.5,6.7,16.8,6.7s16.8-3,16.8-6.7v-2.3C115.4,109.7,115.3,110,115.2,110.4z"/>
		<path style="fill:#333333;" d="M115.2,112.6c-1.4,3.2-8.2,5.6-16.5,5.6s-15.2-2.4-16.5-5.6c-0.2-0.4-0.3-0.8-0.3-1.1v2.3
			c0,3.7,7.5,6.7,16.8,6.7s16.8-3,16.8-6.7v-2.3C115.4,111.9,115.3,112.3,115.2,112.6z"/>
		<path style="fill:#4D4D4D;" d="M115.2,114.9c-1.4,3.2-8.2,5.6-16.5,5.6s-15.2-2.4-16.5-5.6c-0.2-0.4-0.3-0.8-0.3-1.1v2.3
			c0,3.7,7.5,6.7,16.8,6.7s16.8-3,16.8-6.7v-2.3C115.4,114.2,115.3,114.6,115.2,114.9z"/>
		<path style="fill:#333333;" d="M115.2,117.2c-1.4,3.2-8.2,5.6-16.5,5.6s-15.2-2.4-16.5-5.6c-0.2-0.4-0.3-0.8-0.3-1.1v2.3
			c0,3.7,7.5,6.7,16.8,6.7s16.8-3,16.8-6.7V116C115.4,116.4,115.3,116.8,115.2,117.2z"/>
		<path style="fill:#4D4D4D;" d="M115.2,119.4c-1.4,3.2-8.2,5.6-16.5,5.6s-15.2-2.4-16.5-5.6c-0.2-0.4-0.3-0.8-0.3-1.1v2.3
			c0,3.7,7.5,6.7,16.8,6.7s16.8-3,16.8-6.7v-2.3C115.4,118.7,115.3,119.1,115.2,119.4z"/>
		<path style="fill:#333333;" d="M115.2,121.7c-1.4,3.2-8.2,5.6-16.5,5.6s-15.2-2.4-16.5-5.6c-0.2-0.4-0.3-0.8-0.3-1.1v2.3
			c0,3.7,7.5,6.7,16.8,6.7s16.8-3,16.8-6.7v-2.3C115.4,120.9,115.3,121.3,115.2,121.7z"/>
		<path style="fill:#4D4D4D;" d="M115.2,124c-1.4,3.2-8.2,5.6-16.5,5.6s-15.2-2.4-16.5-5.6c-0.2-0.4-0.3-0.8-0.3-1.1v2.3
			c0,3.7,7.5,6.7,16.8,6.7s16.8-3,16.8-6.7v-2.3C115.4,123.2,115.3,123.6,115.2,124z"/>
		<path style="fill:#333333;" d="M115.2,126.2c-1.4,3.2-8.2,5.6-16.5,5.6s-15.2-2.4-16.5-5.6c-0.2-0.4-0.3-0.8-0.3-1.1v2.3
			c0,3.7,7.5,6.7,16.8,6.7s16.8-3,16.8-6.7V125C115.4,125.4,115.3,125.8,115.2,126.2z"/>
		<path style="fill:#4D4D4D;" d="M115.2,128.5c-1.4,3.2-8.2,5.6-16.5,5.6s-15.2-2.4-16.5-5.6c-0.2-0.4-0.3-0.8-0.3-1.1v2.3
			c0,3.7,7.5,6.7,16.8,6.7s16.8-3,16.8-6.7v-2.3C115.4,127.7,115.3,128.1,115.2,128.5z"/>
		<path style="fill:#333333;" d="M115.2,130.7c-1.4,3.2-8.2,5.6-16.5,5.6s-15.2-2.4-16.5-5.6c-0.2-0.4-0.3-0.8-0.3-1.1v2.3
			c0,3.7,7.5,6.7,16.8,6.7s16.8-3,16.8-6.7v-2.3C115.4,130,115.3,130.3,115.2,130.7z"/>
		<path style="fill:#4D4D4D;" d="M115.2,133c-1.4,3.2-8.2,5.6-16.5,5.6s-15.2-2.4-16.5-5.6c-0.2-0.4-0.3-0.8-0.3-1.1v2.3
			c0,3.7,7.5,6.7,16.8,6.7s16.8-3,16.8-6.7v-2.3C115.4,132.3,115.3,132.6,115.2,133z"/>
		<path style="fill:#333333;" d="M115.2,135.2c-1.4,3.2-8.2,5.6-16.5,5.6s-15.2-2.4-16.5-5.6c-0.2-0.4-0.3-0.8-0.3-1.1v2.3
			c0,3.7,7.5,6.7,16.8,6.7s16.8-3,16.8-6.7v-2.3C115.4,134.5,115.3,134.9,115.2,135.2z"/>
		<path style="fill:#4D4D4D;" d="M115.2,137.5c-1.4,3.2-8.2,5.6-16.5,5.6s-15.2-2.4-16.5-5.6c-0.2-0.4-0.3-0.8-0.3-1.1v2.3
			c0,3.7,7.5,6.7,16.8,6.7s16.8-3,16.8-6.7v-2.3C115.4,136.8,115.3,137.2,115.2,137.5z"/>
		<path style="fill:#333333;" d="M115.2,139.8c-1.4,3.2-8.2,5.6-16.5,5.6s-15.2-2.4-16.5-5.6c-0.2-0.4-0.3-0.8-0.3-1.1v2.3
			c0,3.7,7.5,6.7,16.8,6.7s16.8-3,16.8-6.7v-2.3C115.4,139,115.3,139.4,115.2,139.8z"/>
		<path style="fill:#4D4D4D;" d="M115.2,142.1c-1.4,3.2-8.2,5.6-16.5,5.6s-15.2-2.4-16.5-5.6c-0.2-0.4-0.3-0.8-0.3-1.1v2.3
			c0,3.7,7.5,6.7,16.8,6.7s16.8-3,16.8-6.7v-2.3C115.4,141.3,115.3,141.7,115.2,142.1z"/>
		<path style="fill:#333333;" d="M115.2,144.3c-1.4,3.2-8.2,5.6-16.5,5.6s-15.2-2.4-16.5-5.6c-0.2-0.4-0.3-0.8-0.3-1.1v2.3
			c0,3.7,7.5,6.7,16.8,6.7s16.8-3,16.8-6.7v-2.3C115.4,143.5,115.3,143.9,115.2,144.3z"/>
		<path style="fill:#4D4D4D;" d="M115.2,146.6c-1.4,3.2-8.2,5.6-16.5,5.6s-15.2-2.4-16.5-5.6c-0.2-0.4-0.3-0.8-0.3-1.1v2.3
			c0,3.7,7.5,6.7,16.8,6.7s16.8-3,16.8-6.7v-2.3C115.4,145.8,115.3,146.2,115.2,146.6z"/>
		<path style="fill:#333333;" d="M115.2,148.8c-1.4,3.2-8.2,5.6-16.5,5.6s-15.2-2.4-16.5-5.6c-0.2-0.4-0.3-0.8-0.3-1.1v2.3
			c0,3.7,7.5,6.7,16.8,6.7s16.8-3,16.8-6.7v-2.3C115.4,148.1,115.3,148.4,115.2,148.8z"/>
		<path style="fill:#4D4D4D;" d="M115.2,151.1c-1.4,3.2-8.2,5.6-16.5,5.6s-15.2-2.4-16.5-5.6c-0.2-0.4-0.3-0.8-0.3-1.1v2.3
			c0,3.7,7.5,6.7,16.8,6.7s16.8-3,16.8-6.7V150C115.4,150.3,115.3,150.7,115.2,151.1z"/>
		<path style="fill:#333333;" d="M115.2,153.3c-1.4,3.2-8.2,5.6-16.5,5.6s-15.2-2.4-16.5-5.6c-0.2-0.4-0.3-0.8-0.3-1.1v2.3
			c0,3.7,7.5,6.7,16.8,6.7s16.8-3,16.8-6.7v-2.3C115.4,152.6,115.3,153,115.2,153.3z"/>
		<path style="fill:#4D4D4D;" d="M115.2,155.6c-1.4,3.2-8.2,5.6-16.5,5.6s-15.2-2.4-16.5-5.6c-0.2-0.4-0.3-0.8-0.3-1.1v2.3
			c0,3.7,7.5,6.7,16.8,6.7s16.8-3,16.8-6.7v-2.3C115.4,154.9,115.3,155.3,115.2,155.6z"/>
		<path style="fill:#333333;" d="M115.2,157.8c-1.4,3.2-8.2,5.6-16.5,5.6s-15.2-2.4-16.5-5.6c-0.2-0.4-0.3-0.8-0.3-1.1v2.3
			c0,3.7,7.5,6.7,16.8,6.7s16.8-3,16.8-6.7v-2.3C115.4,157.1,115.3,157.5,115.2,157.8z"/>
		<path style="fill:#4D4D4D;" d="M115.2,160.1c-1.4,3.2-8.2,5.6-16.5,5.6s-15.2-2.4-16.5-5.6c-0.2-0.4-0.3-0.8-0.3-1.1v2.3
			c0,3.7,7.5,6.7,16.8,6.7s16.8-3,16.8-6.7V159C115.4,159.4,115.3,159.8,115.2,160.1z"/>
		<path style="fill:#333333;" d="M115.2,162.4c-1.4,3.2-8.2,5.6-16.5,5.6s-15.2-2.4-16.5-5.6c-0.2-0.4-0.3-0.8-0.3-1.1v2.3
			c0,3.7,7.5,6.7,16.8,6.7s16.8-3,16.8-6.7v-2.3C115.4,161.6,115.3,162,115.2,162.4z"/>
		<path style="fill:#4D4D4D;" d="M115.2,164.7c-1.4,3.2-8.2,5.6-16.5,5.6s-15.2-2.4-16.5-5.6c-0.2-0.4-0.3-0.8-0.3-1.1v2.3
			c0,3.7,7.5,6.7,16.8,6.7s16.8-3,16.8-6.7v-2.3C115.4,163.9,115.3,164.3,115.2,164.7z"/>
		<path style="fill:#333333;" d="M115.2,166.9c-1.4,3.2-8.2,5.6-16.5,5.6s-15.2-2.4-16.5-5.6c-0.2-0.4-0.3-0.8-0.3-1.1v2.3
			c0,3.7,7.5,6.7,16.8,6.7s16.8-3,16.8-6.7v-2.3C115.4,166.1,115.3,166.5,115.2,166.9z"/>
		<path style="fill:#4D4D4D;" d="M115.2,169.2c-1.4,3.2-8.2,5.6-16.5,5.6s-15.2-2.4-16.5-5.6c-0.2-0.4-0.3-0.8-0.3-1.1v2.3
			c0,3.7,7.5,6.7,16.8,6.7s16.8-3,16.8-6.7V168C115.4,168.4,115.3,168.8,115.2,169.2z"/>
		<path style="fill:#333333;" d="M115.2,171.4c-1.4,3.2-8.2,5.6-16.5,5.6s-15.2-2.4-16.5-5.6c-0.2-0.4-0.3-0.8-0.3-1.1v2.3
			c0,3.7,7.5,6.7,16.8,6.7s16.8-3,16.8-6.7v-2.3C115.4,170.7,115.3,171,115.2,171.4z"/>
		<path style="fill:#4D4D4D;" d="M115.2,173.7c-1.4,3.2-8.2,5.6-16.5,5.6s-15.2-2.4-16.5-5.6c-0.2-0.4-0.3-0.8-0.3-1.1v2.3
			c0,3.7,7.5,6.7,16.8,6.7s16.8-3,16.8-6.7v-2.3C115.4,173,115.3,173.3,115.2,173.7z"/>
		<path style="fill:#333333;" d="M115.2,175.9c-1.4,3.2-8.2,5.6-16.5,5.6s-15.2-2.4-16.5-5.6c-0.2-0.4-0.3-0.8-0.3-1.1v2.3
			c0,3.7,7.5,6.7,16.8,6.7s16.8-3,16.8-6.7v-2.3C115.4,175.2,115.3,175.6,115.2,175.9z"/>
		<path style="fill:#4D4D4D;" d="M115.2,178.2c-1.4,3.2-8.2,5.6-16.5,5.6s-15.2-2.4-16.5-5.6c-0.2-0.4-0.3-0.8-0.3-1.1v2.3
			c0,3.7,7.5,6.7,16.8,6.7s16.8-3,16.8-6.7v-2.3C115.4,177.5,115.3,177.9,115.2,178.2z"/>
		<path style="fill:#333333;" d="M115.2,180.5c-1.4,3.2-8.2,5.6-16.5,5.6s-15.2-2.4-16.5-5.6c-0.2-0.4-0.3-0.8-0.3-1.1v2.3
			c0,3.7,7.5,6.7,16.8,6.7s16.8-3,16.8-6.7v-2.3C115.4,179.7,115.3,180.1,115.2,180.5z"/>
		<path style="fill:#4D4D4D;" d="M115.2,182.8c-1.4,3.2-8.2,5.6-16.5,5.6s-15.2-2.4-16.5-5.6c-0.2-0.4-0.3-0.8-0.3-1.1v2.3
			c0,3.7,7.5,6.7,16.8,6.7s16.8-3,16.8-6.7v-2.3C115.4,182,115.3,182.4,115.2,182.8z"/>
		<path style="fill:#333333;" d="M115.2,185c-1.4,3.2-8.2,5.6-16.5,5.6s-15.2-2.4-16.5-5.6c-0.2-0.4-0.3-0.8-0.3-1.1v2.3
			c0,3.7,7.5,6.7,16.8,6.7s16.8-3,16.8-6.7v-2.3C115.4,184.2,115.3,184.6,115.2,185z"/>
		<path style="fill:#4D4D4D;" d="M115.2,187.3c-1.4,3.2-8.2,5.6-16.5,5.6s-15.2-2.4-16.5-5.6c-0.2-0.4-0.3-0.8-0.3-1.1v2.3
			c0,3.7,7.5,6.7,16.8,6.7s16.8-3,16.8-6.7v-2.3C115.4,186.5,115.3,186.9,115.2,187.3z"/>
		<path style="fill:#333333;" d="M115.2,189.5c-1.4,3.2-8.2,5.6-16.5,5.6s-15.2-2.4-16.5-5.6c-0.2-0.4-0.3-0.8-0.3-1.1v2.3
			c0,3.7,7.5,6.7,16.8,6.7s16.8-3,16.8-6.7v-2.3C115.4,188.7,115.3,189.1,115.2,189.5z"/>
		<path style="fill:#4D4D4D;" d="M115.2,191.8c-1.4,3.2-8.2,5.6-16.5,5.6s-15.2-2.4-16.5-5.6c-0.2-0.4-0.3-0.8-0.3-1.1v2.3
			c0,3.7,7.5,6.7,16.8,6.7s16.8-3,16.8-6.7v-2.3C115.4,191,115.3,191.4,115.2,191.8z"/>
		<path style="fill:#333333;" d="M115.2,194c-1.4,3.2-8.2,5.6-16.5,5.6s-15.2-2.4-16.5-5.6c-0.2-0.4-0.3-0.8-0.3-1.1v2.3
			c0,3.7,7.5,6.7,16.8,6.7s16.8-3,16.8-6.7v-2.3C115.4,193.3,115.3,193.7,115.2,194z"/>
		<path style="fill:#4D4D4D;" d="M115.2,196.3c-1.4,3.2-8.2,5.6-16.5,5.6s-15.2-2.4-16.5-5.6c-0.2-0.4-0.3-0.8-0.3-1.1v2.3
			c0,3.7,7.5,6.7,16.8,6.7s16.8-3,16.8-6.7v-2.3C115.4,195.6,115.3,196,115.2,196.3z"/>
		<path style="fill:#333333;" d="M115.2,198.5c-1.4,3.2-8.2,5.6-16.5,5.6s-15.2-2.4-16.5-5.6c-0.2-0.4-0.3-0.8-0.3-1.1v2.3
			c0,3.7,7.5,6.7,16.8,6.7s16.8-3,16.8-6.7v-2.3C115.4,197.8,115.3,198.2,115.2,198.5z"/>
	</g>
	<g>
		<path style="fill:#808080;" d="M16.8,109.8c-9.3,0-16.8-3-16.8-6.7v88.1c0,3.7,7.5,6.7,16.8,6.7s16.8-3,16.8-6.7V103
			C33.7,106.7,26.1,109.8,16.8,109.8z"/>
		<path style="fill:#E6E6E6;" d="M16.8,94C7.5,94,0,97,0,100.7c0,0.4,0.1,0.8,0.3,1.1c1.4,3.2,8.2,5.6,16.5,5.6s15.2-2.4,16.5-5.6
			c0.2-0.4,0.3-0.8,0.3-1.1C33.7,97,26.1,94,16.8,94z"/>
		<path style="fill:#4D4D4D;" d="M33.4,101.9c-1.4,3.2-8.2,5.6-16.5,5.6S1.7,105,0.3,101.9c-0.2-0.4-0.3-0.8-0.3-1.1v2.3
			c0,3.7,7.5,6.7,16.8,6.7s16.8-3,16.8-6.7v-2.3C33.7,101.1,33.5,101.5,33.4,101.9z"/>
		<path style="fill:#333333;" d="M33.4,104.1c-1.4,3.2-8.2,5.6-16.5,5.6s-15.2-2.4-16.5-5.6c-0.2-0.4-0.3-0.8-0.3-1.1v2.3
			c0,3.7,7.5,6.7,16.8,6.7s16.8-3,16.8-6.7v-2.3C33.7,103.3,33.5,103.7,33.4,104.1z"/>
		<path style="fill:#4D4D4D;" d="M33.4,106.4c-1.4,3.2-8.2,5.6-16.5,5.6s-15.2-2.4-16.5-5.6C0.1,106,0,105.6,0,105.2v2.3
			c0,3.7,7.5,6.7,16.8,6.7s16.8-3,16.8-6.7v-2.3C33.7,105.6,33.5,106,33.4,106.4z"/>
		<path style="fill:#333333;" d="M33.4,108.6c-1.4,3.2-8.2,5.6-16.5,5.6s-15.2-2.4-16.5-5.6c-0.2-0.4-0.3-0.8-0.3-1.1v2.3
			c0,3.7,7.5,6.7,16.8,6.7s16.8-3,16.8-6.7v-2.3C33.7,107.9,33.5,108.2,33.4,108.6z"/>
		<path style="fill:#4D4D4D;" d="M33.4,110.9c-1.4,3.2-8.2,5.6-16.5,5.6s-15.2-2.4-16.5-5.6c-0.2-0.4-0.3-0.8-0.3-1.1v2.3
			c0,3.7,7.5,6.7,16.8,6.7s16.8-3,16.8-6.7v-2.3C33.7,110.2,33.5,110.5,33.4,110.9z"/>
		<path style="fill:#333333;" d="M33.4,113.1c-1.4,3.2-8.2,5.6-16.5,5.6s-15.2-2.4-16.5-5.6C0.1,112.8,0,112.4,0,112v2.3
			c0,3.7,7.5,6.7,16.8,6.7s16.8-3,16.8-6.7V112C33.7,112.4,33.5,112.8,33.4,113.1z"/>
		<path style="fill:#4D4D4D;" d="M33.4,115.4c-1.4,3.2-8.2,5.6-16.5,5.6s-15.2-2.4-16.5-5.6c-0.2-0.4-0.3-0.8-0.3-1.1v2.3
			c0,3.7,7.5,6.7,16.8,6.7s16.8-3,16.8-6.7v-2.3C33.7,114.7,33.5,115.1,33.4,115.4z"/>
		<path style="fill:#333333;" d="M33.4,117.7c-1.4,3.2-8.2,5.6-16.5,5.6s-15.2-2.4-16.5-5.6c-0.2-0.4-0.3-0.8-0.3-1.1v2.3
			c0,3.7,7.5,6.7,16.8,6.7s16.8-3,16.8-6.7v-2.3C33.7,116.9,33.5,117.3,33.4,117.7z"/>
		<path style="fill:#4D4D4D;" d="M33.4,120c-1.4,3.2-8.2,5.6-16.5,5.6S1.7,123.1,0.3,120c-0.2-0.4-0.3-0.8-0.3-1.1v2.3
			c0,3.7,7.5,6.7,16.8,6.7s16.8-3,16.8-6.7v-2.3C33.7,119.2,33.5,119.6,33.4,120z"/>
		<path style="fill:#333333;" d="M33.4,122.2c-1.4,3.2-8.2,5.6-16.5,5.6s-15.2-2.4-16.5-5.6C0.1,121.8,0,121.4,0,121v2.3
			c0,3.7,7.5,6.7,16.8,6.7s16.8-3,16.8-6.7V121C33.7,121.4,33.5,121.8,33.4,122.2z"/>
		<path style="fill:#4D4D4D;" d="M33.4,124.5c-1.4,3.2-8.2,5.6-16.5,5.6s-15.2-2.4-16.5-5.6c-0.2-0.4-0.3-0.8-0.3-1.1v2.3
			c0,3.7,7.5,6.7,16.8,6.7s16.8-3,16.8-6.7v-2.3C33.7,123.7,33.5,124.1,33.4,124.5z"/>
		<path style="fill:#333333;" d="M33.4,126.7c-1.4,3.2-8.2,5.6-16.5,5.6s-15.2-2.4-16.5-5.6c-0.2-0.4-0.3-0.8-0.3-1.1v2.3
			c0,3.7,7.5,6.7,16.8,6.7s16.8-3,16.8-6.7v-2.3C33.7,125.9,33.5,126.3,33.4,126.7z"/>
		<path style="fill:#4D4D4D;" d="M33.4,129c-1.4,3.2-8.2,5.6-16.5,5.6S1.7,132.2,0.3,129c-0.2-0.4-0.3-0.8-0.3-1.1v2.3
			c0,3.7,7.5,6.7,16.8,6.7s16.8-3,16.8-6.7v-2.3C33.7,128.2,33.5,128.6,33.4,129z"/>
		<path style="fill:#333333;" d="M33.4,131.2c-1.4,3.2-8.2,5.6-16.5,5.6s-15.2-2.4-16.5-5.6c-0.2-0.4-0.3-0.8-0.3-1.1v2.3
			c0,3.7,7.5,6.7,16.8,6.7s16.8-3,16.8-6.7v-2.3C33.7,130.5,33.5,130.8,33.4,131.2z"/>
		<path style="fill:#4D4D4D;" d="M33.4,133.5c-1.4,3.2-8.2,5.6-16.5,5.6s-15.2-2.4-16.5-5.6c-0.2-0.4-0.3-0.8-0.3-1.1v2.3
			c0,3.7,7.5,6.7,16.8,6.7s16.8-3,16.8-6.7v-2.3C33.7,132.8,33.5,133.1,33.4,133.5z"/>
		<path style="fill:#333333;" d="M33.4,135.7c-1.4,3.2-8.2,5.6-16.5,5.6s-15.2-2.4-16.5-5.6C0.1,135.4,0,135,0,134.6v2.3
			c0,3.7,7.5,6.7,16.8,6.7s16.8-3,16.8-6.7v-2.3C33.7,135,33.5,135.4,33.4,135.7z"/>
		<path style="fill:#4D4D4D;" d="M33.4,138c-1.4,3.2-8.2,5.6-16.5,5.6S1.7,141.2,0.3,138c-0.2-0.4-0.3-0.8-0.3-1.1v2.3
			c0,3.7,7.5,6.7,16.8,6.7s16.8-3,16.8-6.7v-2.3C33.7,137.3,33.5,137.7,33.4,138z"/>
		<path style="fill:#333333;" d="M33.4,140.3c-1.4,3.2-8.2,5.6-16.5,5.6s-15.2-2.4-16.5-5.6c-0.2-0.4-0.3-0.8-0.3-1.1v2.3
			c0,3.7,7.5,6.7,16.8,6.7s16.8-3,16.8-6.7v-2.3C33.7,139.5,33.5,139.9,33.4,140.3z"/>
		<path style="fill:#4D4D4D;" d="M33.4,142.6c-1.4,3.2-8.2,5.6-16.5,5.6s-15.2-2.4-16.5-5.6c-0.2-0.4-0.3-0.8-0.3-1.1v2.3
			c0,3.7,7.5,6.7,16.8,6.7s16.8-3,16.8-6.7v-2.3C33.7,141.8,33.5,142.2,33.4,142.6z"/>
		<path style="fill:#333333;" d="M33.4,144.8c-1.4,3.2-8.2,5.6-16.5,5.6S1.7,148,0.3,144.8C0.1,144.4,0,144,0,143.6v2.3
			c0,3.7,7.5,6.7,16.8,6.7s16.8-3,16.8-6.7v-2.3C33.7,144,33.5,144.4,33.4,144.8z"/>
		<path style="fill:#4D4D4D;" d="M33.4,147.1c-1.4,3.2-8.2,5.6-16.5,5.6s-15.2-2.4-16.5-5.6c-0.2-0.4-0.3-0.8-0.3-1.1v2.3
			c0,3.7,7.5,6.7,16.8,6.7s16.8-3,16.8-6.7v-2.3C33.7,146.3,33.5,146.7,33.4,147.1z"/>
		<path style="fill:#333333;" d="M33.4,149.3c-1.4,3.2-8.2,5.6-16.5,5.6s-15.2-2.4-16.5-5.6c-0.2-0.4-0.3-0.8-0.3-1.1v2.3
			c0,3.7,7.5,6.7,16.8,6.7s16.8-3,16.8-6.7v-2.3C33.7,148.6,33.5,148.9,33.4,149.3z"/>
		<path style="fill:#4D4D4D;" d="M33.4,151.6c-1.4,3.2-8.2,5.6-16.5,5.6s-15.2-2.4-16.5-5.6c-0.2-0.4-0.3-0.8-0.3-1.1v2.3
			c0,3.7,7.5,6.7,16.8,6.7s16.8-3,16.8-6.7v-2.3C33.7,150.9,33.5,151.2,33.4,151.6z"/>
		<path style="fill:#333333;" d="M33.4,153.8c-1.4,3.2-8.2,5.6-16.5,5.6S1.7,157,0.3,153.8c-0.2-0.4-0.3-0.8-0.3-1.1v2.3
			c0,3.7,7.5,6.7,16.8,6.7s16.8-3,16.8-6.7v-2.3C33.7,153.1,33.5,153.5,33.4,153.8z"/>
		<path style="fill:#4D4D4D;" d="M33.4,156.1c-1.4,3.2-8.2,5.6-16.5,5.6s-15.2-2.4-16.5-5.6C0.1,155.8,0,155.4,0,155v2.3
			c0,3.7,7.5,6.7,16.8,6.7s16.8-3,16.8-6.7V155C33.7,155.4,33.5,155.8,33.4,156.1z"/>
		<path style="fill:#333333;" d="M33.4,158.4c-1.4,3.2-8.2,5.6-16.5,5.6s-15.2-2.4-16.5-5.6C0.1,158,0,157.6,0,157.2v2.3
			c0,3.7,7.5,6.7,16.8,6.7s16.8-3,16.8-6.7v-2.3C33.7,157.6,33.5,158,33.4,158.4z"/>
		<path style="fill:#4D4D4D;" d="M33.4,160.7c-1.4,3.2-8.2,5.6-16.5,5.6s-15.2-2.4-16.5-5.6c-0.2-0.4-0.3-0.8-0.3-1.1v2.3
			c0,3.7,7.5,6.7,16.8,6.7s16.8-3,16.8-6.7v-2.3C33.7,159.9,33.5,160.3,33.4,160.7z"/>
		<path style="fill:#333333;" d="M33.4,162.9c-1.4,3.2-8.2,5.6-16.5,5.6s-15.2-2.4-16.5-5.6c-0.2-0.4-0.3-0.8-0.3-1.1v2.3
			c0,3.7,7.5,6.7,16.8,6.7s16.8-3,16.8-6.7v-2.3C33.7,162.1,33.5,162.5,33.4,162.9z"/>
		<path style="fill:#4D4D4D;" d="M33.4,165.2c-1.4,3.2-8.2,5.6-16.5,5.6s-15.2-2.4-16.5-5.6C0.1,164.8,0,164.4,0,164v2.3
			c0,3.7,7.5,6.7,16.8,6.7s16.8-3,16.8-6.7V164C33.7,164.4,33.5,164.8,33.4,165.2z"/>
		<path style="fill:#333333;" d="M33.4,167.4c-1.4,3.2-8.2,5.6-16.5,5.6s-15.2-2.4-16.5-5.6C0.1,167,0,166.6,0,166.2v2.3
			c0,3.7,7.5,6.7,16.8,6.7s16.8-3,16.8-6.7v-2.3C33.7,166.6,33.5,167,33.4,167.4z"/>
		<path style="fill:#4D4D4D;" d="M33.4,169.7c-1.4,3.2-8.2,5.6-16.5,5.6s-15.2-2.4-16.5-5.6c-0.2-0.4-0.3-0.8-0.3-1.1v2.3
			c0,3.7,7.5,6.7,16.8,6.7s16.8-3,16.8-6.7v-2.3C33.7,168.9,33.5,169.3,33.4,169.7z"/>
		<path style="fill:#333333;" d="M33.4,171.9c-1.4,3.2-8.2,5.6-16.5,5.6s-15.2-2.4-16.5-5.6c-0.2-0.4-0.3-0.8-0.3-1.1v2.3
			c0,3.7,7.5,6.7,16.8,6.7s16.8-3,16.8-6.7v-2.3C33.7,171.2,33.5,171.5,33.4,171.9z"/>
		<path style="fill:#4D4D4D;" d="M33.4,174.2c-1.4,3.2-8.2,5.6-16.5,5.6s-15.2-2.4-16.5-5.6c-0.2-0.4-0.3-0.8-0.3-1.1v2.3
			c0,3.7,7.5,6.7,16.8,6.7s16.8-3,16.8-6.7v-2.3C33.7,173.5,33.5,173.8,33.4,174.2z"/>
		<path style="fill:#333333;" d="M33.4,176.4c-1.4,3.2-8.2,5.6-16.5,5.6s-15.2-2.4-16.5-5.6c-0.2-0.4-0.3-0.8-0.3-1.1v2.3
			c0,3.7,7.5,6.7,16.8,6.7s16.8-3,16.8-6.7v-2.3C33.7,175.7,33.5,176.1,33.4,176.4z"/>
		<path style="fill:#4D4D4D;" d="M33.4,178.7c-1.4,3.2-8.2,5.6-16.5,5.6s-15.2-2.4-16.5-5.6C0.1,178.4,0,178,0,177.6v2.3
			c0,3.7,7.5,6.7,16.8,6.7s16.8-3,16.8-6.7v-2.3C33.7,178,33.5,178.4,33.4,178.7z"/>
		<path style="fill:#333333;" d="M33.4,181c-1.4,3.2-8.2,5.6-16.5,5.6S1.7,184.1,0.3,181c-0.2-0.4-0.3-0.8-0.3-1.1v2.3
			c0,3.7,7.5,6.7,16.8,6.7s16.8-3,16.8-6.7v-2.3C33.7,180.2,33.5,180.6,33.4,181z"/>
		<path style="fill:#4D4D4D;" d="M33.4,183.3c-1.4,3.2-8.2,5.6-16.5,5.6s-15.2-2.4-16.5-5.6c-0.2-0.4-0.3-0.8-0.3-1.1v2.3
			c0,3.7,7.5,6.7,16.8,6.7s16.8-3,16.8-6.7v-2.3C33.7,182.5,33.5,182.9,33.4,183.3z"/>
		<path style="fill:#333333;" d="M33.4,185.5c-1.4,3.2-8.2,5.6-16.5,5.6s-15.2-2.4-16.5-5.6c-0.2-0.4-0.3-0.8-0.3-1.1v2.3
			c0,3.7,7.5,6.7,16.8,6.7s16.8-3,16.8-6.7v-2.3C33.7,184.7,33.5,185.1,33.4,185.5z"/>
		<path style="fill:#4D4D4D;" d="M33.4,187.8c-1.4,3.2-8.2,5.6-16.5,5.6S1.7,191,0.3,187.8C0.1,187.4,0,187,0,186.6v2.3
			c0,3.7,7.5,6.7,16.8,6.7s16.8-3,16.8-6.7v-2.3C33.7,187,33.5,187.4,33.4,187.8z"/>
		<path style="fill:#333333;" d="M33.4,190c-1.4,3.2-8.2,5.6-16.5,5.6S1.7,193.2,0.3,190c-0.2-0.4-0.3-0.8-0.3-1.1v2.3
			c0,3.7,7.5,6.7,16.8,6.7s16.8-3,16.8-6.7v-2.3C33.7,189.3,33.5,189.6,33.4,190z"/>
	</g>
</g>
<g id="Coins">
	<g>
		<path style="fill:#808080;" d="M67.8,15.8c-9.3,0-16.8-3-16.8-6.7v88.1c0,3.7,7.5,6.7,16.8,6.7s16.8-3,16.8-6.7V9
			C84.7,12.8,77.1,15.8,67.8,15.8z"/>
		<path style="fill:#E6E6E6;" d="M67.8,0C58.5,0,51,3,51,6.7c0,0.4,0.1,0.8,0.3,1.1c1.4,3.2,8.2,5.6,16.5,5.6S83,11.1,84.4,7.9
			c0.2-0.4,0.3-0.8,0.3-1.1C84.7,3,77.1,0,67.8,0z"/>
		<path style="fill:#4D4D4D;" d="M84.4,7.9c-1.4,3.2-8.2,5.6-16.5,5.6s-15.2-2.4-16.5-5.6C51.1,7.5,51,7.1,51,6.7V9
			c0,3.7,7.5,6.7,16.8,6.7s16.8-3,16.8-6.7V6.7C84.7,7.1,84.6,7.5,84.4,7.9z"/>
		<path style="fill:#333333;" d="M84.4,10.1c-1.4,3.2-8.2,5.6-16.5,5.6s-15.2-2.4-16.5-5.6C51.1,9.7,51,9.4,51,9v2.3
			C51,15,58.5,18,67.8,18s16.8-3,16.8-6.7V9C84.7,9.4,84.6,9.7,84.4,10.1z"/>
		<path style="fill:#4D4D4D;" d="M84.4,12.4C83,15.6,76.2,18,67.8,18s-15.2-2.4-16.5-5.6C51.1,12,51,11.7,51,11.3v2.3
			c0,3.7,7.5,6.7,16.8,6.7s16.8-3,16.8-6.7v-2.3C84.7,11.7,84.6,12,84.4,12.4z"/>
		<path style="fill:#333333;" d="M84.4,14.6c-1.4,3.2-8.2,5.6-16.5,5.6s-15.2-2.4-16.5-5.6c-0.2-0.4-0.3-0.8-0.3-1.1v2.3
			c0,3.7,7.5,6.7,16.8,6.7s16.8-3,16.8-6.7v-2.3C84.7,13.9,84.6,14.3,84.4,14.6z"/>
		<path style="fill:#4D4D4D;" d="M84.4,16.9c-1.4,3.2-8.2,5.6-16.5,5.6s-15.2-2.4-16.5-5.6c-0.2-0.4-0.3-0.8-0.3-1.1v2.3
			c0,3.7,7.5,6.7,16.8,6.7s16.8-3,16.8-6.7v-2.3C84.7,16.2,84.6,16.6,84.4,16.9z"/>
		<path style="fill:#333333;" d="M84.4,19.2c-1.4,3.2-8.2,5.6-16.5,5.6s-15.2-2.4-16.5-5.6C51.1,18.8,51,18.4,51,18v2.3
			c0,3.7,7.5,6.7,16.8,6.7s16.8-3,16.8-6.7V18C84.7,18.4,84.6,18.8,84.4,19.2z"/>
		<path style="fill:#4D4D4D;" d="M84.4,21.5c-1.4,3.2-8.2,5.6-16.5,5.6s-15.2-2.4-16.5-5.6c-0.2-0.4-0.3-0.8-0.3-1.1v2.3
			c0,3.7,7.5,6.7,16.8,6.7s16.8-3,16.8-6.7v-2.3C84.7,20.7,84.6,21.1,84.4,21.5z"/>
		<path style="fill:#333333;" d="M84.4,23.7c-1.4,3.2-8.2,5.6-16.5,5.6s-15.2-2.4-16.5-5.6c-0.2-0.4-0.3-0.8-0.3-1.1v2.3
			c0,3.7,7.5,6.7,16.8,6.7s16.8-3,16.8-6.7v-2.3C84.7,22.9,84.6,23.3,84.4,23.7z"/>
		<path style="fill:#4D4D4D;" d="M84.4,26c-1.4,3.2-8.2,5.6-16.5,5.6S52.7,29.2,51.3,26c-0.2-0.4-0.3-0.8-0.3-1.1v2.3
			c0,3.7,7.5,6.7,16.8,6.7s16.8-3,16.8-6.7v-2.3C84.7,25.2,84.6,25.6,84.4,26z"/>
		<path style="fill:#333333;" d="M84.4,28.2c-1.4,3.2-8.2,5.6-16.5,5.6s-15.2-2.4-16.5-5.6c-0.2-0.4-0.3-0.8-0.3-1.1v2.3
			c0,3.7,7.5,6.7,16.8,6.7s16.8-3,16.8-6.7v-2.3C84.7,27.5,84.6,27.8,84.4,28.2z"/>
		<path style="fill:#4D4D4D;" d="M84.4,30.5c-1.4,3.2-8.2,5.6-16.5,5.6s-15.2-2.4-16.5-5.6c-0.2-0.4-0.3-0.8-0.3-1.1v2.3
			c0,3.7,7.5,6.7,16.8,6.7s16.8-3,16.8-6.7v-2.3C84.7,29.8,84.6,30.1,84.4,30.5z"/>
		<path style="fill:#333333;" d="M84.4,32.7c-1.4,3.2-8.2,5.6-16.5,5.6s-15.2-2.4-16.5-5.6C51.1,32.4,51,32,51,31.6v2.3
			c0,3.7,7.5,6.7,16.8,6.7s16.8-3,16.8-6.7v-2.3C84.7,32,84.6,32.4,84.4,32.7z"/>
		<path style="fill:#4D4D4D;" d="M84.4,35c-1.4,3.2-8.2,5.6-16.5,5.6S52.7,38.2,51.3,35c-0.2-0.4-0.3-0.8-0.3-1.1v2.3
			c0,3.7,7.5,6.7,16.8,6.7s16.8-3,16.8-6.7v-2.3C84.7,34.3,84.6,34.7,84.4,35z"/>
		<path style="fill:#333333;" d="M84.4,37.3c-1.4,3.2-8.2,5.6-16.5,5.6s-15.2-2.4-16.5-5.6c-0.2-0.4-0.3-0.8-0.3-1.1v2.3
			c0,3.7,7.5,6.7,16.8,6.7s16.8-3,16.8-6.7v-2.3C84.7,36.5,84.6,36.9,84.4,37.3z"/>
		<path style="fill:#4D4D4D;" d="M84.4,39.5c-1.4,3.2-8.2,5.6-16.5,5.6s-15.2-2.4-16.5-5.6c-0.2-0.4-0.3-0.8-0.3-1.1v2.3
			c0,3.7,7.5,6.7,16.8,6.7s16.8-3,16.8-6.7v-2.3C84.7,38.8,84.6,39.2,84.4,39.5z"/>
		<path style="fill:#333333;" d="M84.4,41.8c-1.4,3.2-8.2,5.6-16.5,5.6s-15.2-2.4-16.5-5.6C51.1,41.4,51,41,51,40.6v2.3
			c0,3.7,7.5,6.7,16.8,6.7s16.8-3,16.8-6.7v-2.3C84.7,41,84.6,41.4,84.4,41.8z"/>
		<path style="fill:#4D4D4D;" d="M84.4,44.1c-1.4,3.2-8.2,5.6-16.5,5.6s-15.2-2.4-16.5-5.6c-0.2-0.4-0.3-0.8-0.3-1.1v2.3
			c0,3.7,7.5,6.7,16.8,6.7s16.8-3,16.8-6.7v-2.3C84.7,43.3,84.6,43.7,84.4,44.1z"/>
		<path style="fill:#333333;" d="M84.4,46.3c-1.4,3.2-8.2,5.6-16.5,5.6s-15.2-2.4-16.5-5.6c-0.2-0.4-0.3-0.8-0.3-1.1v2.3
			c0,3.7,7.5,6.7,16.8,6.7s16.8-3,16.8-6.7v-2.3C84.7,45.5,84.6,45.9,84.4,46.3z"/>
		<path style="fill:#4D4D4D;" d="M84.4,48.6c-1.4,3.2-8.2,5.6-16.5,5.6s-15.2-2.4-16.5-5.6c-0.2-0.4-0.3-0.8-0.3-1.1v2.3
			c0,3.7,7.5,6.7,16.8,6.7s16.8-3,16.8-6.7v-2.3C84.7,47.8,84.6,48.2,84.4,48.6z"/>
		<path style="fill:#333333;" d="M84.4,50.8c-1.4,3.2-8.2,5.6-16.5,5.6S52.7,54,51.3,50.8c-0.2-0.4-0.3-0.8-0.3-1.1V52
			c0,3.7,7.5,6.7,16.8,6.7s16.8-3,16.8-6.7v-2.3C84.7,50.1,84.6,50.4,84.4,50.8z"/>
		<path style="fill:#4D4D4D;" d="M84.4,53.1c-1.4,3.2-8.2,5.6-16.5,5.6s-15.2-2.4-16.5-5.6C51.1,52.7,51,52.4,51,52v2.3
			C51,58,58.5,61,67.8,61s16.8-3,16.8-6.7V52C84.7,52.4,84.6,52.7,84.4,53.1z"/>
		<path style="fill:#333333;" d="M84.4,55.3c-1.4,3.2-8.2,5.6-16.5,5.6s-15.2-2.4-16.5-5.6C51.1,55,51,54.6,51,54.2v2.3
			c0,3.7,7.5,6.7,16.8,6.7s16.8-3,16.8-6.7v-2.3C84.7,54.6,84.6,55,84.4,55.3z"/>
		<path style="fill:#4D4D4D;" d="M84.4,57.6c-1.4,3.2-8.2,5.6-16.5,5.6s-15.2-2.4-16.5-5.6c-0.2-0.4-0.3-0.8-0.3-1.1v2.3
			c0,3.7,7.5,6.7,16.8,6.7s16.8-3,16.8-6.7v-2.3C84.7,56.9,84.6,57.3,84.4,57.6z"/>
		<path style="fill:#333333;" d="M84.4,59.9c-1.4,3.2-8.2,5.6-16.5,5.6S52.7,63,51.3,59.9c-0.2-0.4-0.3-0.8-0.3-1.1V61
			c0,3.7,7.5,6.7,16.8,6.7s16.8-3,16.8-6.7v-2.3C84.7,59.1,84.6,59.5,84.4,59.9z"/>
		<path style="fill:#4D4D4D;" d="M84.4,62.2c-1.4,3.2-8.2,5.6-16.5,5.6s-15.2-2.4-16.5-5.6C51.1,61.8,51,61.4,51,61v2.3
			c0,3.7,7.5,6.7,16.8,6.7s16.8-3,16.8-6.7V61C84.7,61.4,84.6,61.8,84.4,62.2z"/>
		<path style="fill:#333333;" d="M84.4,64.4C83,67.6,76.2,70,67.8,70s-15.2-2.4-16.5-5.6C51.1,64,51,63.6,51,63.2v2.3
			c0,3.7,7.5,6.7,16.8,6.7s16.8-3,16.8-6.7v-2.3C84.7,63.6,84.6,64,84.4,64.4z"/>
		<path style="fill:#4D4D4D;" d="M84.4,66.7c-1.4,3.2-8.2,5.6-16.5,5.6s-15.2-2.4-16.5-5.6c-0.2-0.4-0.3-0.8-0.3-1.1v2.3
			c0,3.7,7.5,6.7,16.8,6.7s16.8-3,16.8-6.7v-2.3C84.7,65.9,84.6,66.3,84.4,66.7z"/>
		<path style="fill:#333333;" d="M84.4,68.9c-1.4,3.2-8.2,5.6-16.5,5.6s-15.2-2.4-16.5-5.6c-0.2-0.4-0.3-0.8-0.3-1.1v2.3
			c0,3.7,7.5,6.7,16.8,6.7s16.8-3,16.8-6.7v-2.3C84.7,68.2,84.6,68.5,84.4,68.9z"/>
		<path style="fill:#4D4D4D;" d="M84.4,71.2c-1.4,3.2-8.2,5.6-16.5,5.6s-15.2-2.4-16.5-5.6c-0.2-0.4-0.3-0.8-0.3-1.1v2.3
			c0,3.7,7.5,6.7,16.8,6.7s16.8-3,16.8-6.7v-2.3C84.7,70.4,84.6,70.8,84.4,71.2z"/>
		<path style="fill:#333333;" d="M84.4,73.4C83,76.6,76.2,79,67.8,79s-15.2-2.4-16.5-5.6c-0.2-0.4-0.3-0.8-0.3-1.1v2.3
			c0,3.7,7.5,6.7,16.8,6.7s16.8-3,16.8-6.7v-2.3C84.7,72.7,84.6,73.1,84.4,73.4z"/>
		<path style="fill:#4D4D4D;" d="M84.4,75.7c-1.4,3.2-8.2,5.6-16.5,5.6s-15.2-2.4-16.5-5.6C51.1,75.4,51,75,51,74.6v2.3
			c0,3.7,7.5,6.7,16.8,6.7s16.8-3,16.8-6.7v-2.3C84.7,75,84.6,75.4,84.4,75.7z"/>
		<path style="fill:#333333;" d="M84.4,77.9c-1.4,3.2-8.2,5.6-16.5,5.6s-15.2-2.4-16.5-5.6c-0.2-0.4-0.3-0.8-0.3-1.1v2.3
			c0,3.7,7.5,6.7,16.8,6.7s16.8-3,16.8-6.7v-2.3C84.7,77.2,84.6,77.6,84.4,77.9z"/>
		<path style="fill:#4D4D4D;" d="M84.4,80.2c-1.4,3.2-8.2,5.6-16.5,5.6s-15.2-2.4-16.5-5.6c-0.2-0.4-0.3-0.8-0.3-1.1v2.3
			c0,3.7,7.5,6.7,16.8,6.7s16.8-3,16.8-6.7v-2.3C84.7,79.5,84.6,79.9,84.4,80.2z"/>
		<path style="fill:#333333;" d="M84.4,82.5c-1.4,3.2-8.2,5.6-16.5,5.6s-15.2-2.4-16.5-5.6c-0.2-0.4-0.3-0.8-0.3-1.1v2.3
			c0,3.7,7.5,6.7,16.8,6.7s16.8-3,16.8-6.7v-2.3C84.7,81.7,84.6,82.1,84.4,82.5z"/>
		<path style="fill:#4D4D4D;" d="M84.4,84.8c-1.4,3.2-8.2,5.6-16.5,5.6s-15.2-2.4-16.5-5.6C51.1,84.4,51,84,51,83.6v2.3
			c0,3.7,7.5,6.7,16.8,6.7s16.8-3,16.8-6.7v-2.3C84.7,84,84.6,84.4,84.4,84.8z"/>
		<path style="fill:#333333;" d="M84.4,87c-1.4,3.2-8.2,5.6-16.5,5.6S52.7,90.2,51.3,87c-0.2-0.4-0.3-0.8-0.3-1.1v2.3
			c0,3.7,7.5,6.7,16.8,6.7s16.8-3,16.8-6.7v-2.3C84.7,86.2,84.6,86.6,84.4,87z"/>
		<path style="fill:#4D4D4D;" d="M84.4,89.3c-1.4,3.2-8.2,5.6-16.5,5.6s-15.2-2.4-16.5-5.6c-0.2-0.4-0.3-0.8-0.3-1.1v2.3
			c0,3.7,7.5,6.7,16.8,6.7s16.8-3,16.8-6.7v-2.3C84.7,88.5,84.6,88.9,84.4,89.3z"/>
		<path style="fill:#333333;" d="M84.4,91.5c-1.4,3.2-8.2,5.6-16.5,5.6s-15.2-2.4-16.5-5.6c-0.2-0.4-0.3-0.8-0.3-1.1v2.3
			c0,3.7,7.5,6.7,16.8,6.7s16.8-3,16.8-6.7v-2.3C84.7,90.8,84.6,91.1,84.4,91.5z"/>
		<path style="fill:#4D4D4D;" d="M84.4,93.8c-1.4,3.2-8.2,5.6-16.5,5.6S52.7,97,51.3,93.8c-0.2-0.4-0.3-0.8-0.3-1.1V95
			c0,3.7,7.5,6.7,16.8,6.7s16.8-3,16.8-6.7v-2.3C84.7,93.1,84.6,93.4,84.4,93.8z"/>
		<path style="fill:#333333;" d="M84.4,96c-1.4,3.2-8.2,5.6-16.5,5.6S52.7,99.2,51.3,96c-0.2-0.4-0.3-0.8-0.3-1.1v2.3
			c0,3.7,7.5,6.7,16.8,6.7s16.8-3,16.8-6.7v-2.3C84.7,95.3,84.6,95.7,84.4,96z"/>
	</g>
</g>
</svg>
