<svg xmlns="http://www.w3.org/2000/svg" width="637.363" height="435.586" viewBox="0 0 637.363 435.586">
  <g id="Group_6" data-name="Group 6" transform="translate(290.396 728.99)" opacity="0.778">
    <path id="Path_2654" data-name="Path 2654" d="M-262.4-386.383V-722.365H-32.18Z" transform="translate(0)" stroke="#707070" stroke-width="1"/>
    <path id="Path_2650" data-name="Path 2650" d="M175.233-719.99H-53.326C-230.595-617.957-258.771-457.43-262.4-389.49v87.479H319.386V-472.925C295.691-566.91,247.31-667.459,175.233-719.99Z" transform="translate(0 0.214)" fill="#1a1a1a"/>
    <path id="Path_2651" data-name="Path 2651" d="M-63-528.088s-62.467-84.223,8.251-102.5S18.5-645.77,27.3-605.51s0,88.571,0,88.571L104.229-498.7l66.583,157.543h-360.3l31-131.72Z" transform="translate(31.625 34.345)"/>
    <path id="Path_2652" data-name="Path 2652" d="M42.837-719.99c72.078,52.531,120.458,153.08,144.154,247.065V-719.99Z" transform="translate(132.396 0.214)"/>
    <path id="Path_2653" data-name="Path 2653" d="M-80.028-534.745l15.829-6.318,16.517,4.345-11.7,51.608Z" transform="translate(79.103 77.823)" fill="#b3b3b3"/>
    <circle id="Ellipse_2" data-name="Ellipse 2" cx="17.763" cy="17.763" r="17.763" transform="translate(48.754 -453.028)" fill="#b3b3b3"/>
    <g id="Group_11" data-name="Group 11" transform="translate(2130.776 -2244.809)">
      <path id="Path_2767" data-name="Path 2767" d="M-2415.8,1521.193l-5.374-5.374v435.586l5.374-5.374Z" fill="gray"/>
      <path id="Path_2768" data-name="Path 2768" d="M-2415.8,1521.193h626.615l5.374-5.374h-637.363l5.374,5.374Z" fill="#666"/>
      <path id="Path_2769" data-name="Path 2769" d="M-1789.183,2076.253H-2415.8l-5.374,5.374h637.363l-5.374-5.374Z" transform="translate(0 -130.221)" fill="#666"/>
      <path id="Path_2770" data-name="Path 2770" d="M-1592.513,1515.819l-5.374,5.374v424.839l5.374,5.374V1515.819Z" transform="translate(-191.297)" fill="gray"/>
      <path id="Path_2771" data-name="Path 2771" d="M-2409.565,1527.426l-4.606-4.606v424.838l4.606-4.606Z" transform="translate(-1.627 -1.626)" fill="#999"/>
      <path id="Path_2772" data-name="Path 2772" d="M-1792.162,2070.253h-617.4l-4.606,4.606h626.615l-4.606-4.606Z" transform="translate(-1.627 -128.827)" fill="gray"/>
      <path id="Path_2773" data-name="Path 2773" d="M-1603.886,1943.052l4.606,4.606V1522.819l-4.606,4.606Z" transform="translate(-189.903 -1.627)" fill="#999"/>
      <path id="Path_2774" data-name="Path 2774" d="M-2414.171,1522.82l4.606,4.606h617.4l4.606-4.606h-626.615Z" transform="translate(-1.627 -1.627)" fill="gray"/>
      <path id="Path_2775" data-name="Path 2775" d="M-1806.121,2050.253h-586.7l-15.353,15.353h617.4l-15.353-15.353Z" transform="translate(-3.021 -124.18)" fill="#666"/>
      <path id="Path_2776" data-name="Path 2776" d="M-1623.886,1929.094l15.353,15.352V1528.819l-15.353,15.353Z" transform="translate(-185.255 -3.021)" fill="gray"/>
      <path id="Path_2777" data-name="Path 2777" d="M-2392.819,1929.094V1544.172l-15.353-15.353v415.627Z" transform="translate(-3.021 -3.021)" fill="gray"/>
      <path id="Path_2778" data-name="Path 2778" d="M-2392.819,1544.172h586.7l15.353-15.353h-617.4l15.353,15.353Z" transform="translate(-3.021 -3.021)" fill="#666"/>
      <path id="Path_2779" data-name="Path 2779" d="M-1806.08,1553.425l4.606-4.606h-586.7l4.606,4.606Z" transform="translate(-7.668 -7.668)" fill="gray"/>
      <path id="Path_2780" data-name="Path 2780" d="M-1629.886,1929.135l4.606,4.606V1548.819l-4.606,4.606Z" transform="translate(-183.861 -7.668)" fill="#999"/>
      <path id="Path_2781" data-name="Path 2781" d="M-2383.565,1553.425l-4.606-4.606v384.922l4.606-4.606Z" transform="translate(-7.668 -7.668)" fill="#999"/>
      <path id="Path_2782" data-name="Path 2782" d="M-1801.474,2048.859h0l-4.606-4.606h-577.486l-4.606,4.606h586.7Z" transform="translate(-7.668 -122.785)" fill="gray"/>
      <path id="Path_2783" data-name="Path 2783" d="M-2378.333,1558.658h569.809l3.838-3.838h-577.486l3.838,4.074Z" transform="translate(-9.062 -9.062)" fill="#4d4d4d"/>
      <path id="Path_2784" data-name="Path 2784" d="M-2378.333,1558.893l-3.838-4.074v375.71l3.838-3.838Z" transform="translate(-9.062 -9.062)" fill="#666"/>
      <path id="Path_2785" data-name="Path 2785" d="M-2378.333,2039.253l-3.838,3.838h577.486l-3.838-3.838Z" transform="translate(-9.062 -121.624)" fill="#4d4d4d"/>
      <path id="Path_2786" data-name="Path 2786" d="M-1634.886,1558.658v368.034l3.838,3.838v-375.71Z" transform="translate(-182.7 -9.062)" fill="#666"/>
    </g>
  </g>
</svg>
