<?xml version="1.0" encoding="utf-8"?>
<!-- Generator: Adobe Illustrator 25.0.1, SVG Export Plug-In . SVG Version: 6.00 Build 0)  -->
<svg version="1.1" id="Layer_1" xmlns="http://www.w3.org/2000/svg" xmlns:xlink="http://www.w3.org/1999/xlink" x="0px" y="0px"
	 viewBox="0 0 428.4 317.2" style="enable-background:new 0 0 428.4 317.2;" xml:space="preserve">
<style type="text/css">
	.st0{fill:#B3B3B3;}
	.st1{fill:#1A1A1A;}
	.st2{fill:#FFFFFF;}
	.st3{fill:#808080;}
	.st4{fill:#006837;}
	.st5{fill:#333333;}
	.st6{fill:none;stroke:#FFFFFF;stroke-width:0.25;stroke-miterlimit:10;}
	.st7{fill:#C1272D;}
	.st8{fill:#540D1D;}
	.st9{fill:none;}
</style>
<g>
	<rect class="st0" width="428.4" height="317.2"/>
	<path d="M11.3,243.4C13.8,196,33.5,84,157.1,12.8H11.3V243.4z"/>
	<path class="st1" d="M316.5,12.8H157.1C33.5,84,13.8,196,11.3,243.4v22.4v38.6h405.8V185.2C400.6,119.6,366.8,49.5,316.5,12.8z"/>
	<path d="M172.4,170.5c0,0-43.6-58.7,5.8-71.5s51.1-10.6,57.2,17.5c6.1,28.1,0,61.8,0,61.8l53.7,12.7l46.4,109.9H84.2l21.6-91.9
		L172.4,170.5z"/>
	<path d="M316.5,12.8c50.3,36.6,84,106.8,100.5,172.3V12.8H316.5z"/>
	<path class="st2" d="M420.6,307.9H7.8V9.3h412.8V307.9z M14.8,300.9h398.8V16.3H14.8V300.9z"/>
	<polygon class="st0" points="193.7,196.2 204.7,191.8 216.2,194.8 208.1,230.8 	"/>
	<circle class="st0" cx="240.7" cy="211.3" r="12.4"/>
</g>
</svg>
