<?xml version="1.0" encoding="utf-8"?>
<!-- Generator: Adobe Illustrator 25.0.1, SVG Export Plug-In . SVG Version: 6.00 Build 0)  -->
<svg version="1.1" id="Layer_1" xmlns="http://www.w3.org/2000/svg" xmlns:xlink="http://www.w3.org/1999/xlink" x="0px" y="0px"
	 viewBox="0 0 288.2 236.5" style="enable-background:new 0 0 288.2 236.5;" xml:space="preserve">
<style type="text/css">
	.st0{fill:#B3B3B3;}
	.st1{fill:#1A1A1A;}
	.st2{fill:#FFFFFF;}
	.st3{fill:#808080;}
	.st4{fill:#006837;}
	.st5{fill:#333333;}
	.st6{fill:none;stroke:#FFFFFF;stroke-width:0.25;stroke-miterlimit:10;}
	.st7{fill:#C1272D;}
	.st8{fill:#540D1D;}
	.st9{fill:none;}
</style>
<g>
	<path class="st9" d="M238,194.5c0,0-1.7-1-1.7-4.6c0-3.6-0.7-1.9-0.7-1.9s-4.8-3.1-4.8-6.7c0,0-7.3-3.9-9.9-8.7
		c-0.4-0.8-0.7-1.6-0.9-2.3c0,0,0.5,20.7-1,26.3c0,0,0.7,12.6-0.5,17.9c-1,4.5-1.7,18-1.9,22.1h18l4.2-25.2
		C239,211.3,237.1,197.9,238,194.5z"/>
	<path class="st3" d="M36.3,42.3c0.7-5,2.9-14.6,8.9-19.9c8-7.1,16.1-10.8,41.6-7.8c1.8-0.5,3.7-1.1,5.6-1.5
		C88.9,8.1,80.6,2.6,77.2,1.1C73.7-0.3,46.6,0,46.6,0s-4-0.8-8.3,5.8c2.5,0.1,5.5,0.7,5.6,2.8c0.2,3.8-4.7,8.6-6.7,15.8
		c-2,7.2-4.5,13.9-4.5,13.9l-0.4-13.6c-1.6,11.1-1.8,22.8-1.8,22.8S32.5,45.5,36.3,42.3z"/>
	<path class="st1" d="M37.2,24.5c2-7.2,6.8-12.1,6.7-15.8c-0.1-2.1-3-2.7-5.6-2.8c-0.8,1.2-1.6,2.7-2.4,4.4c-1.7,3.7-2.8,9-3.6,14.5
		l0.4,13.6C32.7,38.4,35.2,31.7,37.2,24.5z"/>
	<path class="st0" d="M27.7,55.7C39.9,44.7,76.3,17,99.8,17c19,0,17,21.6,15.5,30c1,2,1.9,4.1,2.6,6.1c0.1-2.5,0.3-4.6,0.8-5.6
		c1.4-2.7,8.5-19.1,2.3-27.9C115,10.7,92.5,13,92.5,13c-1.9,0.5-3.8,1-5.6,1.5c1.1,0.1,2.3,0.3,3.5,0.4c-1.2-0.2-2.3-0.3-3.5-0.4
		c-24.1,7.2-41.9,20.4-50.5,27.7c-0.3,1.9-0.4,3.1-0.4,3.1s0.1-1.2,0.4-3.1c-3.8,3.2-5.8,5.3-5.8,5.3S12.7,64.2,20.5,78.2
		c0.1,0.2,0.2,0.4,0.3,0.6C19.7,72.9,19.5,63,27.7,55.7z"/>
	<path class="st1" d="M45.2,22.4c-6,5.3-8.2,14.9-8.9,19.9c8.6-7.3,26.5-20.5,50.5-27.7C61.3,11.5,53.2,15.3,45.2,22.4z"/>
	<path class="st4" d="M97.5,207.3L97.5,207.3C97.5,207.2,97.5,207.2,97.5,207.3L97.5,207.3z"/>
	<path class="st5" d="M97.5,207.2c3.6-9,28.4-49.7,39.6-70.2c11.2-20.5,15.1-45.4,15.1-45.4l-13,5l11.2-8.6l-5.6-8.8c0,0,0,0,0,0
		c-7.7-3.1-21.2-5.6-21.2-5.6s-0.7,0.9-2,1.4c-1,38.4-20.8,63.9-20.8,63.9C93.2,165.3,97.5,207.2,97.5,207.2z"/>
	<path class="st0" d="M114.6,50.3c0,0,0.3-1.3,0.7-3.3c-0.3-0.5-0.6-1.1-0.9-1.5c-3.1-4.9-7.3-4.1-7.3-4.1v13c0,0-8.3-11.3-8.9-12.2
		c-0.6-0.9-10.7-11.3-12.8-11.4C83.4,30.6,61.8,43.1,59,45.4c-2.8,2.3-12.1,11.1-13.4,14.2c-1.4,3.2,1.6,7.8,4.6,7.4
		c3-0.4,7-7.3,11.5-8.2c4.5-0.9,8.2,0.7,8.2,0.7s1.6-0.3,2.3,5c0.7,5.3,0.8,10.7,2.8,11.2c1.9,0.5,7.7,0,7.7,0s-0.9-2.5,0.8-2.9
		s4.1,0.2,3.6,1.3c-0.5,1.1-3.3,2.2-3,3.7c0.3,1.6-2.2,4-4.7,3.5c-2.5-0.5-5.9-0.4-6-2.4c-0.1-2-3.2-5.3-3.5-6.1
		c-0.3-0.8,0-8.3,0-8.3s-3.1-0.6-5.2,2.4s-4.1,4.3-6.8,4.9c-2.8,0.6-6.7,0.2-7.8,1.2c-1.1,1-4.2,5,1.6,7c5.8,1.9,2.9-3.4,7,1.1
		c4.1,4.4,11.5,16.4,14.8,17.6c3.2,1.2,5.5,6,10.7,4.9c5.3-1.1,19.3-5.3,21.9-14.9c0,0,1.8,9.6-9.1,17.2l5.8-1.3
		c0,0-12.7,8.4-18.1,10s-4,1.8-4,1.8l3.5,5.6l0.4,7.6l6,1.1l1.2,7.2l9.1,1c7.6-26.4,7.6-26.4,0,0c0,0,19.8-25.5,20.8-63.9
		c-0.8,0.3-1.8,0.5-3,0.2c-3.2-0.7-4.3-8.3-4.3-8.3s2.5-0.2,3.2-3.1c0.5-1.8,0.3-6.8,0.4-10.9c-0.7-1.9-1.6-4.1-2.6-6.1
		C114.9,49,114.6,50.3,114.6,50.3z M85.7,59.5c-2,0.4-4.8-0.2-6.6-0.7c-1.8-0.5-5.8-6.5-5.8-6.5l9.8-6.9l5.9,0.5
		c-5.3,2.3-7.5,6.7-7.5,6.7s-1.2,1.9,3.3,0.9s9.8-2,9.8-2S87.7,59.2,85.7,59.5z M91,92.2c-2.3,0.9-3.5,0.4-3.9,1.7
		c-0.4,1.3-4.1,2.3-4.7,1.9c-0.6-0.4-0.8-2.4-0.8-2.4s7.8-5.9,11.8-6C97.3,87.3,93.3,91.4,91,92.2z M94.8,82.3
		c-4.7,1.3-15.4,6.6-16.4,8.6c-1,2-3.5,1.6-3.8-0.6c0,0,2.5-2.2,4.6-2.6c2-0.5,5.2-2.8,9.2-4.4c4.1-1.7,5.8-3.1,5.8-4.1
		s5.2-0.6,5.2-0.6l1.8,2.2C101.1,80.7,99.5,81,94.8,82.3z M95.7,74.3c-2-1-6.5-2.3-6.8-2.8c-0.4-0.5-0.6-2.6-0.6-2.6
		s11.4,2,12.8,6.2S97.7,75.2,95.7,74.3z"/>
	<path class="st1" d="M275.2,233.6c0,0,1.2-2.9,1.9-6.2c0.7-3.4,5.5-9.1,5.3-13.4s3.1-9.6,5-17.4c1.9-7.8-0.2-23.4-1.2-27.3
		s-19.9-25-24.7-32.6s-25.7-25.9-27.6-28.6c-1.9-2.6-4.8-5.5-7.2-7s-1.4-5.8-2.4-8.6c-1-2.9-21.9-18.8-27.1-20.1
		c-5.2-1.3-31.5,3.8-38,5.6c-6.3,1.8-14.1,1.3-14.5,1.3l5.6,8.8l-11.2,8.6l13-5c0,0-4,24.8-15.1,45.4c-11.2,20.5-36,61.2-39.6,70.2
		l0,0.1l0,0c-1.9,4.9-3.9,18.1-5.2,29.2h84.5c0.4-0.7,0.8-1.3,1.1-1.9c2.9-6.3,17.6-15.8,20.5-16.6c2.9-0.7,7.9-10.1,7.6-12.6
		c-0.4-2.5-18.4,7.9-18.4,7.9l15.8-13.7c0,0,1.1-2.5,5.8-5c4.7-2.5-5.8-8.6-5.8-8.6s5.8,1.1,8.6,2.5c2.9,1.4-6.1-12.6-6.1-12.6
		s4.3,2.9,7.2,7.2c2.9,4.3,0-9.7-0.4-12.6c-0.4-2.9-21.2-31.6-21.2-31.6L181,96c0,0,6.5,23,11.9,35.6c5.4,12.6,27.1,38.6,27.1,38.6
		l0.9,2.3c2.6,4.8,9.9,8.7,9.9,8.7c0,3.6,4.8,6.7,4.8,6.7s0.7-1.7,0.7,1.9c0,3.6,1.7,4.6,1.7,4.6c-1,3.4,1,16.8,1,16.8l-4.2,25.2
		h39.7L275.2,233.6z M182.8,113.3v16.2l-28.8,9.5l11.5-20.6l5.8,2.2l2.2-7.2l5.8,4L182.8,113.3z"/>
	<path class="st1" d="M38.6,200.7c0,0-0.5-17.3,0-19.3c0.5-2-0.4-6.5,4.5-6.3c0,0-1.8-7,1.3-7c3.1,0,5.8-1.8,5.8-1.8
		s1.6-4.7,6.7-5.8c0,0-0.4-4.9,4.9-5.2c5.2-0.4,15.3,2.2,15.3,2.2s0.9-7.4,5-8.8s2.7,4.9,2.7,4.9s-2,8.5-2.2,11
		c-0.2,2.5-1.3,6.5-4.1,10.4c-2.9,4-4.3,7.7-4.7,8.3c0,0-0.1,0.2-0.1,0.4l23.8,23.6c0,0,0,0,0,0c0,0-4.3-41.9,3.2-68.3l-9.1-1
		l-1.2-7.2l-6-1.1l-0.4-7.6l-3.5-5.6c0,0-1.4-0.2,4-1.8s18.1-10,18.1-10l-5.8,1.3c10.9-7.6,9.1-17.2,9.1-17.2
		c-2.6,9.6-16.7,13.8-21.9,14.9c-5.3,1.1-7.5-3.7-10.7-4.9c-3.2-1.2-10.7-13.2-14.8-17.6c-4.1-4.4-1.2,0.8-7-1.1
		c-5.8-1.9-2.6-6-1.6-7c1.1-1,5-0.6,7.8-1.2c2.8-0.6,4.8-1.8,6.8-4.9s5.2-2.4,5.2-2.4l0-5c0,0-3.7-1.6-8.2-0.7
		c-4.5,0.9-8.6,7.8-11.5,8.2c-3,0.4-5.9-4.3-4.6-7.4c1.3-3.2,10.6-11.9,13.4-14.2c2.8-2.3,24.4-14.8,26.5-14.7
		c2.1,0.1,12.2,10.5,12.8,11.4c0.6,0.9,8.9,12.2,8.9,12.2v-13c0,0,4.2-0.7,7.3,4.1c0.3,0.5,0.6,1,0.9,1.5c1.5-8.4,3.5-30-15.5-30
		c-23.6,0-59.9,27.7-72.2,38.7c-8.1,7.3-7.9,17.2-6.9,23.1c5.6,8.9,22,7.9,22,7.9s1.8,3.8,5.7,7.6c3.9,3.8,9.6,0,9.6,0
		s2.5,2,6.8,6.7c4.3,4.7,12.2,11.7,12.2,11.7c-3.2,5-29.5,25.1-33.8,26.8c-4.3,1.7-7.2,6-7.7,11c-0.5,5-8.4,28.3-8.4,28.3v17.9
		c0,0-6.5,2.5-8.4,2.7c-1.9,0.2,0,13.2,0,13.2s9.8-0.8,13.3-4.2C35.6,204.9,38.6,200.7,38.6,200.7z"/>
	<path d="M66,200.7c-6.1,1.1-5.9,3.8-8.1,5.4c0,0,3.1,1.3,3.4,3.6c0.4,2.3-7,13.7-7,13.7s-3.1,7-6.4,13.1h44.4
		c1.4-11.1,3.3-24.3,5.2-29.2l-23.8-23.6C73.2,186.1,71.7,199.7,66,200.7z"/>
	<path class="st1" d="M94.8,51.4c0,0-5.3,1-9.8,2s-3.3-0.9-3.3-0.9s2.2-4.3,7.5-6.7l-5.9-0.5l-9.8,6.9c0,0,4,5.9,5.8,6.5
		c1.8,0.5,4.6,1.1,6.6,0.7C87.7,59.2,94.8,51.4,94.8,51.4z"/>
	<polygon class="st0" points="173.5,113.3 171.3,120.5 165.5,118.3 154,138.9 182.8,129.5 182.8,113.3 179.2,117.2 	"/>
	<path d="M219.1,196.6c1.4-5.6,1-26.3,1-26.3s-21.7-26-27.1-38.6C187.5,119,181,96,181,96l10.4,43c0,0,20.9,28.7,21.2,31.6
		c0.4,2.9,3.2,16.9,0.4,12.6c-2.9-4.3-7.2-7.2-7.2-7.2s9,14,6.1,12.6c-2.9-1.4-8.6-2.5-8.6-2.5s10.4,6.1,5.8,8.6
		c-4.7,2.5-5.8,5-5.8,5l-15.8,13.7c0,0,18-10.4,18.4-7.9c0.4,2.5-4.7,11.9-7.6,12.6c-2.9,0.7-17.6,10.3-20.5,16.6
		c-0.3,0.6-0.6,1.3-1.1,1.9h40c0.2-4.1,0.9-17.6,1.9-22.1C219.8,209.1,219.1,196.6,219.1,196.6z"/>
	<path class="st4" d="M220,170.3c0.1,0.8,0.4,1.6,0.9,2.3L220,170.3z"/>
	<path class="st3" d="M69.9,72.9c0.3,0.8,3.4,4.1,3.5,6.1c0.1,2,3.5,1.9,6,2.4c2.5,0.5,5-1.9,4.7-3.5c-0.3-1.6,2.5-2.6,3-3.7
		c0.5-1.1-1.9-1.7-3.6-1.3s-0.8,2.9-0.8,2.9s-5.8,0.5-7.7,0c-1.9-0.5-2-5.9-2.8-11.2c-0.7-5.3-2.3-5-2.3-5l0,5
		C69.9,64.7,69.5,72.1,69.9,72.9z"/>
	<path class="st1" d="M94.1,79.2c0,1-1.7,2.4-5.8,4.1c-4.1,1.7-7.2,4-9.2,4.4c-2,0.5-4.6,2.6-4.6,2.6c0.4,2.2,2.9,2.6,3.8,0.6
		c1-2,11.6-7.3,16.4-8.6s6.3-1.6,6.3-1.6l-1.8-2.2C99.3,78.6,94.1,78.2,94.1,79.2z"/>
	<path class="st3" d="M93.3,87.5c-4,0.1-11.8,6-11.8,6s0.2,2,0.8,2.4c0.6,0.4,4.3-0.6,4.7-1.9c0.4-1.3,1.6-0.8,3.9-1.7
		S97.3,87.3,93.3,87.5z"/>
	<path class="st3" d="M88.3,68.9c0,0,0.2,2.2,0.6,2.6c0.4,0.5,4.8,1.8,6.8,2.8c2,1,6.8,5,5.4,0.8S88.3,68.9,88.3,68.9z"/>
	<path d="M54.3,223.4c0,0,7.4-11.3,7-13.7c-0.4-2.3-3.4-3.6-3.4-3.6s-13,3.2-19.3-5.4c0,0-3.1,4.1-6.5,7.6
		c-3.4,3.4-13.3,4.2-13.3,4.2s-4.6,2.2-8.6,6c-4.1,3.8-4.6,11-8.2,13.4c-1.1,0.7-1.8,2.5-2.1,4.6h47.9
		C51.2,230.4,54.3,223.4,54.3,223.4z"/>
	<path class="st0" d="M66,200.7c5.7-1,7.2-14.6,7.6-17.1c0-0.2,0.1-0.3,0.1-0.4c0.4-0.5,1.8-4.3,4.7-8.3c2.9-4,4-7.9,4.1-10.4
		c0.2-2.5,2.2-11,2.2-11s1.4-6.3-2.7-4.9s-5,8.8-5,8.8s-10.1-2.5-15.3-2.2c-5.2,0.4-4.9,5.2-4.9,5.2c-5,1.1-6.7,5.8-6.7,5.8
		s-2.7,1.8-5.8,1.8c-3.1,0-1.3,7-1.3,7c-4.9-0.2-4,4.3-4.5,6.3c-0.5,2,0,19.3,0,19.3c6.3,8.6,19.3,5.4,19.3,5.4
		C60.1,204.5,59.9,201.8,66,200.7z"/>
</g>
</svg>
