<?xml version="1.0" encoding="utf-8"?>
<!-- Generator: Adobe Illustrator 25.1.0, SVG Export Plug-In . SVG Version: 6.00 Build 0)  -->
<svg version="1.1" id="Layer_1" xmlns="http://www.w3.org/2000/svg" xmlns:xlink="http://www.w3.org/1999/xlink" x="0px" y="0px"
	 viewBox="0 0 141 51.1" style="enable-background:new 0 0 141 51.1;" xml:space="preserve">
<style type="text/css">
	.st0{fill:#666666;}
	.st1{fill:#808080;}
	.st2{fill:#999999;}
	.st3{fill:#4D4D4D;}
	.st4{fill:#B3B3B3;}
	.st5{fill:none;}
	.st6{fill:#1A1A1A;}
	.st7{fill:#FFFFFF;}
	.st8{fill:#006837;}
	.st9{fill:#333333;}
	.st10{fill:none;stroke:#FFFFFF;stroke-width:0.25;stroke-miterlimit:10;}
	.st11{fill:#C1272D;}
	.st12{fill:#540D1D;}
	.st13{fill:#FFFFFF;stroke:#000000;stroke-miterlimit:10;}
	.st14{fill:#FFFF00;}
	.st15{opacity:0.14;fill:#FFFF00;}
	.st16{fill:#F2F2F2;}
	.st17{fill:#00FFFF;}
	.st18{opacity:0.13;fill:#00FFFF;}
	.st19{fill:#CCCCCC;}
	.st20{opacity:0.28;fill:#ED1C24;}
	.st21{fill:#928C8A;}
	.st22{fill:#7D7974;}
	.st23{fill:#7A746D;}
	.st24{fill:#9B9592;}
	.st25{fill:#726F6B;}
	.st26{fill:#5D5D59;}
	.st27{fill:#898481;}
	.st28{fill:#A29F9F;}
	.st29{fill:#AFA9A7;}
	.st30{fill:#837E7B;}
	.st31{fill:#C3BDBD;}
	.st32{fill:#676662;}
	.st33{fill:#54524E;}
	.st34{fill:#706C66;}
	.st35{fill:#3E3C3A;}
	.st36{fill:#262829;}
	.st37{fill:#494844;}
	.st38{fill:#111416;}
	.st39{fill:#B2B1B1;}
	.st40{fill:#6D5633;}
	.st41{fill:#BCB5B3;}
	.st42{fill:#C09661;}
	.st43{fill:#050709;}
	.st44{fill:#C7C2C2;}
	.st45{fill:#D2CECE;}
	.st46{fill:#ECEDEE;}
	.st47{fill:#E0DEDD;}
	.st48{opacity:0.42;fill:#333333;}
	.st49{opacity:0.4;fill:#F2F2F2;}
	.st50{opacity:8.000000e-02;fill:#FF00FF;}
	.st51{opacity:0.21;fill:#B3B3B3;}
	.st52{fill:none;stroke:#999999;stroke-miterlimit:10;}
	.st53{opacity:0.15;fill:#FF0000;}
	.st54{fill:#FF0000;stroke:#FF0000;stroke-miterlimit:10;}
	.st55{fill:none;stroke:#FF0000;stroke-miterlimit:10;}
	.st56{fill:#FF0000;}
	.st57{fill:#E6E6E6;}
	.st58{opacity:0.15;fill:#CCCCCC;}
	.st59{opacity:0;}
</style>
<g>
	<path class="st7" d="M18.6,50.1c-1.1,0-2.1-0.2-3.1-0.7c-0.6,0.1-1.3,0.2-2,0.2c-2.2,0-4.4-0.8-6.2-2.3c-2.7-2.2-3.8-3.9-4.3-5.1
		l-2.7-2.9L0,33.7l6.3-1.4L49.3,8.7V4.1h8.9c1.2-0.7,3.4-1.7,6.4-1.7c0.2,0,0.5,0,0.7,0L68.8,0l1.6,3.1c0.1,0.2,0.2,0.5,0.3,0.9
		c0.1,0,0.2,0,0.4,0c0.5,0,0.9-0.1,1.3-0.2c1-0.2,1.8-0.5,2.5-0.7c1.3-0.4,2.6-0.8,4.7-1c0.3,0,0.4-0.1,0.4-0.1c0,0,0.1-0.1,0.1-0.1
		c0.8-0.6,1.8-1.2,3.8-1.4c0.2,0,0.5,0,0.7,0c0.1,0,0.3,0,0.5,0c0.9,0,2.6,0.1,3.8,0.1c2.9,0.1,6.7,0.3,10.8,0.5
		c5.3,0.3,18.3,1.1,27.6,2.2l0,0l8.4,1l-0.3,0.2c1.5,0.4,2.6,0.8,3.4,1.6c1.9,2.2,2.6,5.1,2,8.7c-0.3,2-8.2,15.3-14.3,16.8
		c-0.5,0.1-1,0.2-1.4,0.2l-0.2,0c-3.3-0.1-8.2-2.1-12.9-4c-2.6-1.1-5.1-2.1-6.6-2.5c-2.4-0.6-6.1-0.9-8.7-1.1
		c-0.7,2.5-2.5,5.4-6.6,7.1c-3.7,1.5-8.5,1.8-11.8,1.8c-2.1,0-4.2-0.1-5.3-0.3c-0.9,0.1-3.3,0.7-3.9,1.1c-1.1,0.9-2.8,1.3-5.6,1.3
		c-2.3,0-5.2-0.3-7-0.7c-1.6-0.3-3-1.1-4.2-1.7c-0.4-0.2-0.9-0.5-1.3-0.6c-3.4,1.8-18.5,10.7-28,16.4C22.6,49.1,20.9,50.1,18.6,50.1
		z"/>
	<g>
		<path class="st9" d="M124,27.2c-3.4-4.7,4.4-13.5,4.4-13.5s-3.1-1.7-3.5-3.3c-0.2-0.9,1.6-2.6,3.3-4c-7.7-0.9-19.3-1.8-28.6-2.3
			c0.1,0.5,0.4,2.4-0.9,2.5c-1.5,0.1-5.1,3-6.9,4.2c-1.8,1.2-4.5,1.2-5.2,0.6c-0.7-0.6-3.1-3.4-3.6-3.8l0,0C82.6,7.2,80.9,7.4,79,8
			c-2,0.6-2.5-1.1-3.4-0.8c-0.9,0.3-5.2,4.6-0.4,5.9c4.7,1.3,8-4,8-4c0.8,1.9,5.5,6.1,5.5,6.1s-0.9-0.1-2.8-0.1
			c-3.2,0-5.3,0.5-7.1,1.5c-0.5,1.2-0.2,2.7,0.3,3.6c0.7,1.3,3.7,2.2,3.7,2.2s7-0.1,8,0.5c0.5,0.3,0.5,0.7,0.3,1
			c0.5-0.5,1.3-1.4,1.5-2.3c0.3-1.1-0.4-3.8,0.3-3.1c0.7,0.7,1.4,2.7,1.4,2.7s7.9,0.3,12.1,1.3s14.3,6.3,18.8,6.4
			c0.2,0,0.5,0,0.7-0.1C124.8,28.5,124.9,28.5,124,27.2z"/>
		<path class="st6" d="M137.9,14.5c0.1-0.9,0.7-3.9-1.3-6.3c-0.2-0.3-1-0.5-2.1-0.8c-2.4,1.7-6,6.3-6,6.3s-7.9,8.8-4.4,13.5
			c0.9,1.2,0.8,1.2,1.8,1.6C130.4,27.7,137.7,15.4,137.9,14.5z"/>
		<path class="st3" d="M128.2,6.5c-1.7,1.3-3.5,3-3.3,4c0.4,1.7,3.5,3.3,3.5,3.3s3.6-4.6,6-6.3C133,7.2,130.8,6.8,128.2,6.5z"/>
		<path class="st3" d="M85.3,5.8c1.9,0.7,4.7,2.8,5.6,2.8s0.8-0.3,1.1-2c0.2-1.4-2.4-2.6-3.2-3c-2.1-0.1-3.6-0.1-4.1-0.1
			c-0.2,0-0.4,0-0.6,0C82.6,4.2,83.5,5.2,85.3,5.8z"/>
		<polygon class="st2" points="36.5,29.6 33.7,28.7 14.6,39.3 17.5,40.8 34.7,30.8 36.8,31.4 47.7,25 45.5,24.2 		"/>
		<path class="st14" d="M64,22.5c-1.3,0-1,1.4-0.5,1.6c0.5,0.1,1-0.2,1.1-0.7C64.8,22.9,64.6,22.5,64,22.5z"/>
		<path class="st4" d="M83.1,9.1c0,0-3.2,5.3-8,4c-4.7-1.3-0.5-5.6,0.4-5.9C76.5,6.9,77,8.6,79,8c2-0.6,3.6-0.8,4.1-0.4
			c0,0-2.4-3.2,1.1-4c-2.7,0.3-1.9,1.4-4.5,1.6c-2.7,0.1-3.6,0.9-6.7,1.6c-3.1,0.7-5.4-0.4-5.4-0.4s4.5,4.2,5.6,8
			c0,0,3.6,0.1,2.8,1.2s-4.4,4.1-6.6,4.2c-2.3,0.1-4.5,0.2-5.3,1c-0.9,0.8-2.2,2.1-3.3,2c-1.1-0.1-2.4,0.5-2.4,0.5s2.8,1.7,5.7,1.5
			c2.9-0.1,6.6-2.1,9-2.1c2.4,0,0.3-2.4,3-4.5c0.8-0.6,1.6-1.1,2.3-1.5c1.9-1,3.9-1.5,7.1-1.5c2,0,2.8,0.1,2.8,0.1S83.9,11,83.1,9.1
			z M64.7,23.4c-0.2,0.5-0.6,0.8-1.1,0.7c-0.5-0.1-0.8-1.6,0.5-1.6C64.6,22.5,64.8,22.9,64.7,23.4z"/>
		<path class="st2" d="M83.1,7.7c0.4,0.4,2.8,3.2,3.6,3.8c0.7,0.6,3.4,0.6,5.2-0.6c1.8-1.2,5.4-4,6.9-4.2c1.3-0.1,1-2,0.9-2.5
			C95.3,4,91.5,3.8,88.8,3.7c0.9,0.4,3.5,1.6,3.2,3c-0.3,1.7-0.1,2-1.1,2s-3.7-2.1-5.6-2.8c-1.9-0.6-2.7-1.6-1.1-2.2
			C80.7,4.5,83.1,7.7,83.1,7.7z"/>
		<path class="st6" d="M64,22.5c-1.3,0-1,1.4-0.5,1.6c0.5,0.1,1-0.2,1.1-0.7C64.8,22.9,64.6,22.5,64,22.5z"/>
		<path class="st2" d="M62.5,6.3c-3,1-2.3,1.2-3.3,0.7h-6.9v3.4l-45,24.7l-4.3,0.9l3,0.8l1.6-0.8l4,1.2l32-17.3c0,0-0.8-1.2-2.8-1.2
			l1.7-1.1c0,0,1.1,0.9,2.6,0.7c1.5-0.2,3-2,3.2-3.1c0.2-1.1,1.8-2.6,3.1-3.2c1.4-0.5,4.3,2.4,6.2,1.7c1.8-0.7,9.2-5.8,9.2-5.8
			S65.5,5.4,62.5,6.3z M63.1,8.6c-1.4,0-7.4,2.8-7.4,2.8s5.1-2.8,6.1-3.4c0.9-0.5,2.6,0,2.6,0C64.1,8.5,64.5,8.6,63.1,8.6z"/>
		<path class="st6" d="M61.7,8.1c-0.9,0.5-6.1,3.4-6.1,3.4s6-2.8,7.4-2.8c1.4,0,1-0.1,1.3-0.6C64.3,8.1,62.7,7.5,61.7,8.1z"/>
		<path class="st5" d="M80.3,25.1c-1.7-1.2-3.4-1.1-3.4-1.1c-0.8,1.2,0,1.9,2.6,2.5C82.1,27.1,82,26.3,80.3,25.1z"/>
		<polygon class="st5" points="36.5,29.6 33.7,28.7 14.6,39.3 17.5,40.8 34.7,30.8 36.8,31.4 47.7,25 45.5,24.2 		"/>
		<path class="st6" d="M94.1,21.2c0,0-0.7-2-1.4-2.7c-0.7-0.7,0,2-0.3,3.1c-0.2,0.9-1,1.8-1.5,2.3c0,0-0.6,0.5-0.6,0.5
			c0,0-0.8,0.6-1.2,0.7c-0.5,0.2-1,0.5-1.7,0.6l0,0c0,0-2.1,0.5-2.8,0.1c-0.7-0.4-1.8-2.1-2.3-2.5c-0.5-0.4-1.7-0.5-3.7-2.1
			c-1.2-1-1.3-2.6-1.1-3.9c-0.4,0.3-0.8,0.5-1.2,0.8c-2.7,2-0.6,4.5-3,4.5c-2.4,0-6.1,2-9,2.1c-2.9,0.1-5.7-1.5-5.7-1.5
			s1.3-0.7,2.4-0.5c1.1,0.1,2.4-1.2,3.3-2c0.9-0.8,3.1-0.9,5.3-1c2.3-0.1,5.8-3.2,6.6-4.2s-2.8-1.2-2.8-1.2c-1.2-3.7-5.6-8-5.6-8
			c0.3-1.3,0-1.9,0-1.9l-1.5,1c-4.5-0.6-7,1.6-7,1.6c1,0.4,0.3,0.2,3.3-0.7s4.3,1.8,4.3,1.8s-7.3,5.1-9.2,5.8
			c-1.8,0.7-4.8-2.2-6.2-1.7c-1.4,0.5-2.9,2.1-3.1,3.2c-0.2,1.1-1.7,2.8-3.2,3.1c-1.5,0.2-2.6-0.7-2.6-0.7l-1.7,1.1
			c1.9,0,2.8,1.2,2.8,1.2l-32,17.3l-4-1.2l-1.6,0.8l-3-0.8l0.1,2l2.4,2.6c0,0,0.2,1.6,3.6,4.4c3.4,2.8,6.7,1.2,6.7,1.2
			c2.9,2,5.7,0,5.7,0s27.7-16.5,29-16.9c1.3-0.4,4.1,1.9,6.7,2.5c2.6,0.6,8.9,1,10.1,0c1.2-1,5.5-1.9,6.1-1.8
			c0.6,0.1,9.8,1,15.6-1.3C94.9,26.3,94.1,21.2,94.1,21.2z M36.8,31.4l-2-0.7l-17.2,10l-2.9-1.5l19.1-10.5l2.8,0.8l9-5.3l2.2,0.7
			L36.8,31.4z M79.5,26.5c-2.6-0.6-3.4-1.3-2.6-2.5c0,0,1.8-0.1,3.4,1.1C82,26.3,82.1,27.1,79.5,26.5z"/>
		<path class="st2" d="M82.5,22.4c0,0-3-0.9-3.7-2.2c-0.5-0.9-0.8-2.4-0.3-3.6c-0.4,0.2-0.8,0.4-1.1,0.7c-0.1,1.2,0,2.9,1.1,3.9
			c2,1.6,3.2,1.7,3.7,2.1c0.5,0.4,1.7,2,2.3,2.5c0.2,0.1,0.6,0.2,1,0.2l-1.2-1.4C83.1,23,82.5,22.4,82.5,22.4z"/>
	</g>
</g>
</svg>
