<?xml version="1.0" encoding="utf-8"?>
<!-- Generator: Adobe Illustrator 25.1.0, SVG Export Plug-In . SVG Version: 6.00 Build 0)  -->
<svg version="1.1" id="Layer_1" xmlns="http://www.w3.org/2000/svg" xmlns:xlink="http://www.w3.org/1999/xlink" x="0px" y="0px"
	 viewBox="0 0 1095 151.6" style="enable-background:new 0 0 1095 151.6;" xml:space="preserve">
<g>
	<polygon style="fill:#646464;" points="91.8,147.7 879.3,147.7 885,141 97.5,141 	"/>
	<path style="fill:#404040;" d="M1091.6,15.6C1103,1.4,1081.9,0,1081.9,0h-20.4H609.6H157.7h-20.4c0,0-23.5,1.4-36.5,15.6
		c-13.9,15.2-78.6,90.8-98,119.5c-8.5,12.5,4.5,16.5,15.3,16.5c10.9,0,461.4,0,461.4,0s450.5,0,461.4,0c10.9,0,30.6-4,43.6-16.5
		C1014.4,106.3,1079.4,30.8,1091.6,15.6z M968.9,136.7c-2.1,2.4-6.6,4.4-10.2,4.4H885l-5.7,6.6H91.8l5.7-6.6H17.4
		c-3.6,0-4.8-2-2.7-4.4l103-120c2.1-2.4,6.6-4.4,10.2-4.4H208l4.5-5.3l-4.5,5.3h787.5l6.1-7.1l-6.1,7.1h73.7c3.6,0,4.8,2,2.7,4.4
		L968.9,136.7z"/>
	<path style="fill:#5C5C5C;" d="M208,12.4L97.5,141H885L995.4,12.4H208z M255.3,37.3c-18,0-28.3,10.8-30.5,13.3
		c-2.2,2.5-44,51.3-44,51.3s-9.6,12.4,7.8,12.4c17.4,0,27-10.1,30.6-14.2h21.1c0,0-26.1,26.8-61.1,26.8s-22.2-20.1-18.5-24.5
		c3.7-4.4,44.4-51.7,44.4-51.7s25.6-27.5,62.4-27.5c36.8,0,20.1,21.8,15.6,27l-21.5,0.5C261.6,50.6,273.3,37.3,255.3,37.3z
		 M395.5,37.3h-28.6L291.7,125h-20.8l75.4-87.9h-28.2l12-14h77.6L395.5,37.3z M391.2,82.7c-7.1,0-9.5-3.9-5.4-8.6
		c4.1-4.8,13.2-8.6,20.3-8.6c7.1,0,9.5,3.9,5.4,8.6C407.4,78.8,398.3,82.7,391.2,82.7z M455.5,97.7l10.1-11.8h19.9l-10.1,11.8h17.7
		L481,111.7h-18L451.6,125H432l11.2-13.1h-37.6L420,95.3l116-72.1h21.1L444.1,93l-4,4.7H455.5z M556.8,123h-18.9l64.6-75.3h-18.9
		l10.6-12.4l28.8-12.1h19.4L556.8,123z M697.3,99.6c-3.3,3.9-31.4,24.3-59.3,24.3c-27.9,0-22.4-17.9-17.9-23.1
		c4.5-5.3,48.3-56.3,48.3-56.3s23.4-23.4,57.8-23.4c0,0,37.5,1.1,17.4,24.5C723.7,68.9,700.7,95.7,697.3,99.6z M781.8,121.4h-20.4
		l8.7-25.5c0.5-1.4-2.3-1.4-4.3-0.1l-38.4,25.6h-20.4l70.7-49.5l16.9-52.7H816l-8.9,27.9c-0.3,1.1,1.9,1.1,3.4,0L851,19.2h22.1
		L798,71.9L781.8,121.4z M865,120l14.2-52.9c0.4-1.6-3.6-1.2-5.1,0.6L829.2,120h-20.8l86.4-100.7h21.4l-17.7,56.4
		c-0.3,0.9,1.8,0.6,2.6-0.3l48.1-56.1h22.5L885.4,120H865z"/>
	<path style="fill:#DCDCDC;" d="M208,12.4L97.5,141H885L995.4,12.4H208z M255.3,37.3c-18,0-28.3,10.8-30.5,13.3
		c-2.2,2.5-44,51.3-44,51.3s-9.6,12.4,7.8,12.4c17.4,0,27-10.1,30.6-14.2h21.1c0,0-26.1,26.8-61.1,26.8s-22.2-20.1-18.5-24.5
		c3.7-4.4,44.4-51.7,44.4-51.7s25.6-27.5,62.4-27.5c36.8,0,20.1,21.8,15.6,27l-21.5,0.5C261.6,50.6,273.3,37.3,255.3,37.3z
		 M395.5,37.3h-28.6L291.7,125h-20.8l75.4-87.9h-28.2l12-14h77.6L395.5,37.3z M391.2,82.7c-7.1,0-9.5-3.9-5.4-8.6
		c4.1-4.8,13.2-8.6,20.3-8.6c7.1,0,9.5,3.9,5.4,8.6C407.4,78.8,398.3,82.7,391.2,82.7z M455.5,97.7l10.1-11.8h19.9l-10.1,11.8h17.7
		L481,111.7h-18L451.6,125H432l11.2-13.1h-37.6L420,95.3l116-72.1h21.1L444.1,93l-4,4.7H455.5z M556.8,123h-18.9l64.6-75.3h-18.9
		l10.6-12.4l28.8-12.1h19.4L556.8,123z M697.3,99.6c-3.3,3.9-31.4,24.3-59.3,24.3c-27.9,0-22.4-17.9-17.9-23.1
		c4.5-5.3,48.3-56.3,48.3-56.3s23.4-23.4,57.8-23.4c0,0,37.5,1.1,17.4,24.5C723.7,68.9,700.7,95.7,697.3,99.6z M781.8,121.4h-20.4
		l8.7-25.5c0.5-1.4-2.3-1.4-4.3-0.1l-38.4,25.6h-20.4l70.7-49.5l16.9-52.7H816l-8.9,27.9c-0.3,1.1,1.9,1.1,3.4,0L851,19.2h22.1
		L798,71.9L781.8,121.4z M865,120l14.2-52.9c0.4-1.6-3.6-1.2-5.1,0.6L829.2,120h-20.8l86.4-100.7h21.4l-17.7,56.4
		c-0.3,0.9,1.8,0.6,2.6-0.3l48.1-56.1h22.5L885.4,120H865z"/>
	<path style="fill:#5C5C5C;" d="M127.9,12.4c-3.6,0-8.1,2-10.2,4.4l-103,120c-2.1,2.4-0.8,4.4,2.7,4.4h80.1L208,12.4H127.9z
		 M166.2,35.4c2.2-0.7,4.1-0.4,4.2,0.8c0.1,1.1-1.7,2.6-3.9,3.3c-2.2,0.7-4.1,0.4-4.2-0.8C162.2,37.5,163.9,36.1,166.2,35.4z
		 M151.8,26c1.9,0,2.6,1.1,1.5,2.4c-1.1,1.3-3.6,2.4-5.5,2.4c-1.9,0-2.6-1.1-1.5-2.4C147.4,27,149.9,26,151.8,26z M118.8,64.4
		c1.9,0,2.6,1.1,1.5,2.4c-1.1,1.3-3.6,2.4-5.5,2.4c-1.9,0-2.6-1.1-1.5-2.4C114.4,65.5,116.9,64.4,118.8,64.4z M101.2,47.6
		c1.1-1.3,3.6-2.4,5.5-2.4c1.9,0,2.6,1.1,1.5,2.4c-1.1,1.3-3.6,2.4-5.5,2.4C100.7,49.9,100.1,48.9,101.2,47.6z M100.5,59.7
		c-2.2,0.7-4.1,0.4-4.2-0.8c-0.1-1.1,1.7-2.6,3.9-3.3c2.2-0.7,4.1-0.4,4.2,0.8C104.4,57.6,102.7,59,100.5,59.7z M119.7,38.6
		c-2,1.1-4.4,1.4-5.5,0.8c-1.1-0.7-0.3-2.2,1.7-3.3c2-1.1,4.4-1.4,5.5-0.8C122.4,36.1,121.7,37.5,119.7,38.6z M106.1,65.1
		c-2,1.1-4.4,1.4-5.5,0.8c-1.1-0.7-0.3-2.2,1.7-3.3c2-1.1,4.4-1.4,5.5-0.8C108.8,62.6,108.1,64,106.1,65.1z M132.3,33.2
		c-2.2,0.7-4.1,0.4-4.2-0.8c-0.1-1.1,1.7-2.6,3.9-3.3c2.2-0.7,4.1-0.4,4.2,0.8C136.3,31.1,134.6,32.5,132.3,33.2z M76.9,126.9H58.7
		L97.2,82h18.2L76.9,126.9z M134.6,65.9c-2.2,0.7-4.1,0.4-4.2-0.8c-0.1-1.1,1.7-2.6,3.9-3.3s4.1-0.4,4.2,0.8
		C138.6,63.7,136.8,65.2,134.6,65.9z M164.3,32.5c-2,1.1-4.4,1.4-5.5,0.8c-1.1-0.7-0.3-2.2,1.7-3.3c2-1.1,4.4-1.4,5.5-0.8
		C167.1,29.9,166.3,31.4,164.3,32.5z M150.7,59c-2,1.1-4.4,1.4-5.5,0.8c-1.1-0.7-0.3-2.2,1.7-3.3c2-1.1,4.4-1.4,5.5-0.8
		C153.5,56.4,152.7,57.9,150.7,59z M159.9,49.9c-1.9,0-2.6-1.1-1.5-2.4c1.1-1.3,3.6-2.4,5.5-2.4c1.9,0,2.6,1.1,1.5,2.4
		C164.3,48.9,161.8,49.9,159.9,49.9z"/>
	<path style="fill:#65C8D0;" d="M127.9,12.4c-3.6,0-8.1,2-10.2,4.4l-103,120c-2.1,2.4-0.8,4.4,2.7,4.4h80.1L208,12.4H127.9z
		 M166.2,35.4c2.2-0.7,4.1-0.4,4.2,0.8c0.1,1.1-1.7,2.6-3.9,3.3c-2.2,0.7-4.1,0.4-4.2-0.8C162.2,37.5,163.9,36.1,166.2,35.4z
		 M151.8,26c1.9,0,2.6,1.1,1.5,2.4c-1.1,1.3-3.6,2.4-5.5,2.4c-1.9,0-2.6-1.1-1.5-2.4C147.4,27,149.9,26,151.8,26z M118.8,64.4
		c1.9,0,2.6,1.1,1.5,2.4c-1.1,1.3-3.6,2.4-5.5,2.4c-1.9,0-2.6-1.1-1.5-2.4C114.4,65.5,116.9,64.4,118.8,64.4z M101.2,47.6
		c1.1-1.3,3.6-2.4,5.5-2.4c1.9,0,2.6,1.1,1.5,2.4c-1.1,1.3-3.6,2.4-5.5,2.4C100.7,49.9,100.1,48.9,101.2,47.6z M100.5,59.7
		c-2.2,0.7-4.1,0.4-4.2-0.8c-0.1-1.1,1.7-2.6,3.9-3.3c2.2-0.7,4.1-0.4,4.2,0.8C104.4,57.6,102.7,59,100.5,59.7z M119.7,38.6
		c-2,1.1-4.4,1.4-5.5,0.8c-1.1-0.7-0.3-2.2,1.7-3.3c2-1.1,4.4-1.4,5.5-0.8C122.4,36.1,121.7,37.5,119.7,38.6z M106.1,65.1
		c-2,1.1-4.4,1.4-5.5,0.8c-1.1-0.7-0.3-2.2,1.7-3.3c2-1.1,4.4-1.4,5.5-0.8C108.8,62.6,108.1,64,106.1,65.1z M132.3,33.2
		c-2.2,0.7-4.1,0.4-4.2-0.8c-0.1-1.1,1.7-2.6,3.9-3.3c2.2-0.7,4.1-0.4,4.2,0.8C136.3,31.1,134.6,32.5,132.3,33.2z M76.9,126.9H58.7
		L97.2,82h18.2L76.9,126.9z M134.6,65.9c-2.2,0.7-4.1,0.4-4.2-0.8c-0.1-1.1,1.7-2.6,3.9-3.3s4.1-0.4,4.2,0.8
		C138.6,63.7,136.8,65.2,134.6,65.9z M164.3,32.5c-2,1.1-4.4,1.4-5.5,0.8c-1.1-0.7-0.3-2.2,1.7-3.3c2-1.1,4.4-1.4,5.5-0.8
		C167.1,29.9,166.3,31.4,164.3,32.5z M150.7,59c-2,1.1-4.4,1.4-5.5,0.8c-1.1-0.7-0.3-2.2,1.7-3.3c2-1.1,4.4-1.4,5.5-0.8
		C153.5,56.4,152.7,57.9,150.7,59z M159.9,49.9c-1.9,0-2.6-1.1-1.5-2.4c1.1-1.3,3.6-2.4,5.5-2.4c1.9,0,2.6,1.1,1.5,2.4
		C164.3,48.9,161.8,49.9,159.9,49.9z"/>
	<path style="fill:#5C5C5C;" d="M1069.1,12.4h-73.7L885,141h73.7c3.6,0,8.1-2,10.2-4.4l103-120C1073.9,14.3,1072.7,12.4,1069.1,12.4
		z M997.6,62.2c-16.9,0-22.7-9.2-12.9-20.6c9.8-11.4,31.4-20.6,48.3-20.6s22.7,9.2,12.9,20.6C1036.1,52.9,1014.5,62.2,997.6,62.2z"
		/>
	<path style="fill:#65C8D0;" d="M1069.1,12.4h-73.7L885,141h73.7c3.6,0,8.1-2,10.2-4.4l103-120C1073.9,14.3,1072.7,12.4,1069.1,12.4
		z M997.6,62.2c-16.9,0-22.7-9.2-12.9-20.6c9.8-11.4,31.4-20.6,48.3-20.6s22.7,9.2,12.9,20.6C1036.1,52.9,1014.5,62.2,997.6,62.2z"
		/>
	<path style="fill:#5C5C5C;" d="M283.1,50.1c4.5-5.3,21.1-27-15.6-27c-36.8,0-62.4,27.5-62.4,27.5s-40.7,47.4-44.4,51.7
		c-3.7,4.4-16.6,24.5,18.5,24.5s61.1-26.8,61.1-26.8h-21.1c-3.5,4.1-13.2,14.2-30.6,14.2c-17.4,0-7.8-12.4-7.8-12.4
		s41.8-48.8,44-51.3c2.2-2.5,12.4-13.3,30.5-13.3s6.3,13.3,6.3,13.3L283.1,50.1z"/>
	<path style="fill:#2B2B2B;" d="M283.1,50.1c4.5-5.3,21.1-27-15.6-27c-36.8,0-62.4,27.5-62.4,27.5s-40.7,47.4-44.4,51.7
		c-3.7,4.4-16.6,24.5,18.5,24.5s61.1-26.8,61.1-26.8h-21.1c-3.5,4.1-13.2,14.2-30.6,14.2c-17.4,0-7.8-12.4-7.8-12.4
		s41.8-48.8,44-51.3c2.2-2.5,12.4-13.3,30.5-13.3s6.3,13.3,6.3,13.3L283.1,50.1z"/>
	<polygon style="fill:#5C5C5C;" points="318.1,37.1 346.3,37.1 270.9,125 291.7,125 366.9,37.3 395.5,37.3 407.7,23.1 330.1,23.1 	
		"/>
	<polygon style="fill:#2B2B2B;" points="318.1,37.1 346.3,37.1 270.9,125 291.7,125 366.9,37.3 395.5,37.3 407.7,23.1 330.1,23.1 	
		"/>
	<polygon style="fill:#5C5C5C;" points="557.1,23.1 536,23.1 420,95.3 405.6,112 443.2,112 432,125 451.6,125 463,111.7 481,111.7 
		493.1,97.7 475.4,97.7 485.5,85.9 465.6,85.9 455.5,97.7 440,97.7 444.1,93 	"/>
	<polygon style="fill:#2B2B2B;" points="557.1,23.1 536,23.1 420,95.3 405.6,112 443.2,112 432,125 451.6,125 463,111.7 481,111.7 
		493.1,97.7 475.4,97.7 485.5,85.9 465.6,85.9 455.5,97.7 440,97.7 444.1,93 	"/>
	<polygon style="fill:#5C5C5C;" points="594.3,35.3 583.7,47.6 602.6,47.6 537.9,123 556.8,123 642.5,23.1 623.1,23.1 	"/>
	<polygon style="fill:#2B2B2B;" points="594.3,35.3 583.7,47.6 602.6,47.6 537.9,123 556.8,123 642.5,23.1 623.1,23.1 	"/>
	<path style="fill:#5C5C5C;" d="M726.3,21.1c-34.4,0-57.8,23.4-57.8,23.4s-43.8,51.1-48.3,56.3c-4.5,5.3-10,23.1,17.9,23.1
		c27.9,0,55.9-20.4,59.3-24.3c3.3-3.9,26.3-30.7,46.4-54C763.7,22.2,726.3,21.1,726.3,21.1z M678.4,98.7c0,0-12,10.8-27.6,10.8
		c-15.7,0-11.4-8.9-10-10.5c1.4-1.6,44.6-52,44.6-52s10.5-12.6,29.5-12.6c0,0,18.7,0,8.5,11.9C717.3,53.4,678.4,98.7,678.4,98.7z"/>
	<path style="fill:#2B2B2B;" d="M726.3,21.1c-34.4,0-57.8,23.4-57.8,23.4s-43.8,51.1-48.3,56.3c-4.5,5.3-10,23.1,17.9,23.1
		c27.9,0,55.9-20.4,59.3-24.3c3.3-3.9,26.3-30.7,46.4-54C763.7,22.2,726.3,21.1,726.3,21.1z M678.4,98.7c0,0-12,10.8-27.6,10.8
		c-15.7,0-11.4-8.9-10-10.5c1.4-1.6,44.6-52,44.6-52s10.5-12.6,29.5-12.6c0,0,18.7,0,8.5,11.9C717.3,53.4,678.4,98.7,678.4,98.7z"/>
	<path style="fill:#5C5C5C;" d="M714.9,34.3c-19.1,0-29.5,12.6-29.5,12.6s-43.2,50.4-44.6,52c-1.4,1.6-5.6,10.5,10,10.5
		c15.7,0,27.6-10.8,27.6-10.8s38.9-45.3,45-52.4C733.6,34.3,714.9,34.3,714.9,34.3z"/>
	<path style="fill:#DCDCDC;" d="M714.9,34.3c-19.1,0-29.5,12.6-29.5,12.6s-43.2,50.4-44.6,52c-1.4,1.6-5.6,10.5,10,10.5
		c15.7,0,27.6-10.8,27.6-10.8s38.9-45.3,45-52.4C733.6,34.3,714.9,34.3,714.9,34.3z"/>
	<path style="fill:#5C5C5C;" d="M851,19.2l-40.6,27.9c-1.5,1-3.7,1-3.4,0l8.9-27.9h-21.4l-16.9,52.7l-70.7,49.5h20.4l38.4-25.6
		c2-1.3,4.7-1.3,4.3,0.1l-8.7,25.5h20.4L798,71.9l75.1-52.7H851z"/>
	<path style="fill:#2B2B2B;" d="M851,19.2l-40.6,27.9c-1.5,1-3.7,1-3.4,0l8.9-27.9h-21.4l-16.9,52.7l-70.7,49.5h20.4l38.4-25.6
		c2-1.3,4.7-1.3,4.3,0.1l-8.7,25.5h20.4L798,71.9l75.1-52.7H851z"/>
	<path style="fill:#5C5C5C;" d="M949.4,19.2l-48.1,56.1c-0.8,0.9-2.8,1.1-2.6,0.3l17.7-56.4h-21.4L808.5,120h20.8l44.9-52.3
		c1.5-1.8,5.5-2.2,5.1-0.6L865,120h20.4l86.4-100.7H949.4z"/>
	<path style="fill:#2B2B2B;" d="M949.4,19.2l-48.1,56.1c-0.8,0.9-2.8,1.1-2.6,0.3l17.7-56.4h-21.4L808.5,120h20.8l44.9-52.3
		c1.5-1.8,5.5-2.2,5.1-0.6L865,120h20.4l86.4-100.7H949.4z"/>
	<path style="fill:#5C5C5C;" d="M1033,21c-16.9,0-38.5,9.2-48.3,20.6c-9.8,11.4-4,20.6,12.9,20.6s38.5-9.2,48.3-20.6
		C1055.7,30.2,1049.9,21,1033,21z M1001,58.2c-13.7,0-18.4-7.5-10.5-16.7c7.9-9.2,25.4-16.7,39.1-16.7c13.7,0,18.4,7.5,10.5,16.7
		S1014.7,58.2,1001,58.2z"/>
	<path style="fill:#FFDE40;" d="M1033,21c-16.9,0-38.5,9.2-48.3,20.6c-9.8,11.4-4,20.6,12.9,20.6s38.5-9.2,48.3-20.6
		C1055.7,30.2,1049.9,21,1033,21z M1001,58.2c-13.7,0-18.4-7.5-10.5-16.7c7.9-9.2,25.4-16.7,39.1-16.7c13.7,0,18.4,7.5,10.5,16.7
		S1014.7,58.2,1001,58.2z"/>
	<path style="fill:#5C5C5C;" d="M1029.6,24.9c-13.7,0-31.2,7.5-39.1,16.7c-7.9,9.2-3.2,16.7,10.5,16.7c13.7,0,31.2-7.5,39.1-16.7
		S1043.3,24.9,1029.6,24.9z M1000,50.3c0,0-6.6-0.1,1.1-9.1c7.8-9,13.4-9.1,14.5-9.1c0,0,7.3-0.8-1.1,9
		C1006,50.9,1000,50.3,1000,50.3z M1015.6,50.3c-5,0-4.3-2.9-0.7-7.1c3.6-4.2,16.6-11.2,16.6-11.2h5.3c-7.2,3.5-11.6,6.7-11.6,6.7
		c4.8-0.2,4,2.9,1.9,5.3C1024,47.7,1019.1,50.3,1015.6,50.3z"/>
	<path style="fill:#65C8D0;" d="M1029.6,24.9c-13.7,0-31.2,7.5-39.1,16.7c-7.9,9.2-3.2,16.7,10.5,16.7c13.7,0,31.2-7.5,39.1-16.7
		S1043.3,24.9,1029.6,24.9z M1000,50.3c0,0-6.6-0.1,1.1-9.1c7.8-9,13.4-9.1,14.5-9.1c0,0,7.3-0.8-1.1,9
		C1006,50.9,1000,50.3,1000,50.3z M1015.6,50.3c-5,0-4.3-2.9-0.7-7.1c3.6-4.2,16.6-11.2,16.6-11.2h5.3c-7.2,3.5-11.6,6.7-11.6,6.7
		c4.8-0.2,4,2.9,1.9,5.3C1024,47.7,1019.1,50.3,1015.6,50.3z"/>
	<path style="fill:#5C5C5C;" d="M147.8,30.7c1.9,0,4.4-1.1,5.5-2.4c1.1-1.3,0.5-2.4-1.5-2.4c-1.9,0-4.4,1.1-5.5,2.4
		C145.2,29.6,145.8,30.7,147.8,30.7z"/>
	<path style="fill:#FFDE40;" d="M147.8,30.7c1.9,0,4.4-1.1,5.5-2.4c1.1-1.3,0.5-2.4-1.5-2.4c-1.9,0-4.4,1.1-5.5,2.4
		C145.2,29.6,145.8,30.7,147.8,30.7z"/>
	<path style="fill:#5C5C5C;" d="M114.8,69.2c1.9,0,4.4-1.1,5.5-2.4c1.1-1.3,0.5-2.4-1.5-2.4c-1.9,0-4.4,1.1-5.5,2.4
		C112.2,68.1,112.8,69.2,114.8,69.2z"/>
	<path style="fill:#FFDE40;" d="M114.8,69.2c1.9,0,4.4-1.1,5.5-2.4c1.1-1.3,0.5-2.4-1.5-2.4c-1.9,0-4.4,1.1-5.5,2.4
		C112.2,68.1,112.8,69.2,114.8,69.2z"/>
	<path style="fill:#5C5C5C;" d="M163.9,45.2c-1.9,0-4.4,1.1-5.5,2.4c-1.1,1.3-0.5,2.4,1.5,2.4c1.9,0,4.4-1.1,5.5-2.4
		C166.5,46.2,165.9,45.2,163.9,45.2z"/>
	<path style="fill:#FFDE40;" d="M163.9,45.2c-1.9,0-4.4,1.1-5.5,2.4c-1.1,1.3-0.5,2.4,1.5,2.4c1.9,0,4.4-1.1,5.5-2.4
		C166.5,46.2,165.9,45.2,163.9,45.2z"/>
	<path style="fill:#5C5C5C;" d="M108.2,47.6c1.1-1.3,0.5-2.4-1.5-2.4c-1.9,0-4.4,1.1-5.5,2.4c-1.1,1.3-0.5,2.4,1.5,2.4
		C104.6,49.9,107.1,48.9,108.2,47.6z"/>
	<path style="fill:#FFDE40;" d="M108.2,47.6c1.1-1.3,0.5-2.4-1.5-2.4c-1.9,0-4.4,1.1-5.5,2.4c-1.1,1.3-0.5,2.4,1.5,2.4
		C104.6,49.9,107.1,48.9,108.2,47.6z"/>
	<path style="fill:#5C5C5C;" d="M134.3,61.9c-2.2,0.7-4,2.2-3.9,3.3c0.1,1.1,2,1.4,4.2,0.8c2.2-0.7,4-2.2,3.9-3.3
		C138.4,61.5,136.5,61.2,134.3,61.9z"/>
	<path style="fill:#FFDE40;" d="M134.3,61.9c-2.2,0.7-4,2.2-3.9,3.3c0.1,1.1,2,1.4,4.2,0.8c2.2-0.7,4-2.2,3.9-3.3
		C138.4,61.5,136.5,61.2,134.3,61.9z"/>
	<path style="fill:#5C5C5C;" d="M132,29.2c-2.2,0.7-4,2.2-3.9,3.3c0.1,1.1,2,1.4,4.2,0.8c2.2-0.7,4-2.2,3.9-3.3
		C136.2,28.9,134.3,28.5,132,29.2z"/>
	<path style="fill:#FFDE40;" d="M132,29.2c-2.2,0.7-4,2.2-3.9,3.3c0.1,1.1,2,1.4,4.2,0.8c2.2-0.7,4-2.2,3.9-3.3
		C136.2,28.9,134.3,28.5,132,29.2z"/>
	<path style="fill:#5C5C5C;" d="M107.8,61.9c-1.1-0.7-3.5-0.4-5.5,0.8c-2,1.1-2.7,2.6-1.7,3.3c1.1,0.7,3.5,0.4,5.5-0.8
		C108.1,64,108.8,62.6,107.8,61.9z"/>
	<path style="fill:#FFDE40;" d="M107.8,61.9c-1.1-0.7-3.5-0.4-5.5,0.8c-2,1.1-2.7,2.6-1.7,3.3c1.1,0.7,3.5,0.4,5.5-0.8
		C108.1,64,108.8,62.6,107.8,61.9z"/>
	<path style="fill:#5C5C5C;" d="M166,29.2c-1.1-0.7-3.5-0.4-5.5,0.8c-2,1.1-2.7,2.6-1.7,3.3c1.1,0.7,3.5,0.4,5.5-0.8
		C166.3,31.4,167.1,29.9,166,29.2z"/>
	<path style="fill:#FFDE40;" d="M166,29.2c-1.1-0.7-3.5-0.4-5.5,0.8c-2,1.1-2.7,2.6-1.7,3.3c1.1,0.7,3.5,0.4,5.5-0.8
		C166.3,31.4,167.1,29.9,166,29.2z"/>
	<path style="fill:#5C5C5C;" d="M100.2,55.7c-2.2,0.7-4,2.2-3.9,3.3c0.1,1.1,2,1.4,4.2,0.8s4-2.2,3.9-3.3
		C104.3,55.4,102.4,55,100.2,55.7z"/>
	<path style="fill:#FFDE40;" d="M100.2,55.7c-2.2,0.7-4,2.2-3.9,3.3c0.1,1.1,2,1.4,4.2,0.8s4-2.2,3.9-3.3
		C104.3,55.4,102.4,55,100.2,55.7z"/>
	<path style="fill:#5C5C5C;" d="M166.4,39.4c2.2-0.7,4-2.2,3.9-3.3c-0.1-1.1-2-1.4-4.2-0.8c-2.2,0.7-4,2.2-3.9,3.3
		C162.3,39.7,164.2,40.1,166.4,39.4z"/>
	<path style="fill:#FFDE40;" d="M166.4,39.4c2.2-0.7,4-2.2,3.9-3.3c-0.1-1.1-2-1.4-4.2-0.8c-2.2,0.7-4,2.2-3.9,3.3
		C162.3,39.7,164.2,40.1,166.4,39.4z"/>
	<path style="fill:#5C5C5C;" d="M121.4,35.4c-1.1-0.7-3.5-0.4-5.5,0.8c-2,1.1-2.7,2.6-1.7,3.3c1.1,0.7,3.5,0.4,5.5-0.8
		C121.7,37.5,122.4,36.1,121.4,35.4z"/>
	<path style="fill:#FFDE40;" d="M121.4,35.4c-1.1-0.7-3.5-0.4-5.5,0.8c-2,1.1-2.7,2.6-1.7,3.3c1.1,0.7,3.5,0.4,5.5-0.8
		C121.7,37.5,122.4,36.1,121.4,35.4z"/>
	<path style="fill:#5C5C5C;" d="M152.4,55.7c-1.1-0.7-3.5-0.4-5.5,0.8c-2,1.1-2.7,2.6-1.7,3.3c1.1,0.7,3.5,0.4,5.5-0.8
		C152.7,57.9,153.5,56.4,152.4,55.7z"/>
	<path style="fill:#FFDE40;" d="M152.4,55.7c-1.1-0.7-3.5-0.4-5.5,0.8c-2,1.1-2.7,2.6-1.7,3.3c1.1,0.7,3.5,0.4,5.5-0.8
		C152.7,57.9,153.5,56.4,152.4,55.7z"/>
	<polygon style="fill:#5C5C5C;" points="58.7,126.9 76.9,126.9 115.4,82 97.2,82 	"/>
	<polygon style="fill:#DFDFDF;" points="58.7,126.9 76.9,126.9 115.4,82 97.2,82 	"/>
	<path style="fill:#5C5C5C;" d="M1015.6,32.1c-1.1,0-6.8,0.1-14.5,9.1c-7.8,9-1.1,9.1-1.1,9.1s6.1,0.6,14.5-9.2
		C1022.9,31.2,1015.6,32.1,1015.6,32.1z M1003.3,46.3c-0.7,0-2.3-0.1,2.6-5.7c4.8-5.6,6.6-5,6.6-5s3.2-0.5-1.5,5
		C1006.3,46.1,1004,46.3,1003.3,46.3z"/>
	<path style="fill:#FFDE40;" d="M1015.6,32.1c-1.1,0-6.8,0.1-14.5,9.1c-7.8,9-1.1,9.1-1.1,9.1s6.1,0.6,14.5-9.2
		C1022.9,31.2,1015.6,32.1,1015.6,32.1z M1003.3,46.3c-0.7,0-2.3-0.1,2.6-5.7c4.8-5.6,6.6-5,6.6-5s3.2-0.5-1.5,5
		C1006.3,46.1,1004,46.3,1003.3,46.3z"/>
	<path style="fill:#5C5C5C;" d="M1012.5,35.6c0,0-1.7-0.7-6.6,5c-4.8,5.6-3.3,5.7-2.6,5.7c0.7,0,3-0.2,7.7-5.7
		C1015.7,35.1,1012.5,35.6,1012.5,35.6z"/>
	<path style="fill:#65C8D0;" d="M1012.5,35.6c0,0-1.7-0.7-6.6,5c-4.8,5.6-3.3,5.7-2.6,5.7c0.7,0,3-0.2,7.7-5.7
		C1015.7,35.1,1012.5,35.6,1012.5,35.6z"/>
	<path style="fill:#5C5C5C;" d="M1025.2,38.7c0,0,4.4-3.2,11.6-6.7h-5.3c0,0-13,7-16.6,11.2c-3.6,4.2-4.3,7.1,0.7,7.1
		c3.5,0,8.4-2.6,11.5-6.3C1029.2,41.6,1030,38.5,1025.2,38.7z M1018.2,46.9c0,0-2-0.5,0.2-3c2.2-2.5,4.4-2.4,4.4-2.4
		s2.8-0.2,0.4,2.6C1020.8,46.9,1018.2,46.9,1018.2,46.9z"/>
	<path style="fill:#FFDE40;" d="M1025.2,38.7c0,0,4.4-3.2,11.6-6.7h-5.3c0,0-13,7-16.6,11.2c-3.6,4.2-4.3,7.1,0.7,7.1
		c3.5,0,8.4-2.6,11.5-6.3C1029.2,41.6,1030,38.5,1025.2,38.7z M1018.2,46.9c0,0-2-0.5,0.2-3c2.2-2.5,4.4-2.4,4.4-2.4
		s2.8-0.2,0.4,2.6C1020.8,46.9,1018.2,46.9,1018.2,46.9z"/>
	<path style="fill:#5C5C5C;" d="M1022.8,41.6c0,0-2.3-0.1-4.4,2.4c-2.2,2.5-0.2,3-0.2,3s2.7-0.1,5-2.8
		C1025.5,41.4,1022.8,41.6,1022.8,41.6z"/>
	<path style="fill:#65C8D0;" d="M1022.8,41.6c0,0-2.3-0.1-4.4,2.4c-2.2,2.5-0.2,3-0.2,3s2.7-0.1,5-2.8
		C1025.5,41.4,1022.8,41.6,1022.8,41.6z"/>
	<path style="fill:#5C5C5C;" d="M406.1,65.4c-7.1,0-16.2,3.9-20.3,8.6c-4.1,4.8-1.7,8.6,5.4,8.6c7.1,0,16.2-3.9,20.3-8.6
		C415.6,69.3,413.2,65.4,406.1,65.4z"/>
	<path style="fill:#B3B3B3;" d="M406.1,65.4c-7.1,0-16.2,3.9-20.3,8.6c-4.1,4.8-1.7,8.6,5.4,8.6c7.1,0,16.2-3.9,20.3-8.6
		C415.6,69.3,413.2,65.4,406.1,65.4z"/>
</g>
</svg>
