<svg id="Group_21" data-name="Group 21" xmlns="http://www.w3.org/2000/svg" width="292.041" height="116.268" viewBox="0 0 292.041 116.268">
  <path id="Path_2848" data-name="Path 2848" d="M296.378,114.281l-.506.186h0a4.843,4.843,0,0,1,1.419.578Z" transform="translate(-161.106 -62.228)" fill="none"/>
  <path id="Path_2849" data-name="Path 2849" d="M345.972,82.394c6.052,5.759,17.79,11,35.564,13.955q-.309-.728-.652-1.469c-15.762-2.966-27.824-7.971-33.554-13.083A23.938,23.938,0,0,1,340.9,73a16.807,16.807,0,0,0-.431,1.964A25.593,25.593,0,0,0,345.972,82.394Z" transform="translate(-185.389 -39.748)" fill="#f8f8f8"/>
  <path id="Path_2850" data-name="Path 2850" d="M16.792,176.573l133.023-43.152c-.029-.414-.068-.824-.123-1.226-16.4,5.384-105.6,34.642-102.312,32.847,3.621-1.975,101.95-34.429,102.028-34.454a26.038,26.038,0,0,0-3.219-7.865L13.452,167.238A33.475,33.475,0,0,1,16.792,176.573Z" transform="translate(-7.325 -66.825)" fill="#2a2a2a"/>
  <path id="Path_2851" data-name="Path 2851" d="M190.145,141.6c-.074-.548-.171-1.083-.284-1.607-.078.026-98.408,32.479-102.028,34.454C84.542,176.239,173.748,146.981,190.145,141.6Z" transform="translate(-47.778 -76.227)" fill="#414141"/>
  <path id="Path_2852" data-name="Path 2852" d="M536.681,82.942a40.213,40.213,0,0,1-7.992,7.008c-8.99,6.139-28.568,13.07-52.566,13.07-5.6,0-11-.269-16.157-.759q.184.656.338,1.2,6.206.533,13.143.731s38.886.8,57.3-14.161a64,64,0,0,0,6.031-5.438A8.055,8.055,0,0,0,536.681,82.942Z" transform="translate(-250.459 -45.163)" fill="#fefefe"/>
  <path id="Path_2853" data-name="Path 2853" d="M445.605,123.695c.174.437.339.871.5,1.3q3.084.37,6.379.653-.153-.546-.338-1.2Q448.8,124.133,445.605,123.695Z" transform="translate(-242.639 -67.354)" fill="#f8f8f8"/>
  <path id="Path_2854" data-name="Path 2854" d="M9.569,161.74h0a23.176,23.176,0,0,1,1.769,2.819l132.737-44.515c-.118-.193-.23-.372-.337-.538a11.757,11.757,0,0,0-3.754-1.7C138.995,117.679,9.569,161.74,9.569,161.74Z" transform="translate(-5.21 -64.145)" fill="#242424"/>
  <path id="Path_2855" data-name="Path 2855" d="M429.2,121.04q.342.741.652,1.469,3.5.583,7.319,1.044c-.161-.433-.326-.868-.5-1.3Q432.819,121.723,429.2,121.04Z" transform="translate(-233.709 -65.908)" fill="#f8f8f8"/>
  <path id="Path_2856" data-name="Path 2856" d="M298.985,115.959l1.369,1.149A5.417,5.417,0,0,0,298.985,115.959Z" transform="translate(-162.802 -63.142)" fill="#404040" opacity="0.29"/>
  <path id="Path_2857" data-name="Path 2857" d="M628.489,79.6a28.792,28.792,0,0,0,2.847-3.459V73.779a26.062,26.062,0,0,1-2.943,4.174A8.055,8.055,0,0,1,628.489,79.6Z" transform="translate(-342.17 -40.174)" fill="#fefefe"/>
  <path id="Path_2858" data-name="Path 2858" d="M7.784,159.066a11.1,11.1,0,0,1,.813.98h0s129.426-44.06,130.414-43.937a11.757,11.757,0,0,1,3.754,1.7c-.574-.89-.976-1.394-.976-1.394l-1.369-1.149a4.843,4.843,0,0,0-1.419-.578L7.785,159.066Z" transform="translate(-4.239 -62.451)" fill="#b8b8b8"/>
  <path id="Path_2859" data-name="Path 2859" d="M473.618,22.393c-2.6-4.706-9.3-11.392-25.11-16.383A128.189,128.189,0,0,0,408.579,0C371.652,0,352.587,7.54,343.7,14.737c-7.753,6.282-7.525,12.293-7.554,12.926a17.834,17.834,0,0,0,1.965,7.55,16.807,16.807,0,0,1,.431-1.964,14.467,14.467,0,0,1-1.223-5.545c0-7.265,7.41-16.976,31.83-22.733a157.458,157.458,0,0,1,36.606-3.9c52.957,0,68.435,20.17,68.435,26.633a13.671,13.671,0,0,1-1.99,5.9v2.366a14.58,14.58,0,0,0,2.875-8.309A11.072,11.072,0,0,0,473.618,22.393Z" transform="translate(-183.039)" fill="#fefefe"/>
  <path id="Path_2860" data-name="Path 2860" d="M153.808,146.21,20.785,189.362a27.971,27.971,0,0,1,.517,6.519c.865,0,127.32-41.617,130.1-42.728s2.408-4.075,2.408-4.446A17.571,17.571,0,0,0,153.808,146.21Z" transform="translate(-11.318 -79.614)" fill="#0a0a0a"/>
  <path id="Path_2861" data-name="Path 2861" d="M6.845,158.969h0l131.217-44.375a2.9,2.9,0,0,0-1.349,0c-1.42.37-129.049,43.037-130.655,43.716A3.448,3.448,0,0,1,6.845,158.969Z" transform="translate(-3.299 -62.354)" fill="#717171"/>
  <path id="Path_2862" data-name="Path 2862" d="M9.467,224.458a33.475,33.475,0,0,0-3.34-9.335A23.176,23.176,0,0,0,4.358,212.3a11.1,11.1,0,0,0-.813-.98,3.447,3.447,0,0,0-.786-.661A3.285,3.285,0,0,0,1.485,212a10.266,10.266,0,0,0-1.167,3.02,13.481,13.481,0,0,0,.836,8.359c2.717,6.236,7.965,7.595,8.83,7.595A27.971,27.971,0,0,0,9.467,224.458Zm-3.908-5.274c-1.07.494-2.8-3.046-1.893-3.787C4.352,214.835,6.63,218.69,5.559,219.184Z" transform="translate(0 -114.71)" fill="#121212"/>
  <path id="Path_2863" data-name="Path 2863" d="M356.409,19.584c3.482-3.165,16.673-12.459,51.513-12.459,28.967,0,43.747,7.523,50.13,12.189,10.045,4.58,15.554,10.281,15.554,15.571h0a13.671,13.671,0,0,0,1.99-5.9c0-6.463-15.477-26.633-68.435-26.633a157.458,157.458,0,0,0-36.606,3.9c-24.419,5.757-31.83,15.467-31.83,22.733a14.469,14.469,0,0,0,1.223,5.545,14.755,14.755,0,0,1,3.923-6.656A46.727,46.727,0,0,1,356.409,19.584ZM409.054,3.5c13.333,0,19.08,2.594,16.239,2.1a111.194,111.194,0,0,0-16.552-1.3c-8.743-.041-17.161.679-17.161.679C390.35,5.024,395.721,3.5,409.054,3.5Z" transform="translate(-184.441 -1.28)" fill="#343434"/>
  <path id="Path_2864" data-name="Path 2864" d="M459.516,28.811c-11.5-5.245-28.951-9.019-50.892-9.019-24.782,0-40.8,4.564-50.751,9.29a46.727,46.727,0,0,0-12.538,8.288,14.755,14.755,0,0,0-3.923,6.656,23.937,23.937,0,0,0,6.434,8.8c5.73,5.112,17.793,10.117,33.554,13.083-3.605-7.809-9.834-16.56-14.91-22.757a82.413,82.413,0,0,1-9.505-2.912c-.617-.545.988-1.677,3.581-2.295a8.277,8.277,0,0,1,1.279-.109c1.877-.069,5.438-.022,9.65.084-2.3-3.1-3.849-5-3.849-5,1.564-.823,14.407-4.116,16.219-2.223.482.5,1.567,3.53,2.907,7.72,6.96.264,12.571.513,12.571.513s-3.458-10.5-2.964-11.114,37.9-2.346,51.743,2.3c9.89,3.322,18.968,8.709,22.522,14.576a10.674,10.674,0,0,1,1.484,3.857,26.064,26.064,0,0,0,2.943-4.174C475.07,39.093,469.56,33.391,459.516,28.811Z" transform="translate(-185.904 -10.777)" fill="#3f3f3f"/>
  <path id="Path_2865" data-name="Path 2865" d="M377.551,25.292C387.5,20.567,403.519,16,428.3,16c21.942,0,39.39,3.775,50.892,9.019-6.382-4.666-21.163-12.189-50.13-12.189C394.224,12.833,381.033,22.128,377.551,25.292Z" transform="translate(-205.583 -6.988)" fill="#b1b1b1"/>
  <path id="Path_2866" data-name="Path 2866" d="M471.725,5.683a111.193,111.193,0,0,1,16.552,1.3c2.84.494-2.906-2.1-16.239-2.1s-18.7,1.521-17.474,1.482C454.564,6.362,462.983,5.642,471.725,5.683Z" transform="translate(-247.425 -2.657)" fill="#b2b2b2"/>
  <path id="Path_2867" data-name="Path 2867" d="M7.745,220.989c-.906.741.823,4.281,1.893,3.787S8.431,220.428,7.745,220.989Z" transform="translate(-4.079 -120.302)" fill="#464646"/>
  <path id="Path_2868" data-name="Path 2868" d="M323.108,109.952c0,.99,3.252-.084,4.857-.578,1.329-.409,9.332-3.155,12.055-4.091a3.956,3.956,0,0,0-1.725-1.41C335.108,105.037,323.108,109,323.108,109.952Z" transform="translate(-175.938 -56.56)" fill="#f8f8f8"/>
  <path id="Path_2869" data-name="Path 2869" d="M328.685,105.339c-.055-.077-.109-.15-.164-.222-2.723.936-10.727,3.683-12.055,4.091-1.605.494-4.857,1.568-4.857.578,0-.948,12-4.915,15.187-6.08a2.022,2.022,0,0,0-1.857.191l-6.71,2.2s-15.313,5.372-16.239,4.261c0,0,.4.5.976,1.394.107.167.22.345.337.538a26.038,26.038,0,0,1,3.219,7.865c.113.524.211,1.059.284,1.607.018.129.031.261.046.392a11.268,11.268,0,0,1,1.186-.8,70.9,70.9,0,0,1,15.237-5.9,48.837,48.837,0,0,0,8.449-3.2A16.265,16.265,0,0,0,328.685,105.339Zm-21.851,7.739a3.787,3.787,0,0,1-2.977-.971c-.645-.573-.912-1.19-.57-1.252.571-.1,4.308-.618,4.72-.8s1.852.33,1.893,1.277S307.857,112.939,306.834,113.078Zm18.647.906c-7.039,1.688-17.078,5.449-17.412,6.463-.116.351-.153-.12-.278-.818a9.22,9.22,0,0,0-.216-.952c-.335-1.151-.977-2.267-.37-2.058,0,0,1.976.494,5.763-.824s15.807-5.722,16.136-5.433S332.52,112.3,325.481,113.984Z" transform="translate(-164.439 -56.395)" fill="#a1a1a1"/>
  <path id="Path_2870" data-name="Path 2870" d="M337.749,123.893c-.065-.44-.136-.856-.214-1.256a48.836,48.836,0,0,1-8.449,3.2,70.9,70.9,0,0,0-15.237,5.9,11.27,11.27,0,0,0-1.186.8c.031.276.057.553.077.834a17.639,17.639,0,0,1,0,2.5c0-.37,11.547-4.384,11.547-4.384l7.162-2.47s5-2.346,5.5-2.593S338.024,125.751,337.749,123.893Z" transform="translate(-170.25 -66.778)" fill="#101010"/>
  <path id="Path_2871" data-name="Path 2871" d="M309.379,117.757c-.412.185-4.149.7-4.72.8-.342.062-.075.679.57,1.252a3.787,3.787,0,0,0,2.977.971c1.023-.139,3.108-.8,3.067-1.75S309.791,117.572,309.379,117.757Z" transform="translate(-165.811 -64.101)" fill="#f8f8f8"/>
  <path id="Path_2872" data-name="Path 2872" d="M335.038,118.465c-.329-.288-12.349,4.116-16.136,5.433s-5.763.824-5.763.824c-.606-.209.036.907.37,2.058a9.211,9.211,0,0,1,.216.952c.125.7.163,1.169.278.818.334-1.014,10.373-4.775,17.412-6.463S335.367,118.753,335.038,118.465Z" transform="translate(-170.373 -64.499)" fill="#cbcbcb"/>
  <path id="Path_2873" data-name="Path 2873" d="M641.134,61.314q.014-.29.014-.582S641.144,60.941,641.134,61.314Z" transform="translate(-349.108 -33.07)" fill="#404040" opacity="0.29"/>
  <path id="Path_2874" data-name="Path 2874" d="M632.173,69.736a27.369,27.369,0,0,1-2.243,2.8l.676,17.78a18.926,18.926,0,0,0,3.33-5.738c.556-2.168,1.012-19.2,1.1-22.573A14.864,14.864,0,0,1,632.173,69.736Z" transform="translate(-343.007 -33.765)" fill="#a8a8a8"/>
  <path id="Path_2875" data-name="Path 2875" d="M336.665,72.159c-.4-.97-.754-1.991-1.053-2.915-.112,5.269-.275,14.08-.275,15.511a3.083,3.083,0,0,0,1.05,2.655l1.862-.611c.147-1.729.412-4.311.828-6.551C339.5,77.987,337.923,75.235,336.665,72.159Z" transform="translate(-182.597 -37.705)" fill="#525252"/>
  <path id="Path_2876" data-name="Path 2876" d="M469.848,71.844c-.2.22-.4.44-.6.656a63.992,63.992,0,0,1-6.031,5.438C444.8,92.9,405.913,92.1,405.913,92.1q-6.947-.187-13.143-.731-3.29-.283-6.379-.653-3.817-.459-7.319-1.044c-17.774-2.959-29.513-8.2-35.564-13.955A25.593,25.593,0,0,1,338,68.282a17.834,17.834,0,0,1-1.965-7.55c-.017.374-.053,1.869-.1,3.877.3.923.655,1.944,1.053,2.915,1.258,3.077,2.833,5.828,2.413,8.089-.416,2.241-.681,4.822-.828,6.551l4.847-1.591s1.77-1.358,3.746,1.441a16.669,16.669,0,0,1,3.252,8.171c.275,1.858-.309,2.285-.8,2.532s-5.5,2.593-5.5,2.593,15.437,15.725,61.623,15.725c41.52,0,58.467-13.371,64.776-21.41Z" transform="translate(-182.925 -33.07)" fill="#121212"/>
  <path id="Path_2877" data-name="Path 2877" d="M430.059,93.153a99.4,99.4,0,0,1,7.081,13.911q3.193.436,6.541.756c-.714-2.537-1.76-6.249-2.94-10.36A39.422,39.422,0,0,1,430.059,93.153Z" transform="translate(-234.174 -50.723)" fill="#d6d6d6"/>
  <path id="Path_2878" data-name="Path 2878" d="M468.1,70.974c12.984,0,26.284-3.1,31.03-4.327-8.012-.041-14.585-.467-15.083-1.065-1.235-1.482-2.84-9.756-4.075-10.126s-9.509.247-10.743,1.852,2.974,9.633,0,10.126c-6.451,1.071-14.257.723-21.925-.267q.26.879.522,1.765A113.944,113.944,0,0,0,468.1,70.974Z" transform="translate(-243.563 -30.14)" fill="#646464"/>
  <path id="Path_2879" data-name="Path 2879" d="M405.594,75.709l2.216-.844q-.437-.661-.87-1.3c-3.876-.81-7.449-1.682-10.472-2.483,5.076,6.2,11.305,14.948,14.91,22.757q3.611.679,7.47,1.209a99.4,99.4,0,0,0-7.081-13.911A22.094,22.094,0,0,1,405.594,75.709Z" transform="translate(-215.884 -38.703)" fill="gray"/>
  <path id="Path_2880" data-name="Path 2880" d="M421.746,79.076l-.377.144c1.311,1.98,2.652,4.088,3.958,6.268A39.421,39.421,0,0,0,436.009,89.8c-.733-2.556-1.518-5.266-2.307-7.944C426.62,80.538,421.746,79.076,421.746,79.076Z" transform="translate(-229.442 -43.058)" fill="#fafafa"/>
  <path id="Path_2881" data-name="Path 2881" d="M448.447,82.437c.788,2.678,1.573,5.388,2.307,7.944,10.489,2.691,21.112,2.058,21.3,1.754.309-.494-.494-6.73-.494-6.73l2.223-.123,1.606,6.483a12.434,12.434,0,0,0,4.013-.494l-2.346-5.8h1.3l3.211,5.8c11.361-1.852,23.216-9.2,23.216-9.2l-2.558-1.918c-.835,0-1.662,0-2.472,0-4.746,1.225-18.046,4.327-31.03,4.327A113.944,113.944,0,0,1,448.447,82.437Z" transform="translate(-244.187 -43.644)" fill="#fafafa"/>
  <path id="Path_2882" data-name="Path 2882" d="M416.5,80.236a22.1,22.1,0,0,0,6.175,5.424c-1.306-2.179-2.647-4.287-3.958-6.268Z" transform="translate(-226.793 -43.23)" fill="#fafafa"/>
  <path id="Path_2883" data-name="Path 2883" d="M518.531,96.413s12.342-5.274,9.433-16.676c-2.833.115-5.735.175-8.526.189L522,81.844s-11.855,7.348-23.216,9.2l-3.211-5.8h-1.3l2.346,5.8a12.434,12.434,0,0,1-4.013.494L491,85.055l-2.223.123s.8,6.236.494,6.73c-.113.181-3.927.479-9.209.122.124,2.008.429,6.231.8,6.606C481.36,99.13,502.971,94.437,518.531,96.413Z" transform="translate(-261.402 -43.418)" fill="#777"/>
  <path id="Path_2884" data-name="Path 2884" d="M531.683,74.474c-2.987,1.339-10.319,2.079-18.176,2.4,2.909,11.4-9.433,16.676-9.433,16.676-15.56-1.976-37.171,2.717-37.665,2.223-.375-.375-.679-4.6-.8-6.606a67.911,67.911,0,0,1-12.094-1.875c1.179,4.11,2.226,7.822,2.94,10.36,5.154.49,10.561.759,16.157.759,24,0,43.577-6.931,52.566-13.07a40.211,40.211,0,0,0,7.992-7.008A10.674,10.674,0,0,0,531.683,74.474Z" transform="translate(-246.944 -40.552)" fill="#646464"/>
  <path id="Path_2885" data-name="Path 2885" d="M385.478,67.993c1.406.419,3.1.9,5.006,1.405,3.022.8,6.6,1.673,10.472,2.483q.432.641.87,1.3l.377-.144s4.874,1.462,11.956,2.775q-.261-.886-.521-1.765c7.668.99,15.474,1.338,21.925.267,1.434-.238,1.2-2.227.707-4.4C419.792,72.959,396.024,69.734,385.478,67.993Z" transform="translate(-209.899 -37.023)" fill="#fefefe"/>
  <path id="Path_2886" data-name="Path 2886" d="M466.579,38.727c-13.84-4.65-51.249-2.921-51.743-2.3S417.8,47.538,417.8,47.538s-5.611-.249-12.571-.513c-1.34-4.19-2.425-7.215-2.907-7.72-1.811-1.893-14.655,1.4-16.219,2.223,0,0,1.545,1.9,3.849,5-4.212-.106-7.773-.153-9.65-.084a8.277,8.277,0,0,0-1.279.109c-2.594.618-4.2,1.75-3.581,2.295a37.558,37.558,0,0,0,4.5,1.507c10.546,1.741,34.314,4.966,50.792,1.922-.527-2.338-1.347-4.891-.707-5.723,1.235-1.605,9.509-2.223,10.743-1.852.878.263,1.943,4.517,2.928,7.49l36.405-7.2A64.426,64.426,0,0,0,466.579,38.727Z" transform="translate(-204.363 -19.381)" fill="#d6d6d6"/>
  <path id="Path_2887" data-name="Path 2887" d="M561.858,56.224l-36.405,7.2a9.848,9.848,0,0,0,1.147,2.637c1.185,1.422,36.681,1.875,44.257-1.52C569.063,61.575,565.861,58.737,561.858,56.224Z" transform="translate(-286.118 -30.615)" fill="#fefefe"/>
</svg>
