<?xml version="1.0" encoding="utf-8"?>
<!-- Generator: Adobe Illustrator 25.1.0, SVG Export Plug-In . SVG Version: 6.00 Build 0)  -->
<svg version="1.1" id="Layer_1" xmlns="http://www.w3.org/2000/svg" xmlns:xlink="http://www.w3.org/1999/xlink" x="0px" y="0px"
	 viewBox="0 0 797.8 392.6" style="enable-background:new 0 0 797.8 392.6;" xml:space="preserve">
<style type="text/css">
	.st0{fill:#0071BC;}
	.st1{fill:#1B1464;}
	.st2{fill:#808080;}
	.st3{fill:none;}
	.st4{fill:#333333;}
	.st5{fill:#CCCCCC;}
	.st6{fill:#4D4D4D;}
	.st7{fill:#F2F2F2;}
	.st8{fill:#E6E6E6;}
	.st9{fill:#B3B3B3;}
	.st10{fill:#999999;}
	.st11{fill:#666666;}
	.st12{fill:#1A1A1A;}
	.st13{fill:#FFFFFF;}
	.st14{fill:#006837;}
	.st15{fill:none;stroke:#FFFFFF;stroke-width:0.25;stroke-miterlimit:10;}
	.st16{fill:#C1272D;}
	.st17{fill:#540D1D;}
	.st18{fill:#FFFFFF;stroke:#000000;stroke-miterlimit:10;}
	.st19{fill:#FFFF00;}
	.st20{opacity:0.14;fill:#FFFF00;}
	.st21{fill:#00FFFF;}
	.st22{opacity:0.13;fill:#00FFFF;}
	.st23{opacity:0.28;fill:#ED1C24;}
	.st24{fill:#928C8A;}
	.st25{fill:#7D7974;}
	.st26{fill:#7A746D;}
	.st27{fill:#9B9592;}
	.st28{fill:#726F6B;}
	.st29{fill:#5D5D59;}
	.st30{fill:#898481;}
	.st31{fill:#A29F9F;}
	.st32{fill:#AFA9A7;}
	.st33{fill:#837E7B;}
	.st34{fill:#C3BDBD;}
	.st35{fill:#676662;}
	.st36{fill:#54524E;}
	.st37{fill:#706C66;}
	.st38{fill:#3E3C3A;}
	.st39{fill:#262829;}
	.st40{fill:#494844;}
	.st41{fill:#111416;}
	.st42{fill:#B2B1B1;}
	.st43{fill:#6D5633;}
	.st44{fill:#BCB5B3;}
	.st45{fill:#C09661;}
	.st46{fill:#050709;}
	.st47{fill:#C7C2C2;}
	.st48{fill:#D2CECE;}
	.st49{fill:#ECEDEE;}
	.st50{fill:#E0DEDD;}
	.st51{opacity:0.42;fill:#333333;}
	.st52{opacity:0.4;fill:#F2F2F2;}
	.st53{opacity:8.000000e-02;fill:#FF00FF;}
	.st54{opacity:0.21;fill:#B3B3B3;}
	.st55{fill:none;stroke:#999999;stroke-miterlimit:10;}
	.st56{opacity:0.15;fill:#FF0000;}
	.st57{fill:#FF0000;stroke:#FF0000;stroke-miterlimit:10;}
	.st58{fill:none;stroke:#FF0000;stroke-miterlimit:10;}
	.st59{fill:#FF0000;}
	.st60{opacity:0.15;fill:#CCCCCC;}
	.st61{opacity:0;}
	.st62{opacity:0.21;fill:#808080;}
	.st63{opacity:0.21;fill:#4D4D4D;}
	.st64{opacity:0.21;fill:#CCCCCC;}
	.st65{opacity:0.21;fill:#999999;}
	.st66{fill:none;stroke:#8CC63F;stroke-miterlimit:10;}
	.st67{fill:none;stroke:#39B54A;stroke-miterlimit:10;}
	.st68{fill:none;stroke:#00FF00;stroke-miterlimit:10;}
	.st69{fill:none;stroke:#00FFFF;stroke-miterlimit:10;}
	.st70{opacity:0.35;fill:#FF0000;}
	.st71{opacity:0.31;fill:#FF0000;}
</style>
<g>
	<path class="st5" d="M167.9,288.3c0,2.8,2.2,2.9,2.2,2.9h3.5c0,0-0.3,0.6,0.6,1.2s101.3,5.4,101.3,5.4l-99-37.9
		C176.4,259.9,167.9,285.6,167.9,288.3z"/>
	<path class="st11" d="M647.9,295.7c-5.2-2.9-11.1-7.3-12.3-12.1c-2.3-8.9-2.3-20.4,1.6-31.2c0,0-1.7-0.7-3.7-1.6
		c-6.8,12.8-14.8,28.1-16.7,31.6c0,0,19.7,10.6,21.8,11.5C639.8,294.5,643,295.2,647.9,295.7z"/>
	<path class="st11" d="M651.8,221.5l-0.6-0.6c-3.3,4.9-6.3,9.5-7.8,11.8c-1.5,2.4-5.5,9.7-9.9,18c2,0.9,3.7,1.6,3.7,1.6
		C638.9,247.3,645.4,234.1,651.8,221.5z"/>
	<path class="st6" d="M673.3,278.1L717,263l-65.2-41.5l0,0c-6.4,12.6-12.9,25.8-14.7,30.9L673.3,278.1z"/>
	<path class="st8" d="M736.7,255c-1.2-0.4-2.4-1.1-3.6-1.9c-5-3.2-10.5-8.7-15.3-11.6c-5.9-3.6-25.7-17.3-28.4-19.8
		s-22.1-16.6-26.3-18.7c-1.2,1.7-4.5,6.7-8.1,12.1c-1.3,1.9-2.6,3.8-3.8,5.7l0.6,0.6L717,263l-43.7,15.1l-36.2-25.7
		c-3.8,10.8-3.8,22.3-1.6,31.2c1.2,4.8,7.2,9.1,12.3,12.1c3.5,0.4,7.9,0.6,13,0.6c2.5,0,13.2-3.1,26-7c21-6.4,47.6-15.1,53-16
		c8.6-1.4,10.7-6.4,17.6-6.4C757.4,266.9,742.5,257.2,736.7,255z"/>
	<path class="st2" d="M672.7,186.3c-1.1,3.1-3.3,6.9-5.3,10.2c-2.2,3.7-4.3,6.5-4.3,6.5c4.1,2.2,23.6,16.2,26.3,18.7
		s22.5,16.2,28.4,19.8c4.7,2.9,10.3,8.4,15.3,11.6h30.8c0,0-4-20.7-6.5-38s-11.6-54.7-11.6-54.7l-56.2-4.5c-1.3,2.2-2.3,3.8-2.6,4.2
		C685.8,162.2,675,179.8,672.7,186.3z"/>
	<path class="st6" d="M699.6,139.3l42.5,2.3l-3.7-28.1h-7.3v-2.8l-15.7-0.7c-3.1,6.3-7.4,15.1-10,19.6
		C704.1,131.7,701.9,135.3,699.6,139.3z"/>
	<path class="st5" d="M795.6,276.8l-39.4-172.7l-37.3-1.6c0,0-1.5,3.1-3.5,7.3l15.7,0.7v2.8h7.3l3.7,28.1l-42.5-2.3
		c-3.5,5.8-7.4,12.4-10,16.7l56.2,4.5c0,0,9.1,37.4,11.6,54.7s6.5,38,6.5,38h-30.8c1.3,0.8,2.5,1.5,3.6,1.9
		c5.8,2.2,20.7,11.9,20.7,11.9c-6.9,0-9,4.9-17.6,6.4c-5.4,0.9-32,9.6-53,16l41.1,3.6l27,2.4l37.4,2.7c0,0,3.6,0.7,5-3.4
		S795.6,276.8,795.6,276.8z"/>
	<path class="st6" d="M647.9,295.7c-4.9-0.5-8.1-1.2-9.3-1.8c-2.2-1-21.8-11.5-21.8-11.5c-1.7,3.2-6.3,11.4-10,18.2l125.4,4.6
		l-4.2-12.3l-41.1-3.6c-12.8,3.9-23.5,7-26,7C655.7,296.3,651.4,296,647.9,295.7z"/>
	<path class="st5" d="M732.1,305.2l-125.4-4.6c-3,5.5-5.5,9.9-5.5,9.9s159.9,9.1,161.9,7c2-2.1-0.4-6.8-0.4-6.8l-7.8-15.5l-27-2.4
		L732.1,305.2z"/>
	<path class="st6" d="M612.4,97.4c0,0,55.1,9.4,67,9c0,0,13.6-34.3,21-44.9c-16.3-2.2-39.5-5.1-60.6-7.3c-1-0.1-2.3-0.3-3.9-0.4v0
		C628.7,57.2,612.4,97.4,612.4,97.4z"/>
	<path class="st8" d="M720.2,64.4c-2.8-0.5-10-1.6-19.8-2.9c-7.5,10.5-21,44.9-21,44.9c-11.9,0.4-67-9-67-9s16.3-40.1,23.5-43.6l0,0
		C604.8,50,470.4,31.8,366.2,17.6c-3.5,5.2-45.4,51.7-66.3,94.9c-20.9,43.2-90,87.8-90,87.8L91.1,170.1c0,0,61.2-35.3,82.8-72
		c21.6-36.7,78-96,78-96c-8.9-1.2-14.1-1.9-14.6-1.9c-4.7-0.4-4.8,0-4.8,0c-10,3.3-42.7,50.4-67.2,82.3s-54,56.6-69.4,67.4
		C80.5,160.7,9,196.5,9,196.5c-1.7,0.9,0.2,5.3,0.2,5.3s-9.4,7.4-9.2,9.7c0.2,2.3,15.1,7,38,15.5c22.9,8.5,45.5,10.1,45.5,10.1
		c5.6,1.8,29,5.6,36.5,7.4c7.6,1.8,20,2.7,23.9,4.5c4,1.8,32.4,11,32.4,11l99,37.9c0,0,263.1,94.8,267.2,94.8
		c11.1,0,15.2-8.2,15.2-8.2l43.4-73.9c0,0,2.5-4.5,5.5-9.9c3.7-6.7,8.3-15,10-18.2c1.9-3.5,9.9-18.8,16.7-31.6
		c4.4-8.4,8.4-15.7,9.9-18c1.5-2.4,4.6-7,7.8-11.8c1.3-1.9,2.6-3.8,3.8-5.7c3.7-5.5,7-10.4,8.1-12.1c0,0,2-2.9,4.3-6.5
		c2.2-7.8,5.5-15.8,8.1-24c2.6-8.2,17-38.9,19.7-44.2c2.6-5.3,16.6-39.8,19.2-46.1c2.6-6.2,6.5-14.6,9.4-14.6c0.9,0,1.7,1.4,2.4,3.2
		C726.1,67.1,726.2,65.6,720.2,64.4z M655,113l-5.2,12.6l-45.6-7.8l4.1-11.4L655,113z M646.7,138.2l-2.6,5l-16.3-1.7l-4.3,9.8
		l13.7,2.6l-3.1,7.4l3.8,1.2l-5.5,13h-6.7l-4.9,10.6h4.7l-6.5,12.5l-52.3-8.8c0,0,30.2-58.9,33.6-64.3l46.6,6.5l-3.8,6.1H646.7z
		 M367.6,21.4c0,0,179.6,31.3,201.6,31.3L563,66.4c0,0-91.8-9.7-112.5-16.2c-20.7-6.5-90.2-17.6-90.2-17.6L367.6,21.4z M356.3,40.2
		l52.3,10L398.2,65l-52-10.6C346.2,54.4,351,45.5,356.3,40.2z M319.7,92c10.6-17.6,23.8-32.4,23.8-32.4L401,71.1l14.4-20.9
		l198.4,29.5c0,0-19.1,46.4-33.5,70.6c-14.4,24.1-22.3,43.6-22.3,43.6l-270.7-55.1C287.3,138.8,301.6,121.9,319.7,92z M477.7,188.6
		c-3.1,8.2-55.9,77.8-55.9,77.8s-70.8-20.4-83-24.5c-12.2-4.1-55-21.8-55-21.8s19.2-17.8,34.6-30c15.4-12.2,27.6-29.8,27.6-29.8
		L477.7,188.6z M284,146.3l54.7,13.7l-7.9,8.6l-23.8-4.3l-4.3,4.3l-32.4-8.6L284,146.3z M172.7,225.8c0,0-26.2-7.4-49.9-11.3
		c-23.8-3.8-72.2-22.8-72.2-22.8l26.4-15.4c0,0,29.3,10.3,44.6,12.2c15.4,1.9,76.8,18.4,76.8,18.4L172.7,225.8z M178.2,227.7
		c0,0,70.6-50.4,86.4-63.4l60.5,15.1l-82.8,70.2L178.2,227.7z M304.6,273c-17.3-5.8-57.2-21.6-57.2-21.6l34.6-28.4
		c0,0,56.9,25.6,85,32c28.1,6.5,51.1,13.7,51.1,13.7s-22,26.6-30.6,33.1C387.4,301.8,321.8,278.8,304.6,273z M549.4,351.5
		c0,0-80.6-24.1-97.6-28.4s-52.9-15.1-59.4-18.7c0,0,30.2-29.2,37.1-41.4c0,0,62.6,15.1,76.7,19.4s74.5,17.7,74.5,17.7L549.4,351.5z
		 M588.6,284.6c0,0-141.8-31.8-146.9-34.9l34.2-49.4c0,0,14,6.5,144.7,26L588.6,284.6z M616.1,221.5c0,0-0.5-0.1-1.1-0.2
		c-90.8-13.8-135.5-24.8-135.5-24.8l3.6-6.6c83,18,139.3,23.4,139.3,23.4L616.1,221.5z M559.4,198.6l0.8-2.2l69.3,11l-1.9,2.4
		L559.4,198.6z M652.9,166.3c-3.4,9.9-17,34-17,34l-10-1.6c0,0,10.8-19.4,15.5-30s17.8-37.8,17.8-37.8l9.4,1.2
		C668.5,132,656.3,156.4,652.9,166.3z"/>
	<path class="st10" d="M91.1,170.1l118.8,30.2c0,0,69.1-44.6,90-87.8c20.9-43.2,62.8-89.6,66.3-94.9C316.3,10.8,273.4,5,251.9,2.1
		c0,0-56.4,59.3-78,96C152.3,134.8,91.1,170.1,91.1,170.1z M210.1,195.3l-50-13.5c0,0,36.2-21.1,45-31.3c0,0,37.1,9.5,46.6,11.7
		C251.6,162.2,232.7,181.1,210.1,195.3z M221.6,43.4l48.8,9.7c-4,4.5-38.2,53.2-38.2,53.2l-51.4-13.8
		C187.8,81.6,221.6,43.4,221.6,43.4z"/>
	<path class="st2" d="M723.7,67.6c-2.9,0-6.7,8.4-9.4,14.6s-16.6,40.8-19.2,46.1c-2.6,5.3-17,36-19.7,44.2c-2.6,8.2-5.9,16.2-8.1,24
		c2-3.3,4.2-7.2,5.3-10.2c2.3-6.5,13.1-24.1,14.4-26.1c0.3-0.5,1.3-2,2.6-4.2l-3.3-0.3l3.3,0.3c2.5-4.2,6.5-10.8,10-16.7l-2.8-0.1
		l2.8,0.1c2.4-4,4.5-7.6,5.8-9.9c2.6-4.4,7-13.3,10-19.6l-4.7-0.2l4.7,0.2c2-4.2,3.5-7.3,3.5-7.3s7.6-22.8,7.2-28.7
		c-0.1-1.1-0.1-2.1,0-3C725.4,69,724.7,67.6,723.7,67.6z"/>
	<path class="st9" d="M264.6,164.3c-15.8,13-86.4,63.4-86.4,63.4l64.1,22l82.8-70.2L264.6,164.3z"/>
	<polygon class="st2" points="307.1,164.3 330.8,168.6 338.8,160 284,146.3 270.4,160 302.8,168.6 	"/>
	<path class="st6" d="M318.4,190c-15.4,12.2-34.6,30-34.6,30s42.7,17.8,55,21.8c12.2,4.1,83,24.5,83,24.5s52.8-69.6,55.9-77.8
		L346,160.2C346,160.2,333.7,177.8,318.4,190z"/>
	<path class="st2" d="M479.5,196.5c0,0,44.7,11,135.5,24.8c0.5,0.1,1.1,0.2,1.1,0.2l6.3-8.2c0,0-56.3-5.4-139.3-23.4L479.5,196.5z"
		/>
	<path class="st10" d="M580.3,150.3c14.4-24.1,33.5-70.6,33.5-70.6L415.4,50.2L401,71.1l-57.6-11.5c0,0-13.2,14.8-23.8,32.4
		c-18,30-32.4,46.8-32.4,46.8L558,193.8C558,193.8,565.9,174.4,580.3,150.3z"/>
	<path class="st6" d="M563,66.4l6.1-13.7c-22,0-201.6-31.3-201.6-31.3l-7.2,11.2c0,0,69.5,11.2,90.2,17.6
		C471.2,56.7,563,66.4,563,66.4z"/>
	<path class="st10" d="M475.9,200.3l-34.2,49.4c5.1,3.1,146.9,34.9,146.9,34.9l32-58.3C490,206.8,475.9,200.3,475.9,200.3z"/>
	<path class="st9" d="M429.5,263c-6.8,12.2-37.1,41.4-37.1,41.4c6.5,3.6,42.5,14.4,59.4,18.7c16.9,4.3,97.6,28.4,97.6,28.4
		l31.3-51.4c0,0-60.5-13.4-74.5-17.7C492.1,278.1,429.5,263,429.5,263z"/>
	<path class="st9" d="M418,268.7c0,0-23-7.2-51.1-13.7c-28.1-6.5-85-32-85-32l-34.6,28.4c0,0,40,15.8,57.2,21.6
		c17.3,5.8,82.8,28.8,82.8,28.8C396,295.4,418,268.7,418,268.7z"/>
	<polygon class="st2" points="604.2,117.8 649.8,125.6 655,113 608.3,106.4 	"/>
	<path class="st10" d="M600.1,125.6c-3.4,5.4-33.6,64.3-33.6,64.3l52.3,8.8l6.5-12.5h-4.7l4.9-10.6h6.7l5.5-13l-3.8-1.2l3.1-7.4
		l-13.7-2.6l4.3-9.8l16.3,1.7l2.6-5h-3.8l3.8-6.1L600.1,125.6z"/>
	<polygon class="st6" points="559.4,198.6 627.7,209.9 629.6,207.5 560.3,196.5 	"/>
	<path class="st2" d="M625.9,198.6l10,1.6c0,0,13.6-24.1,17-34s15.7-34.3,15.7-34.3l-9.4-1.2c0,0-13.1,27.2-17.8,37.8
		C636.7,179.3,625.9,198.6,625.9,198.6z"/>
	<path class="st10" d="M121.6,188.6c-15.4-1.9-44.6-12.2-44.6-12.2l-26.4,15.4c0,0,48.5,19,72.2,22.8c23.8,3.8,49.9,11.3,49.9,11.3
		l25.7-18.8C198.4,207,136.9,190.5,121.6,188.6z"/>
	<path class="st6" d="M160,181.8l50,13.5c22.7-14.2,41.6-33.1,41.6-33.1c-9.5-2.2-46.6-11.7-46.6-11.7
		C196.2,160.7,160,181.8,160,181.8z"/>
	<path class="st6" d="M270.4,53.1l-48.8-9.7c0,0-33.8,38.2-40.7,49.1l51.4,13.8C232.2,106.2,266.4,57.6,270.4,53.1z"/>
	<path class="st2" d="M408.6,50.2l-52.3-10c-5.3,5.3-10.1,14.2-10.1,14.2l52,10.6L408.6,50.2z"/>
</g>
</svg>
