<?xml version="1.0" encoding="utf-8"?>
<!-- Generator: Adobe Illustrator 25.1.0, SVG Export Plug-In . SVG Version: 6.00 Build 0)  -->
<svg version="1.1" xmlns="http://www.w3.org/2000/svg" xmlns:xlink="http://www.w3.org/1999/xlink" x="0px" y="0px"
	 viewBox="0 0 565.9 619.9" style="enable-background:new 0 0 565.9 619.9;" xml:space="preserve">
<g id="Night_Stand">
	<path style="fill:none;" d="M26.2,208.6h0.5c-0.1-0.1-0.3-0.2-0.4-0.3C26.3,208.4,26.2,208.5,26.2,208.6z"/>
	<path style="fill:none;" d="M539.2,208.6h1.7c-0.2-0.5-0.4-1-0.6-1.4C540.2,207.7,539.8,208.2,539.2,208.6z"/>
	<path d="M556.2,46.8H9.7c0,0-0.7,5.9,3.4,5.9h539.8C557,52.6,556.2,46.8,556.2,46.8z"/>
	<path style="fill:#0C0C0A;" d="M552.9,52.6H13.1c0,0,0,5.4,3.5,5.4h532.9C552.9,58.1,552.9,52.6,552.9,52.6z"/>
	<polygon style="fill:#0E0908;" points="482.1,335.6 484,336.7 484.4,336.7 484.4,334.4 429.8,334.4 424.4,335.3 429.8,334.4 
		141,334.4 149.8,335.2 141,334.4 83.9,334.4 83.9,336.7 86.6,335.2 83.9,336.7 484,336.7 	"/>
	<rect x="4.6" y="25.4" style="fill:#16100D;" width="556.7" height="3.8"/>
	<polygon style="fill:#423B2D;" points="484,355 484,336.7 83.9,336.7 82.6,336.7 82.6,355 	"/>
	<polygon style="fill:#3E3D36;" points="561.3,29.2 4.6,29.2 0,33.3 565.9,33.3 	"/>
	<rect y="33.3" style="fill:#272516;" width="565.9" height="9.5"/>
	<path style="fill:#010200;" d="M561.9,46.8c1.4,0,4-3.9,4-3.9H0c0,0,2.6,3.9,4,3.9c1.4,0,5.7,0,5.7,0h546.6
		C556.2,46.8,560.5,46.8,561.9,46.8z"/>
	<path style="fill:#040000;" d="M484,355H82.6v-18.2h-1.4v19v121.8H484V355z M482.1,475.2h-35c-11.4,0.6-21.7,1.2-21.7,1.2
		s10.3-0.6,21.7-1.2H159.9c14.9,0.6,26.1,1.1,26.1,1.1s-11.3-0.5-26.1-1.1H83.8V359.5c0,0-0.4-3.2,3.2-3.2s395.2,2.7,395.2,2.7
		V475.2z"/>
	<path style="fill:#58503C;" d="M29.1,205.2h509.7c0,0,0.8,0.7,1.6,2.1c0.1-0.2,0.1-0.4,0.1-0.6c0-1.4-1.1-4-1.1-4l-10.1-11.6v3.9
		h-43.9v1.6V195H80.8v1.9h451.6l2.6,2.6H31.9l2.8-2.6h46.1V195H36.6v-3.9l-10.1,11.7c0,0-1.1,2.6-1.1,4c0,0.5,0.3,1.1,0.9,1.6
		C27,207.1,28,205.7,29.1,205.2z M30.3,201.7h507.1l0.5,1.1H29.6L30.3,201.7z"/>
	<polygon style="fill:#24261C;" points="485.5,195 529.3,195 529.3,191.1 529.3,191.1 529.3,94.9 485.5,94.9 	"/>
	<polygon style="fill:#24261C;" points="80.8,195 80.8,94.9 36.6,94.9 36.6,191.1 36.6,195 	"/>
	<path style="fill:#2C2218;" d="M540.4,207.3c-0.7-1.4-1.6-2.1-1.6-2.1H29.1c-1,0.5-2,1.9-2.7,3.1c0.1,0.1,0.2,0.2,0.4,0.3h512.5
		C539.8,208.2,540.2,207.7,540.4,207.3z"/>
	<polygon style="fill:#44423E;" points="26.5,505.2 538.4,505.2 532.8,498.6 33.1,498.6 	"/>
	<polygon style="fill:#060300;" points="36.2,489.8 33.1,498.6 36.2,495.5 	"/>
	<path style="fill:#090703;" d="M537.8,91.8v-2c4.5,0,5.6-3.9,5.6-3.9H22.6c0,0,1.1,3.9,5.6,3.9v2h8.5h492.7H537.8z"/>
	<path style="fill:#373632;" d="M549.4,85.9V58.1H16.5v27.8h6h520.8H549.4z M26.1,81h-4.3V65.4H23c0,0,0.1,0.9,0.9,0.9
		s0.9-0.9,0.9-0.9h1.3V81z M36.1,81h-4.3V65.4H33c0,0,0.1,0.9,0.9,0.9s0.9-0.9,0.9-0.9h1.3V81z M46.1,81h-4.3V65.4H43
		c0,0,0.1,0.9,0.9,0.9s0.9-0.9,0.9-0.9h1.3V81z M56,81h-4.3V65.4h1.2c0,0,0.1,0.9,0.9,0.9s0.9-0.9,0.9-0.9H56V81z M66,81h-4.3V65.4
		h1.2c0,0,0.1,0.9,0.9,0.9c0.8,0,0.9-0.9,0.9-0.9H66V81z M75.9,81h-4.3V65.4h1.2c0,0,0.1,0.9,0.9,0.9s0.9-0.9,0.9-0.9h1.3V81z
		 M85.9,81h-4.3V65.4h1.2c0,0,0.1,0.9,0.9,0.9s0.9-0.9,0.9-0.9h1.3V81z M95.9,81h-4.3V65.4h1.2c0,0,0.1,0.9,0.9,0.9s0.9-0.9,0.9-0.9
		h1.3V81z M105.8,81h-4.3V65.4h1.2c0,0,0.1,0.9,0.9,0.9s0.9-0.9,0.9-0.9h1.3V81z M115.8,81h-4.3V65.4h1.2c0,0,0.1,0.9,0.9,0.9
		s0.9-0.9,0.9-0.9h1.3V81z M125.7,81h-4.3V65.4h1.2c0,0,0.1,0.9,0.9,0.9s0.9-0.9,0.9-0.9h1.3V81z M135.7,81h-4.3V65.4h1.2
		c0,0,0.1,0.9,0.9,0.9s0.9-0.9,0.9-0.9h1.3V81z M145.7,81h-4.3V65.4h1.2c0,0,0.1,0.9,0.9,0.9s0.9-0.9,0.9-0.9h1.3V81z M155.6,81
		h-4.3V65.4h1.2c0,0,0.1,0.9,0.9,0.9s0.9-0.9,0.9-0.9h1.3V81z M165.6,81h-4.3V65.4h1.2c0,0,0.1,0.9,0.9,0.9s0.9-0.9,0.9-0.9h1.3V81z
		 M175.5,81h-4.3V65.4h1.2c0,0,0.1,0.9,0.9,0.9s0.9-0.9,0.9-0.9h1.3V81z M185.5,81h-4.3V65.4h1.2c0,0,0.1,0.9,0.9,0.9
		s0.9-0.9,0.9-0.9h1.3V81z M195.5,81h-4.3V65.4h1.2c0,0,0.1,0.9,0.9,0.9s0.9-0.9,0.9-0.9h1.3V81z M205.4,81h-4.3V65.4h1.2
		c0,0,0.1,0.9,0.9,0.9c0.8,0,0.9-0.9,0.9-0.9h1.3V81z M215.4,81h-4.3V65.4h1.2c0,0,0.1,0.9,0.9,0.9s0.9-0.9,0.9-0.9h1.3V81z
		 M225.3,81h-4.3V65.4h1.2c0,0,0.1,0.9,0.9,0.9s0.9-0.9,0.9-0.9h1.3V81z M235.3,81H231V65.4h1.2c0,0,0.1,0.9,0.9,0.9
		s0.9-0.9,0.9-0.9h1.3V81z M245.3,81H241V65.4h1.2c0,0,0.1,0.9,0.9,0.9s0.9-0.9,0.9-0.9h1.3V81z M255.2,81h-4.3V65.4h1.2
		c0,0,0.1,0.9,0.9,0.9s0.9-0.9,0.9-0.9h1.3V81z M265.2,81h-4.3V65.4h1.2c0,0,0.1,0.9,0.9,0.9s0.9-0.9,0.9-0.9h1.3V81z M275.1,81
		h-4.3V65.4h1.2c0,0,0.1,0.9,0.9,0.9s0.9-0.9,0.9-0.9h1.3V81z M285.1,81h-4.3V65.4h1.2c0,0,0.1,0.9,0.9,0.9s0.9-0.9,0.9-0.9h1.3V81z
		 M295.1,81h-4.3V65.4h1.2c0,0,0.1,0.9,0.9,0.9s0.9-0.9,0.9-0.9h1.3V81z M305,81h-4.3V65.4h1.2c0,0,0.1,0.9,0.9,0.9s0.9-0.9,0.9-0.9
		h1.3V81z M315,81h-4.3V65.4h1.2c0,0,0.1,0.9,0.9,0.9c0.8,0,0.9-0.9,0.9-0.9h1.3V81z M324.9,81h-4.3V65.4h1.2c0,0,0.1,0.9,0.9,0.9
		s0.9-0.9,0.9-0.9h1.3V81z M334.9,81h-4.3V65.4h1.2c0,0,0.1,0.9,0.9,0.9s0.9-0.9,0.9-0.9h1.3V81z M344.9,81h-4.3V65.4h1.2
		c0,0,0.1,0.9,0.9,0.9s0.9-0.9,0.9-0.9h1.3V81z M354.8,81h-4.3V65.4h1.2c0,0,0.1,0.9,0.9,0.9s0.9-0.9,0.9-0.9h1.3V81z M364.8,81
		h-4.3V65.4h1.2c0,0,0.1,0.9,0.9,0.9s0.9-0.9,0.9-0.9h1.3V81z M374.7,81h-4.3V65.4h1.2c0,0,0.1,0.9,0.9,0.9s0.9-0.9,0.9-0.9h1.3V81z
		 M384.7,81h-4.3V65.4h1.2c0,0,0.1,0.9,0.9,0.9s0.9-0.9,0.9-0.9h1.3V81z M394.7,81h-4.3V65.4h1.2c0,0,0.1,0.9,0.9,0.9
		s0.9-0.9,0.9-0.9h1.3V81z M404.6,81h-4.3V65.4h1.2c0,0,0.1,0.9,0.9,0.9s0.9-0.9,0.9-0.9h1.3V81z M414.6,81h-4.3V65.4h1.2
		c0,0,0.1,0.9,0.9,0.9s0.9-0.9,0.9-0.9h1.3V81z M424.5,81h-4.3V65.4h1.2c0,0,0.1,0.9,0.9,0.9s0.9-0.9,0.9-0.9h1.3V81z M434.5,81
		h-4.3V65.4h1.2c0,0,0.1,0.9,0.9,0.9s0.9-0.9,0.9-0.9h1.3V81z M444.5,81h-4.3V65.4h1.2c0,0,0.1,0.9,0.9,0.9s0.9-0.9,0.9-0.9h1.3V81z
		 M454.4,81h-4.3V65.4h1.2c0,0,0.1,0.9,0.9,0.9c0.8,0,0.9-0.9,0.9-0.9h1.3V81z M464.4,81h-4.3V65.4h1.2c0,0,0.1,0.9,0.9,0.9
		s0.9-0.9,0.9-0.9h1.3V81z M474.3,81h-4.3V65.4h1.2c0,0,0.1,0.9,0.9,0.9s0.9-0.9,0.9-0.9h1.3V81z M484.3,81H480V65.4h1.2
		c0,0,0.1,0.9,0.9,0.9s0.9-0.9,0.9-0.9h1.3V81z M494.3,81H490V65.4h1.2c0,0,0.1,0.9,0.9,0.9s0.9-0.9,0.9-0.9h1.3V81z M504.2,81h-4.3
		V65.4h1.2c0,0,0.1,0.9,0.9,0.9s0.9-0.9,0.9-0.9h1.3V81z M514.2,81h-4.3V65.4h1.2c0,0,0.1,0.9,0.9,0.9s0.9-0.9,0.9-0.9h1.3V81z
		 M524.1,81h-4.3V65.4h1.2c0,0,0.1,0.9,0.9,0.9s0.9-0.9,0.9-0.9h1.3V81z M534.1,81h-4.3V65.4h1.2c0,0,0.1,0.9,0.9,0.9
		s0.9-0.9,0.9-0.9h1.3V81z M539.8,65.4h1.2c0,0,0.1,0.9,0.9,0.9s0.9-0.9,0.9-0.9h1.3V81h-4.3V65.4z"/>
	<polygon style="fill:#211D0C;" points="560.8,551.4 560.8,541.1 557.6,537.4 8.4,537.4 5.1,541.3 5.1,551.4 16.4,551.4 
		549.5,551.4 	"/>
	<path style="fill:#49484F;" d="M537.5,566.9c1.2,2.4,2.7,2.6-0.8,4.4c-3.5,1.8-5.5,3.7-5.8,2.3c-0.3-1.4,1.9-2.7-2.7-2.7
		c-4.6,0-6.6,2.7-5.1,3.2s5.4-0.2,5.2,0.6s-0.2,4.6-8.7,4.6s-18.8-4.8-19.3-2s1.2,3.3-1.5,2.5c-2.7-0.8-8.5-2.8-8.3-8
		c0.2-5.2-9.2,3.2-6.9,6c2.3,2.9,10.3,3.5,13.7,4.2c3.3,0.7,20.1,3.6,25.7,2.4c5.6-1.2,18.5-6.8,20.3-8.6c1.7-1.8,1.7-0.7,1.4-0.1
		c-0.3,0.6-16,9.3-21.1,10.5c-6.6,1.6-9.2,3.1-2.5,3.1c6.7,0,30.5-2.1,36.3,4.9c3.5,4.3,5.9,0.7,6.9-4.1
		c-2.3-16.8-19.2-20.5-19.2-20.5s-2.8-1.7-4-2.6c-1.2-0.9-2.8-3.3-2.8-3.3v-1.1C537.6,563.7,536.7,565.3,537.5,566.9z"/>
	<path style="fill:#363730;" d="M556.4,523.1c-0.4-0.4-0.9-0.8-1.3-1.2c1.6,2.8,2.2,5,2.2,5c1.1,1.1,0,3.4,0,3.4s1.1-2.3,0-3.4H10.3
		l-2.2-0.3l-3,7.6h555.7L556.4,523.1z"/>
	<rect x="81.2" y="477.5" style="fill:#1E1B11;" width="402.8" height="17.9"/>
	<path style="fill:#030200;" d="M527.2,610c-27-1.3-39.1-4.4-41.8-9.9c-2.7-5.5,8.3-11.1,16-8.4s15.1,6.1,19.1,4.6
		c4-1.5,13.7-3.9,18.5-3.3c4.9,0.5,11.2,1.1,13.1,3.3c1.7,1.9,6.2,4.3,12.2-1c0-0.4,0-0.7,0-1.1c0-1.4-0.1-2.7-0.3-3.9
		c-1,4.8-3.4,8.4-6.9,4.1c-5.8-7.1-29.6-4.9-36.3-4.9c-6.7,0-4-1.4,2.5-3.1c5.1-1.2,20.8-9.9,21.1-10.5c0.3-0.6,0.3-1.7-1.4,0.1
		c-1.7,1.8-14.7,7.4-20.3,8.6c-5.6,1.2-22.3-1.7-25.7-2.4c-3.3-0.7-11.4-1.3-13.7-4.2c-2.3-2.9,7.1-11.3,6.9-6
		c-0.2,5.2,5.6,7.2,8.3,8c2.7,0.8,1.1,0.3,1.5-2.5s10.7,2,19.3,2s8.5-3.8,8.7-4.6s-3.8-0.1-5.2-0.6s0.5-3.2,5.1-3.2
		c4.6,0,2.4,1.3,2.7,2.7c0.3,1.4,2.3-0.4,5.8-2.3c3.5-1.8,2-2,0.8-4.4c-0.8-1.6,0.1-3.3,0.8-4.2v-3.3c0,0-7.8,1.8-20.3,1.8
		c-12.5,0-20.8-2.1-20.8-2.1v4.7l-3.5,1.9c-4.2,3-22.9,3.6-22.9,23.8c0,20.2,26.2,30.5,45.8,30.5c18.4,0,44.1-4.9,47.4-22
		C558.6,602.8,546.3,610.9,527.2,610z"/>
	<polygon style="fill:#3D3C35;" points="519.1,0 283,0 46.8,0 4.6,25.4 561.3,25.4 	"/>
	<path style="fill:#292822;" d="M552.2,596.3c-2-2.2-8.3-2.8-13.1-3.3c-4.9-0.5-14.6,1.8-18.5,3.3c-4,1.5-11.3-1.9-19.1-4.6
		s-18.7,2.9-16,8.4c2.7,5.5,14.8,8.7,41.8,9.9c19.1,0.9,31.4-7.2,36.9-12.1c0.2-0.8,0.3-1.7,0.3-2.6
		C558.4,600.6,553.9,598.2,552.2,596.3z M505.1,604.3c-0.9,0-11.2-1.4-15.1-3.2c-4-1.8-1.4-4-1.4-4s1.3-2.7,6.1-2.5
		c4.9,0.2,9.2,0.7,11.7,3.8C508.9,601.4,506,604.3,505.1,604.3z M541.4,604.3c-5-0.4-10.1-0.2-11.7-3.2c-0.8-1.4,5.2-3.8,8.6-4.8
		s6.3,0,7.4,2.4C546.8,601,546.5,604.6,541.4,604.3z"/>
	<path style="fill:#070504;" d="M538.3,559.3c0,0,1.3,0,3.9,0c2.6,0,7.4-7.9,7.4-7.9H16.4c0,0,4.8,7.9,7.4,7.9c2.6,0,3.9,0,3.9,0
		l34.2-0.3c0.8-0.9,0.9-1.5,0.9-1.5s-0.1,0.7-0.9,1.5l6.8-0.1c0,0,9.1-3.8,9.1-6.9H283h205.2c0,3.1,9.1,6.9,9.1,6.9
		s8.3,2.1,20.8,2.1C530.5,561.1,538.3,559.3,538.3,559.3z"/>
	<path style="fill:#030603;" d="M52.8,562.5c-9.5,1.3-22.9-0.8-22.9-0.8s-2.8,0.2-0.6,4.2c1.4,2.6,5.2,2.7,7.8,2.7
		c2.3,0,4.5-0.6,6.9-0.2c0.5,0.1,1,0.2,1.4,0.5c0.8,0.6,0.9,1.7,1,2.7c0,0.6,0.1,1.3-0.3,1.8c-0.5,0.6-1.4,0.7-2.3,0.6
		c-2.4-0.1-5.3-0.9-7.6-0.1c-0.9,0.3-2.6,1.7-1.9,2.8c0.3,0.5,0.9,0.6,1.4,0.6c1.9,0.2,3.8,0,5.6,0.3c2.3,0.4,4.3,1.7,6.6,1.9
		c4.2,0.4,7.1-3.1,11.1-3.1c2.4,0,3.2-3.5,1.2-3.5c-3.2,0-6.2,1.7-9.2-0.1c-0.3-0.2-0.6-0.4-0.5-0.7c0-0.2,0.2-0.4,0.3-0.5
		c1.9-2,4.9-2.8,7.5-2c1.5,0.4,2.9,1.4,4.4,1.9c2,0.7,9.5,0.5,4.3,4.3c-0.9,0.7-1.9,1.3-2.4,2.3c3.2-0.4,6.1-2.5,9.2-0.3
		c1.4,1,2.4,2.4,3.4,3.8c0.1,0.2,0.3,0.5,0.2,0.7c-0.1,0.3-0.5,0.4-0.8,0.5c-2,0.3-4,0.4-6,0.2c-1.5-0.2-3.1-0.5-4.6-0.4
		c-1.7,0.1-5.2,1.5-4.1,3.8c0.6,1.3,2.8,1.4,4,1.5c3.3,0.3,7.4-0.9,10.5,0.3c3,1.1,5.9,5.5,4.3,8.6c-1.2,2.3,4.6,0.1,7.2-4.8
		c2.6-4.9,3.1-10.8,4-9.4c2,3.2,1.7,8.7,0.7,12c-2.7,8.6-12.8,10.1-20.3,12.5c-0.9,0.3-1.9,0.6-2.6,1.3c-1.8,1.8-1.1,5.3-3.3,6.6
		c-1.4,0.8-3.5,0-4.1-1.5c-0.5-1.2-0.4-2.6-1.1-3.6c-1.4-2.1-3.9-1.3-5.9-0.9c-3.1,0.6-6.4,0.9-9.6,1.2c-11.1,0.9-22.4,1-32.9-3
		c-3.8-1.4-7.5-3.9-9.3-7.5c-1.4-2.8-1.6-6.1-1.2-9.2c1.1-8.3,6.9-13.4,12.7-18.5c-5.7,2.9-13.7,9.3-13.7,22.3
		c0,20.2,28.1,25.7,47.8,25.7S95,609.6,95,589.4c0-20.2-18.7-20.8-22.9-23.8l-3.5-1.9V559l-6.8,0.1
		C60.7,560.2,58.3,561.7,52.8,562.5z"/>
	<path style="fill:#302717;" d="M14,517.5h-2.3l-3.6,9.1l2.2,0.3C10.6,523.4,12.2,520.1,14,517.5z"/>
	<polygon style="fill:#9F9888;" points="557.6,537.4 560.8,541.1 560.8,534.2 5.1,534.2 5.1,541.3 8.4,537.4 	"/>
	<path style="fill:#050807;" d="M78.7,336.7h2.5v-1.6v1.6h1.4v-1.6v1.6h1.3v-2.3V217.1h48.4l24.4-1.3l-24.4,1.3h347.8
		c-1-1-1.9-1.3-1.9-1.3s0.9,0.3,1.9,1.3h4.2v-2h45.3c0-1.3,0-2,0-2h-451V336.7z"/>
	<path style="fill:#16180E;" d="M19.6,511.2h524.3c5.6,2.3,9.1,7,11.2,10.7c0.4,0.4,0.9,0.8,1.3,1.2l-26.7-66.8v33.4l3.1,8.9
		l5.6,6.6H26.5l6.6-6.6l-4.4-4.1l4.4,4.1l3.1-8.8v-33.5l-24.5,61.2H14C16.6,513.7,19.6,511.2,19.6,511.2z"/>
	<path style="fill:#28281C;" d="M37.4,486.4l-1.2,3.4v5.7l2.6-2.4l-2.6,2.4h44.9v-17.9l-2.6-2.3l2.6,2.3V355.7v-19h-2.5V213.1H36.2
		c0.1,0.3,0,243.2,0,243.2v33.5L37.4,486.4z"/>
	<path style="fill:#28281C;" d="M484.4,217.1v117.4v2.3H484V355h1.9H484v122.6l4.3-3.4l-4.3,3.4v17.9h45.7v-5.8l-1.6-4.4l1.6,4.4
		v-33.4c0,0-0.1-218.2,0-241.3h-45.3V217.1z"/>
	<polygon style="fill:#121108;" points="484,495.5 484,498.2 484,495.5 81.2,495.5 81.2,497.5 81.2,495.5 36.2,495.5 33.1,498.6 
		37.9,497.3 33.1,498.6 532.8,498.6 529.2,497.3 532.8,498.6 529.7,489.7 529.7,495.5 	"/>
	<path d="M78.7,211.3v1.7h451c0.1-0.3,2.7-3.3,5.7-3.3c1.6,0,2.9-0.5,3.8-1.1H26.7c0.9,0.7,2.2,1.1,3.8,1.1c3,0,5.6,3,5.7,3.3h42.4
		V211.3z"/>
	<path style="fill:#0B0907;" d="M24,66.4c-0.8,0-0.9-0.9-0.9-0.9h-1.2V81h4.3V65.4h-1.3C24.8,65.4,24.8,66.4,24,66.4z"/>
	<path style="fill:#0B0907;" d="M33.9,66.4c-0.8,0-0.9-0.9-0.9-0.9h-1.2V81h4.3V65.4h-1.3C34.8,65.4,34.7,66.4,33.9,66.4z"/>
	<path style="fill:#0B0907;" d="M43.9,66.4c-0.8,0-0.9-0.9-0.9-0.9h-1.2V81h4.3V65.4h-1.3C44.8,65.4,44.7,66.4,43.9,66.4z"/>
	<path style="fill:#0B0907;" d="M53.9,66.4c-0.8,0-0.9-0.9-0.9-0.9h-1.2V81H56V65.4h-1.3C54.7,65.4,54.7,66.4,53.9,66.4z"/>
	<path style="fill:#0B0907;" d="M63.8,66.4c-0.8,0-0.9-0.9-0.9-0.9h-1.2V81H66V65.4h-1.3C64.7,65.4,64.6,66.4,63.8,66.4z"/>
	<path style="fill:#0B0907;" d="M73.8,66.4c-0.8,0-0.9-0.9-0.9-0.9h-1.2V81h4.3V65.4h-1.3C74.6,65.4,74.6,66.4,73.8,66.4z"/>
	<path style="fill:#0B0907;" d="M83.7,66.4c-0.8,0-0.9-0.9-0.9-0.9h-1.2V81h4.3V65.4h-1.3C84.6,65.4,84.5,66.4,83.7,66.4z"/>
	<path style="fill:#0B0907;" d="M93.7,66.4c-0.8,0-0.9-0.9-0.9-0.9h-1.2V81h4.3V65.4h-1.3C94.6,65.4,94.5,66.4,93.7,66.4z"/>
	<path style="fill:#0B0907;" d="M103.7,66.4c-0.8,0-0.9-0.9-0.9-0.9h-1.2V81h4.3V65.4h-1.3C104.5,65.4,104.5,66.4,103.7,66.4z"/>
	<path style="fill:#0B0907;" d="M113.6,66.4c-0.8,0-0.9-0.9-0.9-0.9h-1.2V81h4.3V65.4h-1.3C114.5,65.4,114.4,66.4,113.6,66.4z"/>
	<path style="fill:#0B0907;" d="M123.6,66.4c-0.8,0-0.9-0.9-0.9-0.9h-1.2V81h4.3V65.4h-1.3C124.4,65.4,124.4,66.4,123.6,66.4z"/>
	<path style="fill:#0B0907;" d="M133.5,66.4c-0.8,0-0.9-0.9-0.9-0.9h-1.2V81h4.3V65.4h-1.3C134.4,65.4,134.3,66.4,133.5,66.4z"/>
	<path style="fill:#0B0907;" d="M143.5,66.4c-0.8,0-0.9-0.9-0.9-0.9h-1.2V81h4.3V65.4h-1.3C144.4,65.4,144.3,66.4,143.5,66.4z"/>
	<path style="fill:#0B0907;" d="M153.5,66.4c-0.8,0-0.9-0.9-0.9-0.9h-1.2V81h4.3V65.4h-1.3C154.3,65.4,154.3,66.4,153.5,66.4z"/>
	<path style="fill:#0B0907;" d="M163.4,66.4c-0.8,0-0.9-0.9-0.9-0.9h-1.2V81h4.3V65.4h-1.3C164.3,65.4,164.2,66.4,163.4,66.4z"/>
	<path style="fill:#0B0907;" d="M173.4,66.4c-0.8,0-0.9-0.9-0.9-0.9h-1.2V81h4.3V65.4h-1.3C174.2,65.4,174.2,66.4,173.4,66.4z"/>
	<path style="fill:#0B0907;" d="M183.3,66.4c-0.8,0-0.9-0.9-0.9-0.9h-1.2V81h4.3V65.4h-1.3C184.2,65.4,184.1,66.4,183.3,66.4z"/>
	<path style="fill:#0B0907;" d="M193.3,66.4c-0.8,0-0.9-0.9-0.9-0.9h-1.2V81h4.3V65.4h-1.3C194.2,65.4,194.1,66.4,193.3,66.4z"/>
	<path style="fill:#0B0907;" d="M203.3,66.4c-0.8,0-0.9-0.9-0.9-0.9h-1.2V81h4.3V65.4h-1.3C204.1,65.4,204.1,66.4,203.3,66.4z"/>
	<path style="fill:#0B0907;" d="M213.2,66.4c-0.8,0-0.9-0.9-0.9-0.9h-1.2V81h4.3V65.4h-1.3C214.1,65.4,214,66.4,213.2,66.4z"/>
	<path style="fill:#0B0907;" d="M223.2,66.4c-0.8,0-0.9-0.9-0.9-0.9h-1.2V81h4.3V65.4H224C224,65.4,224,66.4,223.2,66.4z"/>
	<path style="fill:#0B0907;" d="M233.1,66.4c-0.8,0-0.9-0.9-0.9-0.9H231V81h4.3V65.4H234C234,65.4,233.9,66.4,233.1,66.4z"/>
	<path style="fill:#0B0907;" d="M243.1,66.4c-0.8,0-0.9-0.9-0.9-0.9H241V81h4.3V65.4H244C244,65.4,243.9,66.4,243.1,66.4z"/>
	<path style="fill:#0B0907;" d="M253.1,66.4c-0.8,0-0.9-0.9-0.9-0.9h-1.2V81h4.3V65.4h-1.3C253.9,65.4,253.9,66.4,253.1,66.4z"/>
	<path style="fill:#0B0907;" d="M263,66.4c-0.8,0-0.9-0.9-0.9-0.9h-1.2V81h4.3V65.4h-1.3C263.9,65.4,263.8,66.4,263,66.4z"/>
	<path style="fill:#0B0907;" d="M273,66.4c-0.8,0-0.9-0.9-0.9-0.9h-1.2V81h4.3V65.4h-1.3C273.8,65.4,273.8,66.4,273,66.4z"/>
	<path style="fill:#0B0907;" d="M282.9,66.4c-0.8,0-0.9-0.9-0.9-0.9h-1.2V81h4.3V65.4h-1.3C283.8,65.4,283.7,66.4,282.9,66.4z"/>
	<path style="fill:#0B0907;" d="M292.9,66.4c-0.8,0-0.9-0.9-0.9-0.9h-1.2V81h4.3V65.4h-1.3C293.8,65.4,293.7,66.4,292.9,66.4z"/>
	<path style="fill:#0B0907;" d="M302.9,66.4c-0.8,0-0.9-0.9-0.9-0.9h-1.2V81h4.3V65.4h-1.3C303.7,65.4,303.7,66.4,302.9,66.4z"/>
	<path style="fill:#0B0907;" d="M312.8,66.4c-0.8,0-0.9-0.9-0.9-0.9h-1.2V81h4.3V65.4h-1.3C313.7,65.4,313.6,66.4,312.8,66.4z"/>
	<path style="fill:#0B0907;" d="M322.8,66.4c-0.8,0-0.9-0.9-0.9-0.9h-1.2V81h4.3V65.4h-1.3C323.6,65.4,323.6,66.4,322.8,66.4z"/>
	<path style="fill:#0B0907;" d="M332.7,66.4c-0.8,0-0.9-0.9-0.9-0.9h-1.2V81h4.3V65.4h-1.3C333.6,65.4,333.5,66.4,332.7,66.4z"/>
	<path style="fill:#0B0907;" d="M342.7,66.4c-0.8,0-0.9-0.9-0.9-0.9h-1.2V81h4.3V65.4h-1.3C343.6,65.4,343.5,66.4,342.7,66.4z"/>
	<path style="fill:#0B0907;" d="M352.7,66.4c-0.8,0-0.9-0.9-0.9-0.9h-1.2V81h4.3V65.4h-1.3C353.5,65.4,353.5,66.4,352.7,66.4z"/>
	<path style="fill:#0B0907;" d="M362.6,66.4c-0.8,0-0.9-0.9-0.9-0.9h-1.2V81h4.3V65.4h-1.3C363.5,65.4,363.4,66.4,362.6,66.4z"/>
	<path style="fill:#0B0907;" d="M372.6,66.4c-0.8,0-0.9-0.9-0.9-0.9h-1.2V81h4.3V65.4h-1.3C373.4,65.4,373.4,66.4,372.6,66.4z"/>
	<path style="fill:#0B0907;" d="M382.5,66.4c-0.8,0-0.9-0.9-0.9-0.9h-1.2V81h4.3V65.4h-1.3C383.4,65.4,383.3,66.4,382.5,66.4z"/>
	<path style="fill:#0B0907;" d="M392.5,66.4c-0.8,0-0.9-0.9-0.9-0.9h-1.2V81h4.3V65.4h-1.3C393.4,65.4,393.3,66.4,392.5,66.4z"/>
	<path style="fill:#0B0907;" d="M402.5,66.4c-0.8,0-0.9-0.9-0.9-0.9h-1.2V81h4.3V65.4h-1.3C403.3,65.4,403.3,66.4,402.5,66.4z"/>
	<path style="fill:#0B0907;" d="M412.4,66.4c-0.8,0-0.9-0.9-0.9-0.9h-1.2V81h4.3V65.4h-1.3C413.3,65.4,413.2,66.4,412.4,66.4z"/>
	<path style="fill:#0B0907;" d="M422.4,66.4c-0.8,0-0.9-0.9-0.9-0.9h-1.2V81h4.3V65.4h-1.3C423.2,65.4,423.2,66.4,422.4,66.4z"/>
	<path style="fill:#0B0907;" d="M432.3,66.4c-0.8,0-0.9-0.9-0.9-0.9h-1.2V81h4.3V65.4h-1.3C433.2,65.4,433.1,66.4,432.3,66.4z"/>
	<path style="fill:#0B0907;" d="M442.3,66.4c-0.8,0-0.9-0.9-0.9-0.9h-1.2V81h4.3V65.4h-1.3C443.2,65.4,443.1,66.4,442.3,66.4z"/>
	<path style="fill:#0B0907;" d="M452.3,66.4c-0.8,0-0.9-0.9-0.9-0.9h-1.2V81h4.3V65.4h-1.3C453.1,65.4,453.1,66.4,452.3,66.4z"/>
	<path style="fill:#0B0907;" d="M462.2,66.4c-0.8,0-0.9-0.9-0.9-0.9h-1.2V81h4.3V65.4h-1.3C463.1,65.4,463,66.4,462.2,66.4z"/>
	<path style="fill:#0B0907;" d="M472.2,66.4c-0.8,0-0.9-0.9-0.9-0.9h-1.2V81h4.3V65.4H473C473,65.4,473,66.4,472.2,66.4z"/>
	<path style="fill:#0B0907;" d="M482.1,66.4c-0.8,0-0.9-0.9-0.9-0.9H480V81h4.3V65.4H483C483,65.4,482.9,66.4,482.1,66.4z"/>
	<path style="fill:#0B0907;" d="M492.1,66.4c-0.8,0-0.9-0.9-0.9-0.9H490V81h4.3V65.4H493C493,65.4,492.9,66.4,492.1,66.4z"/>
	<path style="fill:#0B0907;" d="M502.1,66.4c-0.8,0-0.9-0.9-0.9-0.9h-1.2V81h4.3V65.4h-1.3C502.9,65.4,502.9,66.4,502.1,66.4z"/>
	<path style="fill:#0B0907;" d="M512,66.4c-0.8,0-0.9-0.9-0.9-0.9h-1.2V81h4.3V65.4h-1.3C512.9,65.4,512.8,66.4,512,66.4z"/>
	<path style="fill:#0B0907;" d="M522,66.4c-0.8,0-0.9-0.9-0.9-0.9h-1.2V81h4.3V65.4h-1.3C522.8,65.4,522.8,66.4,522,66.4z"/>
	<path style="fill:#0B0907;" d="M531.9,66.4c-0.8,0-0.9-0.9-0.9-0.9h-1.2V81h4.3V65.4h-1.3C532.8,65.4,532.7,66.4,531.9,66.4z"/>
	<path style="fill:#0B0907;" d="M544.1,65.4h-1.3c0,0,0,0.9-0.9,0.9s-0.9-0.9-0.9-0.9h-1.2V81h4.3V65.4z"/>
	<polygon style="fill:#040100;" points="31.9,199.5 535.1,199.5 532.4,196.9 80.8,196.9 80.8,197.6 80.8,196.9 34.7,196.9 	"/>
	<polygon style="fill:#040100;" points="537.4,201.7 30.3,201.7 29.6,202.8 537.8,202.8 	"/>
	<path style="fill:#61553E;" d="M482.1,223c0,6.1,0,103.7,0,103.7s-0.7,5.6-6.1,5.6c-5.4,0-38,0.9-38,0.9l-8.3,1.3h54.6l-2.3-2.6
		l2.3,2.6V217.1l-1.4,1.6l1.4-1.6h-4.2C481.1,218.1,482.1,219.9,482.1,223z"/>
	<path style="fill:#7D715C;" d="M90.4,333.4c-4.3,0-4.3-6-4.3-6s0-97.9,0-103.6c0-4.5,4.3-4.8,6.1-4.7c0.7,0,1.3,0,2,0l38.3-2H83.9
		v117.4l0.8-1.2l-0.8,1.2H141C141,334.4,94.7,333.4,90.4,333.4z"/>
	<path style="fill:#918C7C;" d="M267.1,285.2c0.9-0.2-0.5-3,0.7-9s8.9-11.2,8.9-11.2s1.2-2.7-2.3-1c-1.3,0.6-2.8,1.5-4.2,2.3
		c-2.5,2.4-4.4,5.5-5.3,9C264.5,283.1,266.4,285.3,267.1,285.2z"/>
	<path style="fill:#605C49;" d="M283.8,300c10.8,0,19.6-8.8,19.6-19.6c0-2.2-0.4-4.3-1-6.3c0.2,2.7,0.1,5.1-0.3,6.3
		c-0.6,2-1.4-0.3-1.9-4.3c-0.4-4-4.2-8.1-5.9-9.6c-1.7-1.5-5.1-2.6-4.3-3c0.4-0.2,2.5,0.1,4.4,0.5c-3.1-2-6.7-3.1-10.6-3.1
		c-5.3,0-10.1,2.1-13.6,5.5c1.4-0.8,2.9-1.7,4.2-2.3c3.5-1.7,2.3,1,2.3,1s-7.6,5.2-8.9,11.2s0.2,8.8-0.7,9c-0.7,0.1-2.6-2.1-2.2-9.7
		c-0.4,1.6-0.7,3.3-0.7,5C264.2,291.3,273,300,283.8,300z M283.8,297.3c-14.5,0-16.1-11.6-14-12c1-0.2,2,3.1,3.8,4.7
		c1.8,1.6,5.2,4.2,9.9,4.2s10.7-2.7,12.4-6c1.7-3.3,2.3-4.9,3.5-4.8C300.6,283.4,298.3,297.3,283.8,297.3z M275.1,280.5
		c0-2.2,0.8-4.1,2.1-5.7c0,0,0,0,0,0l-2.1,0.3l2.1-0.3c0,0,0,0,0,0c1.6-1.9,4-3.1,6.7-3.1c2,0,3.8,0.7,5.3,1.8
		c1.2,0.1,2.2,0.4,2.2,0.4s-1-0.3-2.2-0.4c2.1,1.6,3.5,4.1,3.5,7c0,1.6-0.5,3.2-1.2,4.5c0,0,0,0,0,0c0.8-0.8,1.4-1.7,1.9-2.6
		c-0.4,0.1-0.7,0.3-0.7,0.3s0.3-0.2,0.7-0.3c0.8-1.5,1.1-2.8,1.1-2.8s-0.3,1.3-1.1,2.8c0.2-0.1,0.5-0.1,0.8-0.1
		c0.7,0.1,0.4,1.4-1.4,4.8c-1.8,3.5-6,4.4-8.6,4.4s-3.8-0.9-5.9-1.9c-2.1-0.9-3.4-3.5-3.1-4.7c0.2-0.6,0.7-0.4,1.2-0.1
		c-0.5-0.8-0.8-1.7-1-2.7c-0.4-0.8-0.8-1.6-0.8-2.2c0.1,0.6,0.4,1.4,0.8,2.2C275.1,281.6,275.1,281,275.1,280.5z M270.9,272.3
		c2.2-3.7,6.7-6.8,13.4-6.8c13.6,0,14.4,11.7,14.4,13.5c0,0.7-1.3,1-2-0.4c-1.1-1.9-0.9-5.2-4.7-7.8c-2.7-1.9-5-3-7.6-3.1
		c-2.2-0.1-4.7,0.7-7.7,2.5c-5.6,3.3-5.1,8.9-5.4,10.2s-2.2,2.5-2.5,0C268.6,280.5,268.5,276.2,270.9,272.3z"/>
	<path style="fill:#282210;" d="M283.8,289.2c-3.2,0-6.1-1.8-7.6-4.4c-0.5-0.3-1-0.4-1.2,0.1c-0.4,1.2,1,3.8,3.1,4.7
		c2.1,0.9,3.3,1.9,5.9,1.9s6.7-1,8.6-4.4c1.8-3.5,2.1-4.7,1.4-4.8c-0.3-0.1-0.5,0-0.8,0.1c-0.5,0.9-1.1,1.8-1.9,2.6c0,0,0,0,0,0
		C289.8,287.5,287,289.2,283.8,289.2z"/>
	<path style="fill:#918C7C;" d="M290,263.5c-0.8,0.5,2.7,1.5,4.3,3c1.7,1.5,5.4,5.6,5.9,9.6c0.4,4,1.2,6.3,1.9,4.3
		c0.3-1.1,0.4-3.6,0.3-6.3c-1.4-4.2-4.2-7.8-7.9-10.2C292.5,263.6,290.4,263.3,290,263.5z"/>
	<path style="fill:#F7F1E3;" d="M278,285.7c1.1,0.7-0.1-0.9,0-3.8s4.3-5.2,3.7-7.1c-0.6-2-4.6,0-4.6,0c-1.3,1.5-2.1,3.5-2.1,5.7
		c0,0.6,0.1,1.1,0.2,1.7C276.1,283.7,277.3,285.3,278,285.7z"/>
	<path style="fill:#494330;" d="M277.3,285.7c0,0-0.5-0.5-1-0.9c1.5,2.6,4.3,4.4,7.6,4.4c3.2,0,6-1.7,7.5-4.3
		c-2.2,2.1-2-0.5-1.1-4.1c0.9-3.6-4.5-2.9-4.5-5.8c0-1.6,1.8-1.8,3.4-1.6c-1.5-1.1-3.3-1.8-5.3-1.8c-2.7,0-5.1,1.2-6.7,3.1
		c0.1,0,4-2,4.6,0c0.6,2-3.6,4.2-3.7,7.1s1.1,4.5,0,3.8c-0.7-0.5-2-2-2.8-3.6c0.2,1,0.5,1.9,1,2.7
		C276.8,285.2,277.3,285.7,277.3,285.7z"/>
	<path style="fill:#F7F1E3;" d="M285.7,275.1c0,2.8,5.4,2.1,4.5,5.8c-0.9,3.6-1.1,6.2,1.1,4.1c0.8-1.3,1.2-2.8,1.2-4.5
		c0-2.9-1.4-5.4-3.5-7C287.5,273.3,285.7,273.5,285.7,275.1z"/>
	<path style="fill:#3F3B2A;" d="M271.1,280.5c0.3-1.3-0.2-6.9,5.4-10.2c3-1.8,5.5-2.6,7.7-2.5c2.6,0.1,4.9,1.2,7.6,3.1
		c3.8,2.6,3.6,5.9,4.7,7.8c0.7,1.4,2,1.1,2,0.4c0-1.8-0.8-13.5-14.4-13.5c-6.6,0-11.2,3.2-13.4,6.8c-2.3,3.8-2.2,8.1-2.2,8.1
		C268.9,283,270.9,281.7,271.1,280.5z"/>
	<path style="fill:#D8D1C5;" d="M295.9,288.1c-1.7,3.3-7.7,6-12.4,6s-8.2-2.6-9.9-4.2c-1.8-1.6-2.8-4.9-3.8-4.7
		c-2.1,0.4-0.5,12,14,12c14.5,0,16.8-13.8,15.6-13.9C298.2,283.2,297.6,284.8,295.9,288.1z"/>
	<path style="fill:#6A5B47;" d="M83.8,359.5v115.7h76.1c-27.9-1.2-68.4-3-70.6-3c-3.3,0-3.7-3.7-3.7-3.7s0-102.7,0-105.9
		s3.8-3.8,3.8-3.8l387.2,1.9c0,0,4.1-0.4,4.1,3.7c0,4.1,0,105.4,0,105.4s0.5,4-4.1,4c-2.4,0-16.7,0.7-29.5,1.4h35V359
		c0,0-391.6-2.7-395.2-2.7S83.8,359.5,83.8,359.5z"/>
	<path style="fill:#605C49;" d="M301.7,422.9c-0.6,2.1-1.5-0.3-1.9-4.4c-0.5-4.1-4.3-8.3-6-9.8c-1.7-1.5-5.3-2.6-4.5-3.1
		c0.4-0.2,2.5,0.1,4.5,0.5c-3.1-2-6.9-3.2-10.9-3.2c-5.4,0-10.3,2.2-13.9,5.7c1.4-0.9,3-1.7,4.3-2.4c3.6-1.7,2.4,1,2.4,1
		s-7.8,5.4-9.1,11.4s0.2,9-0.7,9.2c-0.8,0.2-2.7-2.1-2.3-10c-0.4,1.6-0.7,3.4-0.7,5.1c0,11.1,9,20,20,20c11.1,0,20-9,20-20
		c0-2.2-0.4-4.4-1.1-6.4C302.1,419.2,302,421.7,301.7,422.9z M269.7,414.6c2.3-3.7,6.9-7,13.7-7c13.9,0,14.7,12,14.7,13.8
		c0,0.8-1.3,1-2.1-0.4c-1.1-2-0.9-5.3-4.8-8c-2.8-1.9-5.2-3.1-7.8-3.1c-2.3-0.1-4.8,0.7-7.9,2.6c-5.7,3.4-5.3,9.1-5.5,10.4
		c-0.3,1.3-2.3,2.6-2.5,0C267.4,422.9,267.3,418.5,269.7,414.6z M293.4,424.7c0.7,0.1,0.4,1.4-1.5,4.9s-6.1,4.5-8.8,4.5
		c-2.6,0-3.9-1-6-1.9c-2.1-1-3.5-3.6-3.1-4.8c0.2-0.6,0.7-0.4,1.2-0.1c-0.5-0.8-0.8-1.8-1-2.8c-0.4-0.8-0.8-1.6-0.8-2.3
		c0.1,0.7,0.4,1.5,0.8,2.3c-0.1-0.6-0.2-1.1-0.2-1.7c0-2.2,0.8-4.2,2.1-5.8c0,0,0,0,0,0l-2.1,0.3l2.1-0.3c0,0,0,0,0,0
		c1.6-1.9,4.1-3.2,6.8-3.2c2,0,3.9,0.7,5.4,1.8c1.2,0.1,2.2,0.4,2.2,0.4s-1-0.3-2.2-0.4c2.2,1.6,3.6,4.2,3.6,7.1
		c0,1.7-0.5,3.2-1.3,4.6c0,0,0,0,0,0c0.8-0.8,1.5-1.8,1.9-2.6c-0.4,0.1-0.7,0.3-0.7,0.3s0.3-0.2,0.7-0.3c0.8-1.5,1.2-2.8,1.2-2.8
		s-0.3,1.3-1.2,2.8C292.9,424.7,293.1,424.7,293.4,424.7z M283,440.1c-14.9,0-16.5-11.9-14.3-12.3c1-0.2,2.1,3.2,3.9,4.8
		c1.8,1.6,5.4,4.3,10.2,4.3s11-2.8,12.7-6.2c1.7-3.4,2.4-5,3.5-4.9S297.9,440.1,283,440.1z"/>
	<path style="fill:#282210;" d="M290.7,427.4c-1.6,2.6-4.4,4.4-7.7,4.4c-3.3,0-6.2-1.8-7.7-4.5c-0.5-0.3-1-0.4-1.2,0.1
		c-0.4,1.2,1,3.9,3.1,4.8c2.1,1,3.4,1.9,6,1.9c2.6,0,6.9-1,8.8-4.5s2.2-4.8,1.5-4.9c-0.3-0.1-0.5,0-0.8,0.1
		C292.1,425.7,291.5,426.6,290.7,427.4C290.7,427.4,290.7,427.4,290.7,427.4z"/>
	<path style="fill:#918C7C;" d="M289.3,405.5c-0.8,0.5,2.7,1.6,4.5,3.1c1.7,1.5,5.5,5.7,6,9.8c0.5,4.1,1.3,6.5,1.9,4.4
		c0.4-1.2,0.5-3.7,0.3-6.4c-1.5-4.3-4.3-8-8.1-10.4C291.8,405.6,289.7,405.3,289.3,405.5z"/>
	<path style="fill:#918C7C;" d="M265.9,427.7c0.9-0.2-0.5-3.1,0.7-9.2s9.1-11.4,9.1-11.4s1.3-2.7-2.4-1c-1.3,0.6-2.9,1.5-4.3,2.4
		c-2.6,2.5-4.5,5.7-5.4,9.2C263.2,425.6,265.1,427.9,265.9,427.7z"/>
	<path style="fill:#494330;" d="M283,431.8c3.3,0,6.1-1.8,7.7-4.4c-2.2,2.2-2.1-0.5-1.2-4.2c0.9-3.7-4.6-3-4.6-5.9
		c0-1.7,1.9-1.8,3.5-1.6c-1.5-1.1-3.4-1.8-5.4-1.8c-2.7,0-5.2,1.2-6.8,3.2c0.1,0,4.1-2,4.7,0c0.6,2-3.7,4.3-3.8,7.3
		c-0.1,3,1.1,4.6,0,3.9c-0.7-0.5-2-2.1-2.9-3.7c0.2,1,0.6,1.9,1,2.8c0.6,0.3,1.1,0.9,1.1,0.9s-0.5-0.5-1.1-0.9
		C276.8,430,279.6,431.8,283,431.8z"/>
	<path style="fill:#F7F1E3;" d="M284.9,417.4c0,2.9,5.5,2.2,4.6,5.9c-0.9,3.7-1.1,6.4,1.2,4.2c0.8-1.3,1.3-2.9,1.3-4.6
		c0-2.9-1.4-5.5-3.6-7.1C286.7,415.6,284.9,415.7,284.9,417.4z"/>
	<path style="fill:#F7F1E3;" d="M277.1,428.3c1.1,0.7-0.1-0.9,0-3.9c0.1-3,4.4-5.3,3.8-7.3c-0.6-2-4.7,0-4.7,0
		c-1.3,1.6-2.1,3.6-2.1,5.8c0,0.6,0.1,1.2,0.2,1.7C275,426.2,276.3,427.8,277.1,428.3z"/>
	<path style="fill:#3F3B2A;" d="M270,422.9c0.3-1.3-0.2-7,5.5-10.4c3.1-1.9,5.6-2.6,7.9-2.6c2.6,0.1,5,1.2,7.8,3.1
		c3.9,2.6,3.7,6,4.8,8c0.8,1.4,2.1,1.1,2.1,0.4c0-1.8-0.8-13.8-14.7-13.8c-6.8,0-11.4,3.2-13.7,7c-2.4,3.9-2.3,8.3-2.3,8.3
		C267.7,425.5,269.7,424.2,270,422.9z"/>
	<path style="fill:#D8D1C5;" d="M298.9,425.8c-1.2-0.1-1.8,1.5-3.5,4.9c-1.7,3.4-7.9,6.2-12.7,6.2s-8.4-2.6-10.2-4.3
		c-1.8-1.6-2.9-5-3.9-4.8c-2.2,0.4-0.5,12.3,14.3,12.3S300.1,425.9,298.9,425.8z"/>
	<path style="fill:#2C2316;" d="M543.4,517.5H14c-1.8,2.6-3.4,5.9-3.7,9.4c0,0,2.5-4.7,4.3-5c1.8-0.4,7.3,2.5,9.1,2.5
		s488.1-0.2,525.8-1.3c4.8-0.1,6.6,2.7,7.7,3.9c0,0-0.7-2.2-2.2-5C549.6,517.4,543.4,517.5,543.4,517.5z"/>
	<path style="fill:#080A00;" d="M543.9,511.2H19.6c0,0-3,2.5-5.6,6.3h529.4c0,0,6.2-0.1,11.6,4.4C553,518.2,549.5,513.5,543.9,511.2
		z"/>
	<path style="fill:#020300;" d="M549.5,523c-37.7,1.2-524,1.3-525.8,1.3s-7.3-2.9-9.1-2.5c-1.8,0.4-4.3,5-4.3,5h546.9
		C556.1,525.7,554.4,522.8,549.5,523z"/>
	<path style="fill:#C0BBB1;" d="M494.6,594.5c-4.9-0.2-6.1,2.5-6.1,2.5s-2.5,2.2,1.4,4c4,1.8,14.2,3.2,15.1,3.2
		c0.9,0,3.8-2.9,1.3-5.9C503.8,595.3,499.5,594.7,494.6,594.5z"/>
	<path style="fill:#C0BBB1;" d="M538.4,596.3c-3.4,1-9.4,3.3-8.6,4.8c1.6,3.1,6.7,2.9,11.7,3.2s5.4-3.2,4.3-5.6
		C544.7,596.3,541.8,595.3,538.4,596.3z"/>
	<path style="fill:#27261D;" d="M92.1,582.6c-0.9-1.4-1.4,4.5-4,9.4c-2.6,4.9-8.4,7.1-7.2,4.8c1.6-3.1-1.3-7.6-4.3-8.6
		c-3.1-1.1-7.3,0.1-10.5-0.3c-1.2-0.1-3.4-0.2-4-1.5c-1.1-2.3,2.4-3.7,4.1-3.8c1.5-0.1,3.1,0.2,4.6,0.4c2,0.2,4,0.1,6-0.2
		c0.3-0.1,0.7-0.2,0.8-0.5c0.1-0.2-0.1-0.5-0.2-0.7c-1-1.4-2-2.9-3.4-3.8c-3.1-2.1-5.9,0-9.2,0.3c0.4-1,1.5-1.6,2.4-2.3
		c5.1-3.8-2.4-3.7-4.3-4.3c-1.5-0.5-2.9-1.4-4.4-1.9c-2.6-0.7-5.6,0.1-7.5,2c-0.1,0.2-0.3,0.3-0.3,0.5c0,0.3,0.3,0.6,0.5,0.7
		c3,1.8,6,0.1,9.2,0.1c2.1,0,1.3,3.5-1.2,3.5c-4,0-6.9,3.5-11.1,3.1c-2.3-0.2-4.4-1.5-6.6-1.9c-1.8-0.3-3.8-0.2-5.6-0.3
		c-0.5-0.1-1.2-0.2-1.4-0.6c-0.7-1.2,1-2.5,1.9-2.8c2.3-0.8,5.2,0,7.6,0.1c0.8,0,1.8,0,2.3-0.6c0.4-0.5,0.3-1.2,0.3-1.8
		c-0.1-1-0.2-2.1-1-2.7c-0.4-0.3-0.9-0.4-1.4-0.5c-2.4-0.4-4.6,0.2-6.9,0.2c-2.6,0-6.4-0.1-7.8-2.7c-2.2-4.1,0.6-4.2,0.6-4.2
		s13.3,2.2,22.9,0.8c5.5-0.8,7.9-2.3,9-3.4l-34.2,0.3v4.4c0,0-1.6,2.4-2.8,3.3c-1.2,0.9-4,2.6-4,2.6s-2.5,0.6-5.7,2.2
		C9.3,577,3.5,582.2,2.4,590.4c-0.4,3.1-0.2,6.4,1.2,9.2c1.8,3.7,5.5,6.1,9.3,7.5c10.6,4,21.9,4,32.9,3c3.2-0.3,6.5-0.6,9.6-1.2
		c2-0.4,4.5-1.1,5.9,0.9c0.7,1.1,0.6,2.5,1.1,3.6c0.7,1.5,2.7,2.4,4.1,1.5c2.2-1.3,1.5-4.8,3.3-6.6c0.7-0.7,1.7-1,2.6-1.3
		c7.5-2.4,17.6-3.9,20.3-12.5C93.8,591.2,94.1,585.7,92.1,582.6z M25.6,601.5c-5,0-5.6-2.9-10.8-3.1s-7.6-4.7-6.3-9.7
		s8.1-3.2,9.5-1.3s5.2,4.5,10.3,6.1c5,1.6,9.2,1.6,9.2,4.9C37.5,603.2,30.6,601.5,25.6,601.5z M65.7,598.8c-3.4,1.4-8.6,0.4-9.9-1.3
		s2.2-3.1,6.5-3.9c0,0,8.6-2.2,9.4,0C72.4,595.8,69.2,597.4,65.7,598.8z"/>
	<path style="fill:#C1BCB3;" d="M28.3,593.6c-5-1.6-8.8-4.1-10.3-6.1s-8.3-3.8-9.5,1.3s1.1,9.5,6.3,9.7s5.8,3.1,10.8,3.1
		c5,0,11.9,1.6,11.9-3.1C37.5,595.2,33.3,595.2,28.3,593.6z"/>
	<path style="fill:#978D83;" d="M62.3,593.7c-4.3,0.9-7.7,2.3-6.5,3.9s6.5,2.7,9.9,1.3c3.4-1.4,6.7-3,5.9-5.2
		C71,591.5,62.3,593.7,62.3,593.7z"/>
	<path style="fill:none;" d="M263.1,147.8c0,9.2,6.3,16.9,14.8,19.2c3.3-3.3,6-4.6,6-4.6s-2.7,1.2-6,4.6c1.6,0.4,3.3,0.7,5.1,0.7
		c2.6,0,5-0.5,7.2-1.4c-0.6-0.4-1.1-0.8-1.6-1.2c0.5,0.4,1,0.8,1.6,1.2c7.4-2.9,12.6-10.1,12.6-18.5c0-2.2-0.4-4.4-1.1-6.4
		c-0.8-2.4-2.1-4.7-3.8-6.6c-3.7-1.2-6.4-2-6.4-2s2.7,0.8,6.4,2c-1.2-1.4-2.7-2.7-4.2-3.7c-3.1-2-6.8-3.2-10.8-3.2
		c-5.4,0-10.2,2.1-13.8,5.6c-1.7,1.7-3.1,3.6-4.1,5.8c4.9-2.8,8.5-4.8,8.5-4.8s-3.7,2-8.5,4.8c-0.5,1.1-0.9,2.2-1.2,3.4
		C263.4,144.4,263.1,146.1,263.1,147.8z"/>
	<path style="fill:none;" d="M303.4,280.5c0-2.2-0.4-4.3-1-6.3c-0.8-2.5-2.2-4.8-3.9-6.7c-3.9-1.3-6.9-2.1-6.9-2.1s2.9,0.8,6.9,2.1
		c-1.2-1.3-2.5-2.5-4-3.5c-3.1-2-6.7-3.1-10.6-3.1c-5.3,0-10.1,2.1-13.6,5.5c-1.3,1.3-2.5,2.8-3.4,4.4c4-2.2,6.8-3.7,6.8-3.7
		s-2.8,1.5-6.8,3.7c-0.8,1.4-1.5,3-1.9,4.6c-0.4,1.6-0.7,3.3-0.7,5c0,8.8,5.9,16.3,13.9,18.7c3.2-3.1,5.7-4.3,5.7-4.3
		s-2.6,1.1-5.7,4.3c1.8,0.5,3.7,0.8,5.6,0.8c2.3,0,4.5-0.4,6.5-1.1c-0.6-0.4-1.2-0.8-1.7-1.3c0.5,0.5,1.1,0.9,1.7,1.3
		C297.9,296.2,303.4,289,303.4,280.5z"/>
	<path style="fill:none;" d="M303,422.9c0-2.2-0.4-4.4-1.1-6.4c-0.8-2.3-2-4.4-3.5-6.3c-3.9-1.3-6.8-2.1-6.8-2.1s2.9,0.8,6.8,2.1
		c-1.3-1.6-2.8-3-4.6-4.1c-3.1-2-6.9-3.2-10.9-3.2c-5.4,0-10.3,2.2-13.9,5.7c-1.8,1.8-3.3,3.9-4.3,6.2c5-2.9,8.9-4.9,8.9-4.9
		s-3.8,2-8.9,4.9c-0.4,1-0.8,2-1.1,3.1c-0.4,1.6-0.7,3.4-0.7,5.1c0,9.3,6.3,17.1,14.9,19.3c3.3-3.4,6.1-4.6,6.1-4.6
		s-2.8,1.2-6.1,4.6c1.6,0.4,3.4,0.7,5.2,0.7c2.6,0,5.1-0.5,7.3-1.4c-0.6-0.4-1.2-0.8-1.7-1.3c0.5,0.5,1.1,0.9,1.7,1.3
		C297.7,438.6,303,431.4,303,422.9z"/>
	<path style="fill:#0E0B00;" d="M264.2,280.5c0-1.7,0.2-3.4,0.7-5c0.4-1.6,1.1-3.2,1.9-4.6c-0.5,0.3-1,0.6-1.5,0.9
		c-9.1,5.2-22.6,13.5-23.8,17.5c-1.9,6-3.2,15,3.6,21.8c6.8,6.8,22.3,5,27.4-4.1c1.9-3.4,3.9-5.9,5.8-7.7
		C270.1,296.8,264.2,289.3,264.2,280.5z"/>
	<path style="fill:#2F2D20;" d="M480.1,217.1H132.4l-38.3,2c-0.7,0-1.3,0-2,0c-1.8-0.1-6.1,0.3-6.1,4.7c0,5.6,0,103.6,0,103.6
		s0,6,4.3,6s50.6,1.1,50.6,1.1h288.8l8.3-1.3c0,0,32.6-0.9,38-0.9c5.4,0,6.1-5.6,6.1-5.6s0-97.6,0-103.7
		C482.1,219.9,481.1,218.1,480.1,217.1z M319.6,300.5c-3.8,5-19.9,4.8-29.3-1.6c-2,0.7-4.2,1.1-6.5,1.1c-2,0-3.8-0.3-5.6-0.8
		c-1.9,1.8-3.9,4.4-5.8,7.7c-5,9.1-20.5,10.9-27.4,4.1c-6.8-6.8-5.5-15.8-3.6-21.8c1.3-3.9,14.7-12.2,23.8-17.5
		c0.1-0.5,0.1-0.9,0.2-1.4c-0.1,0.5-0.1,1-0.2,1.4c0.5-0.3,1-0.6,1.5-0.9c0.9-1.6,2.1-3.1,3.4-4.4c-2.4,1.4-4.4,2.8-4.4,2.8
		s2-1.4,4.4-2.8c3.5-3.4,8.3-5.5,13.6-5.5c3.9,0,7.6,1.2,10.6,3.1c1.9,0.4,3.7,0.8,3.7,0.8s-1.8-0.4-3.7-0.8c1.5,1,2.8,2.1,4,3.5
		c1,0.3,2,0.6,3,1c0-0.1,0-0.2-0.1-0.3c0,0.1,0.1,0.2,0.1,0.3c7.6,2.5,17,6.1,18.2,8.4C321.8,281,323.7,295.2,319.6,300.5z"/>
	<path style="fill:#070700;" d="M319.6,276.9c-1.3-2.4-10.6-5.9-18.2-8.4c-1-0.3-2.1-0.7-3-1c1.7,1.9,3.1,4.2,3.9,6.7
		c0.7,2,1,4.1,1,6.3c0,8.5-5.4,15.7-13,18.4c9.4,6.4,25.5,6.5,29.3,1.6C323.7,295.2,321.8,281,319.6,276.9z"/>
	<path style="fill:#2F2D20;" d="M480.7,364.4c0-4.1-4.1-3.7-4.1-3.7l-387.2-1.9c0,0-3.8,0.6-3.8,3.8s0,105.9,0,105.9
		s0.4,3.7,3.7,3.7c2.2,0,42.7,1.7,70.6,3h287.2c12.9-0.7,27.1-1.4,29.5-1.4c4.6,0,4.1-4,4.1-4S480.7,368.5,480.7,364.4z
		 M319.6,443.1c-3.8,5-20,4.8-29.4-1.6c-2.3,0.9-4.7,1.4-7.3,1.4c-1.8,0-3.5-0.3-5.2-0.7c-1.8,1.8-3.7,4.2-5.4,7.4
		c-5,9.1-20.5,10.9-27.4,4.1c-6.8-6.8-5.5-15.8-3.6-21.8c1.2-3.7,13.4-11.4,22.4-16.6c0.1-0.9,0.2-1.8,0.3-2.7
		c-0.1,1-0.3,1.9-0.3,2.7c0.3-0.2,0.6-0.3,0.9-0.5c1-2.3,2.5-4.4,4.3-6.2c-2.4,1.5-4.5,2.9-4.5,2.9s2.1-1.4,4.5-2.9
		c3.6-3.5,8.5-5.7,13.9-5.7c4,0,7.7,1.2,10.9,3.2c1.9,0.4,3.7,0.9,3.7,0.9s-1.8-0.5-3.7-0.9c1.7,1.1,3.3,2.5,4.6,4.1
		c0.9,0.3,1.8,0.6,2.7,0.9c-0.1-0.3-0.1-0.5-0.2-0.8c0.1,0.2,0.1,0.5,0.2,0.8c7.6,2.5,17.2,6.1,18.5,8.5
		C321.8,423.7,323.7,437.8,319.6,443.1z"/>
	<path style="fill:#0E0B00;" d="M262.9,422.9c0-1.8,0.3-3.5,0.7-5.1c0.3-1.1,0.7-2.1,1.1-3.1c-0.3,0.2-0.6,0.3-0.9,0.5
		c-9,5.2-21.2,12.9-22.4,16.6c-1.9,6-3.2,15,3.6,21.8c6.8,6.8,22.3,5,27.4-4.1c1.7-3.2,3.7-5.6,5.4-7.4
		C269.2,439.9,262.9,432.2,262.9,422.9z"/>
	<path style="fill:#070700;" d="M319.6,419.6c-1.3-2.4-10.9-6-18.5-8.5c-0.9-0.3-1.9-0.6-2.7-0.9c1.5,1.9,2.7,4,3.5,6.3
		c0.7,2,1.1,4.2,1.1,6.4c0,8.5-5.3,15.7-12.7,18.6c9.4,6.4,25.5,6.6,29.4,1.6C323.7,437.8,321.8,423.7,319.6,419.6z"/>
	<path style="fill:#010200;" d="M36.6,91.8v3.1h44.2V195h404.6V94.9h43.8v-3.1H36.6z M82.4,96.4h0.2v97.1L82.4,96.4z"/>
</g>
<g id="Drawer">
	<g>
		<path style="fill:#C1BDAF;" d="M481.1,99.4c0,3.5,0,85.1,0,85.1s0.1,3.3-0.8,4.9c-0.9,1.5-4,2.9-8,3.2c-1.8,0.2-5,0.5-8,0.8h18.7
			V96.4h-8.5C478,96.9,481.1,97.8,481.1,99.4z"/>
		<path style="fill:#605C49;" d="M283,167.7c11,0,19.9-8.9,19.9-19.9c0-2.2-0.4-4.4-1.1-6.4c0.2,2.7,0.1,5.2-0.3,6.4
			c-0.6,2-1.4-0.3-1.9-4.4s-4.2-8.2-5.9-9.7c-1.7-1.5-5.2-2.6-4.4-3.1c0.4-0.2,2.5,0.1,4.5,0.5c-3.1-2-6.8-3.2-10.8-3.2
			c-5.4,0-10.2,2.1-13.8,5.6c1.4-0.9,2.9-1.7,4.3-2.4c3.6-1.7,2.3,1,2.3,1s-7.7,5.3-9,11.3c-1.3,6,0.2,8.9-0.7,9.1
			c-0.8,0.2-2.7-2.1-2.3-9.9c-0.4,1.6-0.7,3.3-0.7,5.1C263.1,158.8,272,167.7,283,167.7z M283,164.9c-14.8,0-16.4-11.8-14.2-12.2
			c1-0.2,2.1,3.2,3.9,4.8s5.3,4.2,10.1,4.2s10.9-2.8,12.6-6.1c1.7-3.3,2.3-4.9,3.5-4.9C300,150.8,297.7,164.9,283,164.9z
			 M274.1,147.8c0-2.2,0.8-4.2,2.1-5.8c0,0,0,0,0,0l-2.1,0.3l2.1-0.3c0,0,0,0,0,0c1.6-1.9,4-3.1,6.8-3.1c2,0,3.9,0.7,5.3,1.8
			c1.2,0.1,2.2,0.4,2.2,0.4s-1-0.3-2.2-0.4c2.1,1.6,3.5,4.2,3.5,7.1c0,1.7-0.5,3.2-1.3,4.5c0,0,0,0,0,0c0.8-0.8,1.4-1.8,1.9-2.6
			c-0.4,0.1-0.7,0.3-0.7,0.3s0.3-0.2,0.7-0.3c0.8-1.5,1.1-2.8,1.1-2.8s-0.3,1.3-1.1,2.8c0.2-0.1,0.5-0.1,0.8-0.1
			c0.7,0.1,0.4,1.4-1.5,4.9s-6.1,4.5-8.7,4.5c-2.6,0-3.8-0.9-6-1.9c-2.1-0.9-3.5-3.6-3.1-4.8c0.2-0.6,0.7-0.4,1.2-0.1
			c-0.5-0.8-0.8-1.8-1-2.7c-0.4-0.8-0.8-1.6-0.8-2.3c0.1,0.7,0.4,1.5,0.8,2.3C274.1,149,274.1,148.4,274.1,147.8z M269.8,139.6
			c2.3-3.7,6.9-6.9,13.6-6.9c13.8,0,14.6,11.9,14.6,13.7c0,0.7-1.3,1-2.1-0.4c-1.1-2-0.9-5.3-4.8-7.9c-2.7-1.9-5.1-3-7.7-3.1
			c-2.3-0.1-4.7,0.7-7.8,2.6c-5.6,3.4-5.2,9-5.5,10.3c-0.3,1.3-2.3,2.6-2.5,0C267.6,147.8,267.5,143.5,269.8,139.6z"/>
		<path style="fill:#918C7C;" d="M289.3,130.6c-0.8,0.5,2.7,1.6,4.4,3.1c1.7,1.5,5.5,5.7,5.9,9.7s1.3,6.4,1.9,4.4
			c0.4-1.1,0.5-3.7,0.3-6.4c-1.4-4.3-4.3-7.9-8-10.3C291.8,130.8,289.7,130.4,289.3,130.6z"/>
		<path style="fill:#282210;" d="M283,156.7c-3.3,0-6.1-1.8-7.7-4.4c-0.5-0.3-1-0.4-1.2,0.1c-0.4,1.2,1,3.8,3.1,4.8
			c2.1,0.9,3.3,1.9,6,1.9c2.6,0,6.8-1,8.7-4.5s2.1-4.8,1.5-4.9c-0.3-0.1-0.5,0-0.8,0.1c-0.5,0.9-1.1,1.8-1.9,2.6c0,0,0,0,0,0
			C289,155,286.2,156.7,283,156.7z"/>
		<path style="fill:#918C7C;" d="M266,152.6c0.9-0.2-0.5-3.1,0.7-9.1c1.3-6,9-11.3,9-11.3s1.3-2.7-2.3-1c-1.3,0.6-2.9,1.5-4.3,2.4
			c-2.5,2.5-4.4,5.6-5.4,9.2C263.4,150.5,265.3,152.8,266,152.6z"/>
		<path style="fill:#494330;" d="M276.3,153.2c0,0-0.5-0.5-1.1-0.9c1.5,2.6,4.4,4.4,7.7,4.4c3.2,0,6.1-1.7,7.6-4.4
			c-2.2,2.2-2-0.5-1.1-4.1c0.9-3.7-4.6-3-4.6-5.8c0-1.7,1.9-1.8,3.5-1.6c-1.5-1.1-3.3-1.8-5.3-1.8c-2.7,0-5.1,1.2-6.8,3.1
			c0.1,0,4.1-2,4.7,0c0.6,2-3.7,4.3-3.8,7.2c-0.1,3,1.1,4.6,0,3.9c-0.7-0.5-2-2.1-2.9-3.6c0.2,1,0.5,1.9,1,2.7
			C275.8,152.6,276.3,153.2,276.3,153.2z"/>
		<path style="fill:#F7F1E3;" d="M277.1,153.2c1.1,0.7-0.1-0.9,0-3.9c0.1-3,4.4-5.2,3.8-7.2c-0.6-2-4.6,0-4.7,0
			c-1.3,1.6-2.1,3.6-2.1,5.8c0,0.6,0.1,1.2,0.2,1.7C275.1,151.1,276.4,152.7,277.1,153.2z"/>
		<path style="fill:#F7F1E3;" d="M284.8,142.4c0,2.9,5.5,2.2,4.6,5.8c-0.9,3.7-1.1,6.3,1.1,4.1c0.8-1.3,1.3-2.9,1.3-4.5
			c0-2.9-1.4-5.5-3.5-7.1C286.7,140.6,284.8,140.7,284.8,142.4z"/>
		<path style="fill:#3F3B2A;" d="M270.1,147.8c0.3-1.3-0.2-7,5.5-10.3c3.1-1.8,5.6-2.6,7.8-2.6c2.6,0.1,5,1.2,7.7,3.1
			c3.8,2.6,3.7,5.9,4.8,7.9c0.8,1.4,2.1,1.1,2.1,0.4c0-1.8-0.8-13.7-14.6-13.7c-6.7,0-11.3,3.2-13.6,6.9c-2.4,3.9-2.3,8.3-2.3,8.3
			C267.8,150.4,269.8,149.1,270.1,147.8z"/>
		<path style="fill:#D8D1C5;" d="M295.3,155.6c-1.7,3.3-7.8,6.1-12.6,6.1s-8.3-2.6-10.1-4.2s-2.9-4.9-3.9-4.8
			c-2.2,0.4-0.5,12.2,14.2,12.2c14.8,0,17-14,15.8-14.1C297.6,150.7,297,152.3,295.3,155.6z"/>
		<path style="fill:#2F2D20;" d="M464.3,193.4c2.9-0.3,6.1-0.7,8-0.8c4-0.4,7.1-1.7,8-3.2c0.9-1.5,0.8-4.9,0.8-4.9s0-81.6,0-85.1
			c0-1.5-3.1-2.5-6.6-3h-392l0.2,97.1h10.3H464.3z M241.4,156.7c1.3-3.9,14.5-12.1,23.6-17.3c1-2.2,2.4-4.1,4.1-5.8
			c3.6-3.5,8.4-5.6,13.8-5.6c4,0,7.7,1.2,10.8,3.2c1.6,1,3,2.3,4.2,3.7c7.8,2.5,20.2,6.8,21.7,9.6c2.2,4.1,4.1,18.2,0,23.5
			c-3.9,5-20.1,4.8-29.5-1.7c-2.2,0.9-4.7,1.4-7.2,1.4c-1.8,0-3.5-0.3-5.1-0.7c-1.8,1.8-3.7,4.2-5.5,7.4c-5,9.1-20.5,10.9-27.4,4.1
			C238.2,171.7,239.5,162.7,241.4,156.7z"/>
		<path style="fill:#070700;" d="M302.8,147.8c0,8.4-5.2,15.6-12.6,18.5c9.4,6.5,25.6,6.6,29.5,1.7c4.1-5.3,2.2-19.4,0-23.5
			c-1.5-2.8-13.8-7.1-21.7-9.6c1.6,1.9,3,4.1,3.8,6.6C302.4,143.5,302.8,145.6,302.8,147.8z"/>
		<path style="fill:#0E0B00;" d="M272.4,174.5c1.8-3.2,3.7-5.6,5.5-7.4c-8.5-2.2-14.8-10-14.8-19.2c0-1.8,0.3-3.5,0.7-5.1
			c0.3-1.2,0.7-2.3,1.2-3.4c-9.1,5.2-22.4,13.4-23.6,17.3c-1.9,6-3.2,15,3.6,21.8C251.8,185.4,267.3,183.6,272.4,174.5z"/>
	</g>
</g>
</svg>
