<?xml version="1.0" encoding="utf-8"?>
<!-- Generator: Adobe Illustrator 25.1.0, SVG Export Plug-In . SVG Version: 6.00 Build 0)  -->
<svg version="1.1" id="Layer_1" xmlns="http://www.w3.org/2000/svg" xmlns:xlink="http://www.w3.org/1999/xlink" x="0px" y="0px"
	 viewBox="0 0 333.8 197.6" style="enable-background:new 0 0 333.8 197.6;" xml:space="preserve">
<path style="fill:#DFDFDF;" d="M278.3,25.2c-0.7-0.3-1.2-0.5-1.4-0.8c-0.9-1.3-2.5-9.7-2.8-12.5c-0.4-2.8,2.1-9.1,2.1-9.1
	s-0.9,2.2-1.9,4.9c-0.9,2.7-0.5,5.9-0.2,7.7s1.7,8.8,1.7,8.8s-2.8-2.4-3.2-4.7c-0.4-2.3-1.5-7.5-1.8-10.3c-0.3-2.8,1.8-9.3,1.8-9.3
	c-2.8,7.2-2.3,10.5-1.9,12.2c0.4,1.7,1.9,10.4,1.9,10.4s-1.5-2-3.5-4.3c-2-2.3-2.4-11.2-2.4-11.2c-0.2,3.6,0.8,8.6,0.8,8.6
	c-1-1.7-1.9-7.4-1.9-7.4c0,8.2,6.3,15,6.3,15S275,24.1,278.3,25.2C278.2,25.2,278.3,25.2,278.3,25.2z"/>
<path style="fill:#CC8684;" d="M246.8,19.6c-0.5-0.9,1.7-0.6,2.3,0c0.4,0.4,1.4,0.8,2,1c-2.1-1-1.7-4.5-3-7.5
	c-1.4-3.2-6.3-6.2-7.7-6.2c-4.6,0-6.4,4.8-6.4,4.8c5.4-0.6,8.9,2.9,10.6,5.5c0.3,0.4,0.5,1,0.6,1.7
	C246.3,19.5,247.2,20.2,246.8,19.6z"/>
<path style="fill:none;" d="M301.8,69.1c0.5,0,1,0.1,1.4,0.1l0.2-0.9C303.4,68.3,302.7,68.7,301.8,69.1z"/>
<path style="fill:none;" d="M299.6,69.7l2.9,2.1l0.7-2.7c-0.4,0-0.9,0-1.4-0.1C301.1,69.4,300.3,69.6,299.6,69.7z"/>
<path style="fill:none;" d="M303.2,69.2c0.3,0,0.6,0,0.8,0c-0.2-0.4-0.4-0.7-0.6-0.9L303.2,69.2z"/>
<polygon style="fill:none;" points="297,71.6 299.1,69.8 295.7,70 "/>
<path style="fill:none;" d="M302.6,36.6l2.1,1.1C304.7,37.7,303.8,36.7,302.6,36.6z"/>
<path style="fill:none;" d="M307.2,38h-1.4c0,0,1.3,0.7,1.5,0.7L307.2,38z"/>
<path style="fill:#D49A8B;" d="M129.3,159.8c-1.6-0.8-1.2,0.7-2.2,0.2c-1-0.5-5-0.7-5-0.7s1.2,1,1.7,2.2c0.4,1.1-0.4,3.4-0.5,5.1
	c-0.1,1.7,1.6,3.4,3.7,4.2c2.1,0.8,8.8,0.8,11.7,0.7c2.9-0.1,2.8-3.1,5.3-2.2s4.6,0.5,5.8,0.3c1.2-0.2,2.2-2.2,3.6-1.1
	c1.4,1.1,3.1,0.9,3.8,0.9c0.7-0.1,2.9-3.3,2.8-4c-0.1-0.7-0.6-0.7-2.1-0.7s-1.4-0.9-2.7-2c-1.3-1-1.4-1.6-2.7-1.8
	c-1.4-0.2-2.8-0.7-4-1.2c-1.2-0.5-1.7,0.4-2.7,1.1s-1.5-0.1-2.4-0.5c-0.9-0.4-3,0.2-4.5,1.1c-1.4,0.9-2.8,0.9-3.2,0.7
	c-0.4-0.2-1.1-2.3-1.6-3c-0.5-0.7,0-1.8,1-2.7c0,0-2.5,0.7-3.5,1.6S130.8,160.6,129.3,159.8z"/>
<path style="fill:#DFDFDF;" d="M294.6,80.5c0.8-3.4,1.1-10.4,1.1-10.4l-0.7,0.4C295.2,72,294.6,80.5,294.6,80.5z"/>
<path style="fill:#DFDFDF;" d="M310.6,33.8c4.7-3,12.5-4,12.5-4c-3.3,0.2-6.5,0.7-10.2,2.2c-3.7,1.4-6.6,4.3-6.6,4.3
	c2-3.2,6.6-6.8,6.6-6.8c-5.4,3.1-8.1,8.3-8.1,8.3l1,0.3C305.7,38,305.9,36.8,310.6,33.8z"/>
<path style="fill:#DFDFDF;" d="M298.6,78.2c0.9-3.9,0.9-8.5,0.9-8.5l-0.5,0C299.2,71.1,298.6,78.2,298.6,78.2z"/>
<path style="fill:#D49A8B;" d="M242.1,168.2c0.8,0.4,3,0,3,0s1.1-1.3,1-1.7c-0.1-0.4-2-0.5-2.8-1.5c-0.8-1-1.7-1-3.4-1.6
	s-2.3-2.2-2.7-2.6s-3.5,0-3.5,0S238.5,166.5,242.1,168.2z"/>
<path style="fill:#DFDFDF;" d="M311.4,27.4c-5.5,3-9.1,8.4-9.1,8.4s1.1-3.7,1.3-4.3c1.5-3.6,8.4-9.3,8.4-9.3s-0.5,0.1-4.3,3.2
	s-5.9,8.1-5.9,8.1s1.3-3.7,2.3-7.2c1-3.4,7.2-8.8,7.2-8.8c-7.4,5-8.6,10.3-8.8,11.5c-0.3,1.2-2,6.9-2,6.9s0.8,0.5,2,0.7
	C304.8,32.2,311.4,27.4,311.4,27.4z"/>
<path style="fill:#DFDFDF;" d="M318.3,37.2c-1.5,0.2-2.7,0.4-4.7,1s-3.8,1.3-3.8,1.3c0.9,0.3,1.2,0.4,1.2,0.4
	C312.2,38.7,318.3,37.2,318.3,37.2z"/>
<path style="fill:#DFDFDF;" d="M321.9,34c0,0-1.4,0.2-5.2,0.8c-7.1,1.2-9.3,3.8-9.4,3.8c0,0,1.7,0.5,2.6,0.8
	C312.6,35.9,321.9,34,321.9,34z"/>
<path style="fill:#DFDFDF;" d="M309.6,79.9c-0.9-3.5-3.8-8.5-5.2-10.7c-0.1,0-0.3,0-0.5,0C305.9,72.2,309.6,79.9,309.6,79.9z"/>
<path style="fill:#8C6239;" d="M286.1,72c-3.4,2,1.9,0.6,4.4,0.2c2.5-0.3,2.7-1.4,2.8-0.8c0.3-0.7,0.6-1.2,0.6-1.2
	S289.5,69.9,286.1,72z"/>
<path style="fill:#754C24;" d="M40.7,151.9c7.1-3.5,9.9,0.6,12.9,3.9c5.9-1.1,10.2-3.6,13.3-6.9c-3.1,0.9-5.9,1.7-6.7,1.7
	c0.8-0.1,3.6-0.8,6.7-1.7c6.5-6.9,7.4-17.1,6.2-23.7c-1.7-9.5-8.6-9-22.7-19.1c-14-10.1-3.6-19.4,0-26.3s14-9,23.4-7.2
	c9.4,1.8,18.7,7.2,32.4,6.8c13.7-0.4,18,7.2,24.5,13.3c6.5,6.1,20.5,33.8,24.5,40.3c4,6.5,0.4-6.8-3.2-16.6
	c-3.6-9.7-20.2-32-25.6-37.4c-5.4-5.4-33.1-21-33.1-21s20.6,3.8,31.7,13s1-9.8,23.5-13c22.6-3.1,31.2,9.2,44.5,7.7
	c13.3-1.5,19.4-8.4,28.1-0.3c8.6,8.1,9,8.5,4.7-2.7c-3.5-9.1,1.3-15.8,6-18.6c0,0,0-0.1,0-0.1c-0.4-1.2-2.4-1.7-4.4-3.9
	s-2.1-7.6-2.4-9.4s-0.9-3.8-1-7.3c-0.1-3.5,1.9-6.7,1.9-6.7s-3.4,1.8-5.2,2.4s-11.5-1.3-10.3-0.1s-0.2,2.3-5.9,2.8
	c-5.6,0.5-5.8,0.7-4.4,1.8c1.3,1.1,1.9,1.8-1.7,2.2s-7.7,1.6-6.4,2.3c1.3,0.7,1.7,1.3-1.3,2.9c-3,1.6-14.6-0.4-13.8,0.6
	c0.8,1,0.2,1.6-3,1.9c-3.2,0.4-7.8-3.5-14.6-6c-6.8-2.5-7.2-2.5-6.1-1.2c1.1,1.3-9-2.2-13.4-3.8s-13.1-4-11.4-2.5
	c1.7,1.4-4,0.2-9.5-1.8c-5.5-2-14.6-1-14.3,0.1c0.4,1.1-5.2,2.2-10.9,3.1c-5.8,1-10.2,0.7-8.9,1.6s-5.8,2.8-9.5,4
	c-3.7,1.2-12.5,3.4-13.7,4.4c-1.2,1.1,3.2,0.8,2.5,1.3c-0.7,0.5-12.6,6.6-15.8,7.7C45,41.5,40,44.7,37.1,46
	c-2.9,1.3-12.6,5.5-11.5,5.5c1.1,0,5.9,0.5,1.6,2.4c-4.3,1.9-8.3,7.6-6.5,6.8c1.8-0.7,2.8,1.1-1.1,3.4c-3.8,2.3-8.2,6-5.5,5.4
	c2.6-0.6,1.8,2-0.5,3.6s-7.2,5.3-4.2,4s1.8,1.9-0.2,3.2s-4.3,4.8-2.6,4.3c1.7-0.5,4.4-0.1,2,1.7c-2.4,1.8-11.4,13.8-7.7,11.2
	s8.4-4.4,6.7-2.5c-1.7,1.9-6.4,11.8-4.3,9.2c2-2.5,5.5-2.6,4.8-1.3c-0.7,1.3-6.1,14.3-2.8,9.5c3.4-4.8,3.7,2,4.1,4.8
	c0.4,2.8,2.9,14.2,3.8,17s-1.1,10-1.8,13.1c-0.7,3.1-1.1,4.2-0.6,6.5c0.5,2.3,0.8,2.4,1.2,4.7c0.4,2.3,1.2,5.5,2.5,5.8
	c1.3,0.2,2.4,0.5,4.2,1.4s5.8,3.1,7.9,3.4c2.2,0.2,15.5,0.8,15.5,0.8S31.4,156.4,40.7,151.9z"/>
<path style="fill:#DFDFDF;" d="M304,69.2c0.2,0,0.3,0,0.5,0c-0.4-0.7-0.7-1.1-0.7-1.1l-0.4,0.2C303.6,68.5,303.8,68.8,304,69.2z"/>
<path style="fill:none;" d="M314.5,52.7c-0.9,0.3-1.6-0.1-2-0.3c-0.7-0.4,0.5,1.7,1.2,2s1.4-0.8,1.8-1.5
	C315.8,52,315.4,52.4,314.5,52.7z"/>
<path style="fill:#A67C52;" d="M318.5,46.2c-0.5,0.5-1.1,0.9-1.8,1c-3.1,0.7-7,1.4-12.5,0s-9.1-2.4-10.8,0.8
	c-0.9,1.7-1.8,5.9-3.1,9.9c-2.3-3.5-2.7-3.2-3.3-2c-0.4,0.8-0.3,3.8,1.4,6.7c-0.9,1.8-2,3.3-3.4,4c-4.8,2.4-9.8,4.3-16.3,6.3
	c-6.5,2.1-15.6,0.6-20.6,2.3c-5,1.7-8.4,2.9-9.8,8.4c-1.4,5.5-4.6,11.1-7.2,15.9c-2.6,4.8-11.5,21.3-12,30
	c-0.5,8.6,6.2,16.8-3.4,14.2c-9.6-2.6-18.7-9.4-22.3-12.2s-7.7-4.8-14.6-4.6s-23.3,15.4-27.8,6.5s-6.5-17.8-7.4-13.9
	s-2.9,17.8-11.3,20.4c-8.4,2.6-27.1,7.7-33.1,6s-18.7,0.2-21.6,0.3c-1.6,0.1-6.4,1.4-10.5,2.6c-3.1,3.3-7.4,5.8-13.3,6.9
	c0.9,1,1.9,2,3,2.6c4.6,2.6,30.8,9.1,37.3,8.7c0,0,1.4-2.1,2.5-1.8c1.1,0.4,1.6,0.4,2.3-0.1c0.7-0.5,2.5-1.1,3.6-0.8
	s1.7,1.3,2.3,0.9c0.7-0.5,1.2-2.1,2.8-1.9c1.6,0.2,1.4,0.7,2.4,0s1.2-1.7,2.7-1.6c1.5,0.1,2.4,0.7,3.4,0.8c1,0,1.4-2.3,2.3-1.9
	s2.3,0.9,2.4,0.3c0.1-0.6,1.4-1.6,1.4-1.6s4,0.2,5,0.7c1,0.5,0.6-1.1,2.2-0.2c1.6,0.8,1.2-1,2.2-1.8s3.5-1.6,3.5-1.6
	c1-0.9,4.2-0.3,4.8-0.5s-1.7-3.1,0-2.1s3.3-0.9,2.5-1.3c-0.8-0.4-0.7-3,0.2-2.1c0.9,0.9,3.2,0,3-0.6c-0.2-0.6-1-3.4,0.3-2.6
	c1.3,0.9,1.8,0.9,2,0.4c0.2-0.4-1-2.7-0.3-2.4c0.7,0.4,2.2,0,1.7-0.7c-0.5-0.7-0.4-2.9,0.5-2.5c0.9,0.4,2,1.2,2,0.9
	c0-0.3,0.4-2.3,1.2-2c0.8,0.3,0.8,1.5,1.3,1.2c0.5-0.3,2-1.7,3.6-2.9c1.6-1.2,1.4,2.1,2.6,1.6c1.2-0.5,4.8-4.1,5.9-4.1
	c1.1,0,1,2.3,1.9,1.8c0.8-0.4,1.5-2.9,2.4-2.8s1.7,1.5,2.3,0.9c0.7-0.5,1.9-1.9,3.1-1.2c1.3,0.7,1.4,2.8,2.3,2.7
	c0.9-0.1,1.7-3.4,3.5-2.1c1.8,1.3,1.9,4.3,3,3s2.6-0.7,3.3,0.8c0.8,1.4,2.8,3.3,2.7,2.6c-0.2-0.8,0.8-1.2,1.9,0.4s3.1,4.2,3,3.6
	c-0.1-0.6,1.6-0.2,1.6-0.2s-0.3,0.4,1.7,3.6c2,3.2,8.2,7.8,8.2,7.8s0.7,0,3.8,4.6c3.1,4.7,7.3,4.9,9.5,5.4c2.3,0.6,2.9-0.1,3.6,0.9
	c0.6,1,2.2,2,2.2,1.8s1.8-1.5,2.7-0.7c0.9,0.8,3.9,3,6.6,4.8c2.7,1.8,5.1,1,6,0.9s1.6-2.7,1.6-2.7s1.8-0.1,2.2,1.2
	c0.7,2.1,3.5,1.8,4.3,1.8c0.8,0,0.8-0.5,0.8-0.5c3.4,0.1,6.3,1.4,5.9-0.6c-0.4-2-6.1-5.4-7.2-5.9c-1.1-0.5-4.1-0.7-4.1-0.7
	s-2.2,0.3-3,0c-3.7-1.7-8.5-7.4-8.5-7.4c-0.6-3.7-4.9-11.1-5.8-12.6s-1.3-4.1-3.2-12.2c-2-8.1,0-9.9,0-11.2s0.5-3.9,0.6-5.1
	c0.1-1.3,1.5-6.8,1.5-6s1.8,1.5,1.8,1.5s0.5-3.4,0.5-4.3c-0.1-0.9,2.8-4.1,3.6-4.7s2.3-3.2,2.5-4.3c0.3-1.1,3.1-4.3,3.1-4.7
	s2-1.9,2.1-2.2c0.1-0.3-0.2-2.1,0.4-2.2c0.5-0.1,2.3-0.1,2.3-0.6c-0.1-0.5-0.2-2.5,0.7-2.5s2.5-1,2.2-1.1c-0.2-0.2-1.6-2.6-1.1-2.2
	s2.9,0.7,2.9,0.7s-1.3-2.3-0.1-2c1.1,0.4,3.2-0.2,2.6-0.5c-0.5-0.3-1.3-2.7-1-2.3c0.4,0.4,2.4,1.7,1.7,1c-0.7-0.7-0.5-4.3-0.4-3.5
	c0.2,0.8,1.6,4.7,1.4,3.7c-0.2-1,0.2-4.1,0.4-3.4c0.1,0.7,1.5,2.8,1.7,2.5c0.2-0.3,0.5-3.5,0.5-2.9s1.4,2.6,1.4,1.8
	c0-0.8,1.3-3.1,1.3-2.4c0,0.7,1.7,2.8,1.6,1.8s1.7-2.9,1.6-2.1c-0.1,0.8,1.7,1.9,1.7,1.1c0-0.7,1.4-2.5,1.4-1.9
	c0.1,0.7,1.1,2.8,1.4,1.9c0.2-0.9,1.3-1.4,1.3-1.4s0.4,3.7,0.8,1.9c0.4-1.8,2.6-3.9,2.6-3.9c-0.5,1.9,0.7,3.2,0.7,3.2
	s0.4-0.5,1.6-1.3c1.1-0.8,18.1-2.4,18.9-3.1c0.6-0.4,1.7-2.6,2.4-4c-0.1-0.6-0.2,0.5-2.8,0.8s-7.8,1.8-4.4-0.2
	c3.4-2,7.8-1.8,7.8-1.8c0.4,0.3,1.1,0.3,1.1,0.3l0.7-0.4l3.3-0.3l0.5,0c0.8-0.1,1.5-0.3,2.2-0.6c0.9-0.4,1.6-0.8,1.6-0.8l0.4-0.2
	l1.1-0.9c0,0,1.7-1.4,3.5-3.1c1.8-1.6,3.6-3.4,4-4.4c0.9-1.9,1.9-2.5,3.1-3.8c1.2-1.3,1.4-4.9,1.4-4.9s1-1.2,1.5-3.2
	C318.5,47.2,318.6,46.7,318.5,46.2z M315.5,52.8c-0.4,0.8-1,1.9-1.8,1.5c-0.7-0.3-1.9-2.3-1.2-2c0.5,0.2,1.2,0.6,2,0.3
	S315.8,52,315.5,52.8z"/>
<path style="fill:#050505;" d="M269.8,42.7c2.8,1,5.6-0.7,7.1-1.5c1.5-0.8,2.4-1.2,2.7-1.7c0.3-0.5-0.6-1-1.6-1.3s-2-4.3-4.9-4.3
	c-5.9,0-6.8,5.6-6.8,5.6C266.4,40.6,267,41.7,269.8,42.7z M272,37.1c0.9-0.8,1.4-0.4,1.7,0c0.3,0.4,0.3,0.4,0.3,0.4s0.2,1.3-0.6,1.3
	S271,38.1,272,37.1z"/>
<path style="opacity:0.5;fill:#E6E6E6;" d="M273.5,38.8c0.8,0,0.6-1.3,0.6-1.3s0,0-0.3-0.4c-0.3-0.4-0.9-0.8-1.7,0
	C271,38.1,272.7,38.8,273.5,38.8z"/>
<path style="fill:#754C24;" d="M314.5,52.7c-0.9,0.3-1.6-0.1-2-0.3c-0.7-0.4,0.5,1.7,1.2,2s1.4-0.8,1.8-1.5
	C315.8,52,315.4,52.4,314.5,52.7z"/>
<path style="fill:none;" d="M251.1,20.6c0.2,0.1,0.4,0.1,0.6,0.2C251.7,20.8,251.4,20.7,251.1,20.6z"/>
<path style="fill:none;" d="M278,38.1c-1-0.4-2-4.3-4.9-4.3c-5.9,0-6.8,5.6-6.8,5.6c0.1,1.1,0.7,2.3,3.5,3.2c2.8,1,5.6-0.7,7.1-1.5
	c1.5-0.8,2.4-1.2,2.7-1.7C279.9,38.9,279,38.5,278,38.1z"/>
<path style="fill:#8C6239;" d="M315.9,42.4c-2-1.4-4.9-2.6-4.9-2.6s-0.3,0-1.2-0.4c-0.9-0.3-2.6-0.8-2.6-0.8c-0.1,0-1.5-0.7-1.5-0.7
	l-1-0.3l-2.1-1.1c-1.2-0.2-2-0.7-2-0.7c-1.9-1.4-10.3-5.9-15.3-8.1c-3.3-1.4-5.6-2.1-7-2.6c0,0,0,0-0.1,0c-3.2-1.2-6.5-1.8-6.5-1.8
	c-5.6-1.4-17.3-2.1-20.1-2.6c-0.2,0-0.4-0.1-0.6-0.2c-0.7-0.2-1.7-0.6-2-1c-0.5-0.6-2.8-0.9-2.3,0c0.4,0.6-0.5,0-1.6-0.5
	c0.9,3.8,0.3,10.9-0.6,13.6c-1.2,3.2-3.7,7.8-4.8,9.4c-1.1,1.5-2.9,6.8-5.6,6.5c-2.6-0.3-2.2-3-2.5-4.2c-4.6,2.8-9.5,9.5-6,18.6
	c4.3,11.2,4,10.8-4.7,2.7c-8.6-8.1-14.8-1.2-28.1,0.3c-13.3,1.5-22-10.8-44.5-7.7C125.9,61.1,136,80.1,125,71S93.3,58,93.3,58
	s27.7,15.6,33.1,21c5.4,5.4,22,27.7,25.6,37.4c3.6,9.7,7.2,23,3.2,16.6c-4-6.5-18-34.2-24.5-40.3c-6.5-6.1-10.8-13.7-24.5-13.3
	c-13.7,0.4-23-5-32.4-6.8c-9.4-1.8-19.8,0.4-23.4,7.2s-14,16.2,0,26.3c14,10.1,21,9.6,22.7,19.1c1.2,6.6,0.2,16.8-6.2,23.7
	c4.1-1.2,8.9-2.5,10.5-2.6c2.9-0.1,15.6-2,21.6-0.3s24.7-3.4,33.1-6c8.4-2.6,10.3-16.6,11.3-20.4s2.9,5,7.4,13.9s20.9-6.2,27.8-6.5
	s11,1.7,14.6,4.6c3.6,2.9,12.7,9.6,22.3,12.2c9.6,2.6,2.9-5.5,3.4-14.2c0.5-8.6,9.4-25.2,12-30c2.6-4.8,5.8-10.3,7.2-15.9
	c1.4-5.5,4.8-6.7,9.8-8.4c5-1.7,14.2-0.2,20.6-2.3c6.5-2.1,11.5-3.9,16.3-6.3c1.3-0.7,2.4-2.1,3.4-4c1.9-4.8,0,0,1.9-4.8
	c1.3-4,2.3-8.2,3.1-9.9c1.7-3.2,5.3-2.3,10.8-0.8s9.4,0.7,12.5,0c0.7-0.2,1.3-0.5,1.8-1C318.4,44.8,317.5,43.5,315.9,42.4z
	 M279.6,39.4c-0.3,0.5-1.2,0.9-2.7,1.7c-1.5,0.8-4.3,2.5-7.1,1.5c-2.8-1-3.4-2.1-3.5-3.2c0,0,0.9-5.6,6.8-5.6c2.9,0,4,3.9,4.9,4.3
	S279.9,38.9,279.6,39.4z"/>
<path style="fill:#D49A8B;" d="M244.6,17.3c-1.7-2.6-5.2-6.1-10.6-5.5c-3.9,0.1-8.1,5.1-8.1,5.1s-2,3.2-1.9,6.7
	c0.1,3.5,0.7,5.5,1,7.3s0.4,7.2,2.4,9.4s4,2.7,4.4,3.9c0,0,0,0.1,0,0.1c1.1-0.6,2.1-1.1,3.1-1.3c-0.9,0.2-2,0.6-3.1,1.3
	c0.3,1.2-0.1,3.9,2.5,4.2c2.7,0.3,4.5-5,5.6-6.5c1.1-1.5,3.6-6.2,4.8-9.4C245.7,29.4,246.3,19.9,244.6,17.3z M239.5,33.8
	c-0.4,0.9-2.1,2.3-2.8,4.2c-0.7,2-1.5,3.9-2.3,3.6s-0.6-3.1-0.6-4.5c0-1.4-2.4-3.2-3.3-5.2c-0.9-2,0.4-3.1,2-3.8
	c1.6-0.7,2.1,0.4,4.4,1.6c2.3,1.3,4,1,4,1C241.3,31.5,239.8,32.9,239.5,33.8z"/>
<path style="fill:#CC8684;" d="M236.9,29.8c-2.3-1.3-2.8-2.3-4.4-1.6c-1.6,0.7-2.9,1.8-2,3.8c0.9,2,3.3,3.8,3.3,5.2
	c0,1.4-0.1,4.2,0.6,4.5s1.5-1.6,2.3-3.6c0.7-2,2.4-3.3,2.8-4.2c0.4-0.9,1.8-2.3,1.3-3.1C240.8,30.8,239.2,31.1,236.9,29.8z"/>
<path style="fill:#CC8684;" d="M37,159.2c0.8,5.1,5.1,10.6,5.1,10.6c5.3,2.9,10.3,5,44.9,11.8c34.6,6.7,111.8,12,133.2,12.7
	c10.1,0.3,32.2,1,53.2,1.7c-36-3.8-86.3-8.7-132.4-11.8C75.5,179.7,46.6,165.4,37,159.2z"/>
<path style="fill:#D49A8B;" d="M333.2,193.9c-3.2-1.1-47.5-5.9-91.6-8.6c-44.1-2.7-96-9.3-102.4-10.2c-6.3-0.9-19.1-3.1-24.3-3.7
	c-5.2-0.6-21.1-4.2-21.1-4.2c-6.4,0.3-32.7-6.1-37.3-8.7c-1.1-0.6-2-1.6-3-2.6c-1.1,0.2-2.3,0.4-3.5,0.5c1.2-0.1,2.4-0.3,3.5-0.5
	c-2.9-3.3-5.8-7.3-12.9-3.9c-3.4,1.7-4.1,4.5-3.7,7.4c9.6,6.1,38.5,20.4,104,24.9c46.1,3.2,96.4,8,132.4,11.8
	c23.2,0.7,44.9,1.4,47.3,1.6C325.4,197.9,336.5,194.9,333.2,193.9z"/>
</svg>
