<?xml version="1.0" encoding="utf-8"?>
<!-- Generator: Adobe Illustrator 25.0.1, SVG Export Plug-In . SVG Version: 6.00 Build 0)  -->
<svg version="1.1" id="Layer_1" xmlns="http://www.w3.org/2000/svg" xmlns:xlink="http://www.w3.org/1999/xlink" x="0px" y="0px"
	 viewBox="0 0 4196.1 238.3" style="enable-background:new 0 0 4196.1 238.3;" xml:space="preserve">
<style type="text/css">
	.st0{fill:#B3B3B3;}
	.st1{fill:#1A1A1A;}
	.st2{fill:#FFFFFF;}
	.st3{fill:#808080;}
	.st4{fill:#006837;}
	.st5{fill:#333333;}
	.st6{fill:none;stroke:#FFFFFF;stroke-width:0.25;stroke-miterlimit:10;}
	.st7{fill:#C1272D;}
	.st8{fill:#540D1D;}
	.st9{fill:none;}
	.st10{fill:#B3B3B3;stroke:#000000;stroke-miterlimit:10;}
</style>
<g>
	<rect x="2666.1" y="-1772.3" class="st0" width="428.4" height="317.2"/>
	<path d="M2677.4-1529c2.5-47.4,22.2-159.3,145.8-230.5h-145.8V-1529z"/>
	<path class="st1" d="M2982.6-1759.5h-159.4c-123.6,71.2-143.3,183.1-145.8,230.5v22.4v38.6h405.8v-119.2
		C3066.7-1652.7,3032.9-1722.9,2982.6-1759.5z"/>
	<path d="M2838.5-1601.8c0,0-43.6-58.7,5.8-71.5s51.1-10.6,57.2,17.5c6.1,28.1,0,61.8,0,61.8l53.7,12.7l46.4,109.9h-251.3l21.6-91.9
		L2838.5-1601.8z"/>
	<path d="M2982.6-1759.5c50.3,36.6,84,106.8,100.5,172.3v-172.3H2982.6z"/>
	<path class="st2" d="M3086.7-1464.5h-412.8V-1763h412.8V-1464.5z M2680.9-1471.5h398.8V-1756h-398.8V-1471.5z"/>
	<polygon class="st0" points="2859.8,-1576.2 2870.8,-1580.6 2882.3,-1577.5 2874.2,-1541.5 	"/>
	<circle class="st0" cx="2906.8" cy="-1561.1" r="12.4"/>
</g>
<image style="overflow:visible;" width="1058" height="1059" xlink:href="7902FA9.jpg"  transform="matrix(0.3753 0 0 0.3753 1199.6467 -1731.3777)">
</image>
<image style="overflow:visible;" width="800" height="587" xlink:href="7902FAB.jpg"  transform="matrix(1.8616 0 0 1.8616 -897.4767 -1776.718)">
</image>
<image style="overflow:visible;" width="800" height="587" xlink:href="7902FAE.jpg"  transform="matrix(1.8616 0 0 1.8616 1664.4617 -2915.7581)">
</image>
<path class="st3" d="M-171.7-1384.6c0.7-5,2.9-14.6,8.9-19.9c8-7.1,16.1-10.8,41.6-7.8c1.8-0.5,3.7-1.1,5.6-1.5
	c-3.6-4.9-11.9-10.4-15.3-11.9c-3.4-1.4-30.6-1.1-30.6-1.1s-4-0.8-8.3,5.8c2.5,0.1,5.5,0.7,5.6,2.8c0.2,3.8-4.7,8.6-6.7,15.8
	c-2,7.2-4.5,13.9-4.5,13.9l-0.4-13.6c-1.6,11.1-1.8,22.8-1.8,22.8S-175.5-1381.4-171.7-1384.6z"/>
<path class="st1" d="M-170.8-1402.4c2-7.2,6.8-12.1,6.7-15.8c-0.1-2.1-3-2.7-5.6-2.8c-0.8,1.2-1.6,2.7-2.4,4.4
	c-1.7,3.7-2.8,9-3.6,14.5l0.4,13.6C-175.3-1388.5-172.8-1395.2-170.8-1402.4z"/>
<path class="st0" d="M-180.4-1371.2c12.2-11,48.6-38.7,72.2-38.7c19,0,17,21.6,15.5,30c1,2,1.9,4.1,2.6,6.1c0.1-2.5,0.3-4.6,0.8-5.6
	c1.4-2.7,8.5-19.1,2.3-27.9c-6.1-8.8-28.6-6.5-28.6-6.5c-1.9,0.5-3.8,1-5.6,1.5c1.1,0.1,2.3,0.3,3.5,0.4c-1.2-0.2-2.3-0.3-3.5-0.4
	c-24.1,7.2-41.9,20.4-50.5,27.7c-0.3,1.9-0.4,3.1-0.4,3.1s0.1-1.2,0.4-3.1c-3.8,3.2-5.8,5.3-5.8,5.3s-17.8,16.6-10.1,30.6
	c0.1,0.2,0.2,0.4,0.3,0.6C-188.3-1354-188.5-1363.9-180.4-1371.2z"/>
<path class="st1" d="M-162.8-1404.5c-6,5.3-8.2,14.9-8.9,19.9c8.6-7.3,26.5-20.5,50.5-27.7C-146.7-1415.4-154.8-1411.6-162.8-1404.5
	z"/>
<path class="st4" d="M-110.5-1219.6L-110.5-1219.6C-110.5-1219.7-110.5-1219.6-110.5-1219.6L-110.5-1219.6z"/>
<path class="st5" d="M-110.5-1219.7c3.6-9,28.4-49.7,39.6-70.2c11.2-20.5,15.1-45.4,15.1-45.4l-13,5l11.2-8.6l-5.6-8.8c0,0,0,0,0,0
	c-7.7-3.1-21.2-5.6-21.2-5.6s-0.7,0.9-2,1.4c-1,38.4-20.8,63.9-20.8,63.9C-114.8-1261.6-110.5-1219.7-110.5-1219.7z"/>
<path class="st0" d="M-93.4-1376.6c0,0,0.3-1.3,0.7-3.3c-0.3-0.5-0.6-1.1-0.9-1.5c-3.1-4.9-7.3-4.1-7.3-4.1v13
	c0,0-8.3-11.3-8.9-12.2c-0.6-0.9-10.7-11.3-12.8-11.4c-2.1-0.1-23.7,12.3-26.5,14.7c-2.8,2.3-12.1,11.1-13.4,14.2
	c-1.3,3.2,1.6,7.8,4.6,7.4c3-0.4,7-7.3,11.5-8.2c4.5-0.9,8.2,0.7,8.2,0.7s1.6-0.3,2.3,5c0.7,5.3,0.8,10.7,2.8,11.2
	c1.9,0.5,7.7,0,7.7,0s-0.9-2.5,0.8-2.9s4.1,0.2,3.6,1.3c-0.5,1.1-3.3,2.2-3,3.7c0.3,1.6-2.2,4-4.7,3.5c-2.5-0.5-5.9-0.4-6-2.4
	c-0.1-2-3.2-5.3-3.5-6.1c-0.3-0.8,0-8.3,0-8.3s-3.1-0.6-5.2,2.4c-2,3.1-4.1,4.3-6.8,4.9c-2.8,0.6-6.7,0.2-7.8,1.2
	c-1.1,1-4.2,5,1.6,7c5.8,1.9,2.9-3.4,7,1.1c4.1,4.4,11.5,16.4,14.8,17.6c3.2,1.2,5.5,6,10.7,4.9s19.3-5.3,21.9-14.9
	c0,0,1.8,9.6-9.1,17.2l5.8-1.3c0,0-12.7,8.4-18.1,10c-5.4,1.6-4,1.8-4,1.8l3.5,5.6l0.4,7.6l6,1.1l1.2,7.2l9.1,1
	c7.6-26.4,8.3-32.5,8.3-32.5s-0.7,6.1-8.3,32.5c0,0,19.8-25.5,20.8-63.9c-0.8,0.3-1.8,0.5-3,0.2c-3.2-0.7-4.3-8.3-4.3-8.3
	s2.5-0.2,3.2-3.1c0.5-1.8,0.3-6.8,0.4-10.9c-0.7-1.9-1.6-4.1-2.6-6.1C-93.1-1377.9-93.4-1376.6-93.4-1376.6z M-122.3-1367.4
	c-2,0.4-4.8-0.2-6.6-0.7c-1.8-0.5-5.8-6.5-5.8-6.5l9.8-6.9l5.9,0.4c-5.3,2.3-7.5,6.7-7.5,6.7s-1.2,1.9,3.3,0.9s9.8-2,9.8-2
	S-120.3-1367.7-122.3-1367.4z M-117-1334.7c-2.3,0.9-3.5,0.4-3.9,1.7s-4.1,2.3-4.7,1.9c-0.6-0.4-0.8-2.4-0.8-2.4s7.8-5.9,11.8-6
	C-110.8-1339.6-114.7-1335.5-117-1334.7z M-113.2-1344.6c-4.7,1.3-15.4,6.6-16.4,8.6s-3.5,1.6-3.8-0.6c0,0,2.5-2.2,4.6-2.6
	s5.2-2.8,9.2-4.4c4.1-1.7,5.8-3.1,5.8-4.1s5.2-0.6,5.2-0.6l1.8,2.2C-106.9-1346.2-108.5-1345.9-113.2-1344.6z M-112.3-1352.6
	c-2-1-6.5-2.3-6.8-2.8c-0.4-0.5-0.6-2.6-0.6-2.6s11.4,2,12.8,6.2C-105.5-1347.6-110.3-1351.7-112.3-1352.6z"/>
<path class="st1" d="M78.2-1257.6c-1-3.8-19.9-25-24.7-32.6c-4.8-7.7-25.7-25.9-27.6-28.6c-1.9-2.6-4.8-5.5-7.2-7
	c-2.4-1.4-1.4-5.8-2.4-8.6c-1-2.9-21.9-18.8-27.1-20.1s-31.5,3.8-38,5.6c-6.3,1.8-14.1,1.3-14.5,1.3l5.6,8.8l-11.2,8.6l13-5
	c0,0-4,24.8-15.1,45.4c-11.2,20.5-36,61.2-39.6,70.2l0,0.1l6.1,6l-6.1-6l4.3,12.5l-4.3-12.5l0,0c-2.6,6.7-5.3,28.7-6.5,40l82.4-6.3
	c1.8-2.2,3.5-4.5,4.3-6.4c2.9-6.3,17.6-15.8,20.5-16.6c2.9-0.7,7.9-10.1,7.6-12.6s-18.4,7.9-18.4,7.9l15.8-13.7c0,0,1.1-2.5,5.8-5
	s-5.8-8.6-5.8-8.6s5.8,1.1,8.6,2.5c2.9,1.4-6.1-12.6-6.1-12.6s4.3,2.9,7.2,7.2c2.9,4.3,0-9.7-0.4-12.6c-0.4-2.9-21.2-31.6-21.2-31.6
	l-10.4-43c0,0,6.5,23,11.9,35.6c5.4,12.6,27.1,38.6,27.1,38.6l0.9,2.3c2.6,4.8,9.9,8.7,9.9,8.7c0,3.6,4.8,6.7,4.8,6.7
	s0.7-1.7,0.7,1.9c0,3.6,1.7,4.6,1.7,4.6c-1,3.4,1,16.8,1,16.8l-6,35.8h38.6l3.6-13.4c0,0,1.2-2.9,1.9-6.2c0.7-3.4,5.5-9.1,5.3-13.4
	s3.1-9.6,5-17.4C81.4-1238.1,79.2-1253.8,78.2-1257.6z M-25.2-1313.6v16.2L-54-1288l11.5-20.6l5.8,2.2l2.2-7.2l5.8,4L-25.2-1313.6z"
	/>
<path class="st1" d="M-169.4-1226.2c0,0-0.5-17.3,0-19.3s-0.4-6.5,4.5-6.3c0,0-1.8-7,1.3-7s5.8-1.8,5.8-1.8s1.6-4.7,6.7-5.8
	c0,0-0.4-4.9,4.9-5.2c5.2-0.4,15.3,2.2,15.3,2.2s0.9-7.4,5-8.8c4.1-1.4,2.7,4.9,2.7,4.9s-2,8.5-2.2,11c-0.2,2.5-1.3,6.5-4.1,10.4
	c-2.9,4-4.3,7.7-4.7,8.3c0,0-0.1,0.2-0.1,0.4l23.8,23.6c0,0,0,0,0,0c0,0-4.3-41.9,3.2-68.3l-9.1-1l-1.2-7.2l-6-1.1l-0.4-7.6
	l-3.5-5.6c0,0-1.4-0.2,4-1.8c5.4-1.6,18.1-10,18.1-10l-5.8,1.3c10.9-7.6,9.1-17.2,9.1-17.2c-2.6,9.6-16.7,13.8-21.9,14.9
	s-7.5-3.7-10.7-4.9c-3.2-1.2-10.7-13.2-14.8-17.6c-4.1-4.4-1.2,0.8-7-1.1c-5.8-1.9-2.6-6-1.6-7c1.1-1,5-0.6,7.8-1.2
	c2.8-0.6,4.8-1.8,6.8-4.9c2-3.1,5.2-2.4,5.2-2.4l0-5c0,0-3.7-1.6-8.2-0.7c-4.5,0.9-8.5,7.8-11.5,8.2c-3,0.4-5.9-4.3-4.6-7.4
	c1.4-3.2,10.6-11.9,13.4-14.2c2.8-2.3,24.4-14.8,26.5-14.7c2.1,0.1,12.2,10.5,12.8,11.4c0.6,0.9,8.9,12.2,8.9,12.2v-13
	c0,0,4.2-0.7,7.3,4.1c0.3,0.5,0.6,1,0.9,1.5c1.5-8.4,3.5-30-15.5-30c-23.6,0-59.9,27.7-72.2,38.7c-8.1,7.3-7.9,17.2-6.9,23.1
	c5.6,8.9,22,7.9,22,7.9s1.8,3.8,5.7,7.6s9.6,0,9.6,0s2.5,2,6.8,6.7c4.3,4.7,12.2,11.7,12.2,11.7c-3.2,5-29.5,25.1-33.8,26.8
	s-7.2,6-7.7,11c-0.5,5-8.4,28.3-8.4,28.3v17.9c0,0-6.5,2.5-8.4,2.7s0,13.2,0,13.2s9.8-0.8,13.3-4.2S-169.4-1226.2-169.4-1226.2z"/>
<path d="M-134.4-1243.2c-0.5,2.4-2,16.1-7.6,17.1c-6.1,1.1-5.9,3.8-8.1,5.4c0,0,3.1,1.3,3.4,3.6c0.4,2.3-7,13.7-7,13.7
	s-8.3,18.7-12.4,21.6c-2.1,1.5-4.8,4.2-6.9,6.5l56-4.2c1.2-11.3,3.8-33.3,6.5-40L-134.4-1243.2z"/>
<path class="st1" d="M-113.2-1375.5c0,0-5.3,1-9.8,2s-3.3-0.9-3.3-0.9s2.2-4.3,7.5-6.7l-5.9-0.4l-9.8,6.9c0,0,4,5.9,5.8,6.5
	c1.8,0.5,4.6,1.1,6.6,0.7S-113.2-1375.5-113.2-1375.5z"/>
<polygon class="st0" points="-34.6,-1313.6 -36.7,-1306.4 -42.5,-1308.6 -54,-1288 -25.2,-1297.4 -25.2,-1313.6 -28.8,-1309.7 "/>
<path class="st6" d="M-31.6-1082.4c0,0,0.7,12.6-0.5,17.9c-1.2,5.3-1.9,23.3-1.9,23.3l-43.2,3.3c-4.1,5-9.3,9.8-9.3,9.8l61.6-7.6
	v-57.6l-4.8-13c-0.4-0.8-0.7-1.6-0.9-2.3C-30.7-1108.7-30.2-1088-31.6-1082.4z"/>
<path d="M10.6-1212.5c1.2-5.3,0.5-17.9,0.5-17.9c1.4-5.6,1-26.3,1-26.3s-21.7-26-27.1-38.6c-5.4-12.6-11.9-35.6-11.9-35.6l10.4,43
	c0,0,20.9,28.7,21.2,31.6c0.4,2.9,3.2,16.9,0.4,12.6c-2.9-4.3-7.2-7.2-7.2-7.2s9,14,6.1,12.6c-2.9-1.4-8.6-2.5-8.6-2.5
	s10.4,6.1,5.8,8.6s-5.8,5-5.8,5l-15.8,13.7c0,0,18-10.4,18.4-7.9s-4.7,11.9-7.6,12.6c-2.9,0.7-17.6,10.3-20.5,16.6
	c-0.9,1.9-2.5,4.2-4.3,6.4l43.2-3.3C8.6-1189.2,9.4-1207.2,10.6-1212.5z"/>
<path class="st4" d="M12.9-1254.3l-0.9-2.3C12.1-1255.8,12.4-1255.1,12.9-1254.3z"/>
<path class="st3" d="M-138.2-1354c0.3,0.8,3.4,4.1,3.5,6.1c0.1,2,3.5,1.9,6,2.4c2.5,0.5,5-1.9,4.7-3.5c-0.3-1.6,2.5-2.6,3-3.7
	c0.5-1.1-1.9-1.7-3.6-1.3s-0.8,2.9-0.8,2.9s-5.8,0.5-7.7,0c-1.9-0.5-2-5.9-2.8-11.2c-0.7-5.3-2.3-5-2.3-5l0,5
	C-138.1-1362.2-138.5-1354.8-138.2-1354z"/>
<path class="st1" d="M-113.9-1347.7c0,1-1.7,2.4-5.8,4.1c-4.1,1.7-7.2,4-9.2,4.4s-4.6,2.6-4.6,2.6c0.4,2.2,2.9,2.6,3.8,0.6
	s11.6-7.3,16.4-8.6c4.7-1.3,6.3-1.6,6.3-1.6l-1.8-2.2C-108.7-1348.3-113.9-1348.7-113.9-1347.7z"/>
<path class="st3" d="M-114.7-1339.4c-4,0.1-11.8,6-11.8,6s0.2,2,0.8,2.4c0.6,0.4,4.3-0.6,4.7-1.9s1.6-0.8,3.9-1.7
	C-114.7-1335.5-110.8-1339.6-114.7-1339.4z"/>
<path class="st3" d="M-119.8-1358c0,0,0.2,2.2,0.6,2.6c0.4,0.5,4.8,1.8,6.8,2.8c2,1,6.8,5,5.4,0.8
	C-108.4-1356-119.8-1358-119.8-1358z"/>
<path d="M-169.4-1226.2c0,0-3.1,4.1-6.5,7.6s-13.3,4.2-13.3,4.2s-4.6,2.2-8.6,6c-4.1,3.8-4.6,11-8.2,13.4
	c-3.6,2.4-2.2,15.1-2.2,15.1l25.2,5.2l9.8-0.7c2.1-2.3,4.8-5,6.9-6.5c4.1-2.9,12.4-21.6,12.4-21.6s7.4-11.3,7-13.7
	c-0.4-2.3-3.4-3.6-3.4-3.6S-163.1-1217.5-169.4-1226.2z"/>
<path class="st0" d="M-126-1278.2c-4.1,1.4-5,8.8-5,8.8s-10.1-2.5-15.3-2.2c-5.2,0.4-4.9,5.2-4.9,5.2c-5,1.1-6.7,5.8-6.7,5.8
	s-2.7,1.8-5.8,1.8s-1.3,7-1.3,7c-4.9-0.2-4,4.3-4.5,6.3s0,19.3,0,19.3c6.3,8.6,19.3,5.4,19.3,5.4c2.2-1.6,2-4.3,8.1-5.4
	c5.7-1,7.2-14.6,7.6-17.1l-7.8-7.7l7.8,7.7c0-0.2,0.1-0.3,0.1-0.4c0.4-0.5,1.8-4.3,4.7-8.3c2.9-4,4-7.9,4.1-10.4
	c0.2-2.5,2.2-11,2.2-11S-121.9-1279.6-126-1278.2z"/>
<g>
	<path class="st7" d="M1769.4-1362.2c0.7-5,2.9-14.6,8.9-19.9c8-7.1,16.1-10.8,41.6-7.8c1.8-0.5,3.7-1.1,5.6-1.5
		c-3.6-4.9-11.9-10.4-15.3-11.9c-3.4-1.4-30.6-1.1-30.6-1.1s-4-0.8-8.3,5.8c2.5,0.1,5.5,0.7,5.6,2.8c0.2,3.8-4.7,8.6-6.7,15.8
		c-2,7.2-4.5,13.9-4.5,13.9l-0.4-13.6c-1.6,11.1-1.8,22.8-1.8,22.8S1765.7-1359,1769.4-1362.2z"/>
	<path class="st8" d="M1770.3-1380c2-7.2,6.8-12.1,6.7-15.8c-0.1-2.1-3-2.7-5.6-2.8c-0.8,1.2-1.6,2.7-2.4,4.4
		c-1.7,3.7-2.8,9-3.6,14.5l0.4,13.6C1765.8-1366.1,1768.3-1372.8,1770.3-1380z"/>
	<path class="st7" d="M1760.8-1348.8c12.2-11,48.6-38.7,72.2-38.7c19,0,17,21.6,15.5,30c1,2,1.9,4.1,2.6,6.1
		c0.1-2.5,0.3-4.6,0.8-5.6c1.4-2.7,8.5-19.1,2.3-27.9c-6.1-8.8-28.6-6.5-28.6-6.5c-1.9,0.5-3.8,1-5.6,1.5c1.1,0.1,2.3,0.3,3.5,0.4
		c-1.2-0.2-2.3-0.3-3.5-0.4c-24.1,7.2-41.9,20.4-50.5,27.7c-0.3,1.9-0.4,3.1-0.4,3.1s0.1-1.2,0.4-3.1c-3.8,3.2-5.8,5.3-5.8,5.3
		s-17.8,16.6-10.1,30.6c0.1,0.2,0.2,0.4,0.3,0.6C1752.8-1331.6,1752.6-1341.5,1760.8-1348.8z"/>
	<path class="st1" d="M1778.3-1382.1c-6,5.3-8.2,14.9-8.9,19.9c8.6-7.3,26.5-20.5,50.5-27.7
		C1794.4-1393,1786.3-1389.2,1778.3-1382.1z"/>
	<path class="st4" d="M1830.6-1197.2L1830.6-1197.2C1830.6-1197.3,1830.6-1197.2,1830.6-1197.2L1830.6-1197.2z"/>
	<path class="st5" d="M1830.6-1197.3c3.6-9,28.4-49.7,39.6-70.2c11.2-20.5,15.1-45.4,15.1-45.4l-13,5l11.2-8.6l-5.6-8.8c0,0,0,0,0,0
		c-7.7-3.1-21.2-5.6-21.2-5.6s-0.7,0.9-2,1.4c-1,38.4-20.8,63.9-20.8,63.9C1826.3-1239.2,1830.6-1197.3,1830.6-1197.3z"/>
	<path class="st0" d="M1847.7-1354.2c0,0,0.3-1.3,0.7-3.3c-0.3-0.5-0.6-1.1-0.9-1.5c-3.1-4.9-7.3-4.1-7.3-4.1v13
		c0,0-8.3-11.3-8.9-12.2c-0.6-0.9-10.7-11.3-12.8-11.4c-2.1-0.1-23.7,12.3-26.5,14.7c-2.8,2.3-12.1,11.1-13.4,14.2
		c-1.3,3.2,1.6,7.8,4.6,7.4s7-7.3,11.5-8.2c4.5-0.9,8.2,0.7,8.2,0.7s1.6-0.3,2.3,5c0.7,5.3,0.8,10.7,2.8,11.2s7.7,0,7.7,0
		s-0.9-2.5,0.8-2.9s4.1,0.2,3.6,1.3c-0.5,1.1-3.3,2.2-3,3.7c0.3,1.6-2.2,4-4.7,3.5c-2.5-0.5-5.9-0.4-6-2.4s-3.2-5.3-3.5-6.1
		c-0.3-0.8,0-8.3,0-8.3s-3.1-0.6-5.2,2.4c-2,3.1-4.1,4.3-6.8,4.9s-6.7,0.2-7.8,1.2c-1.1,1-4.2,5,1.6,7c5.8,1.9,2.9-3.4,7,1.1
		c4.1,4.4,11.5,16.4,14.8,17.6c3.2,1.2,5.5,6,10.7,4.9c5.3-1.1,19.3-5.3,21.9-14.9c0,0,1.8,9.6-9.1,17.2l5.8-1.3
		c0,0-12.7,8.4-18.1,10c-5.4,1.6-4,1.8-4,1.8l3.5,5.6l0.4,7.6l6,1.1l1.2,7.2l9.1,1c7.6-26.4,8.3-32.5,8.3-32.5s-0.7,6.1-8.3,32.5
		c0,0,19.8-25.5,20.8-63.9c-0.8,0.3-1.8,0.5-3,0.2c-3.2-0.7-4.3-8.3-4.3-8.3s2.5-0.2,3.2-3.1c0.5-1.8,0.3-6.8,0.4-10.9
		c-0.7-1.9-1.6-4.1-2.6-6.1C1848-1355.5,1847.7-1354.2,1847.7-1354.2z M1818.8-1345c-2,0.4-4.8-0.2-6.6-0.7
		c-1.8-0.5-5.8-6.5-5.8-6.5l9.8-6.9l5.9,0.5c-5.3,2.3-7.5,6.7-7.5,6.7s-1.2,1.9,3.3,0.9s9.8-2,9.8-2S1820.8-1345.3,1818.8-1345z
		 M1824.1-1312.3c-2.3,0.9-3.5,0.4-3.9,1.7c-0.4,1.3-4.1,2.3-4.7,1.9c-0.6-0.4-0.8-2.4-0.8-2.4s7.8-5.9,11.8-6
		S1826.4-1313.1,1824.1-1312.3z M1827.9-1322.2c-4.7,1.3-15.4,6.6-16.4,8.6c-1,2-3.5,1.6-3.8-0.6c0,0,2.5-2.2,4.6-2.6
		c2-0.5,5.2-2.8,9.2-4.4c4.1-1.7,5.8-3.1,5.8-4.1c0-1,5.2-0.6,5.2-0.6l1.8,2.2C1834.2-1323.8,1832.6-1323.5,1827.9-1322.2z
		 M1828.8-1330.2c-2-1-6.5-2.3-6.8-2.8c-0.4-0.5-0.6-2.6-0.6-2.6s11.4,2,12.8,6.2C1835.6-1325.2,1830.8-1329.3,1828.8-1330.2z"/>
	<path class="st1" d="M2019.4-1235.2c-1-3.8-19.9-25-24.7-32.6c-4.8-7.7-25.7-25.9-27.6-28.6c-1.9-2.6-4.8-5.5-7.2-7
		c-2.4-1.4-1.4-5.8-2.4-8.6s-21.9-18.8-27.1-20.1c-5.2-1.3-31.5,3.8-38,5.6c-6.3,1.8-14.1,1.3-14.5,1.3l5.6,8.8l-11.2,8.6l13-5
		c0,0-4,24.8-15.1,45.4c-11.2,20.5-36,61.2-39.6,70.2l0,0.1l0,0l0,0l0,0c-2.6,6.7-5.3,28.7-6.5,40l82.4-6.3c1.8-2.2,3.5-4.5,4.3-6.4
		c2.9-6.3,17.6-15.8,20.5-16.6c2.9-0.7,7.9-10.1,7.6-12.6s-18.4,7.9-18.4,7.9l15.8-13.7c0,0,1.1-2.5,5.8-5s-5.8-8.6-5.8-8.6
		s5.8,1.1,8.6,2.5c2.9,1.4-6.1-12.6-6.1-12.6s4.3,2.9,7.2,7.2c2.9,4.3,0-9.7-0.4-12.6s-21.2-31.6-21.2-31.6l-10.4-43
		c0,0,6.5,23,11.9,35.6c5.4,12.6,27.1,38.6,27.1,38.6l0.9,2.3c2.6,4.8,9.9,8.7,9.9,8.7c0,3.6,4.8,6.7,4.8,6.7s0.7-1.7,0.7,1.9
		s1.7,4.6,1.7,4.6c-1,3.4,1,16.8,1,16.8l-6,35.8h38.6l3.6-13.4c0,0,1.2-2.9,1.9-6.2c0.7-3.4,5.5-9.1,5.3-13.4
		c-0.2-4.3,3.1-9.6,5-17.4S2020.3-1231.4,2019.4-1235.2z M1915.9-1291.2v16.2l-28.8,9.5l11.5-20.6l5.8,2.2l2.2-7.2l5.8,4
		L1915.9-1291.2z"/>
	<path class="st1" d="M1771.7-1203.8c0,0-0.5-17.3,0-19.3c0.5-2-0.4-6.5,4.5-6.3c0,0-1.8-7,1.3-7c3.1,0,5.8-1.8,5.8-1.8
		s1.6-4.7,6.7-5.8c0,0-0.4-4.9,4.9-5.2c5.2-0.4,15.3,2.2,15.3,2.2s0.9-7.4,5-8.8c4.1-1.4,2.7,4.9,2.7,4.9s-2,8.5-2.2,11
		s-1.3,6.5-4.1,10.4c-2.9,4-4.3,7.7-4.7,8.3c0,0-0.1,0.2-0.1,0.4l23.8,23.6c0,0,0,0,0,0c0,0-4.3-41.9,3.2-68.3l-9.1-1l-1.2-7.2
		l-6-1.1l-0.4-7.6l-3.5-5.6c0,0-1.4-0.2,4-1.8c5.4-1.6,18.1-10,18.1-10l-5.8,1.3c10.9-7.6,9.1-17.2,9.1-17.2
		c-2.6,9.6-16.7,13.8-21.9,14.9c-5.3,1.1-7.5-3.7-10.7-4.9c-3.2-1.2-10.7-13.2-14.8-17.6c-4.1-4.4-1.2,0.8-7-1.1
		c-5.8-1.9-2.6-6-1.6-7c1.1-1,5-0.6,7.8-1.2s4.8-1.8,6.8-4.9c2-3.1,5.2-2.4,5.2-2.4l0-5c0,0-3.7-1.6-8.2-0.7
		c-4.5,0.9-8.6,7.8-11.5,8.2s-5.9-4.3-4.6-7.4c1.3-3.2,10.6-11.9,13.4-14.2c2.8-2.3,24.4-14.8,26.5-14.7
		c2.1,0.1,12.2,10.5,12.8,11.4c0.6,0.9,8.9,12.2,8.9,12.2v-13c0,0,4.2-0.7,7.3,4.1c0.3,0.5,0.6,1,0.9,1.5c1.5-8.4,3.5-30-15.5-30
		c-23.6,0-59.9,27.7-72.2,38.7c-8.1,7.3-7.9,17.2-6.9,23.1c5.6,8.9,22,7.9,22,7.9s1.8,3.8,5.7,7.6s9.6,0,9.6,0s2.5,2,6.8,6.7
		c4.3,4.7,12.2,11.7,12.2,11.7c-3.2,5-29.5,25.1-33.8,26.8c-4.3,1.7-7.2,6-7.7,11s-8.4,28.3-8.4,28.3v17.9c0,0-6.5,2.5-8.4,2.7
		c-1.9,0.2,0,13.2,0,13.2s9.8-0.8,13.3-4.2C1768.7-1199.6,1771.7-1203.8,1771.7-1203.8z"/>
	<path d="M1806.7-1220.8c-0.5,2.4-2,16.1-7.6,17.1c-6.1,1.1-5.9,3.8-8.1,5.4c0,0,3.1,1.3,3.4,3.6c0.4,2.3-7,13.7-7,13.7
		s-8.3,18.7-12.4,21.6c-2.1,1.5-4.8,4.2-6.9,6.5l56-4.2c1.2-11.3,3.8-33.3,6.5-40L1806.7-1220.8z"/>
	<path class="st1" d="M1827.9-1353.1c0,0-5.3,1-9.8,2s-3.3-0.9-3.3-0.9s2.2-4.3,7.5-6.7l-5.9-0.5l-9.8,6.9c0,0,4,5.9,5.8,6.5
		c1.8,0.5,4.6,1.1,6.6,0.7C1820.8-1345.3,1827.9-1353.1,1827.9-1353.1z"/>
	<polygon class="st0" points="1906.6,-1291.2 1904.4,-1284 1898.6,-1286.2 1887.1,-1265.6 1915.9,-1275 1915.9,-1291.2 
		1912.3,-1287.3 	"/>
	<path d="M1951.7-1190.1c1.2-5.3,0.5-17.9,0.5-17.9c1.4-5.6,1-26.3,1-26.3s-21.7-26-27.1-38.6c-5.4-12.6-11.9-35.6-11.9-35.6
		l10.4,43c0,0,20.9,28.7,21.2,31.6s3.2,16.9,0.4,12.6c-2.9-4.3-7.2-7.2-7.2-7.2s9,14,6.1,12.6c-2.9-1.4-8.6-2.5-8.6-2.5
		s10.4,6.1,5.8,8.6s-5.8,5-5.8,5l-15.8,13.7c0,0,18-10.4,18.4-7.9s-4.7,11.9-7.6,12.6c-2.9,0.7-17.6,10.3-20.5,16.6
		c-0.9,1.9-2.5,4.2-4.3,6.4l43.2-3.3C1949.8-1166.8,1950.5-1184.8,1951.7-1190.1z"/>
	<path class="st4" d="M1954-1231.9l-0.9-2.3C1953.3-1233.4,1953.6-1232.7,1954-1231.9z"/>
	<path class="st3" d="M1803-1331.6c0.3,0.8,3.4,4.1,3.5,6.1s3.5,1.9,6,2.4c2.5,0.5,5-1.9,4.7-3.5c-0.3-1.6,2.5-2.6,3-3.7
		c0.5-1.1-1.9-1.7-3.6-1.3s-0.8,2.9-0.8,2.9s-5.8,0.5-7.7,0s-2-5.9-2.8-11.2c-0.7-5.3-2.3-5-2.3-5l0,5
		C1803-1339.8,1802.6-1332.4,1803-1331.6z"/>
	<path class="st1" d="M1827.2-1325.3c0,1-1.7,2.4-5.8,4.1c-4.1,1.7-7.2,4-9.2,4.4c-2,0.5-4.6,2.6-4.6,2.6c0.4,2.2,2.9,2.6,3.8,0.6
		c1-2,11.6-7.3,16.4-8.6c4.7-1.3,6.3-1.6,6.3-1.6l-1.8-2.2C1832.4-1325.9,1827.2-1326.3,1827.2-1325.3z"/>
	<path class="st3" d="M1826.4-1317c-4,0.1-11.8,6-11.8,6s0.2,2,0.8,2.4c0.6,0.4,4.3-0.6,4.7-1.9c0.4-1.3,1.6-0.8,3.9-1.7
		C1826.4-1313.1,1830.4-1317.2,1826.4-1317z"/>
	<path class="st3" d="M1821.4-1335.6c0,0,0.2,2.2,0.6,2.6c0.4,0.5,4.8,1.8,6.8,2.8c2,1,6.8,5,5.4,0.8
		C1832.8-1333.6,1821.4-1335.6,1821.4-1335.6z"/>
	<path d="M1771.7-1203.8c0,0-3.1,4.1-6.5,7.6c-3.4,3.4-13.3,4.2-13.3,4.2s-4.6,2.2-8.6,6c-4.1,3.8-4.6,11-8.2,13.4
		c-3.6,2.4-2.2,15.1-2.2,15.1l25.2,5.2l9.8-0.7c2.1-2.3,4.8-5,6.9-6.5c4.1-2.9,12.4-21.6,12.4-21.6s7.4-11.3,7-13.7
		c-0.4-2.3-3.4-3.6-3.4-3.6S1778-1195.1,1771.7-1203.8z"/>
	<path class="st0" d="M1815.1-1255.8c-4.1,1.4-5,8.8-5,8.8s-10.1-2.5-15.3-2.2c-5.2,0.4-4.9,5.2-4.9,5.2c-5,1.1-6.7,5.8-6.7,5.8
		s-2.7,1.8-5.8,1.8c-3.1,0-1.3,7-1.3,7c-4.9-0.2-4,4.3-4.5,6.3c-0.5,2,0,19.3,0,19.3c6.3,8.6,19.3,5.4,19.3,5.4
		c2.2-1.6,2-4.3,8.1-5.4c5.7-1,7.2-14.6,7.6-17.1l0,0c0-0.2,0.1-0.3,0.1-0.4c0.4-0.5,1.8-4.3,4.7-8.3c2.9-4,4-7.9,4.1-10.4
		s2.2-11,2.2-11S1819.3-1257.2,1815.1-1255.8z"/>
</g>
<g>
	<path class="st3" d="M2482.3-1362.2c0.7-5,2.9-14.6,8.9-19.9c8-7.1,16.1-10.8,41.6-7.8c1.8-0.5,3.7-1.1,5.6-1.5
		c-3.6-4.9-11.9-10.4-15.3-11.9c-3.4-1.4-30.6-1.1-30.6-1.1s-4-0.8-8.3,5.8c2.5,0.1,5.5,0.7,5.6,2.8c0.2,3.8-4.7,8.6-6.7,15.8
		c-2,7.2-4.5,13.9-4.5,13.9l-0.4-13.6c-1.6,11.1-1.8,22.8-1.8,22.8S2478.5-1359,2482.3-1362.2z"/>
	<path class="st1" d="M2483.2-1380c2-7.2,6.8-12.1,6.7-15.8c-0.1-2.1-3-2.7-5.6-2.8c-0.8,1.2-1.6,2.7-2.4,4.4
		c-1.7,3.7-2.8,9-3.6,14.5l0.4,13.6C2478.7-1366.1,2481.2-1372.8,2483.2-1380z"/>
	<path class="st0" d="M2473.6-1348.8c12.2-11,48.6-38.7,72.2-38.7c19,0,17,21.6,15.5,30c1,2,1.9,4.1,2.6,6.1
		c0.1-2.5,0.3-4.6,0.8-5.6c1.4-2.7,8.5-19.1,2.3-27.9c-6.1-8.8-28.6-6.5-28.6-6.5c-1.9,0.5-3.8,1-5.6,1.5c1.1,0.1,2.3,0.3,3.5,0.4
		c-1.2-0.2-2.3-0.3-3.5-0.4c-24.1,7.2-41.9,20.4-50.5,27.7c-0.3,1.9-0.4,3.1-0.4,3.1s0.1-1.2,0.4-3.1c-3.8,3.2-5.8,5.3-5.8,5.3
		s-17.8,16.6-10.1,30.6c0.1,0.2,0.2,0.4,0.3,0.6C2465.7-1331.6,2465.5-1341.5,2473.6-1348.8z"/>
	<path class="st1" d="M2491.2-1382.1c-6,5.3-8.2,14.9-8.9,19.9c8.6-7.3,26.5-20.5,50.5-27.7
		C2507.3-1393,2499.2-1389.2,2491.2-1382.1z"/>
	<path class="st4" d="M2543.5-1197.2L2543.5-1197.2C2543.5-1197.3,2543.5-1197.2,2543.5-1197.2L2543.5-1197.2z"/>
	<path class="st5" d="M2543.5-1197.3c3.6-9,28.4-49.7,39.6-70.2c11.2-20.5,15.1-45.4,15.1-45.4l-13,5l11.2-8.6l-5.6-8.8c0,0,0,0,0,0
		c-7.7-3.1-21.2-5.6-21.2-5.6s-0.7,0.9-2,1.4c-1,38.4-20.8,63.9-20.8,63.9C2539.1-1239.2,2543.5-1197.3,2543.5-1197.3z"/>
	<path class="st0" d="M2560.6-1354.2c0,0,0.3-1.3,0.7-3.3c-0.3-0.5-0.6-1.1-0.9-1.5c-3.1-4.9-7.3-4.1-7.3-4.1v13
		c0,0-8.3-11.3-8.9-12.2c-0.6-0.9-10.7-11.3-12.8-11.4c-2.1-0.1-23.7,12.3-26.5,14.7c-2.8,2.3-12.1,11.1-13.4,14.2
		c-1.3,3.2,1.6,7.8,4.6,7.4s7-7.3,11.5-8.2c4.5-0.9,8.2,0.7,8.2,0.7s1.6-0.3,2.3,5c0.7,5.3,0.8,10.7,2.8,11.2c1.9,0.5,7.7,0,7.7,0
		s-0.9-2.5,0.8-2.9c1.7-0.4,4.1,0.2,3.6,1.3c-0.5,1.1-3.3,2.2-3,3.7c0.3,1.6-2.2,4-4.7,3.5s-5.9-0.4-6-2.4c-0.1-2-3.2-5.3-3.5-6.1
		s0-8.3,0-8.3s-3.1-0.6-5.2,2.4c-2,3.1-4.1,4.3-6.8,4.9s-6.7,0.2-7.8,1.2c-1.1,1-4.2,5,1.6,7c5.8,1.9,2.9-3.4,7,1.1
		c4.1,4.4,11.5,16.4,14.8,17.6c3.2,1.2,5.5,6,10.7,4.9c5.3-1.1,19.3-5.3,21.9-14.9c0,0,1.8,9.6-9.1,17.2l5.8-1.3
		c0,0-12.7,8.4-18.1,10c-5.4,1.6-4,1.8-4,1.8l3.5,5.6l0.4,7.6l6,1.1l1.2,7.2l9.1,1c7.6-26.4,8.3-32.5,8.3-32.5s-0.7,6.1-8.3,32.5
		c0,0,19.8-25.5,20.8-63.9c-0.8,0.3-1.8,0.5-3,0.2c-3.2-0.7-4.3-8.3-4.3-8.3s2.5-0.2,3.2-3.1c0.5-1.8,0.3-6.8,0.4-10.9
		c-0.7-1.9-1.6-4.1-2.6-6.1C2560.9-1355.5,2560.6-1354.2,2560.6-1354.2z M2531.7-1345c-2,0.4-4.8-0.2-6.6-0.7s-5.8-6.5-5.8-6.5
		l9.8-6.9l5.9,0.5c-5.3,2.3-7.5,6.7-7.5,6.7s-1.2,1.9,3.3,0.9s9.8-2,9.8-2S2533.7-1345.3,2531.7-1345z M2537-1312.3
		c-2.3,0.9-3.5,0.4-3.9,1.7c-0.4,1.3-4.1,2.3-4.7,1.9s-0.8-2.4-0.8-2.4s7.8-5.9,11.8-6S2539.3-1313.1,2537-1312.3z M2540.8-1322.2
		c-4.7,1.3-15.4,6.6-16.4,8.6c-1,2-3.5,1.6-3.8-0.6c0,0,2.5-2.2,4.6-2.6s5.2-2.8,9.2-4.4c4.1-1.7,5.8-3.1,5.8-4.1
		c0-1,5.2-0.6,5.2-0.6l1.8,2.2C2547.1-1323.8,2545.5-1323.5,2540.8-1322.2z M2541.7-1330.2c-2-1-6.5-2.3-6.8-2.8
		c-0.4-0.5-0.6-2.6-0.6-2.6s11.4,2,12.8,6.2C2548.5-1325.2,2543.7-1329.3,2541.7-1330.2z"/>
	<path class="st1" d="M2732.2-1235.2c-1-3.8-19.9-25-24.7-32.6c-4.8-7.7-25.7-25.9-27.6-28.6s-4.8-5.5-7.2-7
		c-2.4-1.4-1.4-5.8-2.4-8.6c-1-2.9-21.9-18.8-27.1-20.1c-5.2-1.3-31.5,3.8-38,5.6c-6.3,1.8-14.1,1.3-14.5,1.3l5.6,8.8l-11.2,8.6
		l13-5c0,0-4,24.8-15.1,45.4c-11.2,20.5-36,61.2-39.6,70.2l0,0.1l0,0l0,0l0,0c-2.6,6.7-5.3,28.7-6.5,40l82.4-6.3
		c1.8-2.2,3.5-4.5,4.3-6.4c2.9-6.3,17.6-15.8,20.5-16.6c2.9-0.7,7.9-10.1,7.6-12.6c-0.4-2.5-18.4,7.9-18.4,7.9l15.8-13.7
		c0,0,1.1-2.5,5.8-5c4.7-2.5-5.8-8.6-5.8-8.6s5.8,1.1,8.6,2.5c2.9,1.4-6.1-12.6-6.1-12.6s4.3,2.9,7.2,7.2c2.9,4.3,0-9.7-0.4-12.6
		c-0.4-2.9-21.2-31.6-21.2-31.6l-10.4-43c0,0,6.5,23,11.9,35.6c5.4,12.6,27.1,38.6,27.1,38.6l0.9,2.3c2.6,4.8,9.9,8.7,9.9,8.7
		c0,3.6,4.8,6.7,4.8,6.7s0.7-1.7,0.7,1.9s1.7,4.6,1.7,4.6c-1,3.4,1,16.8,1,16.8l-6,35.8h38.6l3.6-13.4c0,0,1.2-2.9,1.9-6.2
		c0.7-3.4,5.5-9.1,5.3-13.4c-0.2-4.3,3.1-9.6,5-17.4S2733.2-1231.4,2732.2-1235.2z M2628.8-1291.2v16.2l-28.8,9.5l11.5-20.6l5.8,2.2
		l2.2-7.2l5.8,4L2628.8-1291.2z"/>
	<path class="st1" d="M2484.6-1203.8c0,0-0.5-17.3,0-19.3s-0.4-6.5,4.5-6.3c0,0-1.8-7,1.3-7s5.8-1.8,5.8-1.8s1.6-4.7,6.7-5.8
		c0,0-0.4-4.9,4.9-5.2c5.2-0.4,15.3,2.2,15.3,2.2s0.9-7.4,5-8.8c4.1-1.4,2.7,4.9,2.7,4.9s-2,8.5-2.2,11c-0.2,2.5-1.3,6.5-4.1,10.4
		c-2.9,4-4.3,7.7-4.7,8.3c0,0-0.1,0.2-0.1,0.4l23.8,23.6c0,0,0,0,0,0c0,0-4.3-41.9,3.2-68.3l-9.1-1l-1.2-7.2l-6-1.1l-0.4-7.6
		l-3.5-5.6c0,0-1.4-0.2,4-1.8c5.4-1.6,18.1-10,18.1-10l-5.8,1.3c10.9-7.6,9.1-17.2,9.1-17.2c-2.6,9.6-16.7,13.8-21.9,14.9
		c-5.3,1.1-7.5-3.7-10.7-4.9c-3.2-1.2-10.7-13.2-14.8-17.6c-4.1-4.4-1.2,0.8-7-1.1c-5.8-1.9-2.6-6-1.6-7c1.1-1,5-0.6,7.8-1.2
		s4.8-1.8,6.8-4.9c2-3.1,5.2-2.4,5.2-2.4l0-5c0,0-3.7-1.6-8.2-0.7c-4.5,0.9-8.6,7.8-11.5,8.2s-5.9-4.3-4.6-7.4
		c1.4-3.2,10.6-11.9,13.4-14.2c2.8-2.3,24.4-14.8,26.5-14.7c2.1,0.1,12.1,10.5,12.8,11.4c0.6,0.9,8.9,12.2,8.9,12.2v-13
		c0,0,4.2-0.7,7.3,4.1c0.3,0.5,0.6,1,0.9,1.5c1.5-8.4,3.5-30-15.5-30c-23.6,0-59.9,27.7-72.2,38.7c-8.1,7.3-7.9,17.2-6.9,23.1
		c5.6,8.9,22,7.9,22,7.9s1.8,3.8,5.7,7.6c3.9,3.8,9.6,0,9.6,0s2.5,2,6.8,6.7c4.3,4.7,12.2,11.7,12.2,11.7
		c-3.2,5-29.5,25.1-33.8,26.8c-4.3,1.7-7.2,6-7.7,11s-8.4,28.3-8.4,28.3v17.9c0,0-6.5,2.5-8.4,2.7s0,13.2,0,13.2s9.8-0.8,13.3-4.2
		C2481.5-1199.6,2484.6-1203.8,2484.6-1203.8z"/>
	<path d="M2519.6-1220.8c-0.5,2.4-2,16.1-7.6,17.1c-6.1,1.1-5.9,3.8-8.1,5.4c0,0,3.1,1.3,3.4,3.6c0.4,2.3-7,13.7-7,13.7
		s-8.3,18.7-12.4,21.6c-2.1,1.5-4.8,4.2-6.9,6.5l56-4.2c1.2-11.3,3.8-33.3,6.5-40L2519.6-1220.8z"/>
	<path class="st1" d="M2540.8-1353.1c0,0-5.3,1-9.8,2s-3.3-0.9-3.3-0.9s2.2-4.3,7.5-6.7l-5.9-0.5l-9.8,6.9c0,0,4,5.9,5.8,6.5
		s4.6,1.1,6.6,0.7C2533.7-1345.3,2540.8-1353.1,2540.8-1353.1z"/>
	<polygon class="st0" points="2619.4,-1291.2 2617.3,-1284 2611.5,-1286.2 2600,-1265.6 2628.8,-1275 2628.8,-1291.2 
		2625.2,-1287.3 	"/>
	<path d="M2664.5-1190.1c1.2-5.3,0.5-17.9,0.5-17.9c1.4-5.6,1-26.3,1-26.3s-21.7-26-27.1-38.6c-5.4-12.6-11.9-35.6-11.9-35.6
		l10.4,43c0,0,20.9,28.7,21.2,31.6c0.4,2.9,3.2,16.9,0.4,12.6c-2.9-4.3-7.2-7.2-7.2-7.2s9,14,6.1,12.6c-2.9-1.4-8.6-2.5-8.6-2.5
		s10.4,6.1,5.8,8.6c-4.7,2.5-5.8,5-5.8,5l-15.8,13.7c0,0,18-10.4,18.4-7.9c0.4,2.5-4.7,11.9-7.6,12.6c-2.9,0.7-17.6,10.3-20.5,16.6
		c-0.9,1.9-2.5,4.2-4.3,6.4l43.2-3.3C2662.6-1166.8,2663.3-1184.8,2664.5-1190.1z"/>
	<path class="st4" d="M2666.8-1231.9l-0.9-2.3C2666.1-1233.4,2666.4-1232.7,2666.8-1231.9z"/>
	<path class="st3" d="M2515.8-1331.6c0.3,0.8,3.4,4.1,3.5,6.1c0.1,2,3.5,1.9,6,2.4s5-1.9,4.7-3.5c-0.3-1.6,2.5-2.6,3-3.7
		c0.5-1.1-1.9-1.7-3.6-1.3c-1.7,0.4-0.8,2.9-0.8,2.9s-5.8,0.5-7.7,0c-1.9-0.5-2-5.9-2.8-11.2c-0.7-5.3-2.3-5-2.3-5l0,5
		C2515.9-1339.8,2515.5-1332.4,2515.8-1331.6z"/>
	<path class="st1" d="M2540.1-1325.3c0,1-1.7,2.4-5.8,4.1c-4.1,1.7-7.2,4-9.2,4.4s-4.6,2.6-4.6,2.6c0.4,2.2,2.9,2.6,3.8,0.6
		c1-2,11.6-7.3,16.4-8.6c4.7-1.3,6.3-1.6,6.3-1.6l-1.8-2.2C2545.3-1325.9,2540.1-1326.3,2540.1-1325.3z"/>
	<path class="st3" d="M2539.3-1317c-4,0.1-11.8,6-11.8,6s0.2,2,0.8,2.4s4.3-0.6,4.7-1.9c0.4-1.3,1.6-0.8,3.9-1.7
		C2539.3-1313.1,2543.2-1317.2,2539.3-1317z"/>
	<path class="st3" d="M2534.2-1335.6c0,0,0.2,2.2,0.6,2.6c0.4,0.5,4.8,1.8,6.8,2.8c2,1,6.8,5,5.4,0.8
		C2545.6-1333.6,2534.2-1335.6,2534.2-1335.6z"/>
	<path d="M2484.6-1203.8c0,0-3.1,4.1-6.5,7.6c-3.4,3.4-13.3,4.2-13.3,4.2s-4.6,2.2-8.6,6c-4.1,3.8-4.6,11-8.2,13.4
		s-2.2,15.1-2.2,15.1l25.2,5.2l9.8-0.7c2.1-2.3,4.8-5,6.9-6.5c4.1-2.9,12.4-21.6,12.4-21.6s7.4-11.3,7-13.7
		c-0.4-2.3-3.4-3.6-3.4-3.6S2490.9-1195.1,2484.6-1203.8z"/>
	<path class="st0" d="M2528-1255.8c-4.1,1.4-5,8.8-5,8.8s-10.1-2.5-15.3-2.2c-5.2,0.4-4.9,5.2-4.9,5.2c-5,1.1-6.7,5.8-6.7,5.8
		s-2.7,1.8-5.8,1.8s-1.3,7-1.3,7c-4.9-0.2-4,4.3-4.5,6.3s0,19.3,0,19.3c6.3,8.6,19.3,5.4,19.3,5.4c2.2-1.6,2-4.3,8.1-5.4
		c5.7-1,7.2-14.6,7.6-17.1l0,0c0-0.2,0.1-0.3,0.1-0.4c0.4-0.5,1.8-4.3,4.7-8.3c2.9-4,4-7.9,4.1-10.4c0.2-2.5,2.2-11,2.2-11
		S2532.1-1257.2,2528-1255.8z"/>
</g>
<g>
	<path class="st3" d="M2849.5-1362.2c0.7-5,2.9-14.6,8.9-19.9c8-7.1,16.1-10.8,41.6-7.8c1.8-0.5,3.7-1.1,5.6-1.5
		c-3.6-4.9-11.9-10.4-15.3-11.9c-3.4-1.4-30.6-1.1-30.6-1.1s-4-0.8-8.3,5.8c2.5,0.1,5.5,0.7,5.6,2.8c0.2,3.8-4.7,8.6-6.7,15.8
		c-2,7.2-4.5,13.9-4.5,13.9l-0.4-13.6c-1.6,11.1-1.8,22.8-1.8,22.8S2845.7-1359,2849.5-1362.2z"/>
	<path class="st1" d="M2850.4-1380c2-7.2,6.8-12.1,6.7-15.8c-0.1-2.1-3-2.7-5.6-2.8c-0.8,1.2-1.6,2.7-2.4,4.4
		c-1.7,3.7-2.8,9-3.6,14.5l0.4,13.6C2845.9-1366.1,2848.4-1372.8,2850.4-1380z"/>
	<path class="st0" d="M2840.8-1348.8c12.2-11,48.6-38.7,72.2-38.7c19,0,17,21.6,15.5,30c1,2,1.9,4.1,2.6,6.1
		c0.1-2.5,0.3-4.6,0.8-5.6c1.4-2.7,8.5-19.1,2.3-27.9c-6.1-8.8-28.6-6.5-28.6-6.5c-1.9,0.5-3.8,1-5.6,1.5c1.1,0.1,2.3,0.3,3.5,0.4
		c-1.2-0.2-2.3-0.3-3.5-0.4c-24.1,7.2-41.9,20.4-50.5,27.7c-0.3,1.9-0.4,3.1-0.4,3.1s0.1-1.2,0.4-3.1c-3.8,3.2-5.8,5.3-5.8,5.3
		s-17.8,16.6-10.1,30.6c0.1,0.2,0.2,0.4,0.3,0.6C2832.9-1331.6,2832.7-1341.5,2840.8-1348.8z"/>
	<path class="st1" d="M2858.4-1382.1c-6,5.3-8.2,14.9-8.9,19.9c8.6-7.3,26.5-20.5,50.5-27.7
		C2874.5-1393,2866.4-1389.2,2858.4-1382.1z"/>
	<path class="st4" d="M2910.7-1197.2L2910.7-1197.2C2910.7-1197.3,2910.7-1197.2,2910.7-1197.2L2910.7-1197.2z"/>
	<path class="st5" d="M2910.7-1197.3c3.6-9,28.4-49.7,39.6-70.2c11.2-20.5,15.1-45.4,15.1-45.4l-13,5l11.2-8.6l-5.6-8.8c0,0,0,0,0,0
		c-7.7-3.1-21.2-5.6-21.2-5.6s-0.7,0.9-2,1.4c-1,38.4-20.8,63.9-20.8,63.9C2906.3-1239.2,2910.7-1197.3,2910.7-1197.3z"/>
	<path class="st0" d="M2927.8-1354.2c0,0,0.3-1.3,0.7-3.3c-0.3-0.5-0.6-1.1-0.9-1.5c-3.1-4.9-7.3-4.1-7.3-4.1v13
		c0,0-8.3-11.3-8.9-12.2c-0.6-0.9-10.7-11.3-12.8-11.4s-23.7,12.3-26.5,14.7c-2.8,2.3-12.1,11.1-13.4,14.2c-1.3,3.2,1.6,7.8,4.6,7.4
		s7-7.3,11.5-8.2c4.5-0.9,8.2,0.7,8.2,0.7s1.6-0.3,2.3,5c0.7,5.3,0.8,10.7,2.8,11.2s7.7,0,7.7,0s-0.9-2.5,0.8-2.9
		c1.7-0.4,4.1,0.2,3.6,1.3c-0.5,1.1-3.3,2.2-3,3.7c0.3,1.6-2.2,4-4.7,3.5s-5.9-0.4-6-2.4c-0.1-2-3.2-5.3-3.5-6.1
		c-0.3-0.8,0-8.3,0-8.3s-3.1-0.6-5.2,2.4s-4.1,4.3-6.8,4.9s-6.7,0.2-7.8,1.2c-1.1,1-4.2,5,1.6,7c5.8,1.9,2.9-3.4,7,1.1
		c4.1,4.4,11.5,16.4,14.8,17.6c3.2,1.2,5.5,6,10.7,4.9c5.3-1.1,19.3-5.3,21.9-14.9c0,0,1.8,9.6-9.1,17.2l5.8-1.3
		c0,0-12.7,8.4-18.1,10c-5.4,1.6-4,1.8-4,1.8l3.5,5.6l0.4,7.6l6,1.1l1.2,7.2l9.1,1c7.6-26.4,8.3-32.5,8.3-32.5s-0.7,6.1-8.3,32.5
		c0,0,19.8-25.5,20.8-63.9c-0.8,0.3-1.8,0.5-3,0.2c-3.2-0.7-4.3-8.3-4.3-8.3s2.5-0.2,3.2-3.1c0.5-1.8,0.3-6.8,0.4-10.9
		c-0.7-1.9-1.6-4.1-2.6-6.1C2928.1-1355.5,2927.8-1354.2,2927.8-1354.2z M2898.9-1345c-2,0.4-4.8-0.2-6.6-0.7s-5.8-6.5-5.8-6.5
		l9.8-6.9l5.9,0.5c-5.3,2.3-7.5,6.7-7.5,6.7s-1.2,1.9,3.3,0.9s9.8-2,9.8-2S2900.9-1345.3,2898.9-1345z M2904.2-1312.3
		c-2.3,0.9-3.5,0.4-3.9,1.7c-0.4,1.3-4.1,2.3-4.7,1.9c-0.6-0.4-0.8-2.4-0.8-2.4s7.8-5.9,11.8-6
		C2910.4-1317.2,2906.5-1313.1,2904.2-1312.3z M2908-1322.2c-4.7,1.3-15.4,6.6-16.4,8.6c-1,2-3.5,1.6-3.8-0.6c0,0,2.5-2.2,4.6-2.6
		s5.2-2.8,9.2-4.4c4.1-1.7,5.8-3.1,5.8-4.1c0-1,5.2-0.6,5.2-0.6l1.8,2.2C2914.3-1323.8,2912.7-1323.5,2908-1322.2z M2908.9-1330.2
		c-2-1-6.5-2.3-6.8-2.8c-0.4-0.5-0.6-2.6-0.6-2.6s11.4,2,12.8,6.2C2915.7-1325.2,2910.9-1329.3,2908.9-1330.2z"/>
	<path class="st1" d="M3099.4-1235.2c-1-3.8-19.9-25-24.7-32.6c-4.8-7.7-25.7-25.9-27.6-28.6s-4.8-5.5-7.2-7
		c-2.4-1.4-1.4-5.8-2.4-8.6c-1-2.9-21.9-18.8-27.1-20.1c-5.2-1.3-31.5,3.8-38,5.6c-6.3,1.8-14.1,1.3-14.5,1.3l5.6,8.8l-11.2,8.6
		l13-5c0,0-4,24.8-15.1,45.4c-11.2,20.5-36,61.2-39.6,70.2l0,0.1l0,0l0,0l0,0c-2.6,6.7-5.3,28.7-6.5,40l82.4-6.3
		c1.8-2.2,3.5-4.5,4.3-6.4c2.9-6.3,17.6-15.8,20.5-16.6c2.9-0.7,7.9-10.1,7.6-12.6c-0.4-2.5-18.4,7.9-18.4,7.9l15.8-13.7
		c0,0,1.1-2.5,5.8-5c4.7-2.5-5.8-8.6-5.8-8.6s5.8,1.1,8.6,2.5c2.9,1.4-6.1-12.6-6.1-12.6s4.3,2.9,7.2,7.2c2.9,4.3,0-9.7-0.4-12.6
		c-0.4-2.9-21.2-31.6-21.2-31.6l-10.4-43c0,0,6.5,23,11.9,35.6c5.4,12.6,27.1,38.6,27.1,38.6l0.9,2.3c2.6,4.8,9.9,8.7,9.9,8.7
		c0,3.6,4.8,6.7,4.8,6.7s0.7-1.7,0.7,1.9s1.7,4.6,1.7,4.6c-1,3.4,1,16.8,1,16.8l-6,35.8h38.6l3.6-13.4c0,0,1.2-2.9,1.9-6.2
		c0.7-3.4,5.5-9.1,5.3-13.4c-0.2-4.3,3.1-9.6,5-17.4S3100.4-1231.4,3099.4-1235.2z M2996-1291.2v16.2l-28.8,9.5l11.5-20.6l5.8,2.2
		l2.2-7.2l5.8,4L2996-1291.2z"/>
	<path class="st1" d="M2851.8-1203.8c0,0-0.5-17.3,0-19.3s-0.4-6.5,4.5-6.3c0,0-1.8-7,1.3-7s5.8-1.8,5.8-1.8s1.6-4.7,6.7-5.8
		c0,0-0.4-4.9,4.9-5.2c5.2-0.4,15.3,2.2,15.3,2.2s0.9-7.4,5-8.8c4.1-1.4,2.7,4.9,2.7,4.9s-2,8.5-2.2,11c-0.2,2.5-1.3,6.5-4.1,10.4
		c-2.9,4-4.3,7.7-4.7,8.3c0,0-0.1,0.2-0.1,0.4l23.8,23.6c0,0,0,0,0,0c0,0-4.3-41.9,3.2-68.3l-9.1-1l-1.2-7.2l-6-1.1l-0.4-7.6
		l-3.5-5.6c0,0-1.4-0.2,4-1.8c5.4-1.6,18.1-10,18.1-10l-5.8,1.3c10.9-7.6,9.1-17.2,9.1-17.2c-2.6,9.6-16.7,13.8-21.9,14.9
		c-5.3,1.1-7.5-3.7-10.7-4.9c-3.2-1.2-10.7-13.2-14.8-17.6c-4.1-4.4-1.2,0.8-7-1.1c-5.8-1.9-2.6-6-1.6-7c1.1-1,5-0.6,7.8-1.2
		s4.8-1.8,6.8-4.9s5.2-2.4,5.2-2.4l0-5c0,0-3.7-1.6-8.2-0.7c-4.5,0.9-8.6,7.8-11.5,8.2s-5.9-4.3-4.6-7.4
		c1.4-3.2,10.6-11.9,13.4-14.2c2.8-2.3,24.4-14.8,26.5-14.7s12.1,10.5,12.8,11.4c0.6,0.9,8.9,12.2,8.9,12.2v-13c0,0,4.2-0.7,7.3,4.1
		c0.3,0.5,0.6,1,0.9,1.5c1.5-8.4,3.5-30-15.5-30c-23.6,0-59.9,27.7-72.2,38.7c-8.1,7.3-7.9,17.2-6.9,23.1c5.6,8.9,22,7.9,22,7.9
		s1.8,3.8,5.7,7.6c3.9,3.8,9.6,0,9.6,0s2.5,2,6.8,6.7c4.3,4.7,12.2,11.7,12.2,11.7c-3.2,5-29.5,25.1-33.8,26.8
		c-4.3,1.7-7.2,6-7.7,11s-8.4,28.3-8.4,28.3v17.9c0,0-6.5,2.5-8.4,2.7s0,13.2,0,13.2s9.8-0.8,13.3-4.2
		C2848.7-1199.6,2851.8-1203.8,2851.8-1203.8z"/>
	<path d="M2886.8-1220.8c-0.5,2.4-2,16.1-7.6,17.1c-6.1,1.1-5.9,3.8-8.1,5.4c0,0,3.1,1.3,3.4,3.6c0.4,2.3-7,13.7-7,13.7
		s-8.3,18.7-12.4,21.6c-2.1,1.5-4.8,4.2-6.9,6.5l56-4.2c1.2-11.3,3.8-33.3,6.5-40L2886.8-1220.8z"/>
	<path class="st1" d="M2908-1353.1c0,0-5.3,1-9.8,2s-3.3-0.9-3.3-0.9s2.2-4.3,7.5-6.7l-5.9-0.5l-9.8,6.9c0,0,4,5.9,5.8,6.5
		s4.6,1.1,6.6,0.7C2900.9-1345.3,2908-1353.1,2908-1353.1z"/>
	<polygon class="st0" points="2986.6,-1291.2 2984.5,-1284 2978.7,-1286.2 2967.2,-1265.6 2996,-1275 2996,-1291.2 2992.4,-1287.3 	
		"/>
	<path d="M3031.7-1190.1c1.2-5.3,0.5-17.9,0.5-17.9c1.4-5.6,1-26.3,1-26.3s-21.7-26-27.1-38.6c-5.4-12.6-11.9-35.6-11.9-35.6
		l10.4,43c0,0,20.9,28.7,21.2,31.6c0.4,2.9,3.2,16.9,0.4,12.6c-2.9-4.3-7.2-7.2-7.2-7.2s9,14,6.1,12.6c-2.9-1.4-8.6-2.5-8.6-2.5
		s10.4,6.1,5.8,8.6c-4.7,2.5-5.8,5-5.8,5l-15.8,13.7c0,0,18-10.4,18.4-7.9c0.4,2.5-4.7,11.9-7.6,12.6c-2.9,0.7-17.6,10.3-20.5,16.6
		c-0.9,1.9-2.5,4.2-4.3,6.4l43.2-3.3C3029.8-1166.8,3030.5-1184.8,3031.7-1190.1z"/>
	<path class="st4" d="M3034-1231.9l-0.9-2.3C3033.3-1233.4,3033.6-1232.7,3034-1231.9z"/>
	<path class="st3" d="M2883-1331.6c0.3,0.8,3.4,4.1,3.5,6.1c0.1,2,3.5,1.9,6,2.4s5-1.9,4.7-3.5c-0.3-1.6,2.5-2.6,3-3.7
		c0.5-1.1-1.9-1.7-3.6-1.3c-1.7,0.4-0.8,2.9-0.8,2.9s-5.8,0.5-7.7,0s-2-5.9-2.8-11.2c-0.7-5.3-2.3-5-2.3-5l0,5
		C2883.1-1339.8,2882.7-1332.4,2883-1331.6z"/>
	<path class="st1" d="M2907.3-1325.3c0,1-1.7,2.4-5.8,4.1c-4.1,1.7-7.2,4-9.2,4.4s-4.6,2.6-4.6,2.6c0.4,2.2,2.9,2.6,3.8,0.6
		c1-2,11.6-7.3,16.4-8.6c4.7-1.3,6.3-1.6,6.3-1.6l-1.8-2.2C2912.5-1325.9,2907.3-1326.3,2907.3-1325.3z"/>
	<path class="st3" d="M2906.5-1317c-4,0.1-11.8,6-11.8,6s0.2,2,0.8,2.4c0.6,0.4,4.3-0.6,4.7-1.9c0.4-1.3,1.6-0.8,3.9-1.7
		C2906.5-1313.1,2910.4-1317.2,2906.5-1317z"/>
	<path class="st3" d="M2901.4-1335.6c0,0,0.2,2.2,0.6,2.6c0.4,0.5,4.8,1.8,6.8,2.8c2,1,6.8,5,5.4,0.8
		C2912.8-1333.6,2901.4-1335.6,2901.4-1335.6z"/>
	<path d="M2851.8-1203.8c0,0-3.1,4.1-6.5,7.6c-3.4,3.4-13.3,4.2-13.3,4.2s-4.6,2.2-8.6,6c-4.1,3.8-4.6,11-8.2,13.4
		c-3.6,2.4-2.2,15.1-2.2,15.1l25.2,5.2l9.8-0.7c2.1-2.3,4.8-5,6.9-6.5c4.1-2.9,12.4-21.6,12.4-21.6s7.4-11.3,7-13.7
		c-0.4-2.3-3.4-3.6-3.4-3.6S2858.1-1195.1,2851.8-1203.8z"/>
	<path class="st0" d="M2895.2-1255.8c-4.1,1.4-5,8.8-5,8.8s-10.1-2.5-15.3-2.2c-5.2,0.4-4.9,5.2-4.9,5.2c-5,1.1-6.7,5.8-6.7,5.8
		s-2.7,1.8-5.8,1.8s-1.3,7-1.3,7c-4.9-0.2-4,4.3-4.5,6.3s0,19.3,0,19.3c6.3,8.6,19.3,5.4,19.3,5.4c2.2-1.6,2-4.3,8.1-5.4
		c5.7-1,7.2-14.6,7.6-17.1l0,0c0-0.2,0.1-0.3,0.1-0.4c0.4-0.5,1.8-4.3,4.7-8.3c2.9-4,4-7.9,4.1-10.4c0.2-2.5,2.2-11,2.2-11
		S2899.3-1257.2,2895.2-1255.8z"/>
</g>
<g>
	<path class="st3" d="M3216.7-1362.2c0.7-5,2.9-14.6,8.9-19.9c8-7.1,16.1-10.8,41.6-7.8c1.8-0.5,3.7-1.1,5.6-1.5
		c-3.6-4.9-11.9-10.4-15.3-11.9c-3.4-1.4-30.6-1.1-30.6-1.1s-4-0.8-8.3,5.8c2.5,0.1,5.5,0.7,5.6,2.8c0.2,3.8-4.7,8.6-6.7,15.8
		c-2,7.2-4.5,13.9-4.5,13.9l-0.4-13.6c-1.6,11.1-1.8,22.8-1.8,22.8S3212.9-1359,3216.7-1362.2z"/>
	<path class="st1" d="M3217.6-1380c2-7.2,6.8-12.1,6.7-15.8c-0.1-2.1-3-2.7-5.6-2.8c-0.8,1.2-1.6,2.7-2.4,4.4
		c-1.7,3.7-2.8,9-3.6,14.5l0.4,13.6C3213.1-1366.1,3215.6-1372.8,3217.6-1380z"/>
	<path class="st0" d="M3208-1348.8c12.2-11,48.6-38.7,72.2-38.7c19,0,17,21.6,15.5,30c1,2,1.9,4.1,2.6,6.1c0.1-2.5,0.3-4.6,0.8-5.6
		c1.4-2.7,8.5-19.1,2.3-27.9c-6.1-8.8-28.6-6.5-28.6-6.5c-1.9,0.5-3.8,1-5.6,1.5c1.1,0.1,2.3,0.3,3.5,0.4c-1.2-0.2-2.3-0.3-3.5-0.4
		c-24.1,7.2-41.9,20.4-50.5,27.7c-0.3,1.9-0.4,3.1-0.4,3.1s0.1-1.2,0.4-3.1c-3.8,3.2-5.8,5.3-5.8,5.3s-17.8,16.6-10.1,30.6
		c0.1,0.2,0.2,0.4,0.3,0.6C3200.1-1331.6,3199.9-1341.5,3208-1348.8z"/>
	<path class="st1" d="M3225.6-1382.1c-6,5.3-8.2,14.9-8.9,19.9c8.6-7.3,26.5-20.5,50.5-27.7
		C3241.7-1393,3233.6-1389.2,3225.6-1382.1z"/>
	<path class="st4" d="M3277.9-1197.2L3277.9-1197.2C3277.9-1197.3,3277.9-1197.2,3277.9-1197.2L3277.9-1197.2z"/>
	<path class="st5" d="M3277.9-1197.3c3.6-9,28.4-49.7,39.6-70.2c11.2-20.5,15.1-45.4,15.1-45.4l-13,5l11.2-8.6l-5.6-8.8c0,0,0,0,0,0
		c-7.7-3.1-21.2-5.6-21.2-5.6s-0.7,0.9-2,1.4c-1,38.4-20.8,63.9-20.8,63.9C3273.5-1239.2,3277.9-1197.3,3277.9-1197.3z"/>
	<path class="st0" d="M3295-1354.2c0,0,0.3-1.3,0.7-3.3c-0.3-0.5-0.6-1.1-0.9-1.5c-3.1-4.9-7.3-4.1-7.3-4.1v13
		c0,0-8.3-11.3-8.9-12.2c-0.6-0.9-10.7-11.3-12.8-11.4s-23.7,12.3-26.5,14.7c-2.8,2.3-12.1,11.1-13.4,14.2c-1.4,3.2,1.6,7.8,4.6,7.4
		s7-7.3,11.5-8.2c4.5-0.9,8.2,0.7,8.2,0.7s1.6-0.3,2.3,5c0.7,5.3,0.8,10.7,2.8,11.2c1.9,0.5,7.7,0,7.7,0s-0.9-2.5,0.8-2.9
		c1.7-0.4,4.1,0.2,3.6,1.3c-0.5,1.1-3.3,2.2-3,3.7c0.3,1.6-2.2,4-4.7,3.5c-2.5-0.5-5.9-0.4-6-2.4c-0.1-2-3.2-5.3-3.5-6.1
		c-0.3-0.8,0-8.3,0-8.3s-3.1-0.6-5.2,2.4s-4.1,4.3-6.8,4.9s-6.7,0.2-7.8,1.2c-1.1,1-4.2,5,1.6,7c5.8,1.9,2.9-3.4,7,1.1
		c4.1,4.4,11.5,16.4,14.8,17.6c3.2,1.2,5.5,6,10.7,4.9c5.3-1.1,19.3-5.3,21.9-14.9c0,0,1.8,9.6-9.1,17.2l5.8-1.3
		c0,0-12.7,8.4-18.1,10c-5.4,1.6-4,1.8-4,1.8l3.5,5.6l0.4,7.6l6,1.1l1.2,7.2l9.1,1c7.6-26.4,8.3-32.5,8.3-32.5s-0.7,6.1-8.3,32.5
		c0,0,19.8-25.5,20.8-63.9c-0.8,0.3-1.8,0.5-3,0.2c-3.2-0.7-4.3-8.3-4.3-8.3s2.5-0.2,3.2-3.1c0.5-1.8,0.3-6.8,0.4-10.9
		c-0.7-1.9-1.6-4.1-2.6-6.1C3295.3-1355.5,3295-1354.2,3295-1354.2z M3266.1-1345c-2,0.4-4.8-0.2-6.6-0.7c-1.8-0.5-5.8-6.5-5.8-6.5
		l9.8-6.9l5.9,0.5c-5.3,2.3-7.5,6.7-7.5,6.7s-1.2,1.9,3.3,0.9s9.8-2,9.8-2S3268.1-1345.3,3266.1-1345z M3271.4-1312.3
		c-2.3,0.9-3.5,0.4-3.9,1.7c-0.4,1.3-4.1,2.3-4.7,1.9c-0.6-0.4-0.8-2.4-0.8-2.4s7.8-5.9,11.8-6S3273.7-1313.1,3271.4-1312.3z
		 M3275.2-1322.2c-4.7,1.3-15.4,6.6-16.4,8.6s-3.5,1.6-3.8-0.6c0,0,2.5-2.2,4.6-2.6c2-0.5,5.2-2.8,9.2-4.4c4.1-1.7,5.8-3.1,5.8-4.1
		c0-1,5.2-0.6,5.2-0.6l1.8,2.2C3281.5-1323.8,3279.9-1323.5,3275.2-1322.2z M3276.1-1330.2c-2-1-6.5-2.3-6.8-2.8
		c-0.4-0.5-0.6-2.6-0.6-2.6s11.4,2,12.8,6.2C3282.9-1325.2,3278.1-1329.3,3276.1-1330.2z"/>
	<path class="st1" d="M3466.6-1235.2c-1-3.8-19.9-25-24.7-32.6c-4.8-7.7-25.7-25.9-27.6-28.6c-1.9-2.6-4.8-5.5-7.2-7
		c-2.4-1.4-1.4-5.8-2.4-8.6c-1-2.9-21.9-18.8-27.1-20.1c-5.2-1.3-31.5,3.8-38,5.6c-6.3,1.8-14.1,1.3-14.5,1.3l5.6,8.8l-11.2,8.6
		l13-5c0,0-4,24.8-15.1,45.4c-11.2,20.5-36,61.2-39.6,70.2l0,0.1l0,0l0,0l0,0c-2.6,6.7-5.3,28.7-6.5,40l82.4-6.3
		c1.8-2.2,3.5-4.5,4.3-6.4c2.9-6.3,17.6-15.8,20.5-16.6c2.9-0.7,7.9-10.1,7.6-12.6c-0.4-2.5-18.4,7.9-18.4,7.9l15.8-13.7
		c0,0,1.1-2.5,5.8-5c4.7-2.5-5.8-8.6-5.8-8.6s5.8,1.1,8.6,2.5c2.9,1.4-6.1-12.6-6.1-12.6s4.3,2.9,7.2,7.2c2.9,4.3,0-9.7-0.4-12.6
		c-0.4-2.9-21.2-31.6-21.2-31.6l-10.4-43c0,0,6.5,23,11.9,35.6c5.4,12.6,27.1,38.6,27.1,38.6l0.9,2.3c2.6,4.8,9.9,8.7,9.9,8.7
		c0,3.6,4.8,6.7,4.8,6.7s0.7-1.7,0.7,1.9s1.7,4.6,1.7,4.6c-1,3.4,1,16.8,1,16.8l-6,35.8h38.6l3.6-13.4c0,0,1.2-2.9,1.9-6.2
		c0.7-3.4,5.5-9.1,5.3-13.4c-0.2-4.3,3.1-9.6,5-17.4S3467.6-1231.4,3466.6-1235.2z M3363.2-1291.2v16.2l-28.8,9.5l11.5-20.6l5.8,2.2
		l2.2-7.2l5.8,4L3363.2-1291.2z"/>
	<path class="st1" d="M3219-1203.8c0,0-0.5-17.3,0-19.3c0.5-2-0.4-6.5,4.5-6.3c0,0-1.8-7,1.3-7c3.1,0,5.8-1.8,5.8-1.8
		s1.6-4.7,6.7-5.8c0,0-0.4-4.9,4.9-5.2c5.2-0.4,15.3,2.2,15.3,2.2s0.9-7.4,5-8.8c4.1-1.4,2.7,4.9,2.7,4.9s-2,8.5-2.2,11
		c-0.2,2.5-1.3,6.5-4.1,10.4c-2.9,4-4.3,7.7-4.7,8.3c0,0-0.1,0.2-0.1,0.4l23.8,23.6c0,0,0,0,0,0c0,0-4.3-41.9,3.2-68.3l-9.1-1
		l-1.2-7.2l-6-1.1l-0.4-7.6l-3.5-5.6c0,0-1.4-0.2,4-1.8c5.4-1.6,18.1-10,18.1-10l-5.8,1.3c10.9-7.6,9.1-17.2,9.1-17.2
		c-2.6,9.6-16.7,13.8-21.9,14.9c-5.3,1.1-7.5-3.7-10.7-4.9c-3.2-1.2-10.7-13.2-14.8-17.6c-4.1-4.4-1.2,0.8-7-1.1
		c-5.8-1.9-2.6-6-1.6-7c1.1-1,5-0.6,7.8-1.2s4.8-1.8,6.8-4.9s5.2-2.4,5.2-2.4l0-5c0,0-3.7-1.6-8.2-0.7c-4.5,0.9-8.6,7.8-11.5,8.2
		s-5.9-4.3-4.6-7.4c1.3-3.2,10.6-11.9,13.4-14.2c2.8-2.3,24.4-14.8,26.5-14.7s12.2,10.5,12.8,11.4c0.6,0.9,8.9,12.2,8.9,12.2v-13
		c0,0,4.2-0.7,7.3,4.1c0.3,0.5,0.6,1,0.9,1.5c1.5-8.4,3.5-30-15.5-30c-23.6,0-59.9,27.7-72.2,38.7c-8.1,7.3-7.9,17.2-6.9,23.1
		c5.6,8.9,22,7.9,22,7.9s1.8,3.8,5.7,7.6c3.9,3.8,9.6,0,9.6,0s2.5,2,6.8,6.7c4.3,4.7,12.2,11.7,12.2,11.7
		c-3.2,5-29.5,25.1-33.8,26.8c-4.3,1.7-7.2,6-7.7,11s-8.4,28.3-8.4,28.3v17.9c0,0-6.5,2.5-8.4,2.7c-1.9,0.2,0,13.2,0,13.2
		s9.8-0.8,13.3-4.2C3215.9-1199.6,3219-1203.8,3219-1203.8z"/>
	<path d="M3254-1220.8c-0.5,2.4-2,16.1-7.6,17.1c-6.1,1.1-5.9,3.8-8.1,5.4c0,0,3.1,1.3,3.4,3.6c0.4,2.3-7,13.7-7,13.7
		s-8.3,18.7-12.4,21.6c-2.1,1.5-4.8,4.2-6.9,6.5l56-4.2c1.2-11.3,3.8-33.3,6.5-40L3254-1220.8z"/>
	<path class="st1" d="M3275.2-1353.1c0,0-5.3,1-9.8,2s-3.3-0.9-3.3-0.9s2.2-4.3,7.5-6.7l-5.9-0.5l-9.8,6.9c0,0,4,5.9,5.8,6.5
		c1.8,0.5,4.6,1.1,6.6,0.7C3268.1-1345.3,3275.2-1353.1,3275.2-1353.1z"/>
	<polygon class="st0" points="3353.8,-1291.2 3351.7,-1284 3345.9,-1286.2 3334.4,-1265.6 3363.2,-1275 3363.2,-1291.2 
		3359.6,-1287.3 	"/>
	<path d="M3398.9-1190.1c1.2-5.3,0.5-17.9,0.5-17.9c1.4-5.6,1-26.3,1-26.3s-21.7-26-27.1-38.6c-5.4-12.6-11.9-35.6-11.9-35.6
		l10.4,43c0,0,20.9,28.7,21.2,31.6c0.4,2.9,3.2,16.9,0.4,12.6c-2.9-4.3-7.2-7.2-7.2-7.2s9,14,6.1,12.6c-2.9-1.4-8.6-2.5-8.6-2.5
		s10.4,6.1,5.8,8.6c-4.7,2.5-5.8,5-5.8,5l-15.8,13.7c0,0,18-10.4,18.4-7.9c0.4,2.5-4.7,11.9-7.6,12.6c-2.9,0.7-17.6,10.3-20.5,16.6
		c-0.9,1.9-2.5,4.2-4.3,6.4l43.2-3.3C3397-1166.8,3397.7-1184.8,3398.9-1190.1z"/>
	<path class="st4" d="M3401.2-1231.9l-0.9-2.3C3400.5-1233.4,3400.8-1232.7,3401.2-1231.9z"/>
	<path class="st3" d="M3250.2-1331.6c0.3,0.8,3.4,4.1,3.5,6.1c0.1,2,3.5,1.9,6,2.4c2.5,0.5,5-1.9,4.7-3.5c-0.3-1.6,2.5-2.6,3-3.7
		c0.5-1.1-1.9-1.7-3.6-1.3c-1.7,0.4-0.8,2.9-0.8,2.9s-5.8,0.5-7.7,0c-1.9-0.5-2-5.9-2.8-11.2c-0.7-5.3-2.3-5-2.3-5l0,5
		C3250.3-1339.8,3249.9-1332.4,3250.2-1331.6z"/>
	<path class="st1" d="M3274.5-1325.3c0,1-1.7,2.4-5.8,4.1c-4.1,1.7-7.2,4-9.2,4.4c-2,0.5-4.6,2.6-4.6,2.6c0.4,2.2,2.9,2.6,3.8,0.6
		s11.6-7.3,16.4-8.6c4.7-1.3,6.3-1.6,6.3-1.6l-1.8-2.2C3279.7-1325.9,3274.5-1326.3,3274.5-1325.3z"/>
	<path class="st3" d="M3273.7-1317c-4,0.1-11.8,6-11.8,6s0.2,2,0.8,2.4c0.6,0.4,4.3-0.6,4.7-1.9c0.4-1.3,1.6-0.8,3.9-1.7
		C3273.7-1313.1,3277.6-1317.2,3273.7-1317z"/>
	<path class="st3" d="M3268.6-1335.6c0,0,0.2,2.2,0.6,2.6c0.4,0.5,4.8,1.8,6.8,2.8c2,1,6.8,5,5.4,0.8
		C3280-1333.6,3268.6-1335.6,3268.6-1335.6z"/>
	<path d="M3219-1203.8c0,0-3.1,4.1-6.5,7.6c-3.4,3.4-13.3,4.2-13.3,4.2s-4.6,2.2-8.6,6c-4.1,3.8-4.6,11-8.2,13.4
		c-3.6,2.4-2.2,15.1-2.2,15.1l25.2,5.2l9.8-0.7c2.1-2.3,4.8-5,6.9-6.5c4.1-2.9,12.4-21.6,12.4-21.6s7.4-11.3,7-13.7
		c-0.4-2.3-3.4-3.6-3.4-3.6S3225.3-1195.1,3219-1203.8z"/>
	<path class="st0" d="M3262.4-1255.8c-4.1,1.4-5,8.8-5,8.8s-10.1-2.5-15.3-2.2c-5.2,0.4-4.9,5.2-4.9,5.2c-5,1.1-6.7,5.8-6.7,5.8
		s-2.7,1.8-5.8,1.8c-3.1,0-1.3,7-1.3,7c-4.9-0.2-4,4.3-4.5,6.3c-0.5,2,0,19.3,0,19.3c6.3,8.6,19.3,5.4,19.3,5.4
		c2.2-1.6,2-4.3,8.1-5.4c5.7-1,7.2-14.6,7.6-17.1l0,0c0-0.2,0.1-0.3,0.1-0.4c0.4-0.5,1.8-4.3,4.7-8.3c2.9-4,4-7.9,4.1-10.4
		c0.2-2.5,2.2-11,2.2-11S3266.5-1257.2,3262.4-1255.8z"/>
</g>
<g>
	<path class="st3" d="M3583.9-1362.2c0.7-5,2.9-14.6,8.9-19.9c8-7.1,16.1-10.8,41.6-7.8c1.8-0.5,3.7-1.1,5.6-1.5
		c-3.6-4.9-11.9-10.4-15.3-11.9c-3.4-1.4-30.6-1.1-30.6-1.1s-4-0.8-8.3,5.8c2.5,0.1,5.5,0.7,5.6,2.8c0.2,3.8-4.7,8.6-6.7,15.8
		c-2,7.2-4.5,13.9-4.5,13.9l-0.4-13.6c-1.6,11.1-1.8,22.8-1.8,22.8S3580.1-1359,3583.9-1362.2z"/>
	<path class="st1" d="M3584.8-1380c2-7.2,6.8-12.1,6.7-15.8c-0.1-2.1-3-2.7-5.6-2.8c-0.8,1.2-1.6,2.7-2.4,4.4
		c-1.7,3.7-2.8,9-3.6,14.5l0.4,13.6C3580.3-1366.1,3582.8-1372.8,3584.8-1380z"/>
	<path class="st0" d="M3575.2-1348.8c12.2-11,48.6-38.7,72.2-38.7c19,0,17,21.6,15.5,30c1,2,1.9,4.1,2.6,6.1
		c0.1-2.5,0.3-4.6,0.8-5.6c1.4-2.7,8.5-19.1,2.3-27.9c-6.1-8.8-28.6-6.5-28.6-6.5c-1.9,0.5-3.8,1-5.6,1.5c1.1,0.1,2.3,0.3,3.5,0.4
		c-1.2-0.2-2.3-0.3-3.5-0.4c-24.1,7.2-41.9,20.4-50.5,27.7c-0.3,1.9-0.4,3.1-0.4,3.1s0.1-1.2,0.4-3.1c-3.8,3.2-5.8,5.3-5.8,5.3
		s-17.8,16.6-10.1,30.6c0.1,0.2,0.2,0.4,0.3,0.6C3567.3-1331.6,3567.1-1341.5,3575.2-1348.8z"/>
	<path class="st1" d="M3592.8-1382.1c-6,5.3-8.2,14.9-8.9,19.9c8.6-7.3,26.5-20.5,50.5-27.7
		C3608.9-1393,3600.8-1389.2,3592.8-1382.1z"/>
	<path class="st4" d="M3645.1-1197.2L3645.1-1197.2C3645.1-1197.3,3645.1-1197.2,3645.1-1197.2L3645.1-1197.2z"/>
	<path class="st5" d="M3645.1-1197.3c3.6-9,28.4-49.7,39.6-70.2c11.2-20.5,15.1-45.4,15.1-45.4l-13,5l11.2-8.6l-5.6-8.8c0,0,0,0,0,0
		c-7.7-3.1-21.2-5.6-21.2-5.6s-0.7,0.9-2,1.4c-1,38.4-20.8,63.9-20.8,63.9C3640.7-1239.2,3645.1-1197.3,3645.1-1197.3z"/>
	<path class="st0" d="M3662.2-1354.2c0,0,0.3-1.3,0.7-3.3c-0.3-0.5-0.6-1.1-0.9-1.5c-3.1-4.9-7.3-4.1-7.3-4.1v13
		c0,0-8.3-11.3-8.9-12.2c-0.6-0.9-10.7-11.3-12.8-11.4s-23.7,12.3-26.5,14.7c-2.8,2.3-12.1,11.1-13.4,14.2c-1.4,3.2,1.6,7.8,4.6,7.4
		s7-7.3,11.5-8.2c4.5-0.9,8.2,0.7,8.2,0.7s1.6-0.3,2.3,5c0.7,5.3,0.8,10.7,2.8,11.2c1.9,0.5,7.7,0,7.7,0s-0.9-2.5,0.8-2.9
		c1.7-0.4,4.1,0.2,3.6,1.3c-0.5,1.1-3.3,2.2-3,3.7c0.3,1.6-2.2,4-4.7,3.5c-2.5-0.5-5.9-0.4-6-2.4c-0.1-2-3.2-5.3-3.5-6.1
		c-0.3-0.8,0-8.3,0-8.3s-3.1-0.6-5.2,2.4s-4.1,4.3-6.8,4.9s-6.7,0.2-7.8,1.2c-1.1,1-4.2,5,1.6,7c5.8,1.9,2.9-3.4,7,1.1
		c4.1,4.4,11.5,16.4,14.8,17.6c3.2,1.2,5.5,6,10.7,4.9c5.3-1.1,19.3-5.3,21.9-14.9c0,0,1.8,9.6-9.1,17.2l5.8-1.3
		c0,0-12.7,8.4-18.1,10c-5.4,1.6-4,1.8-4,1.8l3.5,5.6l0.4,7.6l6,1.1l1.2,7.2l9.1,1c7.6-26.4,8.3-32.5,8.3-32.5s-0.7,6.1-8.3,32.5
		c0,0,19.8-25.5,20.8-63.9c-0.8,0.3-1.8,0.5-3,0.2c-3.2-0.7-4.3-8.3-4.3-8.3s2.5-0.2,3.2-3.1c0.5-1.8,0.3-6.8,0.4-10.9
		c-0.7-1.9-1.6-4.1-2.6-6.1C3662.5-1355.5,3662.2-1354.2,3662.2-1354.2z M3633.3-1345c-2,0.4-4.8-0.2-6.6-0.7
		c-1.8-0.5-5.8-6.5-5.8-6.5l9.8-6.9l5.9,0.5c-5.3,2.3-7.5,6.7-7.5,6.7s-1.2,1.9,3.3,0.9s9.8-2,9.8-2S3635.3-1345.3,3633.3-1345z
		 M3638.6-1312.3c-2.3,0.9-3.5,0.4-3.9,1.7c-0.4,1.3-4.1,2.3-4.7,1.9c-0.6-0.4-0.8-2.4-0.8-2.4s7.8-5.9,11.8-6
		S3640.9-1313.1,3638.6-1312.3z M3642.4-1322.2c-4.7,1.3-15.4,6.6-16.4,8.6s-3.5,1.6-3.8-0.6c0,0,2.5-2.2,4.6-2.6
		c2-0.5,5.2-2.8,9.2-4.4c4.1-1.7,5.8-3.1,5.8-4.1c0-1,5.2-0.6,5.2-0.6l1.8,2.2C3648.7-1323.8,3647.1-1323.5,3642.4-1322.2z
		 M3643.3-1330.2c-2-1-6.5-2.3-6.8-2.8c-0.4-0.5-0.6-2.6-0.6-2.6s11.4,2,12.8,6.2C3650.1-1325.2,3645.3-1329.3,3643.3-1330.2z"/>
	<path class="st1" d="M3833.8-1235.2c-1-3.8-19.9-25-24.7-32.6c-4.8-7.7-25.7-25.9-27.6-28.6c-1.9-2.6-4.8-5.5-7.2-7
		c-2.4-1.4-1.4-5.8-2.4-8.6c-1-2.9-21.9-18.8-27.1-20.1c-5.2-1.3-31.5,3.8-38,5.6c-6.3,1.8-14.1,1.3-14.5,1.3l5.6,8.8l-11.2,8.6
		l13-5c0,0-4,24.8-15.1,45.4c-11.2,20.5-36,61.2-39.6,70.2l0,0.1l0,0l0,0l0,0c-2.6,6.7-5.3,28.7-6.5,40l82.4-6.3
		c1.8-2.2,3.5-4.5,4.3-6.4c2.9-6.3,17.6-15.8,20.5-16.6c2.9-0.7,7.9-10.1,7.6-12.6c-0.4-2.5-18.4,7.9-18.4,7.9l15.8-13.7
		c0,0,1.1-2.5,5.8-5c4.7-2.5-5.8-8.6-5.8-8.6s5.8,1.1,8.6,2.5c2.9,1.4-6.1-12.6-6.1-12.6s4.3,2.9,7.2,7.2c2.9,4.3,0-9.7-0.4-12.6
		c-0.4-2.9-21.2-31.6-21.2-31.6l-10.4-43c0,0,6.5,23,11.9,35.6c5.4,12.6,27.1,38.6,27.1,38.6l0.9,2.3c2.6,4.8,9.9,8.7,9.9,8.7
		c0,3.6,4.8,6.7,4.8,6.7s0.7-1.7,0.7,1.9s1.7,4.6,1.7,4.6c-1,3.4,1,16.8,1,16.8l-6,35.8h38.6l3.6-13.4c0,0,1.2-2.9,1.9-6.2
		c0.7-3.4,5.5-9.1,5.3-13.4c-0.2-4.3,3.1-9.6,5-17.4S3834.8-1231.4,3833.8-1235.2z M3730.4-1291.2v16.2l-28.8,9.5l11.5-20.6l5.8,2.2
		l2.2-7.2l5.8,4L3730.4-1291.2z"/>
	<path class="st1" d="M3586.2-1203.8c0,0-0.5-17.3,0-19.3c0.5-2-0.4-6.5,4.5-6.3c0,0-1.8-7,1.3-7c3.1,0,5.8-1.8,5.8-1.8
		s1.6-4.7,6.7-5.8c0,0-0.4-4.9,4.9-5.2c5.2-0.4,15.3,2.2,15.3,2.2s0.9-7.4,5-8.8c4.1-1.4,2.7,4.9,2.7,4.9s-2,8.5-2.2,11
		c-0.2,2.5-1.3,6.5-4.1,10.4c-2.9,4-4.3,7.7-4.7,8.3c0,0-0.1,0.2-0.1,0.4l23.8,23.6c0,0,0,0,0,0c0,0-4.3-41.9,3.2-68.3l-9.1-1
		l-1.2-7.2l-6-1.1l-0.4-7.6l-3.5-5.6c0,0-1.4-0.2,4-1.8c5.4-1.6,18.1-10,18.1-10l-5.8,1.3c10.9-7.6,9.1-17.2,9.1-17.2
		c-2.6,9.6-16.7,13.8-21.9,14.9c-5.3,1.1-7.5-3.7-10.7-4.9c-3.2-1.2-10.7-13.2-14.8-17.6c-4.1-4.4-1.2,0.8-7-1.1
		c-5.8-1.9-2.6-6-1.6-7c1.1-1,5-0.6,7.8-1.2s4.8-1.8,6.8-4.9s5.2-2.4,5.2-2.4l0-5c0,0-3.7-1.6-8.2-0.7c-4.5,0.9-8.6,7.8-11.5,8.2
		s-5.9-4.3-4.6-7.4c1.3-3.2,10.6-11.9,13.4-14.2c2.8-2.3,24.4-14.8,26.5-14.7s12.2,10.5,12.8,11.4c0.6,0.9,8.9,12.2,8.9,12.2v-13
		c0,0,4.2-0.7,7.3,4.1c0.3,0.5,0.6,1,0.9,1.5c1.5-8.4,3.5-30-15.5-30c-23.6,0-59.9,27.7-72.2,38.7c-8.1,7.3-7.9,17.2-6.9,23.1
		c5.6,8.9,22,7.9,22,7.9s1.8,3.8,5.7,7.6c3.9,3.8,9.6,0,9.6,0s2.5,2,6.8,6.7c4.3,4.7,12.2,11.7,12.2,11.7
		c-3.2,5-29.5,25.1-33.8,26.8c-4.3,1.7-7.2,6-7.7,11s-8.4,28.3-8.4,28.3v17.9c0,0-6.5,2.5-8.4,2.7c-1.9,0.2,0,13.2,0,13.2
		s9.8-0.8,13.3-4.2C3583.1-1199.6,3586.2-1203.8,3586.2-1203.8z"/>
	<path d="M3621.2-1220.8c-0.5,2.4-2,16.1-7.6,17.1c-6.1,1.1-5.9,3.8-8.1,5.4c0,0,3.1,1.3,3.4,3.6c0.4,2.3-7,13.7-7,13.7
		s-8.3,18.7-12.4,21.6c-2.1,1.5-4.8,4.2-6.9,6.5l56-4.2c1.2-11.3,3.8-33.3,6.5-40L3621.2-1220.8z"/>
	<path class="st1" d="M3642.4-1353.1c0,0-5.3,1-9.8,2s-3.3-0.9-3.3-0.9s2.2-4.3,7.5-6.7l-5.9-0.5l-9.8,6.9c0,0,4,5.9,5.8,6.5
		c1.8,0.5,4.6,1.1,6.6,0.7C3635.3-1345.3,3642.4-1353.1,3642.4-1353.1z"/>
	<polygon class="st0" points="3721,-1291.2 3718.9,-1284 3713.1,-1286.2 3701.6,-1265.6 3730.4,-1275 3730.4,-1291.2 
		3726.8,-1287.3 	"/>
	<path d="M3766.1-1190.1c1.2-5.3,0.5-17.9,0.5-17.9c1.4-5.6,1-26.3,1-26.3s-21.7-26-27.1-38.6c-5.4-12.6-11.9-35.6-11.9-35.6
		l10.4,43c0,0,20.9,28.7,21.2,31.6c0.4,2.9,3.2,16.9,0.4,12.6c-2.9-4.3-7.2-7.2-7.2-7.2s9,14,6.1,12.6c-2.9-1.4-8.6-2.5-8.6-2.5
		s10.4,6.1,5.8,8.6c-4.7,2.5-5.8,5-5.8,5l-15.8,13.7c0,0,18-10.4,18.4-7.9c0.4,2.5-4.7,11.9-7.6,12.6c-2.9,0.7-17.6,10.3-20.5,16.6
		c-0.9,1.9-2.5,4.2-4.3,6.4l43.2-3.3C3764.2-1166.8,3764.9-1184.8,3766.1-1190.1z"/>
	<path class="st4" d="M3768.4-1231.9l-0.9-2.3C3767.7-1233.4,3768-1232.7,3768.4-1231.9z"/>
	<path class="st3" d="M3617.4-1331.6c0.3,0.8,3.4,4.1,3.5,6.1c0.1,2,3.5,1.9,6,2.4c2.5,0.5,5-1.9,4.7-3.5c-0.3-1.6,2.5-2.6,3-3.7
		c0.5-1.1-1.9-1.7-3.6-1.3c-1.7,0.4-0.8,2.9-0.8,2.9s-5.8,0.5-7.7,0c-1.9-0.5-2-5.9-2.8-11.2c-0.7-5.3-2.3-5-2.3-5l0,5
		C3617.5-1339.8,3617.1-1332.4,3617.4-1331.6z"/>
	<path class="st1" d="M3641.7-1325.3c0,1-1.7,2.4-5.8,4.1c-4.1,1.7-7.2,4-9.2,4.4c-2,0.5-4.6,2.6-4.6,2.6c0.4,2.2,2.9,2.6,3.8,0.6
		s11.6-7.3,16.4-8.6c4.7-1.3,6.3-1.6,6.3-1.6l-1.8-2.2C3646.9-1325.9,3641.7-1326.3,3641.7-1325.3z"/>
	<path class="st3" d="M3640.9-1317c-4,0.1-11.8,6-11.8,6s0.2,2,0.8,2.4c0.6,0.4,4.3-0.6,4.7-1.9c0.4-1.3,1.6-0.8,3.9-1.7
		C3640.9-1313.1,3644.8-1317.2,3640.9-1317z"/>
	<path class="st3" d="M3635.8-1335.6c0,0,0.2,2.2,0.6,2.6c0.4,0.5,4.8,1.8,6.8,2.8c2,1,6.8,5,5.4,0.8
		C3647.2-1333.6,3635.8-1335.6,3635.8-1335.6z"/>
	<path d="M3586.2-1203.8c0,0-3.1,4.1-6.5,7.6c-3.4,3.4-13.3,4.2-13.3,4.2s-4.6,2.2-8.6,6c-4.1,3.8-4.6,11-8.2,13.4
		c-3.6,2.4-2.2,15.1-2.2,15.1l25.2,5.2l9.8-0.7c2.1-2.3,4.8-5,6.9-6.5c4.1-2.9,12.4-21.6,12.4-21.6s7.4-11.3,7-13.7
		c-0.4-2.3-3.4-3.6-3.4-3.6S3592.5-1195.1,3586.2-1203.8z"/>
	<path class="st0" d="M3629.6-1255.8c-4.1,1.4-5,8.8-5,8.8s-10.1-2.5-15.3-2.2c-5.2,0.4-4.9,5.2-4.9,5.2c-5,1.1-6.7,5.8-6.7,5.8
		s-2.7,1.8-5.8,1.8c-3.1,0-1.3,7-1.3,7c-4.9-0.2-4,4.3-4.5,6.3c-0.5,2,0,19.3,0,19.3c6.3,8.6,19.3,5.4,19.3,5.4
		c2.2-1.6,2-4.3,8.1-5.4c5.7-1,7.2-14.6,7.6-17.1l0,0c0-0.2,0.1-0.3,0.1-0.4c0.4-0.5,1.8-4.3,4.7-8.3c2.9-4,4-7.9,4.1-10.4
		c0.2-2.5,2.2-11,2.2-11S3633.7-1257.2,3629.6-1255.8z"/>
</g>
<g>
	<path class="st3" d="M3951.1-1362.2c0.7-5,2.9-14.6,8.9-19.9c8-7.1,16.1-10.8,41.6-7.8c1.8-0.5,3.7-1.1,5.6-1.5
		c-3.6-4.9-11.9-10.4-15.3-11.9c-3.4-1.4-30.6-1.1-30.6-1.1s-4-0.8-8.3,5.8c2.5,0.1,5.5,0.7,5.6,2.8c0.2,3.8-4.7,8.6-6.7,15.8
		c-2,7.2-4.5,13.9-4.5,13.9l-0.4-13.6c-1.6,11.1-1.8,22.8-1.8,22.8S3947.3-1359,3951.1-1362.2z"/>
	<path class="st1" d="M3952-1380c2-7.2,6.8-12.1,6.7-15.8c-0.1-2.1-3-2.7-5.6-2.8c-0.8,1.2-1.6,2.7-2.4,4.4c-1.7,3.7-2.8,9-3.6,14.5
		l0.4,13.6C3947.5-1366.1,3950-1372.8,3952-1380z"/>
	<path class="st0" d="M3942.4-1348.8c12.2-11,48.6-38.7,72.2-38.7c19,0,17,21.6,15.5,30c1,2,1.9,4.1,2.6,6.1
		c0.1-2.5,0.3-4.6,0.8-5.6c1.4-2.7,8.5-19.1,2.3-27.9c-6.1-8.8-28.6-6.5-28.6-6.5c-1.9,0.5-3.8,1-5.6,1.5c1.1,0.1,2.3,0.3,3.5,0.4
		c-1.2-0.2-2.3-0.3-3.5-0.4c-24.1,7.2-41.9,20.4-50.5,27.7c-0.3,1.9-0.4,3.1-0.4,3.1s0.1-1.2,0.4-3.1c-3.8,3.2-5.8,5.3-5.8,5.3
		s-17.8,16.6-10.1,30.6c0.1,0.2,0.2,0.4,0.3,0.6C3934.5-1331.6,3934.3-1341.5,3942.4-1348.8z"/>
	<path class="st1" d="M3960-1382.1c-6,5.3-8.2,14.9-8.9,19.9c8.6-7.3,26.5-20.5,50.5-27.7C3976.1-1393,3968-1389.2,3960-1382.1z"/>
	<path class="st4" d="M4012.3-1197.2L4012.3-1197.2C4012.3-1197.3,4012.3-1197.2,4012.3-1197.2L4012.3-1197.2z"/>
	<path class="st5" d="M4012.3-1197.3c3.6-9,28.4-49.7,39.6-70.2c11.2-20.5,15.1-45.4,15.1-45.4l-13,5l11.2-8.6l-5.6-8.8c0,0,0,0,0,0
		c-7.7-3.1-21.2-5.6-21.2-5.6s-0.7,0.9-2,1.4c-1,38.4-20.8,63.9-20.8,63.9C4007.9-1239.2,4012.3-1197.3,4012.3-1197.3z"/>
	<path class="st0" d="M4029.4-1354.2c0,0,0.3-1.3,0.7-3.3c-0.3-0.5-0.6-1.1-0.9-1.5c-3.1-4.9-7.3-4.1-7.3-4.1v13
		c0,0-8.3-11.3-8.9-12.2c-0.6-0.9-10.7-11.3-12.8-11.4c-2.1-0.1-23.7,12.3-26.5,14.7c-2.8,2.3-12.1,11.1-13.4,14.2
		c-1.4,3.2,1.6,7.8,4.6,7.4c3-0.4,7-7.3,11.5-8.2c4.5-0.9,8.2,0.7,8.2,0.7s1.6-0.3,2.3,5c0.7,5.3,0.8,10.7,2.8,11.2
		c1.9,0.5,7.7,0,7.7,0s-0.9-2.5,0.8-2.9c1.7-0.4,4.1,0.2,3.6,1.3c-0.5,1.1-3.3,2.2-3,3.7c0.3,1.6-2.2,4-4.7,3.5s-5.9-0.4-6-2.4
		c-0.1-2-3.2-5.3-3.5-6.1c-0.3-0.8,0-8.3,0-8.3s-3.1-0.6-5.2,2.4s-4.1,4.3-6.8,4.9s-6.7,0.2-7.8,1.2c-1.1,1-4.2,5,1.6,7
		c5.8,1.9,2.9-3.4,7,1.1c4.1,4.4,11.5,16.4,14.8,17.6c3.2,1.2,5.5,6,10.7,4.9c5.3-1.1,19.3-5.3,21.9-14.9c0,0,1.8,9.6-9.1,17.2
		l5.8-1.3c0,0-12.7,8.4-18.1,10c-5.4,1.6-4,1.8-4,1.8l3.5,5.6l0.4,7.6l6,1.1l1.2,7.2l9.1,1c7.6-26.4,8.3-32.5,8.3-32.5
		s-0.7,6.1-8.3,32.5c0,0,19.8-25.5,20.8-63.9c-0.8,0.3-1.8,0.5-3,0.2c-3.2-0.7-4.3-8.3-4.3-8.3s2.5-0.2,3.2-3.1
		c0.5-1.8,0.3-6.8,0.4-10.9c-0.7-1.9-1.6-4.1-2.6-6.1C4029.7-1355.5,4029.4-1354.2,4029.4-1354.2z M4000.5-1345
		c-2,0.4-4.8-0.2-6.6-0.7c-1.8-0.5-5.8-6.5-5.8-6.5l9.8-6.9l5.9,0.5c-5.3,2.3-7.5,6.7-7.5,6.7s-1.2,1.9,3.3,0.9s9.8-2,9.8-2
		S4002.5-1345.3,4000.5-1345z M4005.8-1312.3c-2.3,0.9-3.5,0.4-3.9,1.7c-0.4,1.3-4.1,2.3-4.7,1.9c-0.6-0.4-0.8-2.4-0.8-2.4
		s7.8-5.9,11.8-6S4008.1-1313.1,4005.8-1312.3z M4009.6-1322.2c-4.7,1.3-15.4,6.6-16.4,8.6s-3.5,1.6-3.8-0.6c0,0,2.5-2.2,4.6-2.6
		c2-0.5,5.2-2.8,9.2-4.4c4.1-1.7,5.8-3.1,5.8-4.1c0-1,5.2-0.6,5.2-0.6l1.8,2.2C4015.9-1323.8,4014.3-1323.5,4009.6-1322.2z
		 M4010.5-1330.2c-2-1-6.5-2.3-6.8-2.8c-0.4-0.5-0.6-2.6-0.6-2.6s11.4,2,12.8,6.2C4017.3-1325.2,4012.5-1329.3,4010.5-1330.2z"/>
	<path class="st1" d="M4201-1235.2c-1-3.8-19.9-25-24.7-32.6c-4.8-7.7-25.7-25.9-27.6-28.6s-4.8-5.5-7.2-7c-2.4-1.4-1.4-5.8-2.4-8.6
		c-1-2.9-21.9-18.8-27.1-20.1c-5.2-1.3-31.5,3.8-38,5.6c-6.3,1.8-14.1,1.3-14.5,1.3l5.6,8.8l-11.2,8.6l13-5c0,0-4,24.8-15.1,45.4
		c-11.2,20.5-36,61.2-39.6,70.2l0,0.1l0,0l0,0l0,0c-2.6,6.7-5.3,28.7-6.5,40l82.4-6.3c1.8-2.2,3.5-4.5,4.3-6.4
		c2.9-6.3,17.6-15.8,20.5-16.6c2.9-0.7,7.9-10.1,7.6-12.6c-0.4-2.5-18.4,7.9-18.4,7.9l15.8-13.7c0,0,1.1-2.5,5.8-5s-5.8-8.6-5.8-8.6
		s5.8,1.1,8.6,2.5c2.9,1.4-6.1-12.6-6.1-12.6s4.3,2.9,7.2,7.2c2.9,4.3,0-9.7-0.4-12.6c-0.4-2.9-21.2-31.6-21.2-31.6l-10.4-43
		c0,0,6.5,23,11.9,35.6c5.4,12.6,27.1,38.6,27.1,38.6l0.9,2.3c2.6,4.8,9.9,8.7,9.9,8.7c0,3.6,4.8,6.7,4.8,6.7s0.7-1.7,0.7,1.9
		s1.7,4.6,1.7,4.6c-1,3.4,1,16.8,1,16.8l-6,35.8h38.6l3.6-13.4c0,0,1.2-2.9,1.9-6.2c0.7-3.4,5.5-9.1,5.3-13.4
		c-0.2-4.3,3.1-9.6,5-17.4S4202-1231.4,4201-1235.2z M4097.6-1291.2v16.2l-28.8,9.5l11.5-20.6l5.8,2.2l2.2-7.2l5.8,4L4097.6-1291.2z
		"/>
	<path class="st1" d="M3953.4-1203.8c0,0-0.5-17.3,0-19.3c0.5-2-0.4-6.5,4.5-6.3c0,0-1.8-7,1.3-7c3.1,0,5.8-1.8,5.8-1.8
		s1.6-4.7,6.7-5.8c0,0-0.4-4.9,4.9-5.2c5.2-0.4,15.3,2.2,15.3,2.2s0.9-7.4,5-8.8c4.1-1.4,2.7,4.9,2.7,4.9s-2,8.5-2.2,11
		s-1.3,6.5-4.1,10.4c-2.9,4-4.3,7.7-4.7,8.3c0,0-0.1,0.2-0.1,0.4l23.8,23.6c0,0,0,0,0,0c0,0-4.3-41.9,3.2-68.3l-9.1-1l-1.2-7.2
		l-6-1.1l-0.4-7.6l-3.5-5.6c0,0-1.4-0.2,4-1.8c5.4-1.6,18.1-10,18.1-10l-5.8,1.3c10.9-7.6,9.1-17.2,9.1-17.2
		c-2.6,9.6-16.7,13.8-21.9,14.9c-5.3,1.1-7.5-3.7-10.7-4.9c-3.2-1.2-10.7-13.2-14.8-17.6c-4.1-4.4-1.2,0.8-7-1.1
		c-5.8-1.9-2.6-6-1.6-7c1.1-1,5-0.6,7.8-1.2s4.8-1.8,6.8-4.9s5.2-2.4,5.2-2.4l0-5c0,0-3.7-1.6-8.2-0.7c-4.5,0.9-8.5,7.8-11.5,8.2
		c-3,0.4-5.9-4.3-4.6-7.4c1.4-3.2,10.6-11.9,13.4-14.2c2.8-2.3,24.4-14.8,26.5-14.7c2.1,0.1,12.2,10.5,12.8,11.4
		c0.6,0.9,8.9,12.2,8.9,12.2v-13c0,0,4.2-0.7,7.3,4.1c0.3,0.5,0.6,1,0.9,1.5c1.5-8.4,3.5-30-15.5-30c-23.6,0-59.9,27.7-72.2,38.7
		c-8.1,7.3-7.9,17.2-6.9,23.1c5.6,8.9,22,7.9,22,7.9s1.8,3.8,5.7,7.6c3.9,3.8,9.6,0,9.6,0s2.5,2,6.8,6.7
		c4.3,4.7,12.2,11.7,12.2,11.7c-3.2,5-29.5,25.1-33.8,26.8c-4.3,1.7-7.2,6-7.7,11s-8.4,28.3-8.4,28.3v17.9c0,0-6.5,2.5-8.4,2.7
		c-1.9,0.2,0,13.2,0,13.2s9.8-0.8,13.3-4.2C3950.3-1199.6,3953.4-1203.8,3953.4-1203.8z"/>
	<path d="M3988.4-1220.8c-0.5,2.4-2,16.1-7.6,17.1c-6.1,1.1-5.9,3.8-8.1,5.4c0,0,3.1,1.3,3.4,3.6c0.4,2.3-7,13.7-7,13.7
		s-8.3,18.7-12.4,21.6c-2.1,1.5-4.8,4.2-6.9,6.5l56-4.2c1.2-11.3,3.8-33.3,6.5-40L3988.4-1220.8z"/>
	<path class="st1" d="M4009.6-1353.1c0,0-5.3,1-9.8,2s-3.3-0.9-3.3-0.9s2.2-4.3,7.5-6.7l-5.9-0.5l-9.8,6.9c0,0,4,5.9,5.8,6.5
		c1.8,0.5,4.6,1.1,6.6,0.7C4002.5-1345.3,4009.6-1353.1,4009.6-1353.1z"/>
	<polygon class="st0" points="4088.2,-1291.2 4086.1,-1284 4080.3,-1286.2 4068.8,-1265.6 4097.6,-1275 4097.6,-1291.2 
		4094,-1287.3 	"/>
	<path d="M4133.3-1190.1c1.2-5.3,0.5-17.9,0.5-17.9c1.4-5.6,1-26.3,1-26.3s-21.7-26-27.1-38.6c-5.4-12.6-11.9-35.6-11.9-35.6
		l10.4,43c0,0,20.9,28.7,21.2,31.6c0.4,2.9,3.2,16.9,0.4,12.6c-2.9-4.3-7.2-7.2-7.2-7.2s9,14,6.1,12.6c-2.9-1.4-8.6-2.5-8.6-2.5
		s10.4,6.1,5.8,8.6s-5.8,5-5.8,5l-15.8,13.7c0,0,18-10.4,18.4-7.9c0.4,2.5-4.7,11.9-7.6,12.6c-2.9,0.7-17.6,10.3-20.5,16.6
		c-0.9,1.9-2.5,4.2-4.3,6.4l43.2-3.3C4131.4-1166.8,4132.1-1184.8,4133.3-1190.1z"/>
	<path class="st4" d="M4135.6-1231.9l-0.9-2.3C4134.9-1233.4,4135.2-1232.7,4135.6-1231.9z"/>
	<path class="st3" d="M3984.6-1331.6c0.3,0.8,3.4,4.1,3.5,6.1c0.1,2,3.5,1.9,6,2.4s5-1.9,4.7-3.5c-0.3-1.6,2.5-2.6,3-3.7
		c0.5-1.1-1.9-1.7-3.6-1.3c-1.7,0.4-0.8,2.9-0.8,2.9s-5.8,0.5-7.7,0c-1.9-0.5-2-5.9-2.8-11.2c-0.7-5.3-2.3-5-2.3-5l0,5
		C3984.7-1339.8,3984.3-1332.4,3984.6-1331.6z"/>
	<path class="st1" d="M4008.9-1325.3c0,1-1.7,2.4-5.8,4.1c-4.1,1.7-7.2,4-9.2,4.4c-2,0.5-4.6,2.6-4.6,2.6c0.4,2.2,2.9,2.6,3.8,0.6
		s11.6-7.3,16.4-8.6c4.7-1.3,6.3-1.6,6.3-1.6l-1.8-2.2C4014.1-1325.9,4008.9-1326.3,4008.9-1325.3z"/>
	<path class="st3" d="M4008.1-1317c-4,0.1-11.8,6-11.8,6s0.2,2,0.8,2.4c0.6,0.4,4.3-0.6,4.7-1.9c0.4-1.3,1.6-0.8,3.9-1.7
		C4008.1-1313.1,4012-1317.2,4008.1-1317z"/>
	<path class="st3" d="M4003-1335.6c0,0,0.2,2.2,0.6,2.6c0.4,0.5,4.8,1.8,6.8,2.8c2,1,6.8,5,5.4,0.8
		C4014.4-1333.6,4003-1335.6,4003-1335.6z"/>
	<path d="M3953.4-1203.8c0,0-3.1,4.1-6.5,7.6c-3.4,3.4-13.3,4.2-13.3,4.2s-4.6,2.2-8.6,6c-4.1,3.8-4.6,11-8.2,13.4
		c-3.6,2.4-2.2,15.1-2.2,15.1l25.2,5.2l9.8-0.7c2.1-2.3,4.8-5,6.9-6.5c4.1-2.9,12.4-21.6,12.4-21.6s7.4-11.3,7-13.7
		c-0.4-2.3-3.4-3.6-3.4-3.6S3959.7-1195.1,3953.4-1203.8z"/>
	<path class="st0" d="M3996.8-1255.8c-4.1,1.4-5,8.8-5,8.8s-10.1-2.5-15.3-2.2c-5.2,0.4-4.9,5.2-4.9,5.2c-5,1.1-6.7,5.8-6.7,5.8
		s-2.7,1.8-5.8,1.8c-3.1,0-1.3,7-1.3,7c-4.9-0.2-4,4.3-4.5,6.3c-0.5,2,0,19.3,0,19.3c6.3,8.6,19.3,5.4,19.3,5.4
		c2.2-1.6,2-4.3,8.1-5.4c5.7-1,7.2-14.6,7.6-17.1l0,0c0-0.2,0.1-0.3,0.1-0.4c0.4-0.5,1.8-4.3,4.7-8.3c2.9-4,4-7.9,4.1-10.4
		s2.2-11,2.2-11S4000.9-1257.2,3996.8-1255.8z"/>
</g>
<path class="st9" d="M1682.4-1317v-22.4C1681.7-1325.4,1682.4-1317,1682.4-1317z"/>
<polygon class="st0" points="3964.9,0 219.8,0 0,238.3 4184.6,238.3 "/>
<polygon class="st0" points="1183.7,555.1 0,555.1 219.8,316.8 1093.5,316.8 "/>
<polygon class="st0" points="3001,555.1 4184.6,555.1 3964.9,316.8 3091.1,316.8 "/>
<rect x="1091.3" y="316.8" class="st0" width="2041.9" height="238.3"/>
<g>
	<path class="st9" d="M2423-1483.1c0,0-1.7-1-1.7-4.6c0-3.6-0.7-1.9-0.7-1.9s-4.8-3.1-4.8-6.7c0,0-7.3-3.9-9.9-8.7
		c-0.4-0.8-0.7-1.6-0.9-2.3c0,0,0.5,20.7-1,26.3c0,0,0.7,12.6-0.5,17.9c-1,4.5-1.7,18-1.9,22.1h18l4.2-25.2
		C2424-1466.3,2422.1-1479.7,2423-1483.1z"/>
	<path class="st3" d="M2221.3-1635.3c0.7-5,2.9-14.6,8.9-19.9c8-7.1,16.1-10.8,41.6-7.8c1.8-0.5,3.7-1.1,5.6-1.5
		c-3.6-4.9-11.9-10.4-15.3-11.9c-3.4-1.4-30.6-1.1-30.6-1.1s-4-0.8-8.3,5.8c2.5,0.1,5.5,0.7,5.6,2.8c0.2,3.8-4.7,8.6-6.7,15.8
		s-4.5,13.9-4.5,13.9l-0.4-13.6c-1.6,11.1-1.8,22.8-1.8,22.8S2217.6-1632.1,2221.3-1635.3z"/>
	<path class="st1" d="M2222.2-1653c2-7.2,6.8-12.1,6.7-15.8c-0.1-2.1-3-2.7-5.6-2.8c-0.8,1.2-1.6,2.7-2.4,4.4
		c-1.7,3.7-2.8,9-3.6,14.5l0.4,13.6C2217.7-1639.2,2220.2-1645.8,2222.2-1653z"/>
	<path class="st0" d="M2212.7-1621.9c12.2-11,48.6-38.7,72.2-38.7c19,0,17,21.6,15.5,30c1,2,1.9,4.1,2.6,6.1
		c0.1-2.5,0.3-4.6,0.8-5.6c1.4-2.7,8.5-19.1,2.3-27.9c-6.1-8.8-28.6-6.5-28.6-6.5c-1.9,0.5-3.8,1-5.6,1.5c1.1,0.1,2.3,0.3,3.5,0.4
		c-1.2-0.2-2.3-0.3-3.5-0.4c-24.1,7.2-41.9,20.4-50.5,27.7c-0.3,1.9-0.4,3.1-0.4,3.1s0.1-1.2,0.4-3.1c-3.8,3.2-5.8,5.3-5.8,5.3
		s-17.8,16.6-10.1,30.6c0.1,0.2,0.2,0.4,0.3,0.6C2204.7-1604.7,2204.5-1614.6,2212.7-1621.9z"/>
	<path class="st1" d="M2230.2-1655.2c-6,5.3-8.2,14.9-8.9,19.9c8.6-7.3,26.5-20.5,50.5-27.7
		C2246.3-1666,2238.2-1662.3,2230.2-1655.2z"/>
	<path class="st4" d="M2282.5-1470.3L2282.5-1470.3C2282.5-1470.3,2282.5-1470.3,2282.5-1470.3L2282.5-1470.3z"/>
	<path class="st5" d="M2282.5-1470.3c3.6-9,28.4-49.7,39.6-70.2c11.2-20.5,15.1-45.4,15.1-45.4l-13,5l11.2-8.6l-5.6-8.8c0,0,0,0,0,0
		c-7.7-3.1-21.2-5.6-21.2-5.6s-0.7,0.9-2,1.4c-1,38.4-20.8,63.9-20.8,63.9C2278.2-1512.2,2282.5-1470.3,2282.5-1470.3z"/>
	<path class="st0" d="M2299.6-1627.3c0,0,0.3-1.3,0.7-3.3c-0.3-0.5-0.6-1.1-0.9-1.5c-3.1-4.9-7.3-4.1-7.3-4.1v13.1
		c0,0-8.3-11.3-8.9-12.2c-0.6-0.9-10.7-11.3-12.8-11.4c-2.1-0.1-23.7,12.3-26.5,14.7s-12.1,11.1-13.4,14.2c-1.4,3.2,1.6,7.8,4.6,7.4
		c3-0.4,7-7.3,11.5-8.2s8.2,0.7,8.2,0.7s1.6-0.3,2.3,5s0.8,10.7,2.8,11.2c1.9,0.5,7.7,0,7.7,0s-0.9-2.5,0.8-2.9s4.1,0.2,3.6,1.3
		s-3.3,2.2-3,3.7c0.3,1.6-2.2,4-4.7,3.5c-2.5-0.5-5.9-0.4-6-2.4c-0.1-2-3.2-5.3-3.5-6.1c-0.3-0.8,0-8.3,0-8.3s-3.1-0.6-5.2,2.4
		s-4.1,4.3-6.8,4.9c-2.8,0.6-6.7,0.2-7.8,1.2c-1.1,1-4.2,5,1.6,7c5.8,1.9,2.9-3.4,7,1.1c4.1,4.4,11.5,16.4,14.8,17.6
		c3.2,1.2,5.5,6,10.7,4.9s19.3-5.3,21.9-14.9c0,0,1.8,9.6-9.1,17.2l5.8-1.3c0,0-12.7,8.4-18.1,10c-5.4,1.6-4,1.8-4,1.8l3.5,5.6
		l0.4,7.6l6,1.1l1.2,7.2l9.1,1c7.6-26.4,7.6-26.4,0,0c0,0,19.8-25.5,20.8-63.9c-0.8,0.3-1.8,0.5-3,0.2c-3.2-0.7-4.3-8.3-4.3-8.3
		s2.5-0.2,3.2-3.1c0.5-1.8,0.3-6.8,0.4-10.9c-0.7-1.9-1.6-4.1-2.6-6.1C2299.9-1628.6,2299.6-1627.3,2299.6-1627.3z M2270.7-1618
		c-2,0.4-4.8-0.2-6.6-0.7c-1.8-0.5-5.8-6.5-5.8-6.5l9.8-6.9l5.9,0.4c-5.3,2.3-7.5,6.7-7.5,6.7s-1.2,1.9,3.3,0.9s9.8-2,9.8-2
		S2272.7-1618.4,2270.7-1618z M2276-1585.3c-2.3,0.9-3.5,0.4-3.9,1.7c-0.4,1.3-4.1,2.3-4.7,1.9c-0.6-0.4-0.8-2.4-0.8-2.4
		s7.8-5.9,11.8-6C2282.3-1590.2,2278.3-1586.2,2276-1585.3z M2279.8-1595.3c-4.7,1.3-15.4,6.6-16.4,8.6c-1,2-3.5,1.6-3.8-0.6
		c0,0,2.5-2.2,4.6-2.6c2-0.5,5.2-2.8,9.2-4.4c4.1-1.7,5.8-3.1,5.8-4.1c0-1,5.2-0.6,5.2-0.6l1.8,2.2
		C2286.1-1596.8,2284.5-1596.6,2279.8-1595.3z M2280.7-1603.3c-2-1-6.5-2.3-6.8-2.8c-0.4-0.5-0.6-2.6-0.6-2.6s11.4,2,12.8,6.2
		C2287.5-1598.3,2282.7-1602.3,2280.7-1603.3z"/>
	<path class="st1" d="M2460.2-1443.9c0,0,1.2-2.9,1.9-6.2c0.7-3.4,5.5-9.1,5.3-13.4c-0.2-4.3,3.1-9.6,5-17.4
		c1.9-7.8-0.2-23.4-1.2-27.3c-1-3.8-19.9-25-24.7-32.6c-4.8-7.7-25.7-25.9-27.6-28.6c-1.9-2.6-4.8-5.5-7.2-7
		c-2.4-1.4-1.4-5.8-2.4-8.6c-1-2.9-21.9-18.8-27.1-20.1s-31.5,3.8-38,5.6c-6.3,1.8-14.1,1.3-14.5,1.3l5.6,8.8l-11.2,8.6l13-5
		c0,0-4,24.8-15.1,45.4c-11.2,20.5-36,61.2-39.6,70.2l0,0.1l0,0c-1.9,4.9-3.9,18.1-5.2,29.2h84.5c0.4-0.7,0.8-1.3,1.1-1.9
		c2.9-6.3,17.6-15.8,20.5-16.6c2.9-0.7,7.9-10.1,7.6-12.6c-0.4-2.5-18.4,7.9-18.4,7.9l15.8-13.7c0,0,1.1-2.5,5.8-5
		c4.7-2.5-5.8-8.6-5.8-8.6s5.8,1.1,8.6,2.5c2.9,1.4-6.1-12.6-6.1-12.6s4.3,2.9,7.2,7.2c2.9,4.3,0-9.7-0.4-12.6
		c-0.4-2.9-21.2-31.6-21.2-31.6l-10.4-43c0,0,6.5,23,11.9,35.6c5.4,12.6,27.1,38.6,27.1,38.6l0.9,2.3c2.6,4.8,9.9,8.7,9.9,8.7
		c0,3.6,4.8,6.7,4.8,6.7s0.7-1.7,0.7,1.9c0,3.6,1.7,4.6,1.7,4.6c-1,3.4,1,16.8,1,16.8l-4.2,25.2h39.7L2460.2-1443.9z M2367.8-1564.3
		v16.2l-28.8,9.5l11.5-20.6l5.8,2.2l2.2-7.2l5.8,4L2367.8-1564.3z"/>
	<path class="st1" d="M2223.6-1476.8c0,0-0.5-17.3,0-19.3c0.5-2-0.4-6.5,4.5-6.3c0,0-1.8-7,1.3-7c3.1,0,5.8-1.8,5.8-1.8
		s1.6-4.7,6.7-5.8c0,0-0.4-4.9,4.9-5.2s15.3,2.2,15.3,2.2s0.9-7.4,5-8.8c4.1-1.4,2.7,4.9,2.7,4.9s-2,8.5-2.2,11
		c-0.2,2.5-1.3,6.5-4.1,10.4c-2.9,4-4.3,7.7-4.7,8.3c0,0-0.1,0.2-0.1,0.4l23.8,23.6c0,0,0,0,0,0c0,0-4.3-41.9,3.2-68.3l-9.1-1
		l-1.2-7.2l-6-1.1l-0.4-7.6l-3.5-5.6c0,0-1.4-0.2,4-1.8c5.4-1.6,18.1-10,18.1-10l-5.8,1.3c10.9-7.6,9.1-17.2,9.1-17.2
		c-2.6,9.6-16.7,13.8-21.9,14.9s-7.5-3.7-10.7-4.9c-3.2-1.2-10.7-13.2-14.8-17.6c-4.1-4.4-1.2,0.8-7-1.1c-5.8-1.9-2.6-6-1.6-7
		c1.1-1,5-0.6,7.8-1.2c2.8-0.6,4.8-1.8,6.8-4.9s5.2-2.4,5.2-2.4l0-5c0,0-3.7-1.6-8.2-0.7s-8.6,7.8-11.5,8.2c-3,0.4-5.9-4.3-4.6-7.4
		c1.3-3.2,10.6-11.9,13.4-14.2s24.4-14.8,26.5-14.7c2.1,0.1,12.2,10.5,12.8,11.4c0.6,0.9,8.9,12.2,8.9,12.2v-13.1
		c0,0,4.2-0.7,7.3,4.1c0.3,0.5,0.6,1,0.9,1.5c1.5-8.4,3.5-30-15.5-30c-23.6,0-59.9,27.7-72.2,38.7c-8.1,7.3-7.9,17.2-6.9,23.1
		c5.6,8.9,22,7.9,22,7.9s1.8,3.8,5.7,7.6c3.9,3.8,9.6,0,9.6,0s2.5,2,6.8,6.7c4.3,4.7,12.2,11.7,12.2,11.7
		c-3.2,5-29.5,25.1-33.8,26.8c-4.3,1.7-7.2,6-7.7,11c-0.5,5-8.4,28.3-8.4,28.3v17.9c0,0-6.5,2.5-8.4,2.7c-1.9,0.2,0,13.2,0,13.2
		s9.8-0.8,13.3-4.2C2220.6-1472.7,2223.6-1476.8,2223.6-1476.8z"/>
	<path d="M2251-1476.8c-6.1,1.1-5.9,3.8-8.1,5.4c0,0,3.1,1.3,3.4,3.6c0.4,2.3-7,13.7-7,13.7s-3.1,7-6.4,13.1h44.4
		c1.4-11.1,3.3-24.3,5.2-29.2l-23.8-23.6C2258.2-1491.5,2256.7-1477.8,2251-1476.8z"/>
	<path class="st1" d="M2279.8-1626.1c0,0-5.3,1-9.8,2s-3.3-0.9-3.3-0.9s2.2-4.3,7.5-6.7l-5.9-0.4l-9.8,6.9c0,0,4,5.9,5.8,6.5
		c1.8,0.5,4.6,1.1,6.6,0.7S2279.8-1626.1,2279.8-1626.1z"/>
	<polygon class="st0" points="2358.5,-1564.3 2356.3,-1557.1 2350.5,-1559.3 2339,-1538.6 2367.8,-1548.1 2367.8,-1564.3 
		2364.2,-1560.3 	"/>
	<path d="M2404.1-1481c1.4-5.6,1-26.3,1-26.3s-21.7-26-27.1-38.6c-5.4-12.6-11.9-35.6-11.9-35.6l10.4,43c0,0,20.9,28.7,21.2,31.6
		c0.4,2.9,3.2,16.9,0.4,12.6c-2.9-4.3-7.2-7.2-7.2-7.2s9,14,6.1,12.6c-2.9-1.4-8.6-2.5-8.6-2.5s10.4,6.1,5.8,8.6
		c-4.7,2.5-5.8,5-5.8,5l-15.8,13.7c0,0,18-10.4,18.4-7.9c0.4,2.5-4.7,11.9-7.6,12.6c-2.9,0.7-17.6,10.3-20.5,16.6
		c-0.3,0.6-0.6,1.3-1.1,1.9h40c0.2-4.1,0.9-17.6,1.9-22.1C2404.8-1468.4,2404.1-1481,2404.1-1481z"/>
	<path class="st4" d="M2405-1507.3c0.1,0.8,0.4,1.6,0.9,2.3L2405-1507.3z"/>
	<path class="st3" d="M2254.9-1604.6c0.3,0.8,3.4,4.1,3.5,6.1c0.1,2,3.5,1.9,6,2.4c2.5,0.5,5-1.9,4.7-3.5c-0.3-1.6,2.5-2.6,3-3.7
		s-1.9-1.7-3.6-1.3s-0.8,2.9-0.8,2.9s-5.8,0.5-7.7,0c-1.9-0.5-2-5.9-2.8-11.2s-2.3-5-2.3-5l0,5
		C2254.9-1612.9,2254.5-1605.5,2254.9-1604.6z"/>
	<path class="st1" d="M2279.1-1598.4c0,1-1.7,2.4-5.8,4.1c-4.1,1.7-7.2,4-9.2,4.4c-2,0.5-4.6,2.6-4.6,2.6c0.4,2.2,2.9,2.6,3.8,0.6
		c1-2,11.6-7.3,16.4-8.6c4.7-1.3,6.3-1.6,6.3-1.6l-1.8-2.2C2284.3-1599,2279.1-1599.3,2279.1-1598.4z"/>
	<path class="st3" d="M2278.3-1590.1c-4,0.1-11.8,6-11.8,6s0.2,2,0.8,2.4c0.6,0.4,4.3-0.6,4.7-1.9c0.4-1.3,1.6-0.8,3.9-1.7
		C2278.3-1586.2,2282.3-1590.2,2278.3-1590.1z"/>
	<path class="st3" d="M2273.3-1608.7c0,0,0.2,2.2,0.6,2.6c0.4,0.5,4.8,1.8,6.8,2.8c2,1,6.8,5,5.4,0.8
		C2284.7-1606.7,2273.3-1608.7,2273.3-1608.7z"/>
	<path d="M2239.3-1454.1c0,0,7.4-11.3,7-13.7c-0.4-2.3-3.4-3.6-3.4-3.6s-13,3.2-19.3-5.4c0,0-3.1,4.1-6.5,7.6
		c-3.4,3.4-13.3,4.2-13.3,4.2s-4.6,2.2-8.6,6s-4.6,11-8.2,13.4c-1.1,0.7-1.8,2.5-2.1,4.6h47.9
		C2236.2-1447.2,2239.3-1454.1,2239.3-1454.1z"/>
	<path class="st0" d="M2251-1476.8c5.7-1,7.2-14.6,7.6-17.1c0-0.2,0.1-0.3,0.1-0.4c0.4-0.5,1.8-4.3,4.7-8.3c2.9-4,4-7.9,4.1-10.4
		c0.2-2.5,2.2-11,2.2-11s1.4-6.3-2.7-4.9c-4.1,1.4-5,8.8-5,8.8s-10.1-2.5-15.3-2.2s-4.9,5.2-4.9,5.2c-5,1.1-6.7,5.8-6.7,5.8
		s-2.7,1.8-5.8,1.8c-3.1,0-1.3,7-1.3,7c-4.9-0.2-4,4.3-4.5,6.3c-0.5,2,0,19.3,0,19.3c6.3,8.6,19.3,5.4,19.3,5.4
		C2245.1-1473,2244.9-1475.7,2251-1476.8z"/>
</g>
<line class="st10" x1="2092.3" y1="0" x2="2092.3" y2="238.3"/>
<line class="st10" x1="1081.9" y1="0" x2="1063.2" y2="238.3"/>
<line class="st10" x1="3151.9" y1="0" x2="3170.6" y2="238.3"/>
</svg>
