<?xml version="1.0" encoding="utf-8"?>
<!-- Generator: Adobe Illustrator 25.1.0, SVG Export Plug-In . SVG Version: 6.00 Build 0)  -->
<svg version="1.1" xmlns="http://www.w3.org/2000/svg" xmlns:xlink="http://www.w3.org/1999/xlink" x="0px" y="0px"
	 viewBox="0 0 565.9 343" style="enable-background:new 0 0 565.9 343;" xml:space="preserve">
<g id="Television">
	<g>
		<path style="fill:#333333;" d="M0,0v343h9.4H99h466.9V0H0z M99,334.1H9.4V11.3H99V334.1z M514.7,330.3c0,3.8-3.8,3.8-3.8,3.8
			s-393.3,0-398,0c-4.7,0-4.5-4.5-4.5-4.5V14.9c0-2,1.6-3.5,3.5-3.5c39.4,0.2,394.8,2.2,398.6,2.2c4.1,0,4.1,4.1,4.1,4.1
			S514.7,326.5,514.7,330.3z M559.7,340.7h-26.6h-12.9V179.1h12.9v-2.5h-11.2l-2.9-2.9V11.4h14.2h26.6V340.7z"/>
		<rect x="9.4" y="11.3" style="fill:#4D4D4D;" width="89.6" height="322.8"/>
		<rect x="520.2" y="179.1" style="fill:#B3B3B3;" width="12.9" height="161.5"/>
		<path style="fill:#808080;" d="M541.6,50.9c5.9,0,10.6,4.8,10.6,10.6s-4.8,10.6-10.6,10.6c-3.4,0-6.5-1.6-8.4-4.2v34.6
			c1.9-2.5,5-4.2,8.4-4.2c5.9,0,10.6,4.8,10.6,10.6s-4.8,10.6-10.6,10.6c-3.4,0-6.5-1.6-8.4-4.2v18.5h19v23.2l-10.6,6.1l-8.4-4.7
			v18.1v2.5v161.5h26.6V11.4h-26.6v43.7C535.1,52.6,538.1,50.9,541.6,50.9z M543.3,311.3c-1.3,0-2.3-1-2.3-2.3s1-2.3,2.3-2.3
			c1.3,0,2.3,1,2.3,2.3S544.6,311.3,543.3,311.3z M543.3,289.1c-1.3,0-2.3-1-2.3-2.3c0-1.3,1-2.3,2.3-2.3c1.3,0,2.3,1,2.3,2.3
			C545.6,288.1,544.6,289.1,543.3,289.1z M543.3,266.9c-1.3,0-2.3-1-2.3-2.3c0-1.3,1-2.3,2.3-2.3c1.3,0,2.3,1,2.3,2.3
			C545.6,265.9,544.6,266.9,543.3,266.9z M543.3,244.7c-1.3,0-2.3-1-2.3-2.3c0-1.3,1-2.3,2.3-2.3c1.3,0,2.3,1,2.3,2.3
			C545.6,243.7,544.6,244.7,543.3,244.7z M543.3,223.4c-1.3,0-2.3-1-2.3-2.3c0-1.3,1-2.3,2.3-2.3c1.3,0,2.3,1,2.3,2.3
			C545.6,222.4,544.6,223.4,543.3,223.4z M543.3,203.5c-1.3,0-2.3-1-2.3-2.3c0-1.3,1-2.3,2.3-2.3c1.3,0,2.3,1,2.3,2.3
			C545.6,202.4,544.6,203.5,543.3,203.5z M534,27.8c0-2.8,2.4-2.6,2.4-2.6h16.3v17.2H534V27.8z"/>
		<path style="fill:#4D4D4D;" d="M543.3,198.8c-1.3,0-2.3,1-2.3,2.3c0,1.3,1,2.3,2.3,2.3c1.3,0,2.3-1,2.3-2.3
			C545.6,199.9,544.6,198.8,543.3,198.8z"/>
		<path style="fill:#4D4D4D;" d="M543.3,218.8c-1.3,0-2.3,1-2.3,2.3c0,1.3,1,2.3,2.3,2.3c1.3,0,2.3-1,2.3-2.3
			C545.6,219.8,544.6,218.8,543.3,218.8z"/>
		<path style="fill:#4D4D4D;" d="M543.3,240.1c-1.3,0-2.3,1-2.3,2.3c0,1.3,1,2.3,2.3,2.3c1.3,0,2.3-1,2.3-2.3
			C545.6,241.1,544.6,240.1,543.3,240.1z"/>
		<path style="fill:#4D4D4D;" d="M543.3,262.3c-1.3,0-2.3,1-2.3,2.3c0,1.3,1,2.3,2.3,2.3c1.3,0,2.3-1,2.3-2.3
			C545.6,263.3,544.6,262.3,543.3,262.3z"/>
		<path style="fill:#4D4D4D;" d="M543.3,284.5c-1.3,0-2.3,1-2.3,2.3c0,1.3,1,2.3,2.3,2.3c1.3,0,2.3-1,2.3-2.3
			C545.6,285.5,544.6,284.5,543.3,284.5z"/>
		<path style="fill:#4D4D4D;" d="M543.3,306.7c-1.3,0-2.3,1-2.3,2.3s1,2.3,2.3,2.3c1.3,0,2.3-1,2.3-2.3S544.6,306.7,543.3,306.7z"/>
		<polygon style="fill:#4D4D4D;" points="533.1,133.9 530.9,133.9 530.9,157.3 533.1,158.6 541.6,163.2 552.2,157.1 552.2,133.9 		
			"/>
		<path style="fill:#4D4D4D;" d="M541.6,98.4c-3.4,0-6.5,1.6-8.4,4.2c-1.4,1.8-2.2,4-2.2,6.4c0,2.4,0.8,4.7,2.2,6.4
			c1.9,2.5,5,4.2,8.4,4.2c5.9,0,10.6-4.8,10.6-10.6C552.2,103.1,547.4,98.4,541.6,98.4z"/>
		<path style="fill:#4D4D4D;" d="M541.6,50.9c-3.4,0-6.5,1.6-8.4,4.2c-1.4,1.8-2.2,4-2.2,6.4s0.8,4.7,2.2,6.4c1.9,2.5,5,4.2,8.4,4.2
			c5.9,0,10.6-4.8,10.6-10.6S547.4,50.9,541.6,50.9z"/>
		<path style="fill:#FFFFFF;" d="M552.8,25.2h-16.3c0,0-2.4-0.2-2.4,2.6v14.6h18.7V25.2z"/>
		<path style="fill:#B3B3B3;" d="M457.5,299c-1.5,0.7-3.2,1.3-5,1.9c16.6,9.6,50,28.6,52.8,27c3-1.7-15.3-29.2-25.5-48.8
			C474,288,466.6,295,457.5,299z"/>
		<path style="fill:#333333;" d="M471.6,53c19.4,19,26.3,48.3,28.6,75c-0.9-32.2-1-79.2,5.8-85.5c10.5-9.8,4.5-23.2,4.5-23.2
			s-9.4-11-29.9,0c-11.1,6-36.5,9.7-57.5,11.9c11.9,2.7,23.4,6.4,34,11.8C462.4,45.7,467.4,48.9,471.6,53z"/>
		<path style="fill:#333333;" d="M178.4,34.9c6.3-1.6,12.5-2.9,18.9-4.1c-20.3-2.2-43.7-5.9-54.2-11.6c-20.4-11-29.9,0-29.9,0
			s-6,13.3,4.5,23.2c6.3,5.9,6.7,46.2,6,77.7C128.7,82.7,142.5,43.9,178.4,34.9z"/>
		<path style="fill:#333333;" d="M159.9,321.1c7.2-7,17.2-10.9,27.9-13c-31.3-8.3-47.8-27.1-56.6-48.9c0,0,0,0,0,0
			c3.7,11.9-13.5,28.5-22.8,36.5v34.1c0,0-0.3,4.5,4.5,4.5c1,0,17.7,0,43.8,0C154,331.2,153.8,327,159.9,321.1z M134.8,317.7
			c-7.6,3.8-19.7,10.9-17.5,5.6c2.2-5.3,12.4-21,12.4-21C143.4,288.5,152.5,308.9,134.8,317.7z"/>
		<path style="fill:#4D4D4D;" d="M196.5,310c-3-0.6-5.9-1.2-8.7-2c-10.7,2.1-20.7,6.1-27.9,13c-6.1,5.9-5.9,10.1-3.2,13
			c86.4,0,275.4,0,335.4,0c-20.2-15.9-52.3-22.8-70.9-25.7C362,318.9,260.2,321.9,196.5,310z"/>
		<path style="fill:#333333;" d="M514.7,330.3c0-0.5,0-7.4,0-18.7c-12.5-17-19.5-39.6-23.4-56.9c-3,8.8-6.7,17.2-11.5,24.4
			c10.2,19.6,28.4,47.1,25.5,48.8c-2.7,1.6-36.2-17.4-52.8-27c-8,2.8-18.6,5.3-31.2,7.5c18.6,2.8,50.7,9.7,70.9,25.7
			c11.9,0,18.7,0,18.7,0S514.7,334.1,514.7,330.3z"/>
		<path style="fill:#4D4D4D;" d="M129.7,302.2c0,0-10.2,15.7-12.4,21c-2.2,5.3,9.9-1.8,17.5-5.6
			C152.5,308.9,143.4,288.5,129.7,302.2z"/>
		<path style="fill:none;" d="M311.6,22.8c-14,0.1-28.1,0.5-42.1,1.1c-14.8,0.5-29.5,1.4-44.2,3l16.4,15.6h149L412,29
			c-16.3-2.8-32.9-3.9-48.7-4.9C346,23,328.8,22.7,311.6,22.8z"/>
		<path style="fill:#4D4D4D;" d="M514.7,89.9c0-41.8,0-72.3,0-72.3s0-4.1-4.1-4.1c-1.1,0-30.8-0.2-73.6-0.4L412,29
			c3.8,0.6,7.5,1.4,11.2,2.2c21-2.2,46.4-6,57.5-11.9c20.4-11,29.9,0,29.9,0s6,13.3-4.5,23.2c-6.8,6.4-6.7,53.3-5.8,85.5
			c0,0.4,0.1,0.8,0.1,1.2c3.8-13.2,9-30.1,11.9-35.2C513,92.6,513.8,91.3,514.7,89.9z"/>
		<path style="fill:#B3B3B3;" d="M108.5,295.6c9.3-7.9,26.5-24.6,22.8-36.5c0,0,0,0,0,0c-11.2-27.8-9.8-60.3-10.2-82
			c-0.3-14.6-0.3-35.6,2.6-57c0.1-2.7,0.1-5.5,0.1-8.3l-15.4-4.3V295.6z"/>
		<path style="fill:#4D4D4D;" d="M491.3,254.7c3.9,17.3,11,39.9,23.4,56.9c0-8.9,0-20.6,0-34.2c-7.2-10-14.8-23.6-20.1-33.9
			C493.6,247.3,492.5,251.1,491.3,254.7z"/>
		<path style="fill:#4D4D4D;" d="M112,11.4c-2,0-3.5,1.6-3.5,3.5v92.7l15.4,4.3c0.4-29.9-0.4-64-6.1-69.4
			c-10.5-9.8-4.5-23.2-4.5-23.2s9.4-11,29.9,0c10.5,5.6,33.9,9.3,54.2,11.6c9.3-1.7,18.6-3,28-4l-15.8-15
			C161.3,11.6,123.4,11.4,112,11.4z"/>
		<path style="fill:#B3B3B3;" d="M512.2,94c-2.9,5.1-8.1,22-11.9,35.2c1.8,21.5,0.8,41.1,1.1,51.9c0.4,12.3-0.6,37.9-6.9,62.5
			c5.4,10.3,12.9,23.9,20.1,33.9c0-51.5,0-130.3,0-187.6C513.8,91.3,513,92.6,512.2,94z"/>
		<path style="fill:#B3B3B3;" d="M209.5,11.9l15.8,15c14.7-1.6,29.4-2.4,44.2-3c14-0.5,28.1-0.9,42.1-1.1
			c17.2-0.1,34.5,0.1,51.6,1.2c15.8,1,32.5,2.2,48.7,4.9l25-15.8C373.2,12.8,280.3,12.3,209.5,11.9z"/>
		<path style="fill:#B3B3B3;" d="M533.1,11.4H519v162.4l2.9,2.9h11.2v-18.1l-2.2-1.2v-23.4h2.2v-18.5c-1.4-1.8-2.2-4-2.2-6.4
			c0-2.4,0.8-4.7,2.2-6.4V68c-1.4-1.8-2.2-4-2.2-6.4s0.8-4.7,2.2-6.4V11.4z"/>
		<g>
			<rect x="9.4" y="11.3" style="fill:#999999;" width="1.4" height="322.8"/>
			<rect x="14.8" y="11.3" style="fill:#999999;" width="1.4" height="322.8"/>
			<rect x="20.1" y="11.3" style="fill:#999999;" width="1.4" height="322.8"/>
			<rect x="25.5" y="11.3" style="fill:#999999;" width="1.4" height="322.8"/>
			<rect x="30.8" y="11.3" style="fill:#999999;" width="1.4" height="322.8"/>
			<rect x="36.2" y="11.3" style="fill:#999999;" width="1.4" height="322.8"/>
			<rect x="41.5" y="11.3" style="fill:#999999;" width="1.4" height="322.8"/>
			<rect x="46.9" y="11.3" style="fill:#999999;" width="1.4" height="322.8"/>
			<rect x="52.2" y="11.3" style="fill:#999999;" width="1.4" height="322.8"/>
			<rect x="57.6" y="11.3" style="fill:#999999;" width="1.4" height="322.8"/>
			<rect x="62.9" y="11.3" style="fill:#999999;" width="1.4" height="322.8"/>
			<rect x="68.3" y="11.3" style="fill:#999999;" width="1.4" height="322.8"/>
			<rect x="73.6" y="11.3" style="fill:#999999;" width="1.4" height="322.8"/>
			<rect x="79" y="11.3" style="fill:#999999;" width="1.4" height="322.8"/>
			<rect x="84.3" y="11.3" style="fill:#999999;" width="1.4" height="322.8"/>
			<rect x="89.7" y="11.3" style="fill:#999999;" width="1.4" height="322.8"/>
			<rect x="95" y="11.3" style="fill:#999999;" width="1.4" height="322.8"/>
			
				<rect x="53.6" y="287.3" transform="matrix(3.751850e-11 -1 1 3.751850e-11 -277.8456 386.314)" style="fill:#999999;" width="1.4" height="89.6"/>
			
				<rect x="53.6" y="284.7" transform="matrix(3.751850e-11 -1 1 3.751850e-11 -275.222 383.6905)" style="fill:#999999;" width="1.4" height="89.6"/>
			
				<rect x="53.6" y="282" transform="matrix(3.751850e-11 -1 1 3.751850e-11 -272.5985 381.0669)" style="fill:#999999;" width="1.4" height="89.6"/>
			
				<rect x="53.6" y="279.4" transform="matrix(3.751850e-11 -1 1 3.751850e-11 -269.975 378.4434)" style="fill:#999999;" width="1.4" height="89.6"/>
			
				<rect x="53.6" y="276.8" transform="matrix(3.751850e-11 -1 1 3.751850e-11 -267.3515 375.8199)" style="fill:#999999;" width="1.4" height="89.6"/>
			
				<rect x="53.6" y="274.2" transform="matrix(3.751850e-11 -1 1 3.751850e-11 -264.728 373.1964)" style="fill:#999999;" width="1.4" height="89.6"/>
			
				<rect x="53.6" y="271.5" transform="matrix(3.751850e-11 -1 1 3.751850e-11 -262.1045 370.5729)" style="fill:#999999;" width="1.4" height="89.6"/>
			
				<rect x="53.6" y="268.9" transform="matrix(3.751850e-11 -1 1 3.751850e-11 -259.481 367.9494)" style="fill:#999999;" width="1.4" height="89.6"/>
			
				<rect x="53.6" y="266.3" transform="matrix(3.751850e-11 -1 1 3.751850e-11 -256.8575 365.3258)" style="fill:#999999;" width="1.4" height="89.6"/>
			
				<rect x="53.6" y="263.7" transform="matrix(3.751850e-11 -1 1 3.751850e-11 -254.2339 362.7023)" style="fill:#999999;" width="1.4" height="89.6"/>
			
				<rect x="53.6" y="261" transform="matrix(3.751850e-11 -1 1 3.751850e-11 -251.6104 360.0788)" style="fill:#999999;" width="1.4" height="89.6"/>
			
				<rect x="53.6" y="258.4" transform="matrix(3.751850e-11 -1 1 3.751850e-11 -248.9869 357.4553)" style="fill:#999999;" width="1.4" height="89.6"/>
			
				<rect x="53.6" y="255.8" transform="matrix(3.751850e-11 -1 1 3.751850e-11 -246.3634 354.8318)" style="fill:#999999;" width="1.4" height="89.6"/>
			
				<rect x="53.6" y="253.2" transform="matrix(3.751850e-11 -1 1 3.751850e-11 -243.7399 352.2083)" style="fill:#999999;" width="1.4" height="89.6"/>
			
				<rect x="53.6" y="250.5" transform="matrix(3.751850e-11 -1 1 3.751850e-11 -241.1164 349.5847)" style="fill:#999999;" width="1.4" height="89.6"/>
			
				<rect x="53.6" y="247.9" transform="matrix(3.751850e-11 -1 1 3.751850e-11 -238.4928 346.9612)" style="fill:#999999;" width="1.4" height="89.6"/>
			
				<rect x="53.6" y="245.3" transform="matrix(3.751850e-11 -1 1 3.751850e-11 -235.8693 344.3377)" style="fill:#999999;" width="1.4" height="89.6"/>
			
				<rect x="53.6" y="242.7" transform="matrix(3.751850e-11 -1 1 3.751850e-11 -233.2458 341.7142)" style="fill:#999999;" width="1.4" height="89.6"/>
			
				<rect x="53.6" y="240.1" transform="matrix(3.751850e-11 -1 1 3.751850e-11 -230.6223 339.0907)" style="fill:#999999;" width="1.4" height="89.6"/>
			
				<rect x="53.6" y="237.4" transform="matrix(3.751850e-11 -1 1 3.751850e-11 -227.9988 336.4672)" style="fill:#999999;" width="1.4" height="89.6"/>
			
				<rect x="53.6" y="234.8" transform="matrix(3.751850e-11 -1 1 3.751850e-11 -225.3753 333.8437)" style="fill:#999999;" width="1.4" height="89.6"/>
			
				<rect x="53.6" y="232.2" transform="matrix(3.751850e-11 -1 1 3.751850e-11 -222.7518 331.2202)" style="fill:#999999;" width="1.4" height="89.6"/>
			
				<rect x="53.6" y="229.6" transform="matrix(3.751850e-11 -1 1 3.751850e-11 -220.1283 328.5966)" style="fill:#999999;" width="1.4" height="89.6"/>
			
				<rect x="53.6" y="226.9" transform="matrix(3.751850e-11 -1 1 3.751850e-11 -217.5047 325.9731)" style="fill:#999999;" width="1.4" height="89.6"/>
			
				<rect x="53.6" y="224.3" transform="matrix(3.751850e-11 -1 1 3.751850e-11 -214.8812 323.3496)" style="fill:#999999;" width="1.4" height="89.6"/>
			
				<rect x="53.6" y="221.7" transform="matrix(3.751850e-11 -1 1 3.751850e-11 -212.2577 320.7261)" style="fill:#999999;" width="1.4" height="89.6"/>
			
				<rect x="53.6" y="219.1" transform="matrix(3.751850e-11 -1 1 3.751850e-11 -209.6342 318.1026)" style="fill:#999999;" width="1.4" height="89.6"/>
			
				<rect x="53.6" y="216.4" transform="matrix(3.751850e-11 -1 1 3.751850e-11 -207.0107 315.4791)" style="fill:#999999;" width="1.4" height="89.6"/>
			
				<rect x="53.6" y="213.8" transform="matrix(3.751850e-11 -1 1 3.751850e-11 -204.3871 312.8555)" style="fill:#999999;" width="1.4" height="89.6"/>
			
				<rect x="53.6" y="211.2" transform="matrix(3.751850e-11 -1 1 3.751850e-11 -201.7636 310.232)" style="fill:#999999;" width="1.4" height="89.6"/>
			
				<rect x="53.6" y="208.6" transform="matrix(3.751850e-11 -1 1 3.751850e-11 -199.1401 307.6085)" style="fill:#999999;" width="1.4" height="89.6"/>
			
				<rect x="53.6" y="205.9" transform="matrix(3.751850e-11 -1 1 3.751850e-11 -196.5166 304.985)" style="fill:#999999;" width="1.4" height="89.6"/>
			
				<rect x="53.6" y="203.3" transform="matrix(3.751850e-11 -1 1 3.751850e-11 -193.8931 302.3615)" style="fill:#999999;" width="1.4" height="89.6"/>
			
				<rect x="53.6" y="200.7" transform="matrix(3.751850e-11 -1 1 3.751850e-11 -191.2696 299.738)" style="fill:#999999;" width="1.4" height="89.6"/>
			
				<rect x="53.6" y="198.1" transform="matrix(3.751850e-11 -1 1 3.751850e-11 -188.6461 297.1144)" style="fill:#999999;" width="1.4" height="89.6"/>
			
				<rect x="53.6" y="195.5" transform="matrix(3.751850e-11 -1 1 3.751850e-11 -186.0226 294.4909)" style="fill:#999999;" width="1.4" height="89.6"/>
			
				<rect x="53.6" y="192.8" transform="matrix(3.751850e-11 -1 1 3.751850e-11 -183.399 291.8674)" style="fill:#999999;" width="1.4" height="89.6"/>
			
				<rect x="53.6" y="190.2" transform="matrix(3.751850e-11 -1 1 3.751850e-11 -180.7755 289.2439)" style="fill:#999999;" width="1.4" height="89.6"/>
			
				<rect x="53.6" y="187.6" transform="matrix(3.751850e-11 -1 1 3.751850e-11 -178.152 286.6204)" style="fill:#999999;" width="1.4" height="89.6"/>
			
				<rect x="53.6" y="185" transform="matrix(3.751850e-11 -1 1 3.751850e-11 -175.5285 283.9969)" style="fill:#999999;" width="1.4" height="89.6"/>
			
				<rect x="53.6" y="182.3" transform="matrix(3.751850e-11 -1 1 3.751850e-11 -172.905 281.3734)" style="fill:#999999;" width="1.4" height="89.6"/>
			
				<rect x="53.6" y="179.7" transform="matrix(3.751850e-11 -1 1 3.751850e-11 -170.2815 278.7498)" style="fill:#999999;" width="1.4" height="89.6"/>
			
				<rect x="53.6" y="177.1" transform="matrix(3.751850e-11 -1 1 3.751850e-11 -167.6579 276.1263)" style="fill:#999999;" width="1.4" height="89.6"/>
			
				<rect x="53.6" y="174.5" transform="matrix(3.751850e-11 -1 1 3.751850e-11 -165.0344 273.5028)" style="fill:#999999;" width="1.4" height="89.6"/>
			
				<rect x="53.6" y="171.8" transform="matrix(3.751850e-11 -1 1 3.751850e-11 -162.4109 270.8793)" style="fill:#999999;" width="1.4" height="89.6"/>
			
				<rect x="53.6" y="169.2" transform="matrix(3.751850e-11 -1 1 3.751850e-11 -159.7874 268.2558)" style="fill:#999999;" width="1.4" height="89.6"/>
			
				<rect x="53.6" y="166.6" transform="matrix(3.751850e-11 -1 1 3.751850e-11 -157.1639 265.6323)" style="fill:#999999;" width="1.4" height="89.6"/>
			
				<rect x="53.6" y="164" transform="matrix(3.751850e-11 -1 1 3.751850e-11 -154.5404 263.0088)" style="fill:#999999;" width="1.4" height="89.6"/>
			
				<rect x="53.6" y="161.3" transform="matrix(3.751850e-11 -1 1 3.751850e-11 -151.9169 260.3853)" style="fill:#999999;" width="1.4" height="89.6"/>
			
				<rect x="53.6" y="158.7" transform="matrix(3.751850e-11 -1 1 3.751850e-11 -149.2933 257.7617)" style="fill:#999999;" width="1.4" height="89.6"/>
			
				<rect x="53.6" y="156.1" transform="matrix(3.751850e-11 -1 1 3.751850e-11 -146.6698 255.1382)" style="fill:#999999;" width="1.4" height="89.6"/>
			
				<rect x="53.6" y="153.5" transform="matrix(3.751850e-11 -1 1 3.751850e-11 -144.0463 252.5147)" style="fill:#999999;" width="1.4" height="89.6"/>
			
				<rect x="53.6" y="150.9" transform="matrix(3.751850e-11 -1 1 3.751850e-11 -141.4228 249.8912)" style="fill:#999999;" width="1.4" height="89.6"/>
			
				<rect x="53.6" y="148.2" transform="matrix(3.751850e-11 -1 1 3.751850e-11 -138.7993 247.2677)" style="fill:#999999;" width="1.4" height="89.6"/>
			
				<rect x="53.6" y="145.6" transform="matrix(3.751850e-11 -1 1 3.751850e-11 -136.1758 244.6441)" style="fill:#999999;" width="1.4" height="89.6"/>
			
				<rect x="53.6" y="143" transform="matrix(3.751850e-11 -1 1 3.751850e-11 -133.5522 242.0206)" style="fill:#999999;" width="1.4" height="89.6"/>
			
				<rect x="53.6" y="140.4" transform="matrix(3.751850e-11 -1 1 3.751850e-11 -130.9287 239.3971)" style="fill:#999999;" width="1.4" height="89.6"/>
			
				<rect x="53.6" y="137.7" transform="matrix(3.751850e-11 -1 1 3.751850e-11 -128.3052 236.7736)" style="fill:#999999;" width="1.4" height="89.6"/>
			
				<rect x="53.6" y="135.1" transform="matrix(3.751850e-11 -1 1 3.751850e-11 -125.6817 234.1501)" style="fill:#999999;" width="1.4" height="89.6"/>
			
				<rect x="53.6" y="132.5" transform="matrix(3.751850e-11 -1 1 3.751850e-11 -123.0582 231.5266)" style="fill:#999999;" width="1.4" height="89.6"/>
			
				<rect x="53.6" y="129.9" transform="matrix(3.751850e-11 -1 1 3.751850e-11 -120.4347 228.9031)" style="fill:#999999;" width="1.4" height="89.6"/>
			
				<rect x="53.6" y="127.2" transform="matrix(3.751850e-11 -1 1 3.751850e-11 -117.8112 226.2795)" style="fill:#999999;" width="1.4" height="89.6"/>
			
				<rect x="53.6" y="124.6" transform="matrix(3.751850e-11 -1 1 3.751850e-11 -115.1876 223.656)" style="fill:#999999;" width="1.4" height="89.6"/>
			
				<rect x="53.6" y="122" transform="matrix(3.751850e-11 -1 1 3.751850e-11 -112.5641 221.0325)" style="fill:#999999;" width="1.4" height="89.6"/>
			
				<rect x="53.6" y="119.4" transform="matrix(3.751850e-11 -1 1 3.751850e-11 -109.9406 218.409)" style="fill:#999999;" width="1.4" height="89.6"/>
			
				<rect x="53.6" y="116.7" transform="matrix(3.751850e-11 -1 1 3.751850e-11 -107.3171 215.7855)" style="fill:#999999;" width="1.4" height="89.6"/>
			
				<rect x="53.6" y="114.1" transform="matrix(3.751850e-11 -1 1 3.751850e-11 -104.6936 213.162)" style="fill:#999999;" width="1.4" height="89.6"/>
			
				<rect x="53.6" y="111.5" transform="matrix(3.751850e-11 -1 1 3.751850e-11 -102.0701 210.5385)" style="fill:#999999;" width="1.4" height="89.6"/>
			
				<rect x="53.6" y="108.9" transform="matrix(3.751850e-11 -1 1 3.751850e-11 -99.4465 207.9149)" style="fill:#999999;" width="1.4" height="89.6"/>
			
				<rect x="53.6" y="106.3" transform="matrix(3.751850e-11 -1 1 3.751850e-11 -96.823 205.2914)" style="fill:#999999;" width="1.4" height="89.6"/>
			
				<rect x="53.6" y="103.6" transform="matrix(3.751850e-11 -1 1 3.751850e-11 -94.1995 202.6679)" style="fill:#999999;" width="1.4" height="89.6"/>
			
				<rect x="53.6" y="101" transform="matrix(3.751850e-11 -1 1 3.751850e-11 -91.576 200.0444)" style="fill:#999999;" width="1.4" height="89.6"/>
			
				<rect x="53.6" y="98.4" transform="matrix(3.751850e-11 -1 1 3.751850e-11 -88.9525 197.4209)" style="fill:#999999;" width="1.4" height="89.6"/>
			
				<rect x="53.6" y="95.8" transform="matrix(3.751850e-11 -1 1 3.751850e-11 -86.329 194.7974)" style="fill:#999999;" width="1.4" height="89.6"/>
			
				<rect x="53.6" y="93.1" transform="matrix(3.751850e-11 -1 1 3.751850e-11 -83.7055 192.1738)" style="fill:#999999;" width="1.4" height="89.6"/>
			
				<rect x="53.6" y="90.5" transform="matrix(3.751850e-11 -1 1 3.751850e-11 -81.0819 189.5503)" style="fill:#999999;" width="1.4" height="89.6"/>
			
				<rect x="53.6" y="87.9" transform="matrix(3.751850e-11 -1 1 3.751850e-11 -78.4584 186.9268)" style="fill:#999999;" width="1.4" height="89.6"/>
			
				<rect x="53.6" y="85.3" transform="matrix(3.751850e-11 -1 1 3.751850e-11 -75.8349 184.3033)" style="fill:#999999;" width="1.4" height="89.6"/>
			
				<rect x="53.6" y="82.6" transform="matrix(3.751850e-11 -1 1 3.751850e-11 -73.2114 181.6798)" style="fill:#999999;" width="1.4" height="89.6"/>
			
				<rect x="53.6" y="80" transform="matrix(3.751850e-11 -1 1 3.751850e-11 -70.5879 179.0563)" style="fill:#999999;" width="1.4" height="89.6"/>
			
				<rect x="53.6" y="77.4" transform="matrix(3.751850e-11 -1 1 3.751850e-11 -67.9644 176.4328)" style="fill:#999999;" width="1.4" height="89.6"/>
			
				<rect x="53.6" y="74.8" transform="matrix(3.751850e-11 -1 1 3.751850e-11 -65.3409 173.8092)" style="fill:#999999;" width="1.4" height="89.6"/>
			
				<rect x="53.6" y="72.1" transform="matrix(3.751850e-11 -1 1 3.751850e-11 -62.7173 171.1857)" style="fill:#999999;" width="1.4" height="89.6"/>
			
				<rect x="53.6" y="69.5" transform="matrix(3.751850e-11 -1 1 3.751850e-11 -60.0938 168.5622)" style="fill:#999999;" width="1.4" height="89.6"/>
			
				<rect x="53.6" y="66.9" transform="matrix(3.751850e-11 -1 1 3.751850e-11 -57.4703 165.9387)" style="fill:#999999;" width="1.4" height="89.6"/>
			
				<rect x="53.6" y="64.3" transform="matrix(3.751850e-11 -1 1 3.751850e-11 -54.8468 163.3152)" style="fill:#999999;" width="1.4" height="89.6"/>
			
				<rect x="53.6" y="61.7" transform="matrix(3.751850e-11 -1 1 3.751850e-11 -52.2233 160.6917)" style="fill:#999999;" width="1.4" height="89.6"/>
			
				<rect x="53.6" y="59" transform="matrix(3.751850e-11 -1 1 3.751850e-11 -49.5998 158.0682)" style="fill:#999999;" width="1.4" height="89.6"/>
			
				<rect x="53.6" y="56.4" transform="matrix(3.751850e-11 -1 1 3.751850e-11 -46.9762 155.4446)" style="fill:#999999;" width="1.4" height="89.6"/>
			
				<rect x="53.6" y="53.8" transform="matrix(3.751850e-11 -1 1 3.751850e-11 -44.3527 152.8211)" style="fill:#999999;" width="1.4" height="89.6"/>
			
				<rect x="53.6" y="51.2" transform="matrix(3.751850e-11 -1 1 3.751850e-11 -41.7292 150.1976)" style="fill:#999999;" width="1.4" height="89.6"/>
			
				<rect x="53.6" y="48.5" transform="matrix(3.751850e-11 -1 1 3.751850e-11 -39.1057 147.5741)" style="fill:#999999;" width="1.4" height="89.6"/>
			
				<rect x="53.6" y="45.9" transform="matrix(3.751850e-11 -1 1 3.751850e-11 -36.4822 144.9506)" style="fill:#999999;" width="1.4" height="89.6"/>
			
				<rect x="53.6" y="43.3" transform="matrix(3.751850e-11 -1 1 3.751850e-11 -33.8587 142.3271)" style="fill:#999999;" width="1.4" height="89.6"/>
			
				<rect x="53.6" y="40.7" transform="matrix(3.751850e-11 -1 1 3.751850e-11 -31.2352 139.7036)" style="fill:#999999;" width="1.4" height="89.6"/>
			
				<rect x="53.6" y="38" transform="matrix(3.751850e-11 -1 1 3.751850e-11 -28.6116 137.08)" style="fill:#999999;" width="1.4" height="89.6"/>
			
				<rect x="53.6" y="35.4" transform="matrix(3.751850e-11 -1 1 3.751850e-11 -25.9881 134.4565)" style="fill:#999999;" width="1.4" height="89.6"/>
			
				<rect x="53.6" y="32.8" transform="matrix(3.751850e-11 -1 1 3.751850e-11 -23.3646 131.833)" style="fill:#999999;" width="1.4" height="89.6"/>
			
				<rect x="53.6" y="30.2" transform="matrix(3.751850e-11 -1 1 3.751850e-11 -20.7411 129.2095)" style="fill:#999999;" width="1.4" height="89.6"/>
			
				<rect x="53.6" y="27.5" transform="matrix(3.751850e-11 -1 1 3.751850e-11 -18.1176 126.586)" style="fill:#999999;" width="1.4" height="89.6"/>
			
				<rect x="53.6" y="24.9" transform="matrix(3.751850e-11 -1 1 3.751850e-11 -15.4941 123.9625)" style="fill:#999999;" width="1.4" height="89.6"/>
			
				<rect x="53.6" y="22.3" transform="matrix(3.751850e-11 -1 1 3.751850e-11 -12.8706 121.3389)" style="fill:#999999;" width="1.4" height="89.6"/>
			
				<rect x="53.6" y="19.7" transform="matrix(3.751850e-11 -1 1 3.751850e-11 -10.247 118.7154)" style="fill:#999999;" width="1.4" height="89.6"/>
			
				<rect x="53.6" y="17.1" transform="matrix(3.751850e-11 -1 1 3.751850e-11 -7.6235 116.0919)" style="fill:#999999;" width="1.4" height="89.6"/>
			
				<rect x="53.6" y="14.4" transform="matrix(3.751850e-11 -1 1 3.751850e-11 -5 113.4684)" style="fill:#999999;" width="1.4" height="89.6"/>
			
				<rect x="53.6" y="11.8" transform="matrix(3.751850e-11 -1 1 3.751850e-11 -2.3765 110.8449)" style="fill:#999999;" width="1.4" height="89.6"/>
			
				<rect x="53.6" y="9.2" transform="matrix(3.751850e-11 -1 1 3.751850e-11 0.247 108.2214)" style="fill:#999999;" width="1.4" height="89.6"/>
			
				<rect x="53.6" y="6.6" transform="matrix(3.751850e-11 -1 1 3.751850e-11 2.8705 105.5979)" style="fill:#999999;" width="1.4" height="89.6"/>
			
				<rect x="53.6" y="3.9" transform="matrix(3.751850e-11 -1 1 3.751850e-11 5.4941 102.9743)" style="fill:#999999;" width="1.4" height="89.6"/>
			
				<rect x="53.6" y="1.3" transform="matrix(3.751850e-11 -1 1 3.751850e-11 8.1176 100.3508)" style="fill:#999999;" width="1.4" height="89.6"/>
			
				<rect x="53.6" y="-1.3" transform="matrix(3.751850e-11 -1 1 3.751850e-11 10.7411 97.7273)" style="fill:#999999;" width="1.4" height="89.6"/>
			
				<rect x="53.6" y="-3.9" transform="matrix(3.751850e-11 -1 1 3.751850e-11 13.3646 95.1038)" style="fill:#999999;" width="1.4" height="89.6"/>
			
				<rect x="53.6" y="-6.6" transform="matrix(3.751850e-11 -1 1 3.751850e-11 15.9881 92.4803)" style="fill:#999999;" width="1.4" height="89.6"/>
			
				<rect x="53.6" y="-9.2" transform="matrix(3.751850e-11 -1 1 3.751850e-11 18.6116 89.8568)" style="fill:#999999;" width="1.4" height="89.6"/>
			
				<rect x="53.6" y="-11.8" transform="matrix(3.751850e-11 -1 1 3.751850e-11 21.2351 87.2332)" style="fill:#999999;" width="1.4" height="89.6"/>
			
				<rect x="53.6" y="-14.4" transform="matrix(3.751850e-11 -1 1 3.751850e-11 23.8587 84.6097)" style="fill:#999999;" width="1.4" height="89.6"/>
			
				<rect x="53.6" y="-17.1" transform="matrix(3.751850e-11 -1 1 3.751850e-11 26.4822 81.9862)" style="fill:#999999;" width="1.4" height="89.6"/>
			
				<rect x="53.6" y="-19.7" transform="matrix(3.751850e-11 -1 1 3.751850e-11 29.1057 79.3627)" style="fill:#999999;" width="1.4" height="89.6"/>
			
				<rect x="53.6" y="-22.3" transform="matrix(3.751850e-11 -1 1 3.751850e-11 31.7292 76.7392)" style="fill:#999999;" width="1.4" height="89.6"/>
			
				<rect x="53.6" y="-24.9" transform="matrix(3.751850e-11 -1 1 3.751850e-11 34.3527 74.1157)" style="fill:#999999;" width="1.4" height="89.6"/>
			
				<rect x="53.6" y="-27.5" transform="matrix(3.751850e-11 -1 1 3.751850e-11 36.9762 71.4922)" style="fill:#999999;" width="1.4" height="89.6"/>
			
				<rect x="53.6" y="-30.2" transform="matrix(3.751850e-11 -1 1 3.751850e-11 39.5997 68.8686)" style="fill:#999999;" width="1.4" height="89.6"/>
			
				<rect x="53.6" y="-32.8" transform="matrix(3.751850e-11 -1 1 3.751850e-11 42.2233 66.2451)" style="fill:#999999;" width="1.4" height="89.6"/>
		</g>
		<rect x="20.8" y="313.7" style="fill:#FFFFFF;" width="39.3" height="8.5"/>
	</g>
</g>
<g id="Screen">
	<path style="fill:#FFFFFF;" d="M501.5,181.1c-0.8-24.4,5.5-93.5-29.9-128.1c-4.2-4.1-9.2-7.3-14.5-10c-28.2-14.4-62.7-17-93.9-19
		c-17.2-1.1-34.4-1.4-51.6-1.2c-14,0.1-28.1,0.5-42.1,1.1c-30.7,1.1-61.2,3.6-91.1,11c-56.6,14.1-58.2,102.2-57.4,142.3
		c0.7,36.9-3.9,105.6,57.7,128c6.7-7.3,49-49.4,125.1-49.4c78,0,123.2,11.4,159.3,40.3C498,274.4,502.2,204.3,501.5,181.1z"/>
	<path style="fill:#E6E6E6;" d="M178.7,305.2c5.4,2,11.3,3.6,17.8,4.8c80.2,14.9,220.9,6.3,261-11c2-0.8,3.8-1.8,5.6-3
		c-36-28.9-81.3-40.3-159.3-40.3C227.7,255.8,185.5,297.9,178.7,305.2z"/>
</g>
<g id="Glow">
	<g>
		
			<image style="overflow:visible;" width="472" height="382" xlink:href="ADC53E99.png"  transform="matrix(1 0 0 1 75.32 -20.8704)">
		</image>
	</g>
</g>
</svg>
