<?xml version="1.0" encoding="utf-8"?>
<!-- Generator: Adobe Illustrator 25.1.0, SVG Export Plug-In . SVG Version: 6.00 Build 0)  -->
<svg version="1.1" id="Layer_1" xmlns="http://www.w3.org/2000/svg" xmlns:xlink="http://www.w3.org/1999/xlink" x="0px" y="0px"
	 viewBox="0 0 212.7 520.3" style="enable-background:new 0 0 212.7 520.3;" xml:space="preserve">
<style type="text/css">
	.st0{fill:#666666;}
	.st1{fill:#808080;}
	.st2{fill:#999999;}
	.st3{fill:#4D4D4D;}
	.st4{fill:#B3B3B3;}
	.st5{fill:none;}
	.st6{fill:#1A1A1A;}
	.st7{fill:#FFFFFF;}
	.st8{fill:#006837;}
	.st9{fill:#333333;}
	.st10{fill:none;stroke:#FFFFFF;stroke-width:0.25;stroke-miterlimit:10;}
	.st11{fill:#C1272D;}
	.st12{fill:#540D1D;}
	.st13{fill:#FFFFFF;stroke:#000000;stroke-miterlimit:10;}
	.st14{fill:#FFFF00;}
	.st15{opacity:0.14;fill:#FFFF00;}
	.st16{fill:#F2F2F2;}
	.st17{fill:#00FFFF;}
	.st18{opacity:0.13;fill:#00FFFF;}
	.st19{fill:#CCCCCC;}
	.st20{opacity:0.28;fill:#ED1C24;}
	.st21{fill:#928C8A;}
	.st22{fill:#7D7974;}
	.st23{fill:#7A746D;}
	.st24{fill:#9B9592;}
	.st25{fill:#726F6B;}
	.st26{fill:#5D5D59;}
	.st27{fill:#898481;}
	.st28{fill:#A29F9F;}
	.st29{fill:#AFA9A7;}
	.st30{fill:#837E7B;}
	.st31{fill:#C3BDBD;}
	.st32{fill:#676662;}
	.st33{fill:#54524E;}
	.st34{fill:#706C66;}
	.st35{fill:#3E3C3A;}
	.st36{fill:#262829;}
	.st37{fill:#494844;}
	.st38{fill:#111416;}
	.st39{fill:#B2B1B1;}
	.st40{fill:#6D5633;}
	.st41{fill:#BCB5B3;}
	.st42{fill:#C09661;}
	.st43{fill:#050709;}
	.st44{fill:#C7C2C2;}
	.st45{fill:#D2CECE;}
	.st46{fill:#ECEDEE;}
	.st47{fill:#E0DEDD;}
	.st48{opacity:0.42;fill:#333333;}
	.st49{opacity:0.4;fill:#F2F2F2;}
	.st50{opacity:8.000000e-02;fill:#FF00FF;}
	.st51{opacity:0.21;fill:#B3B3B3;}
	.st52{fill:none;stroke:#999999;stroke-miterlimit:10;}
	.st53{opacity:0.15;fill:#FF0000;}
	.st54{fill:#FF0000;stroke:#FF0000;stroke-miterlimit:10;}
	.st55{fill:none;stroke:#FF0000;stroke-miterlimit:10;}
	.st56{fill:#FF0000;}
	.st57{fill:#E6E6E6;}
	.st58{opacity:0.15;fill:#CCCCCC;}
	.st59{opacity:0;}
</style>
<rect x="22.1" y="1.2" class="st0" width="168.5" height="1.3"/>
<rect x="22.1" y="0" class="st1" width="168.5" height="1.2"/>
<rect x="22.1" y="24.4" class="st0" width="168.5" height="1.3"/>
<rect x="22.1" y="21.1" class="st1" width="168.5" height="3.3"/>
<rect x="22.1" y="19.8" class="st0" width="168.5" height="1.3"/>
<rect x="22.1" y="16.5" class="st1" width="168.5" height="3.3"/>
<rect x="22.1" y="15.1" class="st0" width="168.5" height="1.3"/>
<rect x="22.1" y="11.8" class="st1" width="168.5" height="3.3"/>
<rect x="22.1" y="10.5" class="st0" width="168.5" height="1.3"/>
<rect x="22.1" y="7.2" class="st1" width="168.5" height="3.3"/>
<rect x="22.1" y="5.9" class="st0" width="168.5" height="1.3"/>
<rect x="22.1" y="2.5" class="st1" width="168.5" height="3.3"/>
<g>
	<polygon class="st5" points="50.1,137.5 50.1,137.5 50.1,137.5 50.1,211.9 50.1,211.9 	"/>
	<rect x="109.6" y="174.7" class="st5" width="0" height="37.2"/>
	<rect x="86.9" y="99.5" class="st5" width="0" height="69.4"/>
	<polygon class="st5" points="180.8,231.8 180.8,231.8 180.8,37.4 180.8,37.4 	"/>
	<polygon class="st5" points="41.9,225.1 32.8,231.8 32.8,231.8 41.9,225.1 	"/>
	<rect x="109.6" y="56.6" class="st5" width="0" height="37.2"/>
	<rect x="50.1" y="56.6" class="st5" width="0" height="74.4"/>
	<rect x="132.8" y="93.8" class="st5" width="0" height="37.2"/>
	<polygon class="st5" points="132.8,137.8 132.8,137.8 132.8,174.7 132.8,174.7 	"/>
	<rect x="109.6" y="420.3" class="st5" width="0" height="37.2"/>
	<rect x="86.9" y="345.2" class="st5" width="0" height="69.4"/>
	<rect x="109.6" y="302.3" class="st5" width="0" height="37.2"/>
	<rect x="132.8" y="339.5" class="st5" width="0" height="37.2"/>
	<polygon class="st5" points="180.8,477.5 180.8,283.1 180.8,283.1 180.8,477.4 	"/>
	<polygon class="st5" points="41.9,470.7 32.8,477.4 32.8,477.5 41.9,470.7 	"/>
	<polygon class="st5" points="132.8,383.5 132.8,383.5 132.8,420.3 132.8,420.3 	"/>
	<rect x="50.1" y="302.3" class="st5" width="0" height="74.4"/>
	<polygon class="st5" points="50.1,383.1 50.1,383.1 50.1,383.1 50.1,457.5 50.1,457.5 	"/>
	<path class="st0" d="M41.9,225.1h64.8h0h64.8h0l9.1,6.7V37.4H32.8v194.4L41.9,225.1L41.9,225.1z M86.9,168.9L86.9,168.9l0-69.4h0
		h39.7h0v69.4h0H86.9z M109.6,211.9L109.6,211.9L109.6,211.9L109.6,211.9l0-37.2h0h0l0,0l11.6,0h11.5v-36.9l-0.4-0.4l22.9,0h8.2h0
		v74.4h0h0l0,0L109.6,211.9z M109.6,56.6L109.6,56.6L109.6,56.6L109.6,56.6h53.9v0V131l-30.7,0.1l0.1-0.1h-0.1h0V93.8l-23.1,0l0,0h0
		h0V56.6z M50.1,56.6L50.1,56.6l53,0l0,0h0h0v37.2h0h0l0,0l-22.3,0V131h0h-0.1l0.1,0.1L50.1,131h0V56.6z M50.1,137.5L50.1,137.5h7.8
		l22.9,0l0,0h0.1h0v37.2h11.1l11.2,0l0,0h0h0v37.2h0H103l0,0l-53,0l0,0h0h0V137.5z"/>
	<polygon class="st1" points="106.8,231.8 32.8,231.8 32.8,256.3 106.8,256.3 180.8,256.3 180.8,231.8 180.8,231.8 	"/>
	<path class="st1" d="M190.2,61.4h-2.5c0-3.8-3.3-4.3-4.5-4.3h0c-0.3,0-0.5,0-0.5,0v-5.4h10.1V25.7H20v25.9H30v5.4c0,0-0.2,0-0.5,0
		l0,0c-1.3,0.1-4.5,0.6-4.5,4.3h-2.5v3.1H20v2.3v204.6h172.8v-207h-2.5V61.4z M180.8,231.8v24.5l-9.1,6.7h-64.9H41.9l-9.1-6.7v-24.5
		v0l0,0V37.4h0h147.9h0V231.8z"/>
	<polygon class="st1" points="32.8,37.4 32.8,231.8 32.8,231.8 32.8,37.4 	"/>
	<path class="st1" d="M51.2,129.9h28.4l1.1,1.1h0.1V93.8h0l1.1-1.1h20l1.1,1.1h0V56.6h0l-1.7,1.7H51.8l-1.7-1.7V131L51.2,129.9z
		 M99,60.8l-1.5,1.5H55.6l-1.5-1.5L99,60.8z M53.4,127.2h23.9l1,1l-25.7-0.1L53.4,127.2z"/>
	<rect x="103.1" y="56.6" class="st1" width="0" height="37.2"/>
	<rect x="80.8" y="93.8" class="st1" width="0" height="37.2"/>
	<polygon class="st1" points="88.8,165.9 124.5,165.9 124.5,167.1 126.6,168.9 126.6,99.6 124.5,101.4 124.5,102.5 88.8,102.5 
		88.8,101.4 86.9,99.5 86.9,168.9 88.8,167.1 	"/>
	<polygon class="st1" points="126.6,168.9 126.6,168.9 126.6,99.5 126.6,99.6 	"/>
	<path class="st1" d="M109.6,93.8l1.2-1.1h20.8l1.2,1.1l0,0V131h0.1l1.1-1.1h28.4l1.1,1.1V56.6l-1.8,1.7h-50.3l-1.8-1.7h0
		L109.6,93.8L109.6,93.8z M161,128.1l-25.7,0.1l1-1h23.9L161,128.1z M159,60.8l-1.5,1.5h-41.9l-1.5-1.5L159,60.8z"/>
	<polygon class="st1" points="163.5,131 163.5,131 163.5,56.6 163.5,56.6 	"/>
	<path class="st1" d="M51.2,138.6l-1.1-1.1v74.4h0l1.7-1.7h49.5l1.7,1.7h0.1v-37.2h0l-1.2,1.2h-20l-1.1-1.1l11.1,0H80.8h0v-37.2
		h-0.1l-1.1,1.1H51.2z M52.5,140.3l25.7-0.1l-1,1H53.4L52.5,140.3z M97.5,206.2l1.5,1.5l-44.9,0l1.5-1.5H97.5z"/>
	<polygon class="st1" points="57.8,137.5 50.1,137.5 50.1,137.5 	"/>
	<rect x="103.1" y="174.7" class="st1" width="0" height="37.2"/>
	<rect x="80.8" y="137.5" class="st1" width="0" height="37.2"/>
	<path class="st1" d="M161.7,210.1l1.8,1.7h0v-74.4h-8.2l7.8,0l-1.1,1.1h-28.4l-0.8-0.8v36.9h0h-11.5l11.5,0l-1.2,1.1h-20.7
		l-1.2-1.2h0v37.2h0l1.8-1.7H161.7z M160.6,140.3l-0.9,0.9h-23.9l-1-1L160.6,140.3z M115.6,206.2h41.9l1.5,1.5l-44.9,0L115.6,206.2z
		"/>
	<rect x="163.5" y="137.5" class="st1" width="0" height="74.4"/>
	<polygon class="st2" points="180.8,231.8 171.6,225.1 106.8,225.1 106.8,225.1 41.9,225.1 32.8,231.8 106.8,231.8 	"/>
	<polygon class="st2" points="180.8,231.8 180.8,231.8 180.8,231.8 	"/>
	<polygon class="st2" points="171.6,225.1 180.8,231.8 180.8,231.8 171.6,225.1 	"/>
	<polygon class="st0" points="32.8,256.3 41.9,263 106.8,263 171.6,263 180.8,256.3 106.8,256.3 	"/>
	<polygon class="st3" points="103.1,56.6 50.1,56.6 103.1,56.6 	"/>
	<polygon class="st3" points="101.3,58.3 103.1,56.6 50.1,56.6 51.8,58.3 	"/>
	<polygon class="st3" points="97.5,62.3 99,60.8 54.1,60.8 55.6,62.3 	"/>
	<polygon class="st3" points="163.5,56.6 163.5,56.6 163.5,56.6 109.6,56.6 109.6,56.6 163.5,56.6 	"/>
	<polygon class="st3" points="161.7,58.3 163.5,56.6 163.5,56.6 109.6,56.6 111.4,58.3 	"/>
	<polygon class="st3" points="163.5,56.6 163.5,56.6 163.5,56.6 163.5,56.6 	"/>
	<polygon class="st3" points="157.5,62.3 159,60.8 114.1,60.8 115.6,62.3 	"/>
	<polygon class="st2" points="80.7,131 80.7,131 50.1,131 	"/>
	<polygon class="st2" points="51.2,129.9 50.1,131 80.7,131 79.6,129.9 	"/>
	<polygon class="st2" points="77.3,127.2 53.4,127.2 52.5,128.1 78.3,128.2 	"/>
	<polygon class="st2" points="103.1,93.8 103.1,93.8 80.8,93.8 	"/>
	<polygon class="st2" points="81.9,92.6 80.8,93.8 103.1,93.8 101.9,92.6 	"/>
	<polygon class="st3" points="50.1,211.9 103.1,211.9 103,211.9 50.1,211.9 	"/>
	<polygon class="st3" points="51.8,210.1 50.1,211.9 103,211.9 101.3,210.1 	"/>
	<polygon class="st3" points="54.1,207.7 99,207.7 97.5,206.2 55.6,206.2 	"/>
	<polygon class="st2" points="80.7,137.4 57.8,137.5 80.7,137.5 	"/>
	<polygon class="st2" points="51.2,138.6 79.6,138.6 80.7,137.5 57.8,137.5 50.1,137.5 	"/>
	<polygon class="st2" points="78.3,140.3 52.5,140.3 53.4,141.2 77.3,141.2 	"/>
	<polygon class="st2" points="103.1,174.6 91.9,174.7 103.1,174.7 	"/>
	<polygon class="st2" points="81.9,175.8 101.9,175.8 103.1,174.7 91.9,174.7 80.8,174.7 	"/>
	<polygon class="st3" points="109.6,211.9 109.6,211.9 163.5,211.9 163.5,211.9 	"/>
	<polygon class="st3" points="161.7,210.1 111.4,210.1 109.6,211.9 163.5,211.9 	"/>
	<polygon class="st3" points="157.5,206.2 115.6,206.2 114.1,207.7 159,207.7 	"/>
	<polygon class="st2" points="132.8,137.5 132.8,137.5 132.8,137.8 132.8,137.8 	"/>
	<polygon class="st2" points="132.8,137.5 155.3,137.5 132.4,137.4 132.8,137.8 132.8,137.5 	"/>
	<polygon class="st2" points="132.8,137.8 133.5,138.6 162,138.6 163,137.5 155.3,137.5 132.8,137.5 	"/>
	<polygon class="st2" points="159.7,141.2 160.6,140.3 134.8,140.3 135.8,141.2 	"/>
	<polygon class="st2" points="109.6,174.6 109.6,174.7 121.2,174.7 	"/>
	<polygon class="st2" points="131.6,175.8 132.7,174.7 121.2,174.7 109.6,174.7 110.8,175.8 	"/>
	<polygon class="st2" points="132.9,131 132.8,131 163.5,131 163.5,131 	"/>
	<polygon class="st2" points="163.5,131 162.4,129.9 134,129.9 132.9,131 163.5,131 	"/>
	<polygon class="st2" points="163.5,131 163.5,131 163.5,131 	"/>
	<polygon class="st2" points="135.3,128.2 161,128.1 160.1,127.2 136.2,127.2 	"/>
	<polygon class="st2" points="109.6,93.8 109.6,93.8 132.8,93.8 132.8,93.8 	"/>
	<polygon class="st2" points="132.8,93.8 132.8,93.8 132.8,93.8 131.6,92.6 110.8,92.6 109.6,93.8 132.8,93.8 	"/>
	<polygon class="st3" points="126.6,168.9 124.5,167.1 88.8,167.1 86.9,168.9 126.6,168.9 	"/>
	<polygon class="st3" points="126.6,168.9 126.6,168.9 126.6,168.9 	"/>
	<polygon class="st2" points="124.5,101.4 126.6,99.6 126.6,99.5 86.9,99.5 88.8,101.4 	"/>
	<polygon class="st2" points="126.6,99.5 126.6,99.5 126.6,99.6 	"/>
	<rect x="88.8" y="165.9" class="st2" width="35.8" height="1.2"/>
	<rect x="88.8" y="101.4" class="st3" width="35.8" height="1.2"/>
	<path class="st0" d="M41.9,470.7L41.9,470.7h64.9h0h64.8h0l9.1,6.7V283.1H32.8v194.4L41.9,470.7z M86.9,414.6L86.9,414.6l0-69.4h0
		h39.7h0v69.4h0H86.9z M109.6,457.6L109.6,457.6L109.6,457.6L109.6,457.6l0-37.2h0h0l0,0l11.6,0h11.5v-36.9l-0.4-0.4l22.9,0h8.2h0
		v74.4h0h0l0,0L109.6,457.6z M109.6,302.3L109.6,302.3L109.6,302.3L109.6,302.3l53.9,0v0l0,0v74.4l-30.7,0.1l0.1-0.1h-0.1h0v-37.2h0
		l-23.1,0l0,0h0h0V302.3z M50.1,302.3L50.1,302.3l53,0l0,0h0h0v37.2h0h0l0,0l-22.3,0v37.2h0h-0.1l0.1,0.1l-30.7-0.1h0V302.3z
		 M50.1,383.1L50.1,383.1h7.7l22.9,0l0,0h0.1h0v37.2h11.1l11.2,0l0,0h0h0v37.2h0H103l0,0l-53,0l0,0h0h0V383.1z"/>
	<polygon class="st1" points="106.8,477.5 32.8,477.5 32.8,501.9 106.8,501.9 180.8,501.9 180.8,477.5 180.8,477.5 	"/>
	<path class="st1" d="M20,520.3h172.8V274.6H20V520.3z M32.8,283.1h147.9h0v194.4v24.5l-9.1,6.7h-64.9H41.9l-9.1-6.7v-24.5v0l0,0
		L32.8,283.1L32.8,283.1z"/>
	<rect x="20" y="271.4" class="st1" width="172.8" height="3.2"/>
	<polygon class="st1" points="32.8,477.4 32.8,283.1 32.8,283.1 32.8,477.5 	"/>
	<path class="st1" d="M51.2,375.6h28.4l1.1,1.1h0.1v-37.2h0l1.1-1.1h20l1.1,1.1h0v-37.2h0l-1.7,1.7H51.8l-1.7-1.7v74.4L51.2,375.6z
		 M99,306.4l-1.5,1.5H55.6l-1.5-1.5L99,306.4z M53.4,372.9h23.9l1,1l-25.7-0.1L53.4,372.9z"/>
	<rect x="80.8" y="339.5" class="st1" width="0" height="37.2"/>
	<rect x="103.1" y="302.3" class="st1" width="0" height="37.2"/>
	<polygon class="st1" points="88.8,411.6 124.5,411.6 124.5,412.7 126.6,414.6 126.6,345.2 124.5,347 124.5,348.2 88.8,348.2 
		88.8,347 86.9,345.2 86.9,414.6 88.8,412.7 	"/>
	<polygon class="st1" points="126.6,414.6 126.6,414.6 126.6,345.2 126.6,345.2 	"/>
	<path class="st1" d="M109.6,339.5l1.2-1.1h20.8l1.2,1.1l0,0h0h0v37.2h0.1l1.1-1.1h28.4l1.1,1.1v-74.4l-1.8,1.7h-50.3l-1.8-1.7h0
		L109.6,339.5L109.6,339.5z M161,373.8l-25.7,0.1l1-1h23.9L161,373.8z M159,306.5l-1.5,1.5h-41.9l-1.5-1.5L159,306.5z"/>
	<polygon class="st1" points="163.5,376.6 163.5,376.7 163.5,302.3 163.5,302.3 163.5,302.3 	"/>
	<polygon class="st1" points="57.8,383.1 50.1,383.1 50.1,383.1 	"/>
	<path class="st1" d="M51.2,384.2l-1.1-1.1v74.4h0l1.7-1.7h49.5l1.7,1.7h0.1v-37.2h0l-1.2,1.2h-20l-1.1-1.1l11.1,0H80.8h0v-37.2
		h-0.1l-1.1,1.1H51.2z M52.5,386l25.7-0.1l-1,1H53.4L52.5,386z M97.5,451.9l1.5,1.5l-44.9,0l1.5-1.5H97.5z"/>
	<rect x="103.1" y="420.3" class="st1" width="0" height="37.2"/>
	<rect x="80.8" y="383.1" class="st1" width="0" height="37.2"/>
	<path class="st1" d="M161.7,455.8l1.8,1.7h0v-74.4h-8.2l7.7,0l-1.1,1.1h-28.4l-0.8-0.8v36.9h0h-11.5l11.5,0l-1.2,1.1h-20.7
		l-1.2-1.2h0v37.2h0l1.8-1.7H161.7z M160.6,386l-0.9,0.9h-23.9l-1-1L160.6,386z M115.6,451.9h41.9l1.5,1.5l-44.9,0L115.6,451.9z"/>
	<rect x="163.5" y="383.1" class="st1" width="0" height="74.4"/>
	<polygon class="st2" points="180.8,477.5 171.6,470.7 106.8,470.7 106.8,470.7 41.9,470.7 32.8,477.5 106.8,477.5 	"/>
	<polygon class="st2" points="180.8,477.5 180.8,477.5 180.8,477.4 	"/>
	<polygon class="st2" points="180.8,477.4 171.6,470.7 171.6,470.7 180.8,477.5 	"/>
	<polygon class="st0" points="32.8,501.9 41.9,508.7 106.8,508.7 171.6,508.7 180.8,501.9 106.8,501.9 	"/>
	<polygon class="st3" points="103.1,302.2 50.1,302.3 103.1,302.3 	"/>
	<polygon class="st3" points="101.3,304 103.1,302.3 50.1,302.3 51.8,304 	"/>
	<polygon class="st3" points="97.5,307.9 99,306.4 54.1,306.5 55.6,307.9 	"/>
	<polygon class="st3" points="163.5,302.3 163.5,302.3 109.6,302.2 109.6,302.3 163.5,302.3 	"/>
	<polygon class="st3" points="161.7,304 163.5,302.3 163.5,302.3 109.6,302.3 111.4,304 	"/>
	<polygon class="st3" points="163.5,302.3 163.5,302.3 163.5,302.3 	"/>
	<polygon class="st3" points="157.5,307.9 159,306.5 114.1,306.4 115.6,307.9 	"/>
	<polygon class="st2" points="80.7,376.7 80.7,376.7 50.1,376.7 	"/>
	<polygon class="st2" points="51.2,375.6 50.1,376.7 80.7,376.7 79.6,375.6 	"/>
	<polygon class="st2" points="77.3,372.9 53.4,372.9 52.5,373.8 78.3,373.9 	"/>
	<polygon class="st2" points="103.1,339.5 103.1,339.5 80.8,339.5 	"/>
	<polygon class="st2" points="81.9,338.3 80.8,339.5 103.1,339.5 101.9,338.3 	"/>
	<polygon class="st3" points="50.1,457.5 103.1,457.6 103,457.5 50.1,457.5 	"/>
	<polygon class="st3" points="51.8,455.8 50.1,457.5 103,457.5 101.3,455.8 	"/>
	<polygon class="st3" points="54.1,453.3 99,453.4 97.5,451.9 55.6,451.9 	"/>
	<polygon class="st2" points="80.7,383.1 57.8,383.1 80.7,383.1 	"/>
	<polygon class="st2" points="51.2,384.2 79.6,384.2 80.7,383.1 57.8,383.1 50.1,383.1 	"/>
	<polygon class="st2" points="78.3,385.9 52.5,386 53.4,386.9 77.3,386.9 	"/>
	<polygon class="st2" points="103.1,420.3 91.9,420.3 103.1,420.3 	"/>
	<polygon class="st2" points="81.9,421.5 101.9,421.5 103.1,420.3 91.9,420.3 80.8,420.3 	"/>
	<polygon class="st3" points="109.6,457.5 109.6,457.6 163.5,457.5 163.5,457.5 	"/>
	<polygon class="st3" points="161.7,455.8 111.4,455.8 109.6,457.5 163.5,457.5 	"/>
	<polygon class="st3" points="157.5,451.9 115.6,451.9 114.1,453.4 159,453.3 	"/>
	<polygon class="st2" points="132.8,383.1 132.8,383.1 132.8,383.5 132.8,383.5 	"/>
	<polygon class="st2" points="132.8,383.1 155.3,383.1 132.4,383.1 132.8,383.5 132.8,383.1 	"/>
	<polygon class="st2" points="132.8,383.5 133.5,384.2 162,384.2 163,383.1 155.3,383.1 132.8,383.1 	"/>
	<polygon class="st2" points="159.7,386.9 160.6,386 134.8,385.9 135.8,386.9 	"/>
	<polygon class="st2" points="109.6,420.3 109.6,420.3 121.2,420.3 	"/>
	<polygon class="st2" points="131.6,421.5 132.7,420.3 121.2,420.3 109.6,420.3 110.8,421.5 	"/>
	<polygon class="st2" points="132.9,376.7 132.8,376.7 163.5,376.7 163.5,376.7 	"/>
	<polygon class="st2" points="163.5,376.6 162.4,375.6 134,375.6 132.9,376.7 163.5,376.7 	"/>
	<polygon class="st2" points="163.5,376.7 163.5,376.7 163.5,376.6 	"/>
	<polygon class="st2" points="135.3,373.9 161,373.8 160.1,372.9 136.2,372.9 	"/>
	<polygon class="st2" points="109.6,339.5 132.7,339.5 109.6,339.5 	"/>
	<polygon class="st2" points="131.6,338.3 110.8,338.3 109.6,339.5 132.7,339.5 132.8,339.5 	"/>
	<polygon class="st3" points="126.6,414.6 124.5,412.7 88.8,412.7 86.9,414.6 126.6,414.6 	"/>
	<polygon class="st3" points="126.6,414.6 126.6,414.6 126.6,414.6 	"/>
	<polygon class="st2" points="124.5,347 126.6,345.2 126.6,345.2 86.9,345.2 88.8,347 	"/>
	<polygon class="st2" points="126.6,345.2 126.6,345.2 126.6,345.2 	"/>
	<rect x="88.8" y="411.6" class="st2" width="35.8" height="1.2"/>
	<rect x="88.8" y="347" class="st3" width="35.8" height="1.2"/>
	<polygon class="st1" points="212.7,17.9 212.7,15.3 188.4,15.3 188.4,15.3 188.4,17.9 190.6,17.9 	"/>
	<polygon class="st1" points="212.7,23.1 212.7,20.5 190.6,20.5 190.6,23.1 192.8,23.1 	"/>
	<polygon class="st2" points="212.7,25.7 212.7,23.1 192.8,23.1 190.6,23.1 190.6,25.7 192.8,25.7 192.8,25.7 	"/>
	<path class="st2" d="M212.7,15.3V10h-26.1c0,0,0,0.1,0,0.1c0,3.1,0,5.2,0,5.2h1.8h0H212.7z"/>
	<polygon class="st2" points="212.7,70.1 196,70.1 196,201.9 196,434 196,520.3 212.7,520.3 212.7,70.1 	"/>
	<polygon class="st2" points="195,201.9 195,69.1 212.7,69.1 212.7,69.1 212.7,66.8 192.8,66.8 192.8,520.3 195,520.3 195,434 	"/>
	<rect x="192.8" y="64.4" class="st1" width="20" height="2.3"/>
	<path class="st1" d="M212.7,6.5h-30c0,0,3.8,0.5,4,3.5h26.1V6.5z"/>
	<rect x="182.7" class="st2" width="30" height="6.5"/>
	<polygon class="st2" points="212.7,61.4 192.8,61.4 192.8,64.4 192.8,64.4 212.7,64.4 	"/>
	<rect x="190.2" y="61.4" class="st2" width="2.5" height="3.1"/>
	<polygon class="st2" points="212.7,17.9 190.6,17.9 188.4,17.9 188.4,20.5 190.6,20.5 212.7,20.5 	"/>
	<polygon class="st5" points="197.1,29.2 197.1,51.7 203,40.4 	"/>
	<polygon class="st4" points="212.5,29.2 212.5,29.2 212.5,29.2 209.7,29.2 197.1,29.2 197.1,29.2 203,40.4 212.5,40.4 212.5,40.4 
		212.7,40.4 212.7,29.2 212.5,29.2 	"/>
	<polygon class="st0" points="212.5,40.4 212.5,40.4 203,40.4 197.1,51.7 197.1,51.7 209.7,51.7 212.5,51.7 212.5,51.7 212.5,51.7 
		212.5,51.7 212.7,51.7 212.7,40.4 	"/>
	<path class="st2" d="M212.2,57.1c0,0,0.1,0,0.2,0c0,0,0,0,0.1,0c0,0,0,0,0.1,0c0.1,0,0.2,0,0.2,0v-5.4h-0.3l0,0h-2.8h-12.6l0,0
		h-4.3l0,0v5.4H212.2z"/>
	<path class="st2" d="M182.7,57.1c0,0,0.2,0,0.5,0h0h9.6v-5.4h-10.1V57.1z"/>
	<path class="st2" d="M212.4,57C212.4,57,212.5,57,212.4,57C212.5,57,212.4,57,212.4,57z"/>
	<path class="st2" d="M212.7,57.1c0,0-0.1,0-0.2,0C212.6,57,212.7,57.1,212.7,57.1z"/>
	<path class="st2" d="M212.5,57C212.5,57,212.5,57,212.5,57C212.5,57,212.5,57,212.5,57z"/>
	<path class="st2" d="M212.2,57.1c0.1,0,0.1,0,0.2,0C212.3,57.1,212.2,57.1,212.2,57.1z"/>
	<path class="st2" d="M212.5,57C212.5,57,212.4,57,212.5,57c-0.1,0-0.2,0-0.3,0h0.5C212.7,57.1,212.6,57,212.5,57
		C212.5,57,212.5,57,212.5,57z"/>
	<polygon class="st2" points="197.1,51.7 197.1,29.2 197.1,29.2 197.1,29.2 209.7,29.2 212.5,29.2 212.5,29.2 212.7,29.2 
		212.7,25.7 192.8,25.7 192.8,51.7 197.1,51.7 	"/>
	<rect x="192.8" y="25.7" class="st2" width="20" height="0"/>
	<polygon class="st0" points="196,201.9 196,70.1 212.7,70.1 212.7,70.1 212.7,69.1 212.7,69.1 195,69.1 195,201.9 195,434 
		195,520.3 196,520.3 196,434 	"/>
	<polygon class="st1" points="192.8,57.1 192.8,61.4 212.7,61.4 212.7,57.1 212.2,57.1 	"/>
	<path class="st1" d="M183.2,57.1c1.3,0.1,4.5,0.6,4.5,4.3h2.5h2.5v-4.3H183.2z"/>
	<polygon class="st1" points="0,17.9 22.1,17.9 24.3,17.9 24.3,15.3 0,15.3 	"/>
	<polygon class="st1" points="0,23.1 20,23.1 22.1,23.1 22.1,20.5 0,20.5 	"/>
	<polygon class="st2" points="0,23.1 0,25.7 20,25.7 20,25.7 20,25.7 22.1,25.7 22.1,23.1 20,23.1 	"/>
	<path class="st2" d="M0,15.3h24.3h0h1.8c0,0,0-2.2,0-5.2c0,0,0-0.1,0-0.1H0V15.3z"/>
	<polygon class="st2" points="17.2,201.9 17.2,70.1 0.5,70.1 0,70.1 0,520.3 17.2,520.3 17.2,434 	"/>
	<polygon class="st2" points="20,271.4 20,66.8 0,66.8 0,69.1 0.5,69.1 18.2,69.1 18.2,201.9 18.2,434 18.2,520.3 20,520.3 
		20,274.6 	"/>
	<rect y="64.4" class="st1" width="20" height="2.3"/>
	<path class="st1" d="M0,10h26.1c0.1-2.9,4-3.5,4-3.5H0V10z"/>
	<rect class="st2" width="30" height="6.5"/>
	<rect y="61.4" class="st2" width="20" height="3.1"/>
	<polygon class="st2" points="20,64.4 20,64.4 22.5,64.4 22.5,61.4 20,61.4 	"/>
	<polygon class="st2" points="0,17.9 0,20.5 22.1,20.5 24.3,20.5 24.3,17.9 22.1,17.9 	"/>
	<polygon class="st5" points="15.6,51.7 15.6,51.7 9.7,40.4 15.6,29.2 15.6,29.2 9.7,40.4 	"/>
	<polygon class="st4" points="0.3,40.4 0.3,40.4 9.7,40.4 15.6,29.2 15.6,29.2 15.6,29.2 3,29.2 3,29.2 0.3,29.2 0.3,29.2 0.3,29.2 
		0.3,29.2 0.3,29.2 0,29.2 0,40.4 	"/>
	<polygon class="st0" points="0.3,51.7 0.3,51.7 0.3,51.7 3,51.7 15.6,51.7 15.6,51.7 15.6,51.7 9.7,40.4 0.3,40.4 0.3,40.4 0,40.4 
		0,51.7 0.3,51.7 	"/>
	<polygon class="st1" points="15.6,51.7 15.6,29.2 9.7,40.4 	"/>
	<polygon class="st1" points="197.1,51.7 197.1,29.2 203,40.4 	"/>
	<path class="st2" d="M15.6,51.7H3H0.3h0H0v5.4c0,0,0.1,0,0.2,0c0,0,0,0,0.1,0s0,0,0.1,0c0.1,0,0.2,0,0.2,0H20v-5.4H15.6L15.6,51.7z
		"/>
	<path class="st2" d="M29.5,57.1c0.3,0,0.5,0,0.5,0v-5.4H20v5.4H29.5z"/>
	<path class="st2" d="M0.3,57c0.1,0,0.1,0,0.2,0C0.5,57.1,0.4,57.1,0.3,57z"/>
	<path class="st2" d="M0.2,57C0.2,57,0.2,57,0.2,57C0.2,57,0.2,57,0.2,57z"/>
	<path class="st2" d="M0,57.1c0.1,0,0.1,0,0.2,0C0.1,57.1,0,57.1,0,57.1z"/>
	<path class="st2" d="M0.3,57C0.3,57,0.3,57,0.3,57C0.3,57,0.3,57,0.3,57z"/>
	<path class="st2" d="M0.3,57C0.3,57,0.3,57,0.3,57c-0.1,0-0.1,0-0.1,0c-0.1,0-0.1,0-0.2,0h0.5C0.4,57.1,0.4,57,0.3,57z"/>
	<polygon class="st2" points="0,29.2 0.3,29.2 0.3,29.2 0.3,29.2 3,29.2 3,29.2 15.6,29.2 15.6,29.2 15.6,29.2 15.6,29.2 15.6,29.2 
		15.6,29.2 15.6,51.7 15.6,51.7 15.6,51.7 15.6,51.7 15.6,51.7 20,51.7 20,25.7 20,25.7 0,25.7 	"/>
	<rect y="25.7" class="st2" width="20" height="0"/>
	<polygon class="st0" points="18.2,201.9 18.2,69.1 0.5,69.1 0,69.1 0,70.1 0.5,70.1 17.2,70.1 17.2,201.9 17.2,434 17.2,520.3 
		18.2,520.3 18.2,434 	"/>
	<polygon class="st1" points="20,57.1 0.5,57.1 0,57.1 0,61.4 20,61.4 	"/>
	<path class="st1" d="M20,61.4h2.5H25c0-3.8,3.3-4.3,4.5-4.3l0,0H20V61.4z"/>
</g>
</svg>
